<svg width="37" height="37" viewBox="0 0 37 37" fill="none" xmlns="http://www.w3.org/2000/svg">
<path d="M22.4474 26.1151L14.8347 18.5L22.4486 10.8849L20.8125 9.25L11.5625 18.5L20.8125 27.75L22.4474 26.1151Z" fill="black"/>
<path d="M18.5 2.3125C27.4262 2.3125 34.6875 9.57375 34.6875 18.5C34.6875 27.4262 27.4263 34.6875 18.5 34.6875C9.57375 34.6875 2.3125 27.4262 2.3125 18.5C2.3125 9.57375 9.57375 2.3125 18.5 2.3125ZM18.5 32.375C26.1509 32.375 32.375 26.1509 32.375 18.5C32.375 10.8491 26.1509 4.625 18.5 4.625C10.8491 4.625 4.625 10.8491 4.625 18.5C4.625 26.1509 10.8491 32.375 18.5 32.375Z" fill="black"/>
</svg>
