<svg width="40" height="31" viewBox="0 0 40 31" fill="none" xmlns="http://www.w3.org/2000/svg">
<path d="M40 5H35V0H30V5H25V10H30V15H35V10H40V5Z" fill="black"/>
<path d="M33.745 15.92C34.465 16.72 35.12 17.5825 35.7 18.4975C34.2097 20.8598 32.2164 22.8641 29.8625 24.3675C26.9176 26.2491 23.4959 27.2489 20.0012 27.2489C16.5066 27.2489 13.0849 26.2491 10.14 24.3675C7.78771 22.862 5.7949 20.8581 4.3025 18.4975C5.89098 15.9803 8.04905 13.8719 10.6025 12.3425C10.1034 13.7145 9.91075 15.1792 10.0381 16.6337C10.1655 18.0881 10.6099 19.497 11.3399 20.7614C12.0699 22.0258 13.068 23.1149 14.2639 23.9524C15.4598 24.7899 16.8246 25.3553 18.2624 25.609C19.7002 25.8627 21.1761 25.7985 22.5865 25.4208C23.9968 25.0432 25.3073 24.3614 26.426 23.4232C27.5446 22.485 28.4443 21.3132 29.0617 19.9902C29.6792 18.6672 29.9994 17.225 30 15.765V15.685C27.8773 15.1357 25.9939 13.9043 24.6393 12.1803C23.2847 10.4562 22.5339 8.33486 22.5025 6.1425C21.6717 6.04823 20.8362 6.00065 20 6C11.2775 6 3.715 11.08 0 18.5C3.715 25.92 11.2775 31 20 31C28.7225 31 36.285 25.92 40 18.5C39.3147 17.1319 38.4948 15.8355 37.5525 14.63C36.3847 15.3159 35.089 15.7533 33.745 15.92ZM16.25 10.9975C16.7426 10.9977 17.2304 11.0949 17.6854 11.2835C18.1405 11.4722 18.5539 11.7486 18.9022 12.0971C19.2504 12.4456 19.5266 12.8592 19.7149 13.3144C19.9033 13.7695 20.0002 14.2574 20 14.75C19.9998 15.2426 19.9026 15.7304 19.714 16.1854C19.5253 16.6405 19.2489 17.0539 18.9004 17.4022C18.5519 17.7504 18.1383 18.0266 17.6831 18.2149C17.228 18.4033 16.7401 18.5002 16.2475 18.5C15.2526 18.4997 14.2986 18.1041 13.5953 17.4004C12.8921 16.6967 12.4972 15.7424 12.4975 14.7475C12.4978 13.7526 12.8934 12.7986 13.5971 12.0953C14.3008 11.3921 15.2551 10.9972 16.25 10.9975Z" fill="black"/>
</svg>
