<svg width="58" height="58" viewBox="0 0 58 58" fill="none" xmlns="http://www.w3.org/2000/svg">
<path d="M17.4 14.4507C16.6309 14.4507 15.8932 14.7563 15.3494 15.3001C14.8055 15.844 14.5 16.5816 14.5 17.3507C14.5 18.1199 14.8055 18.8575 15.3494 19.4014C15.8932 19.9452 16.6309 20.2507 17.4 20.2507H40.6C41.3691 20.2507 42.1068 19.9452 42.6506 19.4014C43.1945 18.8575 43.5 18.1199 43.5 17.3507C43.5 16.5816 43.1945 15.844 42.6506 15.3001C42.1068 14.7563 41.3691 14.4507 40.6 14.4507H17.4ZM14.5 29C14.5 28.2309 14.8055 27.4933 15.3494 26.9494C15.8932 26.4056 16.6309 26.1 17.4 26.1H40.6C41.3691 26.1 42.1068 26.4056 42.6506 26.9494C43.1945 27.4933 43.5 28.2309 43.5 29C43.5 29.7692 43.1945 30.5068 42.6506 31.0507C42.1068 31.5945 41.3691 31.9 40.6 31.9H17.4C16.6309 31.9 15.8932 31.5945 15.3494 31.0507C14.8055 30.5068 14.5 29.7692 14.5 29ZM17.4 37.7493C16.6309 37.7493 15.8932 38.0549 15.3494 38.5987C14.8055 39.1426 14.5 39.8802 14.5 40.6493C14.5 41.4185 14.8055 42.1561 15.3494 42.7C15.8932 43.2438 16.6309 43.5493 17.4 43.5493H40.6C41.3691 43.5493 42.1068 43.2438 42.6506 42.7C43.1945 42.1561 43.5 41.4185 43.5 40.6493C43.5 39.8802 43.1945 39.1426 42.6506 38.5987C42.1068 38.0549 41.3691 37.7493 40.6 37.7493H17.4Z" fill="black"/>
<path fill-rule="evenodd" clip-rule="evenodd" d="M58 29C58 45.0167 45.0167 58 29 58C12.9833 58 0 45.0167 0 29C0 12.9833 12.9833 0 29 0C45.0167 0 58 12.9833 58 29ZM52.2 29C52.2 35.153 49.7557 41.054 45.4049 45.4049C41.054 49.7557 35.153 52.2 29 52.2C22.847 52.2 16.946 49.7557 12.5951 45.4049C8.24428 41.054 5.8 35.153 5.8 29C5.8 22.847 8.24428 16.946 12.5951 12.5951C16.946 8.24428 22.847 5.8 29 5.8C35.153 5.8 41.054 8.24428 45.4049 12.5951C49.7557 16.946 52.2 22.847 52.2 29Z" fill="black"/>
</svg>
