<svg width="37" height="37" viewBox="0 0 37 37" fill="none" xmlns="http://www.w3.org/2000/svg">
<path d="M14.5526 26.1151L22.1653 18.5L14.5514 10.8849L16.1875 9.25L25.4375 18.5L16.1875 27.75L14.5526 26.1151Z" fill="black"/>
<path d="M18.5 2.3125C9.57375 2.3125 2.3125 9.57375 2.3125 18.5C2.3125 27.4262 9.57375 34.6875 18.5 34.6875C27.4262 34.6875 34.6875 27.4262 34.6875 18.5C34.6875 9.57375 27.4263 2.3125 18.5 2.3125ZM18.5 32.375C10.8491 32.375 4.625 26.1509 4.625 18.5C4.625 10.8491 10.8491 4.625 18.5 4.625C26.1509 4.625 32.375 10.8491 32.375 18.5C32.375 26.1509 26.1509 32.375 18.5 32.375Z" fill="black"/>
</svg>
