<svg width="61" height="20" viewBox="0 0 61 20" fill="none" xmlns="http://www.w3.org/2000/svg">
<path d="M12.5235 18H0.667531V14.664H2.87553V4.536H0.667531V1.2H11.9475V0.0239997H15.2835V7.752H11.9475V4.536C11.9475 4.52 11.9395 4.512 11.9235 4.512C11.9235 4.496 11.9155 4.488 11.8995 4.488H6.23553V8.016H7.72353C7.73953 8.016 7.74753 8.016 7.74753 8.016C7.76353 8 7.77153 7.992 7.77153 7.992V6.96H10.2195V12.216H7.77153V11.208C7.77153 11.208 7.76353 11.208 7.74753 11.208C7.74753 11.192 7.73953 11.184 7.72353 11.184H6.23553V14.736H12.4035C12.4195 14.736 12.4275 14.736 12.4275 14.736C12.4275 14.72 12.4275 14.712 12.4275 14.712C12.4435 14.712 12.4515 14.704 12.4515 14.688V11.424H15.8595V19.344H12.5235V18ZM23.911 1.2C25.815 1.2 27.487 1.552 28.927 2.256C30.383 2.944 31.503 3.928 32.287 5.208C33.071 6.472 33.463 7.936 33.463 9.6C33.463 11.264 33.071 12.736 32.287 14.016C31.503 15.28 30.383 16.264 28.927 16.968C27.487 17.656 25.815 18 23.911 18H17.191V14.664H19.399V4.536H17.191V1.2H23.911ZM24.175 14.664C25.343 14.664 26.343 14.464 27.175 14.064C28.007 13.648 28.639 13.064 29.071 12.312C29.519 11.544 29.743 10.64 29.743 9.6C29.743 8.56 29.519 7.664 29.071 6.912C28.639 6.144 28.007 5.56 27.175 5.16C26.343 4.744 25.343 4.536 24.175 4.536H22.903V14.664H24.175ZM34.6988 14.664H36.9068V4.536H34.6988V1.2H42.6188V4.536H40.4108V14.664H42.6188V18H34.6988V14.664ZM46.9097 14.664H50.3657V4.488H47.1737C47.1577 4.488 47.1497 4.496 47.1497 4.512C47.1497 4.512 47.1417 4.512 47.1257 4.512C47.1257 4.512 47.1257 4.52 47.1257 4.536V8.016H43.7897V0.0239997H47.1257V1.2H57.1337V0.0239997H60.4697V8.016H57.1337V4.536C57.1337 4.52 57.1257 4.512 57.1097 4.512C57.1097 4.496 57.1017 4.488 57.0857 4.488H53.8697V14.664H57.3257V18H46.9097V14.664Z" fill="black"/>
</svg>
