<svg width="82" height="20" viewBox="0 0 82 20" fill="none" xmlns="http://www.w3.org/2000/svg">
<path d="M11.1998 18H-0.00824998V14.664H2.19975V4.536H-0.00824998V1.2H8.89575V4.536H5.70375V14.664H11.1518C11.1678 14.664 11.1758 14.664 11.1758 14.664C11.1758 14.648 11.1758 14.64 11.1758 14.64C11.1918 14.64 11.1998 14.632 11.1998 14.616V10.248H14.7038V19.344H11.1998V18ZM24.5481 18.36C22.8841 18.36 21.3801 17.984 20.0361 17.232C18.6921 16.48 17.6361 15.44 16.8681 14.112C16.1161 12.768 15.7401 11.264 15.7401 9.6C15.7401 7.936 16.1161 6.44 16.8681 5.112C17.6361 3.768 18.6921 2.72 20.0361 1.968C21.3801 1.216 22.8841 0.839999 24.5481 0.839999C26.2121 0.839999 27.7161 1.216 29.0601 1.968C30.4041 2.72 31.4521 3.768 32.2041 5.112C32.9721 6.44 33.3561 7.936 33.3561 9.6C33.3561 11.264 32.9721 12.768 32.2041 14.112C31.4521 15.44 30.4041 16.48 29.0601 17.232C27.7161 17.984 26.2121 18.36 24.5481 18.36ZM24.5481 14.784C25.5241 14.784 26.3881 14.568 27.1401 14.136C27.9081 13.688 28.5081 13.072 28.9401 12.288C29.3721 11.488 29.5881 10.592 29.5881 9.6C29.5881 8.608 29.3721 7.72 28.9401 6.936C28.5081 6.136 27.9081 5.52 27.1401 5.088C26.3881 4.64 25.5241 4.416 24.5481 4.416C23.5721 4.416 22.7001 4.64 21.9321 5.088C21.1801 5.52 20.5881 6.136 20.1561 6.936C19.7241 7.72 19.5081 8.608 19.5081 9.6C19.5081 10.592 19.7241 11.488 20.1561 12.288C20.5881 13.072 21.1801 13.688 21.9321 14.136C22.7001 14.568 23.5721 14.784 24.5481 14.784ZM46.9455 16.656C46.9455 16.624 46.9295 16.608 46.8975 16.608C46.8655 16.592 46.8415 16.592 46.8255 16.608C46.6815 16.768 46.5215 16.92 46.3455 17.064C46.1695 17.208 45.9855 17.344 45.7935 17.472C45.3295 17.76 44.8015 17.976 44.2095 18.12C43.6335 18.28 43.0015 18.36 42.3135 18.36C40.8895 18.36 39.5775 17.992 38.3775 17.256C37.1935 16.504 36.2495 15.464 35.5455 14.136C34.8575 12.808 34.5135 11.296 34.5135 9.6C34.5135 7.904 34.8655 6.392 35.5695 5.064C36.2735 3.736 37.2335 2.704 38.4495 1.968C39.6655 1.216 41.0095 0.839999 42.4815 0.839999C43.3775 0.839999 44.1695 0.975999 44.8575 1.248C45.6255 1.552 46.2655 1.976 46.7775 2.52V0.623999H50.1135V7.2H46.8255V6.912C46.7455 6.464 46.5215 6.048 46.1535 5.664C45.7855 5.264 45.3215 4.952 44.7615 4.728C44.2015 4.488 43.5855 4.368 42.9135 4.368C42.0175 4.368 41.2095 4.592 40.4895 5.04C39.7855 5.488 39.2335 6.112 38.8335 6.912C38.4335 7.696 38.2335 8.592 38.2335 9.6C38.2335 10.624 38.4335 11.552 38.8335 12.384C39.2335 13.2 39.7855 13.84 40.4895 14.304C41.1935 14.768 41.9855 15 42.8655 15C43.5535 15 44.1855 14.872 44.7615 14.616C45.3535 14.36 45.8335 14.032 46.2015 13.632C46.5695 13.216 46.7935 12.768 46.8735 12.288V11.616H43.1295V8.76H52.2735V11.928H50.5695V18.12H46.9455V16.656ZM53.148 14.664H55.356V4.536H53.148V1.2H61.068V4.536H58.86V14.664H61.068V18H53.148V14.664ZM67.9269 6.24V14.664H70.5429V18H62.3589V14.664H64.5669V4.56L64.5429 4.536H62.3109V1.2H68.7669L75.8469 12.12V4.536H73.6149V1.2H81.1509V4.536H79.2069V18.192H75.6789L67.9269 6.24Z" fill="black"/>
</svg>
