<svg width="239" height="45" viewBox="0 0 239 45" fill="none" xmlns="http://www.w3.org/2000/svg">
<path d="M60.0024 38C59.8624 38 59.5624 37.98 59.1024 37.94C58.6424 37.88 58.1024 37.81 57.4824 37.73C56.8824 37.65 56.2724 37.57 55.6524 37.49C55.0324 37.39 54.4824 37.3 54.0024 37.22C53.5424 37.14 53.2224 37.07 53.0424 37.01C53.0424 36.81 53.0724 36.62 53.1324 36.44C53.1924 36.26 53.2524 36.13 53.3124 36.05L54.1824 35.93C54.5624 35.87 54.8524 35.74 55.0524 35.54C55.2524 35.34 55.3924 35.03 55.4724 34.61C55.5724 34.19 55.6224 33.63 55.6224 32.93V21.05C55.6224 20.15 55.7024 19.55 55.8624 19.25C56.0424 18.93 56.1424 18.75 56.1624 18.71H53.3724C53.3324 18.65 53.2724 18.55 53.1924 18.41C53.1124 18.25 53.0624 18.06 53.0424 17.84C53.1624 17.7 53.3424 17.56 53.5824 17.42C53.8224 17.26 54.0724 17.13 54.3324 17.03C54.5924 16.93 54.7724 16.88 54.8724 16.88H62.1324C62.2124 16.98 62.2924 17.15 62.3724 17.39C62.4724 17.61 62.5224 17.88 62.5224 18.2L61.2324 18.59C60.9124 18.67 60.6424 18.79 60.4224 18.95C60.2224 19.11 60.0624 19.36 59.9424 19.7C59.8424 20.02 59.7924 20.51 59.7924 21.17V33.71C59.7924 34.21 59.7324 34.64 59.6124 35C59.4924 35.34 59.3724 35.58 59.2524 35.72L62.1624 36.08C62.2024 36.14 62.2424 36.26 62.2824 36.44C62.3424 36.62 62.3724 36.81 62.3724 37.01C62.0724 37.27 61.6924 37.5 61.2324 37.7C60.7924 37.9 60.3824 38 60.0024 38ZM71.1399 38C70.9599 38 70.6099 37.97 70.0899 37.91C69.5899 37.83 69.0199 37.74 68.3799 37.64C67.7599 37.54 67.1599 37.43 66.5799 37.31C65.9999 37.19 65.5499 37.09 65.2299 37.01C65.2299 36.81 65.2599 36.62 65.3199 36.44C65.3799 36.26 65.4399 36.13 65.4999 36.05L66.3399 35.93C66.7199 35.87 66.9999 35.72 67.1799 35.48C67.3799 35.22 67.5199 34.85 67.5999 34.37C67.6799 33.89 67.7199 33.28 67.7199 32.54V21.02C67.7199 20.34 67.7799 19.81 67.8999 19.43C68.0199 19.03 68.1299 18.79 68.2299 18.71H65.5599C65.4999 18.63 65.4299 18.51 65.3499 18.35C65.2899 18.19 65.2499 18.02 65.2299 17.84C65.3299 17.7 65.4999 17.56 65.7399 17.42C65.9999 17.28 66.2599 17.16 66.5199 17.06C66.7799 16.94 66.9599 16.88 67.0599 16.88H72.6999L82.4799 32.93C82.3999 32.51 82.3299 32.01 82.2699 31.43C82.2299 30.85 82.2099 30.01 82.2099 28.91V21.11C82.2099 20.41 82.2699 19.86 82.3899 19.46C82.5099 19.06 82.6299 18.82 82.7499 18.74H79.7499C79.7099 18.66 79.6499 18.55 79.5699 18.41C79.4899 18.25 79.4399 18.06 79.4199 17.84C79.5199 17.72 79.6899 17.59 79.9299 17.45C80.1899 17.29 80.4399 17.16 80.6799 17.06C80.9399 16.94 81.1299 16.88 81.2499 16.88H86.7999C86.9199 17 87.0199 17.18 87.0999 17.42C87.1799 17.66 87.2199 17.92 87.2199 18.2L86.0499 18.56C85.6499 18.66 85.3399 18.8 85.1199 18.98C84.9199 19.14 84.7799 19.4 84.6999 19.76C84.6199 20.12 84.5799 20.65 84.5799 21.35V32.45C84.5799 33.61 84.6099 34.59 84.6699 35.39C84.7499 36.19 84.8299 36.72 84.9099 36.98C84.6299 37.22 84.2299 37.42 83.7099 37.58C83.1899 37.72 82.6599 37.82 82.1199 37.88C81.5799 37.94 81.1199 37.98 80.7399 38L71.7999 23.3C71.3199 22.52 70.9599 21.86 70.7199 21.32C70.4999 20.76 70.3799 20.37 70.3599 20.15H70.1799C70.1599 20.25 70.1399 20.46 70.1199 20.78C70.0999 21.1 70.0899 21.57 70.0899 22.19V33.62C70.0899 34.06 70.0299 34.47 69.9099 34.85C69.8099 35.23 69.6999 35.5 69.5799 35.66L73.5399 36.08C73.5599 36.14 73.5999 36.26 73.6599 36.44C73.7199 36.6 73.7499 36.79 73.7499 37.01C73.5499 37.19 73.2799 37.36 72.9399 37.52C72.6199 37.66 72.2899 37.78 71.9499 37.88C71.6299 37.96 71.3599 38 71.1399 38ZM99.0542 38C98.2942 38 97.5042 37.88 96.6842 37.64C95.8842 37.38 95.1242 37.07 94.4042 36.71C93.6842 36.35 93.0542 35.99 92.5142 35.63C91.9942 35.27 91.6442 34.99 91.4642 34.79C91.0042 34.17 90.6542 33.28 90.4142 32.12C90.1942 30.94 90.0842 29.68 90.0842 28.34C90.0842 27.18 90.1442 26.04 90.2642 24.92C90.3842 23.78 90.5342 22.76 90.7142 21.86C90.9142 20.96 91.1042 20.3 91.2842 19.88C91.7642 19.44 92.3842 19.02 93.1442 18.62C93.9042 18.2 94.7242 17.83 95.6042 17.51C96.5042 17.17 97.3742 16.9 98.2142 16.7C99.0542 16.5 99.7842 16.4 100.404 16.4C101.144 16.4 101.934 16.49 102.774 16.67C103.634 16.85 104.444 17.1 105.204 17.42C105.984 17.72 106.614 18.07 107.094 18.47C107.074 19.71 106.974 20.82 106.794 21.8C106.634 22.76 106.474 23.52 106.314 24.08C105.754 24.06 105.254 24.01 104.814 23.93C104.394 23.85 104.094 23.78 103.914 23.72L102.924 19.73C102.724 19.61 102.444 19.49 102.084 19.37C101.724 19.25 101.364 19.15 101.004 19.07C100.644 18.99 100.334 18.95 100.074 18.95C99.6542 18.95 99.1442 18.99 98.5442 19.07C97.9642 19.13 97.3842 19.23 96.8042 19.37C96.2442 19.49 95.7842 19.63 95.4242 19.79C95.2842 20.15 95.1542 20.61 95.0342 21.17C94.9142 21.73 94.8042 22.34 94.7042 23C94.6242 23.64 94.5642 24.3 94.5242 24.98C94.4842 25.66 94.4642 26.3 94.4642 26.9C94.4642 27.74 94.5042 28.59 94.5842 29.45C94.6642 30.29 94.7742 31.07 94.9142 31.79C95.0542 32.49 95.2142 33.05 95.3942 33.47C95.5342 33.63 95.7742 33.81 96.1142 34.01C96.4542 34.21 96.8542 34.41 97.3142 34.61C97.7942 34.81 98.2642 34.98 98.7242 35.12C99.1842 35.26 99.5942 35.33 99.9542 35.33C100.394 35.33 100.854 35.3 101.334 35.24C101.814 35.18 102.264 35.11 102.684 35.03C103.124 34.93 103.484 34.84 103.764 34.76V31.79C103.764 31.27 103.794 30.79 103.854 30.35C103.934 29.89 104.004 29.56 104.064 29.36H99.8342C99.8342 29 99.8842 28.62 99.9842 28.22C100.104 27.8 100.204 27.49 100.284 27.29C101.084 27.29 101.944 27.27 102.864 27.23C103.784 27.19 104.674 27.14 105.534 27.08C106.394 27.02 107.124 26.96 107.724 26.9L108.084 27.26C107.964 27.72 107.834 28.45 107.694 29.45C107.574 30.43 107.514 31.55 107.514 32.81V36.08C107.194 36.26 106.724 36.46 106.104 36.68C105.504 36.9 104.804 37.12 104.004 37.34C103.204 37.54 102.374 37.7 101.514 37.82C100.674 37.94 99.8542 38 99.0542 38ZM118.684 38C118.544 38 118.244 37.98 117.784 37.94C117.324 37.88 116.784 37.81 116.164 37.73C115.564 37.65 114.954 37.57 114.334 37.49C113.714 37.39 113.164 37.3 112.684 37.22C112.224 37.14 111.904 37.07 111.724 37.01C111.724 36.81 111.754 36.62 111.814 36.44C111.874 36.26 111.934 36.13 111.994 36.05L112.864 35.93C113.244 35.87 113.534 35.74 113.734 35.54C113.934 35.34 114.074 35.03 114.154 34.61C114.254 34.19 114.304 33.63 114.304 32.93V21.08C114.304 20.48 114.344 20.02 114.424 19.7C114.504 19.36 114.584 19.12 114.664 18.98C114.764 18.82 114.824 18.73 114.844 18.71H112.054C111.994 18.65 111.924 18.53 111.844 18.35C111.784 18.17 111.744 18 111.724 17.84C111.824 17.7 111.994 17.56 112.234 17.42C112.494 17.28 112.754 17.16 113.014 17.06C113.274 16.94 113.454 16.88 113.554 16.88H124.624C125.064 16.98 125.544 17.15 126.064 17.39C126.584 17.63 127.074 17.89 127.534 18.17C127.994 18.43 128.344 18.7 128.584 18.98C128.804 19.36 128.954 19.81 129.034 20.33C129.134 20.85 129.184 21.4 129.184 21.98C129.184 22.7 129.134 23.33 129.034 23.87C128.934 24.39 128.794 24.84 128.614 25.22C128.454 25.58 128.274 25.88 128.074 26.12C127.874 26.36 127.574 26.6 127.174 26.84C126.794 27.08 126.374 27.31 125.914 27.53C125.474 27.73 125.044 27.9 124.624 28.04V28.19C125.024 28.39 125.344 28.65 125.584 28.97C125.844 29.27 126.114 29.73 126.394 30.35L127.564 32.87C127.904 33.57 128.224 34.12 128.524 34.52C128.824 34.92 129.134 35.21 129.454 35.39C129.794 35.57 130.164 35.67 130.564 35.69H131.374C131.454 35.77 131.534 35.92 131.614 36.14C131.714 36.36 131.764 36.61 131.764 36.89C131.424 37.13 131.034 37.34 130.594 37.52C130.154 37.68 129.724 37.8 129.304 37.88C128.884 37.96 128.514 38 128.194 38C127.054 38 126.144 37.7 125.464 37.1C124.784 36.48 124.244 35.64 123.844 34.58L121.954 29.72C121.814 29.36 121.634 29.09 121.414 28.91C121.194 28.71 120.884 28.61 120.484 28.61H118.474V33.71C118.474 34.21 118.414 34.64 118.294 35C118.174 35.34 118.054 35.58 117.934 35.72L121.054 36.08C121.094 36.16 121.144 36.28 121.204 36.44C121.264 36.6 121.294 36.79 121.294 37.01C121.014 37.25 120.604 37.48 120.064 37.7C119.524 37.9 119.064 38 118.684 38ZM118.474 26.63C119.214 26.61 119.944 26.6 120.664 26.6C121.384 26.58 122.054 26.55 122.674 26.51C123.314 26.45 123.874 26.39 124.354 26.33C124.594 25.97 124.794 25.47 124.954 24.83C125.114 24.17 125.194 23.4 125.194 22.52C125.194 21.84 125.124 21.22 124.984 20.66C124.864 20.08 124.654 19.62 124.354 19.28C124.034 19.18 123.604 19.1 123.064 19.04C122.524 18.96 121.994 18.9 121.474 18.86C120.974 18.82 120.594 18.8 120.334 18.8C119.614 18.8 119.124 19 118.864 19.4C118.604 19.8 118.474 20.34 118.474 21.02V26.63ZM148.346 38C147.906 38 147.286 37.99 146.486 37.97C145.706 37.93 144.826 37.89 143.846 37.85C142.866 37.79 141.856 37.73 140.816 37.67C139.776 37.61 138.766 37.55 137.786 37.49C136.806 37.41 135.926 37.33 135.146 37.25C134.366 37.17 133.756 37.09 133.316 37.01C133.316 36.81 133.346 36.62 133.406 36.44C133.466 36.24 133.526 36.1 133.586 36.02L134.456 35.93C134.836 35.87 135.126 35.74 135.326 35.54C135.526 35.34 135.666 35.03 135.746 34.61C135.846 34.19 135.896 33.63 135.896 32.93V21.08C135.896 20.48 135.936 20.02 136.016 19.7C136.096 19.36 136.176 19.12 136.256 18.98C136.356 18.82 136.416 18.73 136.436 18.71H133.646C133.586 18.65 133.516 18.54 133.436 18.38C133.376 18.2 133.336 18.02 133.316 17.84C133.436 17.7 133.616 17.56 133.856 17.42C134.096 17.26 134.346 17.13 134.606 17.03C134.866 16.93 135.046 16.88 135.146 16.88H148.436C148.856 17.04 149.286 17.28 149.726 17.6C150.186 17.92 150.546 18.25 150.806 18.59C150.726 19.85 150.586 20.96 150.386 21.92C150.206 22.88 150.036 23.59 149.876 24.05C149.456 24.05 149.056 24.01 148.676 23.93C148.296 23.85 147.986 23.76 147.746 23.66L146.966 19.34C146.706 19.24 146.326 19.16 145.826 19.1C145.346 19.02 144.766 18.95 144.086 18.89C143.406 18.83 142.656 18.8 141.836 18.8C141.336 18.8 140.956 18.91 140.696 19.13C140.436 19.33 140.266 19.6 140.186 19.94C140.106 20.28 140.066 20.66 140.066 21.08V26.18C140.886 26.16 141.636 26.14 142.316 26.12C143.016 26.08 143.676 26.03 144.296 25.97C144.916 25.91 145.526 25.85 146.126 25.79L146.516 26.21C146.476 26.65 146.426 27.04 146.366 27.38C146.306 27.72 146.236 27.98 146.156 28.16H140.066V33.71C140.066 34.19 140.006 34.61 139.886 34.97C139.766 35.31 139.646 35.56 139.526 35.72H146.816L148.796 30.38C149.276 30.38 149.726 30.45 150.146 30.59C150.566 30.71 150.846 30.82 150.986 30.92C150.986 31.6 150.956 32.3 150.896 33.02C150.856 33.74 150.796 34.42 150.716 35.06C150.656 35.7 150.586 36.23 150.506 36.65C150.366 36.81 150.146 37 149.846 37.22C149.566 37.42 149.286 37.6 149.006 37.76C148.726 37.92 148.506 38 148.346 38ZM161.679 38C161.119 38 160.489 37.91 159.789 37.73C159.089 37.53 158.379 37.29 157.659 37.01C156.959 36.71 156.329 36.39 155.769 36.05C155.229 35.71 154.819 35.39 154.539 35.09C154.559 34.53 154.619 33.92 154.719 33.26C154.819 32.6 154.939 31.98 155.079 31.4C155.239 30.8 155.379 30.34 155.499 30.02C155.939 30.02 156.349 30.07 156.729 30.17C157.109 30.27 157.389 30.35 157.569 30.41L158.589 34.34C158.929 34.5 159.339 34.66 159.819 34.82C160.319 34.96 160.829 35.07 161.349 35.15C161.889 35.23 162.359 35.27 162.759 35.27C163.079 35.27 163.439 35.25 163.839 35.21C164.239 35.15 164.629 35.08 165.009 35C165.409 34.9 165.729 34.8 165.969 34.7C166.089 34.38 166.189 33.99 166.269 33.53C166.349 33.07 166.389 32.6 166.389 32.12C166.389 31.86 166.379 31.57 166.359 31.25C166.339 30.93 166.299 30.66 166.239 30.44C165.659 30.22 164.939 29.98 164.079 29.72C163.219 29.44 162.309 29.15 161.349 28.85C160.409 28.53 159.509 28.21 158.649 27.89C157.789 27.57 157.059 27.26 156.459 26.96C155.859 26.64 155.489 26.34 155.349 26.06C155.189 25.76 155.079 25.39 155.019 24.95C154.979 24.49 154.959 24.04 154.959 23.6C154.959 22.78 155.029 21.96 155.169 21.14C155.329 20.3 155.509 19.68 155.709 19.28C156.109 18.98 156.619 18.67 157.239 18.35C157.859 18.01 158.529 17.7 159.249 17.42C159.969 17.12 160.669 16.88 161.349 16.7C162.049 16.5 162.649 16.4 163.149 16.4C163.949 16.4 164.779 16.49 165.639 16.67C166.499 16.85 167.299 17.08 168.039 17.36C168.779 17.64 169.369 17.95 169.809 18.29C169.789 18.69 169.749 19.15 169.689 19.67C169.629 20.17 169.549 20.69 169.449 21.23C169.369 21.75 169.269 22.23 169.149 22.67C169.049 23.11 168.959 23.45 168.879 23.69C168.399 23.69 167.949 23.64 167.529 23.54C167.129 23.44 166.829 23.36 166.629 23.3L165.909 19.52C165.689 19.44 165.399 19.36 165.039 19.28C164.699 19.2 164.329 19.14 163.929 19.1C163.549 19.04 163.189 19.01 162.849 19.01C162.469 19.01 162.069 19.03 161.649 19.07C161.229 19.11 160.819 19.17 160.419 19.25C160.039 19.33 159.699 19.42 159.399 19.52C159.279 19.84 159.189 20.25 159.129 20.75C159.089 21.25 159.069 21.73 159.069 22.19C159.069 22.49 159.079 22.79 159.099 23.09C159.119 23.37 159.149 23.6 159.189 23.78C159.669 23.96 160.319 24.18 161.139 24.44C161.979 24.68 162.889 24.95 163.869 25.25C164.849 25.55 165.789 25.87 166.689 26.21C167.589 26.53 168.359 26.86 168.999 27.2C169.639 27.54 170.039 27.87 170.199 28.19C170.319 28.51 170.389 28.84 170.409 29.18C170.449 29.5 170.469 29.88 170.469 30.32C170.469 31.5 170.389 32.49 170.229 33.29C170.069 34.07 169.869 34.73 169.629 35.27C169.409 35.49 169.019 35.76 168.459 36.08C167.919 36.38 167.259 36.68 166.479 36.98C165.719 37.26 164.919 37.5 164.079 37.7C163.239 37.9 162.439 38 161.679 38ZM179.333 38C179.213 38 178.953 37.98 178.553 37.94C178.173 37.88 177.703 37.82 177.143 37.76C176.603 37.68 176.043 37.6 175.463 37.52C174.883 37.42 174.333 37.32 173.813 37.22C173.313 37.12 172.923 37.03 172.643 36.95C172.643 36.73 172.673 36.53 172.733 36.35C172.813 36.17 172.883 36.05 172.943 35.99L173.393 35.9C173.613 35.86 173.843 35.79 174.083 35.69C174.323 35.59 174.573 35.37 174.833 35.03C175.113 34.67 175.403 34.14 175.703 33.44C176.003 32.72 176.333 31.73 176.693 30.47L179.993 18.74C180.153 18.56 180.423 18.34 180.803 18.08C181.183 17.82 181.603 17.56 182.063 17.3C182.543 17.04 182.993 16.83 183.413 16.67C183.853 16.49 184.183 16.4 184.403 16.4C184.683 16.4 185.073 16.49 185.573 16.67C186.093 16.83 186.613 17.05 187.133 17.33C187.673 17.59 188.113 17.87 188.453 18.17L192.323 35.09C192.383 35.33 192.473 35.51 192.593 35.63C192.733 35.73 192.933 35.79 193.193 35.81L195.023 36.05C195.083 36.13 195.143 36.22 195.203 36.32C195.263 36.42 195.293 36.63 195.293 36.95C195.133 37.11 194.903 37.27 194.603 37.43C194.303 37.59 193.983 37.73 193.643 37.85C193.303 37.95 193.013 38 192.773 38C192.633 38 192.323 37.97 191.843 37.91C191.363 37.85 190.803 37.78 190.163 37.7C189.523 37.6 188.873 37.5 188.213 37.4C187.573 37.28 186.993 37.17 186.473 37.07C185.973 36.97 185.633 36.89 185.453 36.83C185.453 36.59 185.493 36.39 185.573 36.23C185.673 36.05 185.733 35.94 185.753 35.9L186.683 35.87C186.963 35.85 187.213 35.8 187.433 35.72C187.653 35.64 187.813 35.46 187.913 35.18C188.013 34.9 187.993 34.47 187.853 33.89L186.863 29.51H179.663L178.523 33.65C178.423 34.01 178.283 34.35 178.103 34.67C177.943 34.97 177.763 35.22 177.563 35.42C177.383 35.6 177.213 35.71 177.053 35.75L181.553 36.08C181.573 36.14 181.623 36.25 181.703 36.41C181.783 36.57 181.823 36.76 181.823 36.98C181.683 37.14 181.453 37.3 181.133 37.46C180.833 37.62 180.513 37.75 180.173 37.85C179.833 37.95 179.553 38 179.333 38ZM180.173 27.53C181.193 27.51 182.113 27.49 182.933 27.47C183.753 27.43 184.453 27.39 185.033 27.35C185.613 27.29 186.053 27.23 186.353 27.17L184.763 20C184.383 19.72 183.993 19.5 183.593 19.34C183.213 19.16 182.823 19.04 182.423 18.98L180.173 27.53ZM204.026 38C203.886 38 203.586 37.98 203.126 37.94C202.666 37.88 202.126 37.81 201.506 37.73C200.906 37.65 200.296 37.57 199.676 37.49C199.056 37.39 198.506 37.3 198.026 37.22C197.566 37.14 197.246 37.07 197.066 37.01C197.066 36.81 197.096 36.62 197.156 36.44C197.216 36.26 197.276 36.13 197.336 36.05L198.206 35.93C198.586 35.87 198.876 35.74 199.076 35.54C199.276 35.34 199.416 35.03 199.496 34.61C199.596 34.19 199.646 33.63 199.646 32.93V21.08C199.646 20.48 199.686 20.02 199.766 19.7C199.846 19.36 199.926 19.12 200.006 18.98C200.106 18.82 200.166 18.73 200.186 18.71H197.396C197.336 18.65 197.266 18.53 197.186 18.35C197.126 18.17 197.086 18 197.066 17.84C197.166 17.7 197.336 17.56 197.576 17.42C197.836 17.28 198.096 17.16 198.356 17.06C198.616 16.94 198.796 16.88 198.896 16.88H209.966C210.406 16.98 210.886 17.15 211.406 17.39C211.926 17.63 212.416 17.89 212.876 18.17C213.336 18.43 213.686 18.7 213.926 18.98C214.146 19.36 214.296 19.81 214.376 20.33C214.476 20.85 214.526 21.4 214.526 21.98C214.526 22.7 214.476 23.33 214.376 23.87C214.276 24.39 214.136 24.84 213.956 25.22C213.796 25.58 213.616 25.88 213.416 26.12C213.216 26.36 212.916 26.6 212.516 26.84C212.136 27.08 211.716 27.31 211.256 27.53C210.816 27.73 210.386 27.9 209.966 28.04V28.19C210.366 28.39 210.686 28.65 210.926 28.97C211.186 29.27 211.456 29.73 211.736 30.35L212.906 32.87C213.246 33.57 213.566 34.12 213.866 34.52C214.166 34.92 214.476 35.21 214.796 35.39C215.136 35.57 215.506 35.67 215.906 35.69H216.716C216.796 35.77 216.876 35.92 216.956 36.14C217.056 36.36 217.106 36.61 217.106 36.89C216.766 37.13 216.376 37.34 215.936 37.52C215.496 37.68 215.066 37.8 214.646 37.88C214.226 37.96 213.856 38 213.536 38C212.396 38 211.486 37.7 210.806 37.1C210.126 36.48 209.586 35.64 209.186 34.58L207.296 29.72C207.156 29.36 206.976 29.09 206.756 28.91C206.536 28.71 206.226 28.61 205.826 28.61H203.816V33.71C203.816 34.21 203.756 34.64 203.636 35C203.516 35.34 203.396 35.58 203.276 35.72L206.396 36.08C206.436 36.16 206.486 36.28 206.546 36.44C206.606 36.6 206.636 36.79 206.636 37.01C206.356 37.25 205.946 37.48 205.406 37.7C204.866 37.9 204.406 38 204.026 38ZM203.816 26.63C204.556 26.61 205.286 26.6 206.006 26.6C206.726 26.58 207.396 26.55 208.016 26.51C208.656 26.45 209.216 26.39 209.696 26.33C209.936 25.97 210.136 25.47 210.296 24.83C210.456 24.17 210.536 23.4 210.536 22.52C210.536 21.84 210.466 21.22 210.326 20.66C210.206 20.08 209.996 19.62 209.696 19.28C209.376 19.18 208.946 19.1 208.406 19.04C207.866 18.96 207.336 18.9 206.816 18.86C206.316 18.82 205.936 18.8 205.676 18.8C204.956 18.8 204.466 19 204.206 19.4C203.946 19.8 203.816 20.34 203.816 21.02V26.63Z" fill="black"/>
<path d="M0 21L0 39H3.33333V31.5L15.3333 31.5L12.6667 33.9L15 36L21.6667 30L15 24L12.6667 26.1L15.3333 28.5L3.33333 28.5L3.33333 21H0ZM8.33333 18C8.33333 17.175 8.65944 16.469 9.31167 15.882C9.96389 15.295 10.7489 15.001 11.6667 15L26.6667 15C27.5833 15 28.3678 15.294 29.02 15.882C29.6722 16.47 29.9989 17.176 30 18L30 42C30 42.825 29.6733 43.5315 29.02 44.1195C28.3667 44.7075 27.5822 45.001 26.6667 45H11.6667C10.75 45 9.965 44.7065 9.31167 44.1195C8.65833 43.5325 8.33222 42.826 8.33333 42L8.33333 34.5H11.6667L11.6667 42H26.6667L26.6667 18L11.6667 18L11.6667 25.5L8.33333 25.5L8.33333 18Z" fill="black"/>
</svg>
