<svg width="128" height="20" viewBox="0 0 128 20" fill="none" xmlns="http://www.w3.org/2000/svg">
<path d="M0.140188 14.664H2.34819V4.536H0.140188V1.2H9.28419C11.1562 1.2 12.6362 1.64 13.7242 2.52C14.8122 3.4 15.3562 4.6 15.3562 6.12C15.3562 7.24 15.0602 8.192 14.4682 8.976C13.8762 9.76 13.0522 10.32 11.9962 10.656L15.2842 14.664H17.0122V18H9.21219V14.664H10.8682L8.25219 11.376H5.85219V14.664H7.55619V18H0.140188V14.664ZM8.92419 8.712C9.74019 8.712 10.3882 8.52 10.8682 8.136C11.3642 7.736 11.6122 7.208 11.6122 6.552C11.6122 5.896 11.3642 5.368 10.8682 4.968C10.3882 4.568 9.74019 4.368 8.92419 4.368H5.85219V8.712H8.92419ZM29.0353 18H17.1793V14.664H19.3873V4.536H17.1793V1.2H28.4593V0.0239997H31.7953V7.752H28.4593V4.536C28.4593 4.52 28.4513 4.512 28.4353 4.512C28.4353 4.496 28.4273 4.488 28.4113 4.488H22.7473V8.016H24.2353C24.2513 8.016 24.2593 8.016 24.2593 8.016C24.2753 8 24.2833 7.992 24.2833 7.992V6.96H26.7313V12.216H24.2833V11.208C24.2833 11.208 24.2753 11.208 24.2593 11.208C24.2593 11.192 24.2513 11.184 24.2353 11.184H22.7473V14.736H28.9153C28.9313 14.736 28.9393 14.736 28.9393 14.736C28.9393 14.72 28.9393 14.712 28.9393 14.712C28.9553 14.712 28.9633 14.704 28.9633 14.688V11.424H32.3713V19.344H29.0353V18ZM45.8518 16.656C45.8518 16.624 45.8358 16.608 45.8038 16.608C45.7718 16.592 45.7478 16.592 45.7318 16.608C45.5877 16.768 45.4278 16.92 45.2518 17.064C45.0758 17.208 44.8918 17.344 44.6998 17.472C44.2358 17.76 43.7078 17.976 43.1158 18.12C42.5398 18.28 41.9078 18.36 41.2198 18.36C39.7958 18.36 38.4838 17.992 37.2838 17.256C36.0998 16.504 35.1558 15.464 34.4518 14.136C33.7638 12.808 33.4198 11.296 33.4198 9.6C33.4198 7.904 33.7718 6.392 34.4758 5.064C35.1798 3.736 36.1398 2.704 37.3558 1.968C38.5718 1.216 39.9158 0.839999 41.3878 0.839999C42.2838 0.839999 43.0758 0.975999 43.7638 1.248C44.5318 1.552 45.1718 1.976 45.6838 2.52V0.623999H49.0198V7.2H45.7318V6.912C45.6518 6.464 45.4278 6.048 45.0598 5.664C44.6918 5.264 44.2278 4.952 43.6678 4.728C43.1078 4.488 42.4918 4.368 41.8198 4.368C40.9238 4.368 40.1158 4.592 39.3958 5.04C38.6918 5.488 38.1398 6.112 37.7398 6.912C37.3398 7.696 37.1398 8.592 37.1398 9.6C37.1398 10.624 37.3398 11.552 37.7398 12.384C38.1398 13.2 38.6918 13.84 39.3958 14.304C40.0998 14.768 40.8918 15 41.7718 15C42.4598 15 43.0918 14.872 43.6678 14.616C44.2598 14.36 44.7398 14.032 45.1078 13.632C45.4758 13.216 45.6998 12.768 45.7798 12.288V11.616H42.0358V8.76H51.1798V11.928H49.4758V18.12H45.8518V16.656ZM52.0543 14.664H54.2623V4.536H52.0543V1.2H59.9743V4.536H57.7663V14.664H59.9743V18H52.0543V14.664ZM61.2652 11.592H64.6732V11.88C64.7532 12.488 65.0172 13.048 65.4652 13.56C65.9292 14.072 66.5212 14.488 67.2412 14.808C67.9612 15.112 68.7212 15.264 69.5212 15.264C70.0492 15.264 70.5132 15.2 70.9132 15.072C71.3292 14.944 71.6572 14.752 71.8972 14.496C72.1372 14.224 72.2572 13.912 72.2572 13.56C72.2572 13.16 72.0972 12.832 71.7772 12.576C71.4572 12.304 71.0332 12.08 70.5052 11.904C69.9772 11.712 69.2092 11.48 68.2012 11.208C68.1052 11.176 68.0012 11.144 67.8892 11.112C67.7772 11.08 67.6732 11.056 67.5772 11.04C67.5612 11.04 67.5452 11.04 67.5292 11.04C67.5292 11.024 67.5212 11.016 67.5052 11.016C66.4172 10.712 65.4572 10.376 64.6252 10.008C63.7932 9.64 63.0652 9.096 62.4412 8.376C61.8332 7.64 61.5292 6.696 61.5292 5.544C61.5292 4.536 61.7852 3.68 62.2972 2.976C62.8092 2.256 63.5052 1.72 64.3852 1.368C65.2652 1.016 66.2332 0.839999 67.2892 0.839999C67.9132 0.839999 68.5052 0.903999 69.0652 1.032C69.6252 1.144 70.1532 1.312 70.6492 1.536C70.9212 1.68 71.1852 1.84 71.4412 2.016C71.7132 2.176 71.9612 2.368 72.1852 2.592V0.887999H75.4972V7.296H72.2332V7.056C72.1532 6.576 71.8892 6.096 71.4412 5.616C71.0092 5.12 70.4492 4.72 69.7612 4.416C69.0892 4.096 68.3612 3.936 67.5772 3.936C66.8572 3.936 66.2732 4.088 65.8252 4.392C65.3932 4.696 65.1772 5.136 65.1772 5.712C65.1772 6.128 65.3372 6.48 65.6572 6.768C65.9772 7.04 66.3772 7.264 66.8572 7.44C67.3532 7.616 68.0732 7.824 69.0172 8.064C69.1132 8.096 69.2012 8.12 69.2812 8.136C69.3772 8.152 69.4732 8.176 69.5692 8.208L69.9052 8.304C71.1852 8.656 72.2252 9 73.0252 9.336C73.8252 9.672 74.5132 10.176 75.0892 10.848C75.6652 11.52 75.9532 12.4 75.9532 13.488C75.9532 14.544 75.6812 15.44 75.1372 16.176C74.5932 16.896 73.8572 17.44 72.9292 17.808C72.0172 18.176 71.0012 18.36 69.8812 18.36C69.1932 18.36 68.5372 18.288 67.9132 18.144C67.2892 18 66.7132 17.8 66.1852 17.544C65.8812 17.384 65.5932 17.208 65.3212 17.016C65.0492 16.808 64.8012 16.584 64.5772 16.344V18.144H61.2652V11.592ZM79.8746 14.664H83.3306V4.488H80.1386C80.1226 4.488 80.1146 4.496 80.1146 4.512C80.1146 4.512 80.1066 4.512 80.0906 4.512C80.0906 4.512 80.0906 4.52 80.0906 4.536V8.016H76.7546V0.0239997H80.0906V1.2H90.0986V0.0239997H93.4346V8.016H90.0986V4.536C90.0986 4.52 90.0906 4.512 90.0746 4.512C90.0746 4.496 90.0666 4.488 90.0506 4.488H86.8346V14.664H90.2906V18H79.8746V14.664ZM106.449 18H94.5933V14.664H96.8013V4.536H94.5933V1.2H105.873V0.0239997H109.209V7.752H105.873V4.536C105.873 4.52 105.865 4.512 105.849 4.512C105.849 4.496 105.841 4.488 105.825 4.488H100.161V8.016H101.649C101.665 8.016 101.673 8.016 101.673 8.016C101.689 8 101.697 7.992 101.697 7.992V6.96H104.145V12.216H101.697V11.208C101.697 11.208 101.689 11.208 101.673 11.208C101.673 11.192 101.665 11.184 101.649 11.184H100.161V14.736H106.329C106.345 14.736 106.353 14.736 106.353 14.736C106.353 14.72 106.353 14.712 106.353 14.712C106.369 14.712 106.377 14.704 106.377 14.688V11.424H109.785V19.344H106.449V18ZM111.117 14.664H113.325V4.536H111.117V1.2H120.261C122.133 1.2 123.613 1.64 124.701 2.52C125.789 3.4 126.333 4.6 126.333 6.12C126.333 7.24 126.037 8.192 125.445 8.976C124.853 9.76 124.029 10.32 122.973 10.656L126.261 14.664H127.989V18H120.189V14.664H121.845L119.229 11.376H116.829V14.664H118.533V18H111.117V14.664ZM119.901 8.712C120.717 8.712 121.365 8.52 121.845 8.136C122.341 7.736 122.589 7.208 122.589 6.552C122.589 5.896 122.341 5.368 121.845 4.968C121.365 4.568 120.717 4.368 119.901 4.368H116.829V8.712H119.901Z" fill="black"/>
</svg>
