<svg width="54" height="17" viewBox="0 0 54 17" fill="none" xmlns="http://www.w3.org/2000/svg">
<path d="M0.451344 13.664H2.44334L6.37934 3.56L6.35534 3.536H4.00334V0.199999H12.6193L17.4673 13.664H19.5313V17H11.2273V13.664H13.5553L12.7633 11.456H6.78734L5.94734 13.664H8.51534V17H0.451344V13.664ZM11.8273 8.672L10.0513 3.728H9.64334L7.77134 8.672H11.8273ZM26.325 0.199999C28.229 0.199999 29.901 0.551999 31.341 1.256C32.797 1.944 33.917 2.928 34.701 4.208C35.485 5.472 35.877 6.936 35.877 8.6C35.877 10.264 35.485 11.736 34.701 13.016C33.917 14.28 32.797 15.264 31.341 15.968C29.901 16.656 28.229 17 26.325 17H19.605V13.664H21.813V3.536H19.605V0.199999H26.325ZM26.589 13.664C27.757 13.664 28.757 13.464 29.589 13.064C30.421 12.648 31.053 12.064 31.485 11.312C31.933 10.544 32.157 9.64 32.157 8.6C32.157 7.56 31.933 6.664 31.485 5.912C31.053 5.144 30.421 4.56 29.589 4.16C28.757 3.744 27.757 3.536 26.589 3.536H25.317V13.664H26.589ZM43.8328 0.199999C45.7368 0.199999 47.4088 0.551999 48.8488 1.256C50.3048 1.944 51.4248 2.928 52.2088 4.208C52.9928 5.472 53.3848 6.936 53.3848 8.6C53.3848 10.264 52.9928 11.736 52.2088 13.016C51.4248 14.28 50.3048 15.264 48.8488 15.968C47.4088 16.656 45.7368 17 43.8328 17H37.1128V13.664H39.3208V3.536H37.1128V0.199999H43.8328ZM44.0968 13.664C45.2648 13.664 46.2648 13.464 47.0968 13.064C47.9288 12.648 48.5608 12.064 48.9928 11.312C49.4408 10.544 49.6648 9.64 49.6648 8.6C49.6648 7.56 49.4408 6.664 48.9928 5.912C48.5608 5.144 47.9288 4.56 47.0968 4.16C46.2648 3.744 45.2648 3.536 44.0968 3.536H42.8248V13.664H44.0968Z" fill="black"/>
</svg>
