<svg width="27" height="27" viewBox="0 0 27 27" fill="none" xmlns="http://www.w3.org/2000/svg">
<path d="M26.9968 22.8222C26.8163 23.6027 26.3897 24.3038 25.7804 24.8213C25.1004 25.5155 24.2889 26.0659 23.3936 26.4401C22.4983 26.8143 21.5374 27.0046 20.5676 26.9999H20.0826C18.0695 26.8959 16.0964 26.396 14.2752 25.5285C13.8336 25.3204 13.4041 25.1259 12.8934 24.8893C10.7585 23.679 8.79897 22.1805 7.06973 20.4356C4.82126 18.3195 2.97907 15.8068 1.63481 13.0226C0.8945 11.5039 0.395805 9.87812 0.15687 8.20442C-0.174941 6.46023 0.0223174 4.65622 0.72312 3.02583C1.15854 2.28471 1.69371 1.60744 2.3135 1.01314C2.5961 0.70411 2.93765 0.455195 3.31788 0.28116C3.69811 0.107126 4.10929 0.0115156 4.52702 0C4.98254 0.0484898 5.42385 0.18773 5.8251 0.409567C6.22636 0.631404 6.57949 0.931379 6.86382 1.29193C7.50051 1.99909 8.24557 2.67905 8.92291 3.39981L9.79531 4.262C10.3101 4.71485 10.6284 5.35266 10.6799 6.03806C10.6813 6.66906 10.4496 7.27695 10.0297 7.74612C9.76471 8.07468 9.48349 8.38967 9.18707 8.68991L8.89581 8.99589C8.72609 9.15403 8.59372 9.34824 8.50838 9.56434C8.43794 9.77377 8.41355 9.9968 8.44065 10.2171C8.66281 10.8209 9.01096 11.3703 9.46342 11.8273C10.1678 12.7846 10.8452 13.6183 11.6065 14.6042C12.919 16.1256 14.4758 17.4158 16.2124 18.4215C16.379 18.5575 16.5781 18.6486 16.7922 18.6853C16.9818 18.7139 17.1728 18.6853 17.3449 18.601C17.872 18.317 18.3412 17.936 18.728 17.4777C19.2157 16.8739 19.9228 16.4904 20.6922 16.4075C21.0616 16.409 21.4268 16.4848 21.7665 16.6303C22.1062 16.7758 22.4134 16.9881 22.67 17.2547C22.9857 17.528 23.2864 17.8204 23.5682 18.1291L23.9827 18.5738L24.4121 18.99C24.6736 19.2538 24.9229 19.4904 25.1708 19.7678C25.6219 20.1568 26.0432 20.5784 26.4306 21.0312C26.8275 21.5398 27.028 22.1763 26.9968 22.8222Z" fill="black"/>
</svg>
