<svg width="23" height="26" viewBox="0 0 23 26" fill="none" xmlns="http://www.w3.org/2000/svg">
<path d="M13.2242 12.75V21.1225C13.2619 21.4412 13.1675 21.7812 12.9502 22.0044C12.8629 22.1029 12.7591 22.181 12.6448 22.2343C12.5305 22.2877 12.408 22.3151 12.2843 22.3151C12.1606 22.3151 12.0381 22.2877 11.9238 22.2343C11.8096 22.181 11.7058 22.1029 11.6184 22.0044L9.71976 19.8688C9.61674 19.7555 9.53841 19.6169 9.49089 19.4639C9.44337 19.3109 9.42795 19.1477 9.44583 18.9869V12.75H9.4175L3.9767 4.90875C3.8233 4.68725 3.75409 4.40646 3.78418 4.12774C3.81427 3.84901 3.94121 3.59502 4.13727 3.42125C4.31675 3.2725 4.51511 3.1875 4.72292 3.1875H17.9471C18.1549 3.1875 18.3533 3.2725 18.5327 3.42125C18.7288 3.59502 18.8557 3.84901 18.8858 4.12774C18.9159 4.40646 18.8467 4.68725 18.6933 4.90875L13.2525 12.75H13.2242Z" fill="black"/>
</svg>
