<svg width="70" height="70" viewBox="0 0 70 70" fill="none" xmlns="http://www.w3.org/2000/svg">
<g clip-path="url(#clip0_143_559)">
<path fill-rule="evenodd" clip-rule="evenodd" d="M49.5834 11.6667C51.8088 11.6667 53.6492 12.9325 54.9967 14.2625C56.3996 15.6421 57.6859 17.4971 58.8292 19.5417C61.1246 23.6425 63.1225 29.0004 64.4438 34.2942C65.7563 39.5471 66.4825 45.0333 66.0188 49.3471C65.5521 53.6783 63.3209 58.3333 58.3334 58.3333C54.0284 58.3333 50.5984 56.1167 47.7925 53.8679L46.7688 53.025L45.3338 51.8146L44.0388 50.7413C41.0667 48.335 38.4271 46.6667 35 46.6667C31.573 46.6667 28.9334 48.335 25.9613 50.7413L24.6663 51.8146L23.2313 53.025L22.2105 53.8679C19.3988 56.1167 15.9688 58.3333 11.6667 58.3333C6.67629 58.3333 4.44504 53.6783 3.98129 49.3471C3.52045 45.0304 4.24379 39.5471 5.55629 34.2942C6.87754 29.0004 8.87545 23.6425 11.1709 19.5388C12.3142 17.4971 13.6005 15.6421 15.0034 14.2596C16.3509 12.9325 18.1913 11.6667 20.4167 11.6667C21.9188 11.6667 23.3859 12.0254 24.8296 12.4542L26.5563 12.9821C26.845 13.0696 27.1309 13.1571 27.4167 13.2358C29.9396 13.9592 32.5209 14.5833 35 14.5833C37.4792 14.5833 40.0605 13.9592 42.5834 13.2358L45.1646 12.4571C46.6171 12.0283 48.0959 11.6667 49.5834 11.6667ZM49.5834 17.5C48.4663 17.5 47.2996 17.8383 46.168 18.2088L44.8321 18.6492C44.6183 18.7187 44.4034 18.7848 44.1875 18.8475C41.6063 19.5825 38.3542 20.4167 35 20.4167C31.6459 20.4167 28.3938 19.5825 25.8125 18.8475L25.1709 18.6492L23.8321 18.2088C22.7005 17.8354 21.5338 17.5 20.4167 17.5C19.1975 17.7275 18.1038 19.2063 17.2784 20.5771L16.8175 21.3792L16.2634 22.3883C14.2742 25.9408 12.4425 30.7883 11.2175 35.7088C10.0655 40.3054 9.50545 44.7096 9.71837 47.9879L9.7942 48.8425L9.85254 49.3558L9.94004 49.9625C10.1413 51.1321 10.5759 52.5 11.6667 52.5C14.035 52.5 16.0125 51.3217 18.4713 49.3675L19.6467 48.4108L21.8634 46.5558L22.8667 45.7392C25.97 43.2804 29.8521 40.8333 35 40.8333C40.1479 40.8333 44.03 43.2833 47.1334 45.7392L48.1396 46.5558L50.3563 48.4108L51.5288 49.3675C53.9875 51.3217 55.9621 52.5 58.3334 52.5C59.325 52.5 59.7742 51.3713 59.9988 50.2863L60.1096 49.6504L60.2175 48.7258C60.5763 45.3833 60.0221 40.6613 58.7854 35.7088C57.6596 31.1996 56.0263 26.7488 54.2296 23.3013L53.1825 21.3763L52.7217 20.58C51.8963 19.2063 50.8025 17.7275 49.5834 17.5ZM24.7917 23.3333C26.7256 23.3333 28.5802 24.1016 29.9477 25.469C31.3151 26.8365 32.0834 28.6911 32.0834 30.625C32.0834 32.5589 31.3151 34.4135 29.9477 35.781C28.5802 37.1484 26.7256 37.9167 24.7917 37.9167C22.8578 37.9167 21.0032 37.1484 19.6357 35.781C18.2683 34.4135 17.5 32.5589 17.5 30.625C17.5 28.6911 18.2683 26.8365 19.6357 25.469C21.0032 24.1016 22.8578 23.3333 24.7917 23.3333ZM45.2084 23.3333C45.9228 23.3334 46.6123 23.5957 47.1461 24.0704C47.68 24.5451 48.021 25.1993 48.1046 25.9088L48.125 26.25V27.7083H49.5834C50.3268 27.7092 51.0418 27.9938 51.5824 28.5041C52.1229 29.0145 52.4482 29.712 52.4918 30.4541C52.5354 31.1962 52.2939 31.9269 51.8168 32.497C51.3396 33.0671 50.6628 33.4335 49.9246 33.5213L49.5834 33.5417H48.125V35C48.1242 35.7434 47.8396 36.4584 47.3292 36.999C46.8189 37.5396 46.1214 37.8649 45.3793 37.9084C44.6372 37.952 43.9064 37.7105 43.3364 37.2334C42.7663 36.7563 42.3999 36.0795 42.3121 35.3413L42.2917 35V33.5417H40.8334C40.09 33.5408 39.3749 33.2562 38.8344 32.7459C38.2938 32.2355 37.9685 31.5381 37.9249 30.7959C37.8814 30.0538 38.1228 29.3231 38.6 28.753C39.0771 28.1829 39.7539 27.8166 40.4921 27.7288L40.8334 27.7083H42.2917V26.25C42.2917 25.4765 42.599 24.7346 43.146 24.1876C43.693 23.6406 44.4348 23.3333 45.2084 23.3333ZM24.7917 29.1667C24.4049 29.1667 24.034 29.3203 23.7605 29.5938C23.487 29.8673 23.3334 30.2382 23.3334 30.625C23.3334 31.0118 23.487 31.3827 23.7605 31.6562C24.034 31.9297 24.4049 32.0833 24.7917 32.0833C25.1785 32.0833 25.5494 31.9297 25.8229 31.6562C26.0964 31.3827 26.25 31.0118 26.25 30.625C26.25 30.2382 26.0964 29.8673 25.8229 29.5938C25.5494 29.3203 25.1785 29.1667 24.7917 29.1667Z" fill="#3D0000"/>
</g>
<defs>
<clipPath id="clip0_143_559">
<rect width="70" height="70" fill="white"/>
</clipPath>
</defs>
</svg>
