<svg width="70" height="62" viewBox="0 0 70 62" fill="none" xmlns="http://www.w3.org/2000/svg">
<path d="M0 54.6875C0 56.428 0.691404 58.0972 1.92211 59.3279C3.15282 60.5586 4.82202 61.25 6.5625 61.25H63.4375C65.178 61.25 66.8472 60.5586 68.0779 59.3279C69.3086 58.0972 70 56.428 70 54.6875V24.0625C70 22.322 69.3086 20.6528 68.0779 19.4221C66.8472 18.1914 65.178 17.5 63.4375 17.5H6.5625C4.82202 17.5 3.15282 18.1914 1.92211 19.4221C0.691404 20.6528 0 22.322 0 24.0625L0 54.6875ZM8.75 10.9375C8.75 11.5177 8.98047 12.0741 9.3907 12.4843C9.80094 12.8945 10.3573 13.125 10.9375 13.125H59.0625C59.6427 13.125 60.1991 12.8945 60.6093 12.4843C61.0195 12.0741 61.25 11.5177 61.25 10.9375C61.25 10.3573 61.0195 9.80094 60.6093 9.3907C60.1991 8.98047 59.6427 8.75 59.0625 8.75H10.9375C10.3573 8.75 9.80094 8.98047 9.3907 9.3907C8.98047 9.80094 8.75 10.3573 8.75 10.9375ZM17.5 2.1875C17.5 2.76766 17.7305 3.32406 18.1407 3.7343C18.5509 4.14453 19.1073 4.375 19.6875 4.375H50.3125C50.8927 4.375 51.4491 4.14453 51.8593 3.7343C52.2695 3.32406 52.5 2.76766 52.5 2.1875C52.5 1.60734 52.2695 1.05094 51.8593 0.640704C51.4491 0.230468 50.8927 0 50.3125 0H19.6875C19.1073 0 18.5509 0.230468 18.1407 0.640704C17.7305 1.05094 17.5 1.60734 17.5 2.1875Z" fill="#3D0000"/>
</svg>
