<svg width="40" height="38" viewBox="0 0 40 38" fill="none" xmlns="http://www.w3.org/2000/svg">
<path d="M15 31.25C15 30.9185 15.1317 30.6005 15.3661 30.3661C15.6005 30.1317 15.9185 30 16.25 30H23.75C24.0815 30 24.3995 30.1317 24.6339 30.3661C24.8683 30.6005 25 30.9185 25 31.25C25 31.5815 24.8683 31.8995 24.6339 32.1339C24.3995 32.3683 24.0815 32.5 23.75 32.5H16.25C15.9185 32.5 15.6005 32.3683 15.3661 32.1339C15.1317 31.8995 15 31.5815 15 31.25ZM7.5 20.155C7.5 16.9 10.5875 14.4125 13.825 14.715C17.9328 15.0981 22.0673 15.0981 26.175 14.715C29.4125 14.4125 32.5 16.9 32.5 20.155V23.0475C32.5117 23.601 32.3256 24.1406 31.975 24.5691C31.6244 24.9976 31.1324 25.2869 30.5875 25.385C28.475 25.7525 24.7375 26.25 20 26.25C15.2625 26.25 11.525 25.75 9.4125 25.385C8.86762 25.2869 8.37562 24.9976 8.02503 24.5691C7.67444 24.1406 7.48827 23.601 7.5 23.0475V20.155ZM18.855 18.0875C18.7576 18.0709 18.6576 18.0777 18.5633 18.1072C18.469 18.1368 18.383 18.1883 18.3125 18.2575L16.0125 20.5075C14.4482 20.4137 12.8879 20.2611 11.335 20.05C11.1741 20.034 11.0132 20.081 10.8863 20.1811C10.7593 20.2812 10.676 20.4267 10.654 20.5869C10.632 20.7471 10.673 20.9096 10.7682 21.0402C10.8635 21.1709 11.0057 21.2595 11.165 21.2875C12.54 21.4775 14.245 21.66 16.215 21.77C16.3018 21.7749 16.3886 21.7616 16.47 21.7311C16.5513 21.7005 16.6254 21.6533 16.6875 21.5925L18.5725 19.7525L20.69 24.0275C20.7346 24.1172 20.8001 24.1948 20.881 24.2539C20.9619 24.313 21.0558 24.3517 21.1548 24.3669C21.2538 24.3821 21.355 24.3733 21.4499 24.3412C21.5448 24.3091 21.6306 24.2547 21.7 24.1825L24.03 21.7575C25.6371 21.6628 27.24 21.506 28.835 21.2875C28.9943 21.2595 29.1365 21.1709 29.2318 21.0402C29.3271 20.9096 29.368 20.7471 29.346 20.5869C29.324 20.4267 29.2407 20.2812 29.1138 20.1811C28.9868 20.081 28.8259 20.034 28.665 20.05C27.32 20.235 25.6475 20.4125 23.715 20.5225C23.5577 20.5312 23.4094 20.5991 23.3 20.7125L21.415 22.675L19.31 18.425C19.2661 18.3369 19.202 18.2604 19.1229 18.2017C19.0439 18.1431 18.9521 18.1039 18.855 18.0875Z" fill="black"/>
<path d="M21.25 4.66506C21.7266 4.3899 22.0991 3.96515 22.3097 3.45671C22.5203 2.94826 22.5573 2.38454 22.4148 1.85295C22.2724 1.32137 21.9585 0.85164 21.5219 0.516617C21.0853 0.181594 20.5503 0 20 0C19.4497 0 18.9147 0.181594 18.4781 0.516617C18.0415 0.85164 17.7276 1.32137 17.5852 1.85295C17.4427 2.38454 17.4797 2.94826 17.6903 3.45671C17.9009 3.96515 18.2734 4.3899 18.75 4.66506V7.50006H13.75C10.7663 7.50006 7.90483 8.68533 5.79505 10.7951C3.68526 12.9049 2.5 15.7664 2.5 18.7501V20.0001C1.83696 20.0001 1.20107 20.2635 0.732233 20.7323C0.263392 21.2011 0 21.837 0 22.5001L0 27.5001C0 28.1631 0.263392 28.799 0.732233 29.2678C1.20107 29.7367 1.83696 30.0001 2.5 30.0001V32.5001C2.5 33.8261 3.02678 35.0979 3.96447 36.0356C4.90215 36.9733 6.17392 37.5001 7.5 37.5001H32.5C33.8261 37.5001 35.0979 36.9733 36.0355 36.0356C36.9732 35.0979 37.5 33.8261 37.5 32.5001V30.0001C38.163 30.0001 38.7989 29.7367 39.2678 29.2678C39.7366 28.799 40 28.1631 40 27.5001V22.5001C40 21.837 39.7366 21.2011 39.2678 20.7323C38.7989 20.2635 38.163 20.0001 37.5 20.0001V18.7501C37.5 15.7664 36.3147 12.9049 34.205 10.7951C32.0952 8.68533 29.2337 7.50006 26.25 7.50006H21.25V4.66506ZM35 18.7501V32.5001C35 33.1631 34.7366 33.799 34.2678 34.2678C33.7989 34.7367 33.163 35.0001 32.5 35.0001H7.5C6.83696 35.0001 6.20107 34.7367 5.73223 34.2678C5.26339 33.799 5 33.1631 5 32.5001V18.7501C5 16.4294 5.92187 14.2038 7.56282 12.5629C9.20376 10.9219 11.4294 10.0001 13.75 10.0001H26.25C28.5706 10.0001 30.7962 10.9219 32.4372 12.5629C34.0781 14.2038 35 16.4294 35 18.7501Z" fill="black"/>
</svg>
