<svg width="24" height="24" viewBox="0 0 24 24" fill="none" xmlns="http://www.w3.org/2000/svg">
<path d="M17.257 1.19347C17.6193 0.819624 18.0523 0.521585 18.5309 0.316709C19.0094 0.111833 19.524 0.00421505 20.0446 0.000121357C20.5651 -0.00397233 21.0813 0.0955401 21.563 0.292864C22.0448 0.490188 22.4824 0.781381 22.8505 1.14948C23.2186 1.51759 23.5098 1.95525 23.7071 2.43698C23.9045 2.91871 24.004 3.43489 23.9999 3.95545C23.9958 4.47601 23.8882 4.99056 23.6833 5.46913C23.4784 5.94769 23.1804 6.38072 22.8065 6.74299L21.2694 8.28009L15.7199 2.73057L17.257 1.19347ZM14.6619 3.78857L2.49789 15.9526C2.05872 16.3918 1.73932 16.9367 1.57164 17.5356L0.0275521 23.0502C-0.0081234 23.178 -0.00917184 23.313 0.0245142 23.4414C0.0582002 23.5698 0.125409 23.6869 0.219256 23.7807C0.313102 23.8746 0.430211 23.9418 0.558584 23.9755C0.686956 24.0092 0.821976 24.0081 0.94981 23.9724L6.4634 22.4284C7.0622 22.2608 7.60774 21.9418 8.04741 21.5021L20.2124 9.33909L14.6619 3.78857Z" fill="#3D0000"/>
</svg>
