<svg width="136" height="35" viewBox="0 0 136 35" fill="none" xmlns="http://www.w3.org/2000/svg">
<path d="M29.4167 8.38291C29.0466 7.60947 28.5252 6.91807 27.8833 6.34958C25.1167 4.08291 22.2 0.119579 18.9 0.0195791C18.7961 -0.00652635 18.6873 -0.00652635 18.5833 0.0195791H8.68333C7.57959 -0.0270132 6.4776 0.146273 5.44143 0.529364C4.40525 0.912456 3.45557 1.49771 2.6476 2.25109C1.83962 3.00448 1.18947 3.91097 0.734953 4.91786C0.280432 5.92475 0.0306058 7.01195 0 8.11625V25.2762C0.0589433 26.9417 0.616183 28.5512 1.59966 29.8966C2.58314 31.242 3.94762 32.2613 5.51667 32.8229C6.53737 33.2087 7.62692 33.379 8.71667 33.3229H21.3167C22.4204 33.3693 23.5222 33.1958 24.5583 32.8127C25.5944 32.4295 26.544 31.8442 27.3519 31.0909C28.1598 30.3375 28.81 29.4311 29.2646 28.4244C29.7192 27.4176 29.9692 26.3305 30 25.2262V10.9479C29.9902 10.0606 29.7913 9.18563 29.4167 8.38124M20.2333 21.7096H15.95V25.9579C15.95 26.3999 15.7744 26.8239 15.4618 27.1364C15.1493 27.449 14.7254 27.6246 14.2833 27.6246C13.8413 27.6246 13.4174 27.449 13.1048 27.1364C12.7923 26.8239 12.6167 26.3999 12.6167 25.9579V21.7079H8.33333C8.11014 21.715 7.8878 21.6771 7.67953 21.5966C7.47125 21.516 7.28128 21.3945 7.1209 21.2391C6.96053 21.0837 6.83301 20.8977 6.74593 20.692C6.65884 20.4864 6.61397 20.2654 6.61397 20.0421C6.61397 19.8188 6.65884 19.5977 6.74593 19.3921C6.83301 19.1865 6.96053 19.0005 7.1209 18.8451C7.28128 18.6897 7.47125 18.5681 7.67953 18.4876C7.8878 18.407 8.11014 18.3692 8.33333 18.3762H12.5833V14.0946C12.5833 13.6526 12.7589 13.2286 13.0715 12.9161C13.384 12.6035 13.808 12.4279 14.25 12.4279C14.692 12.4279 15.116 12.6035 15.4285 12.9161C15.7411 13.2286 15.9167 13.6526 15.9167 14.0946V18.3779H20.2C20.5675 18.4593 20.8967 18.6628 21.1338 18.9552C21.371 19.2475 21.5022 19.6116 21.5061 19.988C21.5099 20.3644 21.3862 20.7311 21.1551 21.0283C20.924 21.3254 20.5991 21.5356 20.2333 21.6246V21.7096ZM21.7167 9.11458C21.4789 9.11678 21.243 9.07185 21.0227 8.98238C20.8024 8.8929 20.602 8.76066 20.4331 8.5933C20.2642 8.42593 20.1301 8.22676 20.0386 8.00728C19.9471 7.7878 19.9 7.55237 19.9 7.31458V2.93458C21.0167 3.15125 25.3 7.58291 26.2167 8.29958C26.4933 8.53291 26.73 8.80791 26.9167 9.11625L21.7167 9.11458Z" fill="black"/>
<path d="M65.4513 20.664H67.4433L71.3793 10.56L71.3553 10.536H69.0033V7.2H77.6193L82.4673 20.664H84.5313V24H76.2273V20.664H78.5553L77.7633 18.456H71.7873L70.9473 20.664H73.5153V24H65.4513V20.664ZM76.8273 15.672L75.0513 10.728H74.6433L72.7713 15.672H76.8273ZM91.325 7.2C93.229 7.2 94.901 7.552 96.341 8.256C97.797 8.944 98.917 9.928 99.701 11.208C100.485 12.472 100.877 13.936 100.877 15.6C100.877 17.264 100.485 18.736 99.701 20.016C98.917 21.28 97.797 22.264 96.341 22.968C94.901 23.656 93.229 24 91.325 24H84.605V20.664H86.813V10.536H84.605V7.2H91.325ZM91.589 20.664C92.757 20.664 93.757 20.464 94.589 20.064C95.421 19.648 96.053 19.064 96.485 18.312C96.933 17.544 97.157 16.64 97.157 15.6C97.157 14.56 96.933 13.664 96.485 12.912C96.053 12.144 95.421 11.56 94.589 11.16C93.757 10.744 92.757 10.536 91.589 10.536H90.317V20.664H91.589ZM108.833 7.2C110.737 7.2 112.409 7.552 113.849 8.256C115.305 8.944 116.425 9.928 117.209 11.208C117.993 12.472 118.385 13.936 118.385 15.6C118.385 17.264 117.993 18.736 117.209 20.016C116.425 21.28 115.305 22.264 113.849 22.968C112.409 23.656 110.737 24 108.833 24H102.113V20.664H104.321V10.536H102.113V7.2H108.833ZM109.097 20.664C110.265 20.664 111.265 20.464 112.097 20.064C112.929 19.648 113.561 19.064 113.993 18.312C114.441 17.544 114.665 16.64 114.665 15.6C114.665 14.56 114.441 13.664 113.993 12.912C113.561 12.144 112.929 11.56 112.097 11.16C111.265 10.744 110.265 10.536 109.097 10.536H107.825V20.664H109.097Z" fill="black"/>
</svg>
