<svg width="58" height="57" viewBox="0 0 58 57" fill="none" xmlns="http://www.w3.org/2000/svg">
<path d="M2.91667 56.3333H20.4167C22.0208 56.3333 23.3333 55.0208 23.3333 53.4167V35.9167C23.3333 34.3125 22.0208 33 20.4167 33H2.91667C1.3125 33 0 34.3125 0 35.9167V53.4167C0 55.0208 1.3125 56.3333 2.91667 56.3333Z" fill="#3D0000"/>
<path d="M44.125 56.25C51.3737 56.25 57.25 50.3737 57.25 43.125C57.25 35.8763 51.3737 30 44.125 30C36.8763 30 31 35.8763 31 43.125C31 50.3737 36.8763 56.25 44.125 56.25Z" fill="#3D0000"/>
<path d="M23.2871 1.39892L12.4371 19.1323C11.2412 21.0573 12.6412 23.5656 14.9162 23.5656H36.5871C38.8621 23.5656 40.2621 21.0573 39.0662 19.1323L28.2454 1.39892C27.9876 0.972027 27.6239 0.618942 27.1895 0.373859C26.7552 0.128776 26.2649 0 25.7662 0C25.2675 0 24.7772 0.128776 24.3429 0.373859C23.9086 0.618942 23.5449 0.972027 23.2871 1.39892Z" fill="#3D0000"/>
</svg>
