<svg width="14" height="13" viewBox="0 0 14 13" fill="none" xmlns="http://www.w3.org/2000/svg">
<path d="M6.93333 7.15C8.77914 7.15 10.4578 7.6011 11.6927 8.2368C12.309 8.554 12.8359 8.9284 13.2165 9.3353C13.5909 9.73505 13.8667 10.2134 13.8667 10.725C13.8667 11.2743 13.55 11.7071 13.094 12.0159C12.6626 12.3084 12.0933 12.5021 11.4885 12.6373C10.2729 12.9083 8.65049 13 6.93333 13C5.21618 13 3.59378 12.909 2.37813 12.6373C1.77339 12.5021 1.20409 12.3084 0.772681 12.0159C0.315852 11.7065 0 11.2743 0 10.725C0 10.2134 0.275793 9.73505 0.650193 9.33465C1.03076 8.9284 1.55692 8.55465 2.17399 8.23615C3.40889 7.60175 5.0883 7.15 6.93333 7.15ZM6.93333 0C7.95491 0 8.93464 0.34241 9.657 0.951903C10.3794 1.5614 10.7852 2.38805 10.7852 3.25C10.7852 4.11195 10.3794 4.9386 9.657 5.5481C8.93464 6.15759 7.95491 6.5 6.93333 6.5C5.91176 6.5 4.93202 6.15759 4.20966 5.5481C3.4873 4.9386 3.08148 4.11195 3.08148 3.25C3.08148 2.38805 3.4873 1.5614 4.20966 0.951903C4.93202 0.34241 5.91176 0 6.93333 0Z" fill="#3D0000"/>
</svg>
