<svg width="249" height="38" viewBox="0 0 249 38" fill="none" xmlns="http://www.w3.org/2000/svg">
<path d="M2.5 38C2.5 38 0 38 0 35.5C0 33 2.5 25.5 15 25.5C27.5 25.5 30 33 30 35.5C30 38 27.5 38 27.5 38H2.5ZM15 23C16.9891 23 18.8968 22.2098 20.3033 20.8033C21.7098 19.3968 22.5 17.4891 22.5 15.5C22.5 13.5109 21.7098 11.6032 20.3033 10.1967C18.8968 8.79018 16.9891 8 15 8C13.0109 8 11.1032 8.79018 9.6967 10.1967C8.29018 11.6032 7.5 13.5109 7.5 15.5C7.5 17.4891 8.29018 19.3968 9.6967 20.8033C11.1032 22.2098 13.0109 23 15 23Z" fill="black"/>
<path d="M56.407 38C56.247 38 55.907 37.97 55.387 37.91C54.867 37.83 54.277 37.74 53.617 37.64C52.977 37.52 52.377 37.41 51.817 37.31C51.257 37.19 50.867 37.09 50.647 37.01C50.647 36.81 50.677 36.62 50.737 36.44C50.797 36.26 50.857 36.13 50.917 36.05L51.667 35.93C52.027 35.87 52.307 35.77 52.507 35.63C52.727 35.47 52.887 35.19 52.987 34.79C53.087 34.37 53.157 33.75 53.197 32.93L53.857 21.14C53.897 20.4 53.987 19.83 54.127 19.43C54.267 19.03 54.377 18.79 54.457 18.71H51.547C51.487 18.65 51.417 18.54 51.337 18.38C51.257 18.22 51.207 18.04 51.187 17.84C51.307 17.7 51.487 17.56 51.727 17.42C51.967 17.28 52.217 17.16 52.477 17.06C52.737 16.94 52.927 16.88 53.047 16.88H59.137L64.327 30.23C64.587 29.67 64.877 28.99 65.197 28.19C65.537 27.39 65.887 26.52 66.247 25.58C66.627 24.64 66.997 23.67 67.357 22.67C67.737 21.67 68.087 20.68 68.407 19.7C68.727 18.7 69.017 17.76 69.277 16.88H77.407C77.487 17 77.567 17.17 77.647 17.39C77.747 17.61 77.797 17.88 77.797 18.2L76.507 18.59C76.087 18.71 75.747 18.87 75.487 19.07C75.247 19.25 75.077 19.5 74.977 19.82C74.897 20.14 74.867 20.57 74.887 21.11L75.547 33.53C75.587 34.13 75.547 34.62 75.427 35C75.327 35.38 75.217 35.62 75.097 35.72L78.007 36.08C78.067 36.18 78.117 36.31 78.157 36.47C78.217 36.63 78.247 36.81 78.247 37.01C77.967 37.25 77.587 37.48 77.107 37.7C76.647 37.9 76.227 38 75.847 38C75.647 38 75.297 37.98 74.797 37.94C74.317 37.88 73.767 37.82 73.147 37.76C72.527 37.68 71.907 37.6 71.287 37.52C70.667 37.42 70.117 37.33 69.637 37.25C69.157 37.15 68.827 37.07 68.647 37.01C68.647 36.81 68.677 36.62 68.737 36.44C68.817 36.24 68.887 36.1 68.947 36.02L70.057 35.93C70.457 35.87 70.777 35.78 71.017 35.66C71.257 35.54 71.417 35.27 71.497 34.85C71.577 34.43 71.587 33.75 71.527 32.81L70.957 22.91C70.917 22.11 70.917 21.45 70.957 20.93C71.017 20.39 71.087 20.04 71.167 19.88L70.927 19.76L64.987 35.03C64.767 35.15 64.397 35.29 63.877 35.45C63.357 35.59 62.797 35.66 62.197 35.66L57.307 22.94C57.067 22.3 56.877 21.7 56.737 21.14C56.617 20.56 56.547 20.13 56.527 19.85H56.347C56.327 19.99 56.287 20.25 56.227 20.63C56.187 20.99 56.147 21.49 56.107 22.13L55.537 33.77C55.517 34.23 55.447 34.63 55.327 34.97C55.227 35.31 55.127 35.54 55.027 35.66L58.837 36.08C58.877 36.16 58.917 36.28 58.957 36.44C59.017 36.6 59.057 36.79 59.077 37.01C58.857 37.19 58.577 37.36 58.237 37.52C57.917 37.66 57.587 37.78 57.247 37.88C56.927 37.96 56.647 38 56.407 38ZM92.1956 38C92.0356 38 91.7256 37.98 91.2656 37.94C90.8056 37.88 90.2656 37.81 89.6456 37.73C89.0456 37.65 88.4356 37.57 87.8156 37.49C87.1956 37.39 86.6456 37.3 86.1656 37.22C85.6856 37.14 85.3556 37.07 85.1756 37.01C85.1756 36.81 85.2056 36.62 85.2656 36.44C85.3256 36.26 85.3856 36.13 85.4456 36.05L86.3156 35.93C86.6756 35.87 86.9556 35.75 87.1556 35.57C87.3756 35.37 87.5256 35.06 87.6056 34.64C87.7056 34.22 87.7556 33.65 87.7556 32.93V29.15L82.4456 19.55C82.2856 19.25 82.1056 19.04 81.9056 18.92C81.7056 18.78 81.3856 18.71 80.9456 18.71H79.8656C79.8256 18.65 79.7656 18.54 79.6856 18.38C79.6056 18.22 79.5556 18.04 79.5356 17.84C79.6356 17.7 79.8156 17.56 80.0756 17.42C80.3356 17.28 80.6056 17.16 80.8856 17.06C81.1856 16.94 81.4056 16.88 81.5456 16.88H89.1656C89.2656 17 89.3556 17.18 89.4356 17.42C89.5156 17.64 89.5556 17.9 89.5556 18.2L88.0556 18.56C87.7556 18.64 87.4956 18.76 87.2756 18.92C87.0756 19.06 86.9756 19.31 86.9756 19.67C86.9756 19.81 87.0056 20 87.0656 20.24C87.1256 20.46 87.2156 20.71 87.3356 20.99L90.3356 26.87H90.5156C91.1956 25.23 91.7756 23.85 92.2556 22.73C92.7556 21.59 93.1856 20.65 93.5456 19.91C93.9256 19.15 94.2756 18.54 94.5956 18.08C94.9156 17.6 95.2456 17.2 95.5856 16.88H100.236C100.336 17.02 100.426 17.2 100.506 17.42C100.586 17.64 100.626 17.86 100.626 18.08L99.3656 18.44C98.9456 18.56 98.5556 18.72 98.1956 18.92C97.8356 19.1 97.4556 19.38 97.0556 19.76C96.6756 20.14 96.2456 20.68 95.7656 21.38C95.3056 22.08 94.7656 23.01 94.1456 24.17C93.5456 25.33 92.8256 26.79 91.9856 28.55V33.71C91.9856 34.17 91.9256 34.58 91.8056 34.94C91.7056 35.3 91.5856 35.56 91.4456 35.72L94.3256 36.08C94.3656 36.14 94.4156 36.26 94.4756 36.44C94.5356 36.6 94.5656 36.79 94.5656 37.01C94.2656 37.27 93.8856 37.5 93.4256 37.7C92.9856 37.9 92.5756 38 92.1956 38ZM114.211 38C114.071 38 113.771 37.98 113.311 37.94C112.851 37.88 112.311 37.81 111.691 37.73C111.091 37.65 110.481 37.57 109.861 37.49C109.241 37.39 108.691 37.3 108.211 37.22C107.751 37.14 107.431 37.07 107.251 37.01C107.251 36.81 107.281 36.62 107.341 36.44C107.401 36.26 107.461 36.13 107.521 36.05L108.391 35.93C108.751 35.87 109.031 35.75 109.231 35.57C109.451 35.37 109.601 35.06 109.681 34.64C109.781 34.22 109.831 33.65 109.831 32.93V21.08C109.831 20.48 109.871 20.02 109.951 19.7C110.031 19.36 110.111 19.12 110.191 18.98C110.291 18.82 110.351 18.73 110.371 18.71H107.581C107.521 18.65 107.451 18.53 107.371 18.35C107.311 18.17 107.271 18 107.251 17.84C107.351 17.7 107.521 17.56 107.761 17.42C108.021 17.28 108.281 17.16 108.541 17.06C108.801 16.94 108.981 16.88 109.081 16.88H119.731C120.171 16.98 120.661 17.15 121.201 17.39C121.741 17.63 122.241 17.9 122.701 18.2C123.181 18.5 123.551 18.78 123.811 19.04C124.011 19.42 124.151 19.88 124.231 20.42C124.331 20.96 124.381 21.51 124.381 22.07C124.381 22.71 124.331 23.36 124.231 24.02C124.131 24.66 124.001 25.24 123.841 25.76C123.701 26.28 123.521 26.66 123.301 26.9C122.981 27.18 122.571 27.5 122.071 27.86C121.571 28.2 121.031 28.51 120.451 28.79C119.871 29.05 119.291 29.22 118.711 29.3H114.001V33.71C114.001 34.21 113.941 34.64 113.821 35C113.701 35.34 113.581 35.58 113.461 35.72L116.581 36.08C116.621 36.16 116.671 36.28 116.731 36.44C116.791 36.6 116.821 36.79 116.821 37.01C116.541 37.25 116.131 37.48 115.591 37.7C115.051 37.9 114.591 38 114.211 38ZM114.001 27.29C115.061 27.29 116.081 27.27 117.061 27.23C118.061 27.19 118.891 27.12 119.551 27.02C119.731 26.72 119.881 26.33 120.001 25.85C120.121 25.35 120.221 24.82 120.301 24.26C120.381 23.68 120.421 23.13 120.421 22.61C120.421 21.93 120.351 21.3 120.211 20.72C120.091 20.12 119.861 19.64 119.521 19.28C119.221 19.18 118.831 19.1 118.351 19.04C117.871 18.96 117.391 18.9 116.911 18.86C116.451 18.82 116.091 18.8 115.831 18.8C115.331 18.8 114.951 18.9 114.691 19.1C114.431 19.3 114.251 19.57 114.151 19.91C114.051 20.23 114.001 20.6 114.001 21.02V27.29ZM133.401 38C133.261 38 132.961 37.98 132.501 37.94C132.041 37.88 131.501 37.81 130.881 37.73C130.281 37.65 129.671 37.57 129.051 37.49C128.431 37.39 127.881 37.3 127.401 37.22C126.941 37.14 126.621 37.07 126.441 37.01C126.441 36.81 126.471 36.62 126.531 36.44C126.591 36.26 126.651 36.13 126.711 36.05L127.581 35.93C127.961 35.87 128.251 35.74 128.451 35.54C128.651 35.34 128.791 35.03 128.871 34.61C128.971 34.19 129.021 33.63 129.021 32.93V21.08C129.021 20.48 129.061 20.02 129.141 19.7C129.221 19.36 129.301 19.12 129.381 18.98C129.481 18.82 129.541 18.73 129.561 18.71H126.771C126.711 18.65 126.641 18.53 126.561 18.35C126.501 18.17 126.461 18 126.441 17.84C126.541 17.7 126.711 17.56 126.951 17.42C127.211 17.28 127.471 17.16 127.731 17.06C127.991 16.94 128.171 16.88 128.271 16.88H139.341C139.781 16.98 140.261 17.15 140.781 17.39C141.301 17.63 141.791 17.89 142.251 18.17C142.711 18.43 143.061 18.7 143.301 18.98C143.521 19.36 143.671 19.81 143.751 20.33C143.851 20.85 143.901 21.4 143.901 21.98C143.901 22.7 143.851 23.33 143.751 23.87C143.651 24.39 143.511 24.84 143.331 25.22C143.171 25.58 142.991 25.88 142.791 26.12C142.591 26.36 142.291 26.6 141.891 26.84C141.511 27.08 141.091 27.31 140.631 27.53C140.191 27.73 139.761 27.9 139.341 28.04V28.19C139.741 28.39 140.061 28.65 140.301 28.97C140.561 29.27 140.831 29.73 141.111 30.35L142.281 32.87C142.621 33.57 142.941 34.12 143.241 34.52C143.541 34.92 143.851 35.21 144.171 35.39C144.511 35.57 144.881 35.67 145.281 35.69H146.091C146.171 35.77 146.251 35.92 146.331 36.14C146.431 36.36 146.481 36.61 146.481 36.89C146.141 37.13 145.751 37.34 145.311 37.52C144.871 37.68 144.441 37.8 144.021 37.88C143.601 37.96 143.231 38 142.911 38C141.771 38 140.861 37.7 140.181 37.1C139.501 36.48 138.961 35.64 138.561 34.58L136.671 29.72C136.531 29.36 136.351 29.09 136.131 28.91C135.911 28.71 135.601 28.61 135.201 28.61H133.191V33.71C133.191 34.21 133.131 34.64 133.011 35C132.891 35.34 132.771 35.58 132.651 35.72L135.771 36.08C135.811 36.16 135.861 36.28 135.921 36.44C135.981 36.6 136.011 36.79 136.011 37.01C135.731 37.25 135.321 37.48 134.781 37.7C134.241 37.9 133.781 38 133.401 38ZM133.191 26.63C133.931 26.61 134.661 26.6 135.381 26.6C136.101 26.58 136.771 26.55 137.391 26.51C138.031 26.45 138.591 26.39 139.071 26.33C139.311 25.97 139.511 25.47 139.671 24.83C139.831 24.17 139.911 23.4 139.911 22.52C139.911 21.84 139.841 21.22 139.701 20.66C139.581 20.08 139.371 19.62 139.071 19.28C138.751 19.18 138.321 19.1 137.781 19.04C137.241 18.96 136.711 18.9 136.191 18.86C135.691 18.82 135.311 18.8 135.051 18.8C134.331 18.8 133.841 19 133.581 19.4C133.321 19.8 133.191 20.34 133.191 21.02V26.63ZM157.363 38C156.663 38 155.913 37.88 155.113 37.64C154.333 37.4 153.583 37.1 152.863 36.74C152.143 36.38 151.513 36.02 150.973 35.66C150.433 35.28 150.063 34.97 149.863 34.73C149.403 34.05 149.053 33.13 148.813 31.97C148.593 30.79 148.483 29.55 148.483 28.25C148.483 27.15 148.543 26.07 148.663 25.01C148.783 23.95 148.933 22.97 149.113 22.07C149.313 21.17 149.513 20.44 149.713 19.88C150.233 19.46 150.863 19.05 151.603 18.65C152.363 18.23 153.173 17.85 154.033 17.51C154.893 17.17 155.763 16.9 156.643 16.7C157.523 16.5 158.353 16.4 159.133 16.4C159.673 16.4 160.273 16.48 160.933 16.64C161.593 16.8 162.253 17.01 162.913 17.27C163.573 17.53 164.163 17.82 164.683 18.14C165.223 18.44 165.613 18.75 165.853 19.07C166.193 19.59 166.463 20.26 166.663 21.08C166.883 21.9 167.053 22.78 167.173 23.72C167.293 24.64 167.353 25.56 167.353 26.48C167.353 27.52 167.293 28.56 167.173 29.6C167.053 30.64 166.883 31.62 166.663 32.54C166.463 33.44 166.233 34.24 165.973 34.94C165.453 35.38 164.723 35.84 163.783 36.32C162.843 36.8 161.813 37.2 160.693 37.52C159.573 37.84 158.463 38 157.363 38ZM158.053 35.51C158.413 35.51 158.853 35.46 159.373 35.36C159.893 35.26 160.393 35.13 160.873 34.97C161.353 34.81 161.713 34.67 161.953 34.55C162.173 33.97 162.353 33.29 162.493 32.51C162.653 31.73 162.763 30.89 162.823 29.99C162.903 29.07 162.943 28.14 162.943 27.2C162.943 25.94 162.883 24.74 162.763 23.6C162.663 22.44 162.513 21.5 162.313 20.78C162.213 20.62 161.993 20.44 161.653 20.24C161.313 20.04 160.923 19.85 160.483 19.67C160.063 19.49 159.643 19.34 159.223 19.22C158.803 19.1 158.453 19.04 158.173 19.04C157.793 19.04 157.323 19.08 156.763 19.16C156.223 19.22 155.683 19.31 155.143 19.43C154.603 19.55 154.143 19.67 153.763 19.79C153.563 20.31 153.383 20.95 153.223 21.71C153.063 22.45 152.943 23.26 152.863 24.14C152.803 25 152.773 25.9 152.773 26.84C152.773 28.12 152.853 29.38 153.013 30.62C153.173 31.84 153.423 32.86 153.763 33.68C153.903 33.86 154.163 34.06 154.543 34.28C154.923 34.48 155.333 34.68 155.773 34.88C156.233 35.06 156.673 35.21 157.093 35.33C157.513 35.45 157.833 35.51 158.053 35.51ZM177.463 38C177.323 38 177.023 37.98 176.563 37.94C176.103 37.88 175.563 37.81 174.943 37.73C174.343 37.65 173.733 37.57 173.113 37.49C172.493 37.39 171.943 37.3 171.463 37.22C171.003 37.14 170.683 37.07 170.503 37.01C170.503 36.81 170.533 36.62 170.593 36.44C170.653 36.26 170.713 36.13 170.773 36.05L171.643 35.93C171.983 35.87 172.253 35.76 172.453 35.6C172.673 35.42 172.833 35.12 172.933 34.7C173.033 34.28 173.083 33.69 173.083 32.93V21.08C173.083 20.48 173.123 20.02 173.203 19.7C173.283 19.36 173.363 19.12 173.443 18.98C173.543 18.82 173.603 18.73 173.623 18.71H170.833C170.773 18.65 170.703 18.53 170.623 18.35C170.563 18.17 170.523 18 170.503 17.84C170.603 17.7 170.773 17.56 171.013 17.42C171.273 17.28 171.533 17.16 171.793 17.06C172.053 16.94 172.233 16.88 172.333 16.88H185.173C185.613 17.04 186.073 17.28 186.553 17.6C187.033 17.9 187.413 18.23 187.693 18.59C187.613 19.77 187.473 20.86 187.273 21.86C187.093 22.84 186.933 23.57 186.793 24.05C186.373 24.05 185.963 24.01 185.563 23.93C185.163 23.85 184.853 23.76 184.633 23.66L183.853 19.34C183.553 19.22 182.983 19.1 182.143 18.98C181.323 18.86 180.303 18.8 179.083 18.8C178.303 18.8 177.803 19.01 177.583 19.43C177.363 19.85 177.253 20.43 177.253 21.17V26.48C178.093 26.46 178.853 26.44 179.533 26.42C180.213 26.38 180.853 26.33 181.453 26.27C182.073 26.21 182.673 26.15 183.253 26.09L183.613 26.51C183.593 26.97 183.543 27.37 183.463 27.71C183.383 28.05 183.313 28.3 183.253 28.46H177.253V33.71C177.253 34.21 177.193 34.64 177.073 35C176.953 35.34 176.833 35.58 176.713 35.72L179.833 36.08C179.873 36.16 179.923 36.28 179.983 36.44C180.043 36.6 180.073 36.79 180.073 37.01C179.793 37.25 179.383 37.48 178.843 37.7C178.303 37.9 177.843 38 177.463 38ZM196.536 38C196.396 38 196.096 37.98 195.636 37.94C195.176 37.88 194.636 37.81 194.016 37.73C193.416 37.65 192.806 37.57 192.186 37.49C191.566 37.39 191.016 37.3 190.536 37.22C190.076 37.14 189.756 37.07 189.576 37.01C189.576 36.81 189.606 36.62 189.666 36.44C189.726 36.26 189.786 36.13 189.846 36.05L190.716 35.93C191.096 35.87 191.386 35.74 191.586 35.54C191.786 35.34 191.926 35.03 192.006 34.61C192.106 34.19 192.156 33.63 192.156 32.93V21.05C192.156 20.15 192.236 19.55 192.396 19.25C192.576 18.93 192.676 18.75 192.696 18.71H189.906C189.866 18.65 189.806 18.55 189.726 18.41C189.646 18.25 189.596 18.06 189.576 17.84C189.696 17.7 189.876 17.56 190.116 17.42C190.356 17.26 190.606 17.13 190.866 17.03C191.126 16.93 191.306 16.88 191.406 16.88H198.666C198.746 16.98 198.826 17.15 198.906 17.39C199.006 17.61 199.056 17.88 199.056 18.2L197.766 18.59C197.446 18.67 197.176 18.79 196.956 18.95C196.756 19.11 196.596 19.36 196.476 19.7C196.376 20.02 196.326 20.51 196.326 21.17V33.71C196.326 34.21 196.266 34.64 196.146 35C196.026 35.34 195.906 35.58 195.786 35.72L198.696 36.08C198.736 36.14 198.776 36.26 198.816 36.44C198.876 36.62 198.906 36.81 198.906 37.01C198.606 37.27 198.226 37.5 197.766 37.7C197.326 37.9 196.916 38 196.536 38ZM215.473 38C214.933 38 214.203 37.98 213.283 37.94C212.363 37.9 211.353 37.85 210.253 37.79C209.153 37.73 208.053 37.66 206.953 37.58C205.853 37.48 204.843 37.38 203.923 37.28C203.023 37.18 202.303 37.09 201.763 37.01C201.763 36.81 201.793 36.62 201.853 36.44C201.913 36.24 201.973 36.1 202.033 36.02L202.903 35.93C203.283 35.87 203.573 35.74 203.773 35.54C203.973 35.34 204.113 35.03 204.193 34.61C204.293 34.19 204.343 33.63 204.343 32.93V21.08C204.343 20.48 204.383 20.02 204.463 19.7C204.543 19.36 204.623 19.12 204.703 18.98C204.803 18.82 204.863 18.73 204.883 18.71H202.093C202.033 18.65 201.963 18.53 201.883 18.35C201.823 18.17 201.783 18 201.763 17.84C201.863 17.7 202.033 17.56 202.273 17.42C202.533 17.28 202.793 17.16 203.053 17.06C203.313 16.94 203.493 16.88 203.593 16.88H210.853C210.953 16.98 211.043 17.16 211.123 17.42C211.203 17.66 211.243 17.92 211.243 18.2L209.953 18.59C209.633 18.67 209.363 18.79 209.143 18.95C208.943 19.11 208.783 19.36 208.663 19.7C208.563 20.02 208.513 20.51 208.513 21.17V33.71C208.513 34.19 208.453 34.61 208.333 34.97C208.213 35.31 208.093 35.56 207.973 35.72H213.943L215.953 30.17C216.453 30.17 216.903 30.23 217.303 30.35C217.703 30.47 217.983 30.58 218.143 30.68C218.143 31.38 218.113 32.11 218.053 32.87C218.013 33.61 217.953 34.31 217.873 34.97C217.793 35.63 217.713 36.19 217.633 36.65C217.513 36.81 217.303 37 217.003 37.22C216.723 37.42 216.433 37.6 216.133 37.76C215.853 37.92 215.633 38 215.473 38ZM235.25 38C234.81 38 234.19 37.99 233.39 37.97C232.61 37.93 231.73 37.89 230.75 37.85C229.77 37.79 228.76 37.73 227.72 37.67C226.68 37.61 225.67 37.55 224.69 37.49C223.71 37.41 222.83 37.33 222.05 37.25C221.27 37.17 220.66 37.09 220.22 37.01C220.22 36.81 220.25 36.62 220.31 36.44C220.37 36.24 220.43 36.1 220.49 36.02L221.36 35.93C221.74 35.87 222.03 35.74 222.23 35.54C222.43 35.34 222.57 35.03 222.65 34.61C222.75 34.19 222.8 33.63 222.8 32.93V21.08C222.8 20.48 222.84 20.02 222.92 19.7C223 19.36 223.08 19.12 223.16 18.98C223.26 18.82 223.32 18.73 223.34 18.71H220.55C220.49 18.65 220.42 18.54 220.34 18.38C220.28 18.2 220.24 18.02 220.22 17.84C220.34 17.7 220.52 17.56 220.76 17.42C221 17.26 221.25 17.13 221.51 17.03C221.77 16.93 221.95 16.88 222.05 16.88H235.34C235.76 17.04 236.19 17.28 236.63 17.6C237.09 17.92 237.45 18.25 237.71 18.59C237.63 19.85 237.49 20.96 237.29 21.92C237.11 22.88 236.94 23.59 236.78 24.05C236.36 24.05 235.96 24.01 235.58 23.93C235.2 23.85 234.89 23.76 234.65 23.66L233.87 19.34C233.61 19.24 233.23 19.16 232.73 19.1C232.25 19.02 231.67 18.95 230.99 18.89C230.31 18.83 229.56 18.8 228.74 18.8C228.24 18.8 227.86 18.91 227.6 19.13C227.34 19.33 227.17 19.6 227.09 19.94C227.01 20.28 226.97 20.66 226.97 21.08V26.18C227.79 26.16 228.54 26.14 229.22 26.12C229.92 26.08 230.58 26.03 231.2 25.97C231.82 25.91 232.43 25.85 233.03 25.79L233.42 26.21C233.38 26.65 233.33 27.04 233.27 27.38C233.21 27.72 233.14 27.98 233.06 28.16H226.97V33.71C226.97 34.19 226.91 34.61 226.79 34.97C226.67 35.31 226.55 35.56 226.43 35.72H233.72L235.7 30.38C236.18 30.38 236.63 30.45 237.05 30.59C237.47 30.71 237.75 30.82 237.89 30.92C237.89 31.6 237.86 32.3 237.8 33.02C237.76 33.74 237.7 34.42 237.62 35.06C237.56 35.7 237.49 36.23 237.41 36.65C237.27 36.81 237.05 37 236.75 37.22C236.47 37.42 236.19 37.6 235.91 37.76C235.63 37.92 235.41 38 235.25 38Z" fill="black"/>
</svg>
