<svg width="248" height="39" viewBox="0 0 248 39" fill="none" xmlns="http://www.w3.org/2000/svg">
<path d="M6.75 17.375C6.75 18.2701 6.39442 19.1286 5.76149 19.7615C5.12855 20.3944 4.27011 20.75 3.375 20.75C2.47989 20.75 1.62145 20.3944 0.988515 19.7615C0.355579 19.1286 0 18.2701 0 17.375C0 16.4799 0.355579 15.6214 0.988515 14.9885C1.62145 14.3556 2.47989 14 3.375 14C4.27011 14 5.12855 14.3556 5.76149 14.9885C6.39442 15.6214 6.75 16.4799 6.75 17.375ZM6.75 26.375C6.75 27.2701 6.39442 28.1286 5.76149 28.7615C5.12855 29.3944 4.27011 29.75 3.375 29.75C2.47989 29.75 1.62145 29.3944 0.988515 28.7615C0.355579 28.1286 0 27.2701 0 26.375C0 25.4799 0.355579 24.6214 0.988515 23.9885C1.62145 23.3556 2.47989 23 3.375 23C4.27011 23 5.12855 23.3556 5.76149 23.9885C6.39442 24.6214 6.75 25.4799 6.75 26.375ZM6.75 35.375C6.75 36.2701 6.39442 37.1286 5.76149 37.7615C5.12855 38.3944 4.27011 38.75 3.375 38.75C2.47989 38.75 1.62145 38.3944 0.988515 37.7615C0.355579 37.1286 0 36.2701 0 35.375C0 34.4799 0.355579 33.6214 0.988515 32.9885C1.62145 32.3556 2.47989 32 3.375 32C4.27011 32 5.12855 32.3556 5.76149 32.9885C6.39442 33.6214 6.75 34.4799 6.75 35.375Z" fill="black"/>
<path fill-rule="evenodd" clip-rule="evenodd" d="M9 17.375C9 16.7783 9.23705 16.206 9.65901 15.784C10.081 15.3621 10.6533 15.125 11.25 15.125H27C27.5967 15.125 28.169 15.3621 28.591 15.784C29.0129 16.206 29.25 16.7783 29.25 17.375C29.25 17.9717 29.0129 18.544 28.591 18.966C28.169 19.3879 27.5967 19.625 27 19.625H11.25C10.6533 19.625 10.081 19.3879 9.65901 18.966C9.23705 18.544 9 17.9717 9 17.375ZM9 26.375C9 25.7783 9.23705 25.206 9.65901 24.784C10.081 24.3621 10.6533 24.125 11.25 24.125H27C27.5967 24.125 28.169 24.3621 28.591 24.784C29.0129 25.206 29.25 25.7783 29.25 26.375C29.25 26.9717 29.0129 27.544 28.591 27.966C28.169 28.3879 27.5967 28.625 27 28.625H11.25C10.6533 28.625 10.081 28.3879 9.65901 27.966C9.23705 27.544 9 26.9717 9 26.375ZM9 35.375C9 34.7783 9.23705 34.206 9.65901 33.784C10.081 33.3621 10.6533 33.125 11.25 33.125H27C27.5967 33.125 28.169 33.3621 28.591 33.784C29.0129 34.206 29.25 34.7783 29.25 35.375C29.25 35.9717 29.0129 36.544 28.591 36.966C28.169 37.3879 27.5967 37.625 27 37.625H11.25C10.6533 37.625 10.081 37.3879 9.65901 36.966C9.23705 36.544 9 35.9717 9 35.375Z" fill="black"/>
<path d="M56.3276 38.03C55.7676 38.01 55.0376 37.97 54.1376 37.91C53.2376 37.85 52.2676 37.78 51.2276 37.7C50.1876 37.62 49.1676 37.54 48.1676 37.46C47.1876 37.36 46.3176 37.27 45.5576 37.19C44.7976 37.11 44.2476 37.05 43.9076 37.01C43.9076 36.81 43.9376 36.62 43.9976 36.44C44.0576 36.24 44.1176 36.1 44.1776 36.02L45.0476 35.93C45.4276 35.87 45.7176 35.74 45.9176 35.54C46.1176 35.34 46.2576 35.03 46.3376 34.61C46.4376 34.19 46.4876 33.63 46.4876 32.93V21.08C46.4876 20.48 46.5276 20.02 46.6076 19.7C46.6876 19.36 46.7676 19.12 46.8476 18.98C46.9476 18.82 47.0076 18.73 47.0276 18.71H44.2376C44.1776 18.65 44.1076 18.53 44.0276 18.35C43.9676 18.17 43.9276 18 43.9076 17.84C44.0076 17.7 44.1776 17.56 44.4176 17.42C44.6776 17.26 44.9276 17.13 45.1676 17.03C45.4276 16.91 45.6176 16.85 45.7376 16.85H57.4076C57.6476 16.89 57.9776 17 58.3976 17.18C58.8176 17.34 59.2676 17.54 59.7476 17.78C60.2276 18 60.6576 18.23 61.0376 18.47C61.4376 18.71 61.7276 18.93 61.9076 19.13C62.5276 20.21 62.9476 21.39 63.1676 22.67C63.4076 23.95 63.5276 25.24 63.5276 26.54C63.5276 27.76 63.4476 28.93 63.2876 30.05C63.1476 31.17 62.9476 32.18 62.6876 33.08C62.4476 33.98 62.1876 34.69 61.9076 35.21C61.5676 35.55 61.1476 35.88 60.6476 36.2C60.1476 36.52 59.6276 36.81 59.0876 37.07C58.5476 37.33 58.0276 37.55 57.5276 37.73C57.0476 37.89 56.6476 37.99 56.3276 38.03ZM50.1176 35.72H57.3776C57.6776 35.36 57.9476 34.88 58.1876 34.28C58.4276 33.68 58.6276 33 58.7876 32.24C58.9476 31.48 59.0676 30.68 59.1476 29.84C59.2276 28.98 59.2676 28.12 59.2676 27.26C59.2676 26.42 59.2276 25.59 59.1476 24.77C59.0876 23.95 58.9776 23.18 58.8176 22.46C58.6576 21.74 58.4476 21.11 58.1876 20.57C57.9476 20.01 57.6476 19.58 57.2876 19.28C56.9276 19.18 56.4876 19.1 55.9676 19.04C55.4676 18.96 54.9176 18.9 54.3176 18.86C53.7376 18.82 53.1276 18.8 52.4876 18.8C51.7476 18.8 51.2576 19 51.0176 19.4C50.7776 19.78 50.6576 20.35 50.6576 21.11V33.71C50.6576 34.19 50.5976 34.61 50.4776 34.97C50.3576 35.31 50.2376 35.56 50.1176 35.72ZM72.5513 38C72.4313 38 72.1713 37.98 71.7713 37.94C71.3913 37.88 70.9213 37.82 70.3613 37.76C69.8213 37.68 69.2613 37.6 68.6813 37.52C68.1013 37.42 67.5513 37.32 67.0313 37.22C66.5313 37.12 66.1413 37.03 65.8613 36.95C65.8613 36.73 65.8913 36.53 65.9513 36.35C66.0313 36.17 66.1013 36.05 66.1613 35.99L66.6113 35.9C66.8313 35.86 67.0613 35.79 67.3013 35.69C67.5413 35.59 67.7913 35.37 68.0513 35.03C68.3313 34.67 68.6213 34.14 68.9213 33.44C69.2213 32.72 69.5513 31.73 69.9113 30.47L73.2113 18.74C73.3713 18.56 73.6413 18.34 74.0213 18.08C74.4013 17.82 74.8213 17.56 75.2813 17.3C75.7613 17.04 76.2113 16.83 76.6313 16.67C77.0713 16.49 77.4013 16.4 77.6213 16.4C77.9013 16.4 78.2913 16.49 78.7913 16.67C79.3113 16.83 79.8313 17.05 80.3513 17.33C80.8913 17.59 81.3313 17.87 81.6713 18.17L85.5413 35.09C85.6013 35.33 85.6913 35.51 85.8113 35.63C85.9513 35.73 86.1513 35.79 86.4113 35.81L88.2413 36.05C88.3013 36.13 88.3613 36.22 88.4213 36.32C88.4813 36.42 88.5113 36.63 88.5113 36.95C88.3513 37.11 88.1213 37.27 87.8213 37.43C87.5213 37.59 87.2013 37.73 86.8613 37.85C86.5213 37.95 86.2313 38 85.9913 38C85.8513 38 85.5413 37.97 85.0613 37.91C84.5813 37.85 84.0213 37.78 83.3813 37.7C82.7413 37.6 82.0913 37.5 81.4313 37.4C80.7913 37.28 80.2113 37.17 79.6913 37.07C79.1913 36.97 78.8513 36.89 78.6713 36.83C78.6713 36.59 78.7113 36.39 78.7913 36.23C78.8913 36.05 78.9513 35.94 78.9713 35.9L79.9013 35.87C80.1813 35.85 80.4313 35.8 80.6513 35.72C80.8713 35.64 81.0313 35.46 81.1313 35.18C81.2313 34.9 81.2113 34.47 81.0713 33.89L80.0813 29.51H72.8813L71.7413 33.65C71.6413 34.01 71.5013 34.35 71.3213 34.67C71.1613 34.97 70.9813 35.22 70.7813 35.42C70.6013 35.6 70.4313 35.71 70.2713 35.75L74.7713 36.08C74.7913 36.14 74.8413 36.25 74.9213 36.41C75.0013 36.57 75.0413 36.76 75.0413 36.98C74.9013 37.14 74.6713 37.3 74.3513 37.46C74.0513 37.62 73.7313 37.75 73.3913 37.85C73.0513 37.95 72.7713 38 72.5513 38ZM73.3913 27.53C74.4113 27.51 75.3313 27.49 76.1513 27.47C76.9713 27.43 77.6713 27.39 78.2513 27.35C78.8313 27.29 79.2713 27.23 79.5713 27.17L77.9813 20C77.6013 19.72 77.2113 19.5 76.8113 19.34C76.4313 19.16 76.0413 19.04 75.6413 18.98L73.3913 27.53ZM97.9346 38C97.3746 38 96.7446 37.91 96.0446 37.73C95.3446 37.53 94.6346 37.29 93.9146 37.01C93.2146 36.71 92.5846 36.39 92.0246 36.05C91.4846 35.71 91.0746 35.39 90.7946 35.09C90.8146 34.53 90.8746 33.92 90.9746 33.26C91.0746 32.6 91.1946 31.98 91.3346 31.4C91.4946 30.8 91.6346 30.34 91.7546 30.02C92.1946 30.02 92.6046 30.07 92.9846 30.17C93.3646 30.27 93.6446 30.35 93.8246 30.41L94.8446 34.34C95.1846 34.5 95.5946 34.66 96.0746 34.82C96.5746 34.96 97.0846 35.07 97.6046 35.15C98.1446 35.23 98.6146 35.27 99.0146 35.27C99.3346 35.27 99.6946 35.25 100.095 35.21C100.495 35.15 100.885 35.08 101.265 35C101.665 34.9 101.985 34.8 102.225 34.7C102.345 34.38 102.445 33.99 102.525 33.53C102.605 33.07 102.645 32.6 102.645 32.12C102.645 31.86 102.635 31.57 102.615 31.25C102.595 30.93 102.555 30.66 102.495 30.44C101.915 30.22 101.195 29.98 100.335 29.72C99.4746 29.44 98.5646 29.15 97.6046 28.85C96.6646 28.53 95.7646 28.21 94.9046 27.89C94.0446 27.57 93.3146 27.26 92.7146 26.96C92.1146 26.64 91.7446 26.34 91.6046 26.06C91.4446 25.76 91.3346 25.39 91.2746 24.95C91.2346 24.49 91.2146 24.04 91.2146 23.6C91.2146 22.78 91.2846 21.96 91.4246 21.14C91.5846 20.3 91.7646 19.68 91.9646 19.28C92.3646 18.98 92.8746 18.67 93.4946 18.35C94.1146 18.01 94.7846 17.7 95.5046 17.42C96.2246 17.12 96.9246 16.88 97.6046 16.7C98.3046 16.5 98.9046 16.4 99.4046 16.4C100.205 16.4 101.035 16.49 101.895 16.67C102.755 16.85 103.555 17.08 104.295 17.36C105.035 17.64 105.625 17.95 106.065 18.29C106.045 18.69 106.005 19.15 105.945 19.67C105.885 20.17 105.805 20.69 105.705 21.23C105.625 21.75 105.525 22.23 105.405 22.67C105.305 23.11 105.215 23.45 105.135 23.69C104.655 23.69 104.205 23.64 103.785 23.54C103.385 23.44 103.085 23.36 102.885 23.3L102.165 19.52C101.945 19.44 101.655 19.36 101.295 19.28C100.955 19.2 100.585 19.14 100.185 19.1C99.8046 19.04 99.4446 19.01 99.1046 19.01C98.7246 19.01 98.3246 19.03 97.9046 19.07C97.4846 19.11 97.0746 19.17 96.6746 19.25C96.2946 19.33 95.9546 19.42 95.6546 19.52C95.5346 19.84 95.4446 20.25 95.3846 20.75C95.3446 21.25 95.3246 21.73 95.3246 22.19C95.3246 22.49 95.3346 22.79 95.3546 23.09C95.3746 23.37 95.4046 23.6 95.4446 23.78C95.9246 23.96 96.5746 24.18 97.3946 24.44C98.2346 24.68 99.1446 24.95 100.125 25.25C101.105 25.55 102.045 25.87 102.945 26.21C103.845 26.53 104.615 26.86 105.255 27.2C105.895 27.54 106.295 27.87 106.455 28.19C106.575 28.51 106.645 28.84 106.665 29.18C106.705 29.5 106.725 29.88 106.725 30.32C106.725 31.5 106.645 32.49 106.485 33.29C106.325 34.07 106.125 34.73 105.885 35.27C105.665 35.49 105.275 35.76 104.715 36.08C104.175 36.38 103.515 36.68 102.735 36.98C101.975 37.26 101.175 37.5 100.335 37.7C99.4946 37.9 98.6946 38 97.9346 38ZM116.668 38C116.528 38 116.228 37.98 115.768 37.94C115.308 37.88 114.768 37.81 114.148 37.73C113.548 37.65 112.938 37.57 112.318 37.49C111.698 37.39 111.148 37.3 110.668 37.22C110.208 37.14 109.888 37.07 109.708 37.01C109.708 36.81 109.738 36.62 109.798 36.44C109.858 36.26 109.918 36.13 109.978 36.05L110.848 35.93C111.188 35.87 111.458 35.76 111.658 35.6C111.878 35.42 112.038 35.12 112.138 34.7C112.238 34.28 112.288 33.69 112.288 32.93V21.08C112.288 20.36 112.348 19.82 112.468 19.46C112.608 19.1 112.728 18.85 112.828 18.71H110.038C109.998 18.65 109.938 18.55 109.858 18.41C109.778 18.25 109.728 18.06 109.708 17.84C109.828 17.7 110.008 17.56 110.248 17.42C110.488 17.26 110.738 17.13 110.998 17.03C111.258 16.93 111.438 16.88 111.538 16.88H118.798C118.878 16.98 118.958 17.15 119.038 17.39C119.138 17.61 119.188 17.88 119.188 18.2L117.898 18.59C117.578 18.67 117.308 18.79 117.088 18.95C116.888 19.11 116.728 19.36 116.608 19.7C116.508 20.02 116.458 20.51 116.458 21.17V26.12C117.198 26.12 117.968 26.11 118.768 26.09C119.588 26.07 120.378 26.05 121.138 26.03C121.918 26.01 122.618 25.98 123.238 25.94C123.878 25.9 124.408 25.86 124.828 25.82V21.08C124.828 20.36 124.888 19.81 125.008 19.43C125.128 19.05 125.248 18.81 125.368 18.71H122.578C122.538 18.63 122.478 18.51 122.398 18.35C122.318 18.19 122.268 18.02 122.248 17.84C122.368 17.7 122.548 17.56 122.788 17.42C123.048 17.26 123.298 17.13 123.538 17.03C123.798 16.93 123.978 16.88 124.078 16.88H131.308C131.408 16.98 131.498 17.15 131.578 17.39C131.658 17.63 131.698 17.9 131.698 18.2L130.408 18.59C130.108 18.67 129.848 18.79 129.628 18.95C129.408 19.11 129.238 19.36 129.118 19.7C129.018 20.04 128.968 20.53 128.968 21.17V33.71C128.968 34.19 128.908 34.61 128.788 34.97C128.688 35.33 128.578 35.58 128.458 35.72L131.338 36.08C131.378 36.14 131.428 36.26 131.488 36.44C131.548 36.6 131.578 36.79 131.578 37.01C131.278 37.25 130.898 37.48 130.438 37.7C129.978 37.9 129.568 38 129.208 38C129.068 38 128.758 37.98 128.278 37.94C127.818 37.88 127.278 37.81 126.658 37.73C126.058 37.65 125.448 37.57 124.828 37.49C124.228 37.39 123.688 37.3 123.208 37.22C122.748 37.14 122.428 37.07 122.248 37.01C122.248 36.81 122.278 36.62 122.338 36.44C122.398 36.26 122.458 36.13 122.518 36.05L123.388 35.93C123.748 35.87 124.028 35.75 124.228 35.57C124.448 35.39 124.598 35.09 124.678 34.67C124.778 34.25 124.828 33.67 124.828 32.93V28.1H116.458V33.71C116.458 34.21 116.398 34.64 116.278 35C116.158 35.34 116.038 35.58 115.918 35.72L118.828 36.08C118.868 36.14 118.908 36.26 118.948 36.44C119.008 36.62 119.038 36.81 119.038 37.01C118.738 37.27 118.358 37.5 117.898 37.7C117.458 37.9 117.048 38 116.668 38ZM147.276 38C146.856 38 146.236 37.98 145.416 37.94C144.616 37.9 143.706 37.85 142.686 37.79C141.686 37.73 140.666 37.66 139.626 37.58C138.586 37.48 137.606 37.39 136.686 37.31C135.786 37.21 135.026 37.11 134.406 37.01C134.406 36.81 134.436 36.62 134.496 36.44C134.556 36.24 134.616 36.1 134.676 36.02L135.546 35.93C135.926 35.87 136.216 35.74 136.416 35.54C136.616 35.34 136.756 35.03 136.836 34.61C136.936 34.19 136.986 33.63 136.986 32.93V21.08C136.986 20.52 137.036 20.03 137.136 19.61C137.236 19.17 137.366 18.87 137.526 18.71H134.736C134.696 18.65 134.636 18.55 134.556 18.41C134.476 18.25 134.426 18.06 134.406 17.84C134.506 17.7 134.676 17.56 134.916 17.42C135.176 17.28 135.426 17.16 135.666 17.06C135.926 16.94 136.116 16.88 136.236 16.88H146.766C147.286 16.98 147.826 17.16 148.386 17.42C148.966 17.68 149.506 17.97 150.006 18.29C150.506 18.61 150.906 18.93 151.206 19.25C151.306 19.53 151.386 19.86 151.446 20.24C151.506 20.62 151.536 21 151.536 21.38C151.536 22.06 151.476 22.74 151.356 23.42C151.256 24.08 151.116 24.67 150.936 25.19C150.756 25.69 150.546 26.04 150.306 26.24C150.046 26.4 149.686 26.57 149.226 26.75C148.766 26.91 148.286 27.03 147.786 27.11L147.756 27.23C148.676 27.31 149.506 27.5 150.246 27.8C150.986 28.08 151.516 28.33 151.836 28.55C152.036 28.97 152.176 29.44 152.256 29.96C152.356 30.48 152.406 31 152.406 31.52C152.406 31.96 152.376 32.42 152.316 32.9C152.256 33.38 152.176 33.85 152.076 34.31C151.996 34.75 151.886 35.15 151.746 35.51C151.506 35.81 151.116 36.16 150.576 36.56C150.056 36.94 149.496 37.27 148.896 37.55C148.296 37.83 147.756 37.98 147.276 38ZM140.616 35.72H147.066C147.306 35.46 147.506 35.12 147.666 34.7C147.826 34.28 147.936 33.82 147.996 33.32C148.076 32.82 148.116 32.32 148.116 31.82C148.116 31.38 148.086 30.94 148.026 30.5C147.966 30.06 147.876 29.68 147.756 29.36C147.536 29.16 147.186 28.96 146.706 28.76C146.246 28.56 145.716 28.4 145.116 28.28C144.536 28.14 143.936 28.07 143.316 28.07H141.156V33.71C141.156 34.19 141.096 34.61 140.976 34.97C140.856 35.31 140.736 35.56 140.616 35.72ZM141.156 26.21C141.716 26.19 142.306 26.17 142.926 26.15C143.566 26.13 144.196 26.1 144.816 26.06C145.436 26.02 146.006 25.96 146.526 25.88C146.866 25.42 147.116 24.88 147.276 24.26C147.436 23.62 147.516 22.94 147.516 22.22C147.516 21.62 147.446 21.08 147.306 20.6C147.186 20.1 146.966 19.68 146.646 19.34C146.306 19.2 145.906 19.1 145.446 19.04C145.006 18.96 144.566 18.9 144.126 18.86C143.686 18.82 143.316 18.8 143.016 18.8C142.316 18.8 141.826 19 141.546 19.4C141.286 19.8 141.156 20.34 141.156 21.02V26.21ZM164.683 38C163.983 38 163.233 37.88 162.433 37.64C161.653 37.4 160.903 37.1 160.183 36.74C159.463 36.38 158.833 36.02 158.293 35.66C157.753 35.28 157.383 34.97 157.183 34.73C156.723 34.05 156.373 33.13 156.133 31.97C155.913 30.79 155.803 29.55 155.803 28.25C155.803 27.15 155.863 26.07 155.983 25.01C156.103 23.95 156.253 22.97 156.433 22.07C156.633 21.17 156.833 20.44 157.033 19.88C157.553 19.46 158.183 19.05 158.923 18.65C159.683 18.23 160.493 17.85 161.353 17.51C162.213 17.17 163.083 16.9 163.963 16.7C164.843 16.5 165.673 16.4 166.453 16.4C166.993 16.4 167.593 16.48 168.253 16.64C168.913 16.8 169.573 17.01 170.233 17.27C170.893 17.53 171.483 17.82 172.003 18.14C172.543 18.44 172.933 18.75 173.173 19.07C173.513 19.59 173.783 20.26 173.983 21.08C174.203 21.9 174.373 22.78 174.493 23.72C174.613 24.64 174.673 25.56 174.673 26.48C174.673 27.52 174.613 28.56 174.493 29.6C174.373 30.64 174.203 31.62 173.983 32.54C173.783 33.44 173.553 34.24 173.293 34.94C172.773 35.38 172.043 35.84 171.103 36.32C170.163 36.8 169.133 37.2 168.013 37.52C166.893 37.84 165.783 38 164.683 38ZM165.373 35.51C165.733 35.51 166.173 35.46 166.693 35.36C167.213 35.26 167.713 35.13 168.193 34.97C168.673 34.81 169.033 34.67 169.273 34.55C169.493 33.97 169.673 33.29 169.813 32.51C169.973 31.73 170.083 30.89 170.143 29.99C170.223 29.07 170.263 28.14 170.263 27.2C170.263 25.94 170.203 24.74 170.083 23.6C169.983 22.44 169.833 21.5 169.633 20.78C169.533 20.62 169.313 20.44 168.973 20.24C168.633 20.04 168.243 19.85 167.803 19.67C167.383 19.49 166.963 19.34 166.543 19.22C166.123 19.1 165.773 19.04 165.493 19.04C165.113 19.04 164.643 19.08 164.083 19.16C163.543 19.22 163.003 19.31 162.463 19.43C161.923 19.55 161.463 19.67 161.083 19.79C160.883 20.31 160.703 20.95 160.543 21.71C160.383 22.45 160.263 23.26 160.183 24.14C160.123 25 160.093 25.9 160.093 26.84C160.093 28.12 160.173 29.38 160.333 30.62C160.493 31.84 160.743 32.86 161.083 33.68C161.223 33.86 161.483 34.06 161.863 34.28C162.243 34.48 162.653 34.68 163.093 34.88C163.553 35.06 163.993 35.21 164.413 35.33C164.833 35.45 165.153 35.51 165.373 35.51ZM183.704 38C183.584 38 183.324 37.98 182.924 37.94C182.544 37.88 182.074 37.82 181.514 37.76C180.974 37.68 180.414 37.6 179.834 37.52C179.254 37.42 178.704 37.32 178.184 37.22C177.684 37.12 177.294 37.03 177.014 36.95C177.014 36.73 177.044 36.53 177.104 36.35C177.184 36.17 177.254 36.05 177.314 35.99L177.764 35.9C177.984 35.86 178.214 35.79 178.454 35.69C178.694 35.59 178.944 35.37 179.204 35.03C179.484 34.67 179.774 34.14 180.074 33.44C180.374 32.72 180.704 31.73 181.064 30.47L184.364 18.74C184.524 18.56 184.794 18.34 185.174 18.08C185.554 17.82 185.974 17.56 186.434 17.3C186.914 17.04 187.364 16.83 187.784 16.67C188.224 16.49 188.554 16.4 188.774 16.4C189.054 16.4 189.444 16.49 189.944 16.67C190.464 16.83 190.984 17.05 191.504 17.33C192.044 17.59 192.484 17.87 192.824 18.17L196.694 35.09C196.754 35.33 196.844 35.51 196.964 35.63C197.104 35.73 197.304 35.79 197.564 35.81L199.394 36.05C199.454 36.13 199.514 36.22 199.574 36.32C199.634 36.42 199.664 36.63 199.664 36.95C199.504 37.11 199.274 37.27 198.974 37.43C198.674 37.59 198.354 37.73 198.014 37.85C197.674 37.95 197.384 38 197.144 38C197.004 38 196.694 37.97 196.214 37.91C195.734 37.85 195.174 37.78 194.534 37.7C193.894 37.6 193.244 37.5 192.584 37.4C191.944 37.28 191.364 37.17 190.844 37.07C190.344 36.97 190.004 36.89 189.824 36.83C189.824 36.59 189.864 36.39 189.944 36.23C190.044 36.05 190.104 35.94 190.124 35.9L191.054 35.87C191.334 35.85 191.584 35.8 191.804 35.72C192.024 35.64 192.184 35.46 192.284 35.18C192.384 34.9 192.364 34.47 192.224 33.89L191.234 29.51H184.034L182.894 33.65C182.794 34.01 182.654 34.35 182.474 34.67C182.314 34.97 182.134 35.22 181.934 35.42C181.754 35.6 181.584 35.71 181.424 35.75L185.924 36.08C185.944 36.14 185.994 36.25 186.074 36.41C186.154 36.57 186.194 36.76 186.194 36.98C186.054 37.14 185.824 37.3 185.504 37.46C185.204 37.62 184.884 37.75 184.544 37.85C184.204 37.95 183.924 38 183.704 38ZM184.544 27.53C185.564 27.51 186.484 27.49 187.304 27.47C188.124 27.43 188.824 27.39 189.404 27.35C189.984 27.29 190.424 27.23 190.724 27.17L189.134 20C188.754 19.72 188.364 19.5 187.964 19.34C187.584 19.16 187.194 19.04 186.794 18.98L184.544 27.53ZM208.397 38C208.257 38 207.957 37.98 207.497 37.94C207.037 37.88 206.497 37.81 205.877 37.73C205.277 37.65 204.667 37.57 204.047 37.49C203.427 37.39 202.877 37.3 202.397 37.22C201.937 37.14 201.617 37.07 201.437 37.01C201.437 36.81 201.467 36.62 201.527 36.44C201.587 36.26 201.647 36.13 201.707 36.05L202.577 35.93C202.957 35.87 203.247 35.74 203.447 35.54C203.647 35.34 203.787 35.03 203.867 34.61C203.967 34.19 204.017 33.63 204.017 32.93V21.08C204.017 20.48 204.057 20.02 204.137 19.7C204.217 19.36 204.297 19.12 204.377 18.98C204.477 18.82 204.537 18.73 204.557 18.71H201.767C201.707 18.65 201.637 18.53 201.557 18.35C201.497 18.17 201.457 18 201.437 17.84C201.537 17.7 201.707 17.56 201.947 17.42C202.207 17.28 202.467 17.16 202.727 17.06C202.987 16.94 203.167 16.88 203.267 16.88H214.337C214.777 16.98 215.257 17.15 215.777 17.39C216.297 17.63 216.787 17.89 217.247 18.17C217.707 18.43 218.057 18.7 218.297 18.98C218.517 19.36 218.667 19.81 218.747 20.33C218.847 20.85 218.897 21.4 218.897 21.98C218.897 22.7 218.847 23.33 218.747 23.87C218.647 24.39 218.507 24.84 218.327 25.22C218.167 25.58 217.987 25.88 217.787 26.12C217.587 26.36 217.287 26.6 216.887 26.84C216.507 27.08 216.087 27.31 215.627 27.53C215.187 27.73 214.757 27.9 214.337 28.04V28.19C214.737 28.39 215.057 28.65 215.297 28.97C215.557 29.27 215.827 29.73 216.107 30.35L217.277 32.87C217.617 33.57 217.937 34.12 218.237 34.52C218.537 34.92 218.847 35.21 219.167 35.39C219.507 35.57 219.877 35.67 220.277 35.69H221.087C221.167 35.77 221.247 35.92 221.327 36.14C221.427 36.36 221.477 36.61 221.477 36.89C221.137 37.13 220.747 37.34 220.307 37.52C219.867 37.68 219.437 37.8 219.017 37.88C218.597 37.96 218.227 38 217.907 38C216.767 38 215.857 37.7 215.177 37.1C214.497 36.48 213.957 35.64 213.557 34.58L211.667 29.72C211.527 29.36 211.347 29.09 211.127 28.91C210.907 28.71 210.597 28.61 210.197 28.61H208.187V33.71C208.187 34.21 208.127 34.64 208.007 35C207.887 35.34 207.767 35.58 207.647 35.72L210.767 36.08C210.807 36.16 210.857 36.28 210.917 36.44C210.977 36.6 211.007 36.79 211.007 37.01C210.727 37.25 210.317 37.48 209.777 37.7C209.237 37.9 208.777 38 208.397 38ZM208.187 26.63C208.927 26.61 209.657 26.6 210.377 26.6C211.097 26.58 211.767 26.55 212.387 26.51C213.027 26.45 213.587 26.39 214.067 26.33C214.307 25.97 214.507 25.47 214.667 24.83C214.827 24.17 214.907 23.4 214.907 22.52C214.907 21.84 214.837 21.22 214.697 20.66C214.577 20.08 214.367 19.62 214.067 19.28C213.747 19.18 213.317 19.1 212.777 19.04C212.237 18.96 211.707 18.9 211.187 18.86C210.687 18.82 210.307 18.8 210.047 18.8C209.327 18.8 208.837 19 208.577 19.4C208.317 19.8 208.187 20.34 208.187 21.02V26.63ZM235.449 38.03C234.889 38.01 234.159 37.97 233.259 37.91C232.359 37.85 231.389 37.78 230.349 37.7C229.309 37.62 228.289 37.54 227.289 37.46C226.309 37.36 225.439 37.27 224.679 37.19C223.919 37.11 223.369 37.05 223.029 37.01C223.029 36.81 223.059 36.62 223.119 36.44C223.179 36.24 223.239 36.1 223.299 36.02L224.169 35.93C224.549 35.87 224.839 35.74 225.039 35.54C225.239 35.34 225.379 35.03 225.459 34.61C225.559 34.19 225.609 33.63 225.609 32.93V21.08C225.609 20.48 225.649 20.02 225.729 19.7C225.809 19.36 225.889 19.12 225.969 18.98C226.069 18.82 226.129 18.73 226.149 18.71H223.359C223.299 18.65 223.229 18.53 223.149 18.35C223.089 18.17 223.049 18 223.029 17.84C223.129 17.7 223.299 17.56 223.539 17.42C223.799 17.26 224.049 17.13 224.289 17.03C224.549 16.91 224.739 16.85 224.859 16.85H236.529C236.769 16.89 237.099 17 237.519 17.18C237.939 17.34 238.389 17.54 238.869 17.78C239.349 18 239.779 18.23 240.159 18.47C240.559 18.71 240.849 18.93 241.029 19.13C241.649 20.21 242.069 21.39 242.289 22.67C242.529 23.95 242.649 25.24 242.649 26.54C242.649 27.76 242.569 28.93 242.409 30.05C242.269 31.17 242.069 32.18 241.809 33.08C241.569 33.98 241.309 34.69 241.029 35.21C240.689 35.55 240.269 35.88 239.769 36.2C239.269 36.52 238.749 36.81 238.209 37.07C237.669 37.33 237.149 37.55 236.649 37.73C236.169 37.89 235.769 37.99 235.449 38.03ZM229.239 35.72H236.499C236.799 35.36 237.069 34.88 237.309 34.28C237.549 33.68 237.749 33 237.909 32.24C238.069 31.48 238.189 30.68 238.269 29.84C238.349 28.98 238.389 28.12 238.389 27.26C238.389 26.42 238.349 25.59 238.269 24.77C238.209 23.95 238.099 23.18 237.939 22.46C237.779 21.74 237.569 21.11 237.309 20.57C237.069 20.01 236.769 19.58 236.409 19.28C236.049 19.18 235.609 19.1 235.089 19.04C234.589 18.96 234.039 18.9 233.439 18.86C232.859 18.82 232.249 18.8 231.609 18.8C230.869 18.8 230.379 19 230.139 19.4C229.899 19.78 229.779 20.35 229.779 21.11V33.71C229.779 34.19 229.719 34.61 229.599 34.97C229.479 35.31 229.359 35.56 229.239 35.72Z" fill="black"/>
</svg>
