<svg width="94" height="35" viewBox="0 0 94 35" fill="none" xmlns="http://www.w3.org/2000/svg">
<path d="M6.5 12.15C8.23044 12.15 9.80417 12.6011 10.9619 13.2368C11.5397 13.554 12.0337 13.9284 12.3904 14.3353C12.7414 14.735 13 15.2134 13 15.725C13 16.2743 12.7032 16.7071 12.2756 17.0159C11.8712 17.3084 11.3374 17.5021 10.7705 17.6373C9.63083 17.9083 8.10983 18 6.5 18C4.89017 18 3.36917 17.909 2.2295 17.6373C1.66256 17.5021 1.12883 17.3084 0.724389 17.0159C0.296111 16.7065 0 16.2743 0 15.725C0 15.2134 0.258556 14.735 0.609556 14.3347C0.966333 13.9284 1.45961 13.5546 2.03811 13.2361C3.19583 12.6017 4.77028 12.15 6.5 12.15ZM6.5 5C7.45773 5 8.37623 5.34241 9.05344 5.9519C9.73066 6.5614 10.1111 7.38805 10.1111 8.25C10.1111 9.11195 9.73066 9.9386 9.05344 10.5481C8.37623 11.1576 7.45773 11.5 6.5 11.5C5.54227 11.5 4.62377 11.1576 3.94656 10.5481C3.26934 9.9386 2.88889 9.11195 2.88889 8.25C2.88889 7.38805 3.26934 6.5614 3.94656 5.9519C4.62377 5.34241 5.54227 5 6.5 5Z" fill="#3D0000"/>
<path d="M19.9069 15.498H21.4009L24.3529 7.92L24.3349 7.902H22.5709V5.4H29.0329L32.6689 15.498H34.2169V18H27.9889V15.498H29.7349L29.1409 13.842H24.6589L24.0289 15.498H25.9549V18H19.9069V15.498ZM28.4389 11.754L27.1069 8.046H26.8009L25.3969 11.754H28.4389ZM39.3121 5.4C40.7401 5.4 41.9941 5.664 43.0741 6.192C44.1661 6.708 45.0061 7.446 45.5941 8.406C46.1821 9.354 46.4761 10.452 46.4761 11.7C46.4761 12.948 46.1821 14.052 45.5941 15.012C45.0061 15.96 44.1661 16.698 43.0741 17.226C41.9941 17.742 40.7401 18 39.3121 18H34.2721V15.498H35.9281V7.902H34.2721V5.4H39.3121ZM39.5101 15.498C40.3861 15.498 41.1361 15.348 41.7601 15.048C42.3841 14.736 42.8581 14.298 43.1821 13.734C43.5181 13.158 43.6861 12.48 43.6861 11.7C43.6861 10.92 43.5181 10.248 43.1821 9.684C42.8581 9.108 42.3841 8.67 41.7601 8.37C41.1361 8.058 40.3861 7.902 39.5101 7.902H38.5561V15.498H39.5101ZM47.403 15.498H49.041V7.902H47.403V5.4H53.127L55.881 14.67L58.635 5.4H64.323V7.902H62.703V15.498H64.323V18H58.779V15.498H60.165V8.136H60.075L57.051 18H54.657L51.633 8.136H51.561V15.498H52.947V18H47.403V15.498ZM65.2799 15.498H66.9359V7.902H65.2799V5.4H71.2199V7.902H69.5639V15.498H71.2199V18H65.2799V15.498ZM76.3641 9.18V15.498H78.3261V18H72.1881V15.498H73.8441V7.92L73.8261 7.902H72.1521V5.4H76.9941L82.3041 13.59V7.902H80.6301V5.4H86.2821V7.902H84.8241V18.144H82.1781L76.3641 9.18Z" fill="black"/>
</svg>
