<svg width="310" height="130" viewBox="0 0 310 130" fill="none" xmlns="http://www.w3.org/2000/svg">
<g filter="url(#filter0_i_91_943)">
<path d="M109.878 92.8501L65.4096 118.924C60.4604 121.825 54.1553 123.801 47.2912 124.601C40.4272 125.402 33.3126 124.991 26.8468 123.421C20.3811 121.85 14.8545 119.191 10.9659 115.78C7.07722 112.368 5.0011 108.357 5 104.253V92.8501L25.3313 33.2526C28.0468 25.2865 35.3855 18.1182 46.0989 12.9672C56.8122 7.81626 70.2383 5.00084 84.0929 5H225.558C239.413 5.00084 252.839 7.81626 263.552 12.9672C274.265 18.1182 281.604 25.2865 284.32 33.2526L304.651 92.8501V104.244C304.65 108.348 302.574 112.359 298.685 115.771C294.796 119.183 289.27 121.842 282.804 123.412C276.338 124.982 269.224 125.393 262.36 124.593C255.496 123.792 249.19 121.817 244.241 118.915L199.773 92.8501H109.878Z" fill="#FF0000"/>
</g>
<path d="M109.878 92.8501L65.4096 118.924C60.4604 121.825 54.1553 123.801 47.2912 124.601C40.4272 125.402 33.3126 124.991 26.8468 123.421C20.3811 121.85 14.8545 119.191 10.9659 115.78C7.07722 112.368 5.0011 108.357 5 104.253V92.8501L25.3313 33.2526C28.0468 25.2865 35.3855 18.1182 46.0989 12.9672C56.8122 7.81626 70.2383 5.00084 84.0929 5H225.558C239.413 5.00084 252.839 7.81626 263.552 12.9672C274.265 18.1182 281.604 25.2865 284.32 33.2526L304.651 92.8501V104.244C304.65 108.348 302.574 112.359 298.685 115.771C294.796 119.183 289.27 121.842 282.804 123.412C276.338 124.982 269.224 125.393 262.36 124.593C255.496 123.792 249.19 121.817 244.241 118.915L199.773 92.8501H109.878Z" stroke="black" stroke-width="10" stroke-linecap="round" stroke-linejoin="round"/>
<path d="M109.878 5L124.86 22.57H184.791L199.773 5" fill="#950101"/>
<path d="M109.878 5L124.86 22.57H184.791L199.773 5" stroke="black" stroke-width="10" stroke-linecap="round" stroke-linejoin="round"/>
<path fill-rule="evenodd" clip-rule="evenodd" d="M97.975 40.1169C99.5897 40.1169 100.925 40.8891 101.903 41.7005C102.921 42.5421 103.854 43.6736 104.683 44.9209C106.349 47.4225 107.798 50.691 108.757 53.9203C109.709 57.1247 110.236 60.4715 109.9 63.103C109.561 65.7452 107.942 68.5848 104.324 68.5848C101.2 68.5848 98.7114 67.2326 96.6757 65.8608L95.9329 65.3466L94.8917 64.6082L93.9522 63.9535C91.7958 62.4856 89.8806 61.4679 87.3941 61.4679C84.9076 61.4679 82.9925 62.4856 80.8361 63.9535L79.8965 64.6082L78.8553 65.3466L78.1147 65.8608C76.0747 67.2326 73.5861 68.5848 70.4647 68.5848C66.8439 68.5848 65.225 65.7452 64.8886 63.103C64.5542 60.4697 65.079 57.1247 66.0313 53.9203C66.9899 50.691 68.4395 47.4225 70.1049 44.9191C70.9345 43.6736 71.8677 42.5421 72.8856 41.6987C73.8633 40.8891 75.1986 40.1169 76.8132 40.1169C77.9031 40.1169 78.9675 40.3358 80.015 40.5973L81.2678 40.9194C81.4773 40.9728 81.6847 41.0261 81.8921 41.0742C83.7226 41.5154 85.5954 41.8962 87.3941 41.8962C89.1929 41.8962 91.0657 41.5154 92.8962 41.0742L94.769 40.5991C95.8229 40.3376 96.8958 40.1169 97.975 40.1169ZM97.975 43.6754C97.1645 43.6754 96.3181 43.8818 95.497 44.1078L94.5278 44.3765C94.3726 44.4189 94.2167 44.4592 94.0601 44.4974C92.1873 44.9458 89.8277 45.4547 87.3941 45.4547C84.9605 45.4547 82.601 44.9458 80.7282 44.4974L80.2626 44.3765L79.2913 44.1078C78.4702 43.88 77.6237 43.6754 76.8132 43.6754C75.9287 43.8142 75.1351 44.7163 74.5362 45.5525L74.2019 46.0418L73.7998 46.6574C72.3566 48.8246 71.0276 51.7817 70.1388 54.7832C69.3029 57.5873 68.8966 60.274 69.0511 62.2738L69.1061 62.7952L69.1484 63.1083L69.2119 63.4784C69.3579 64.1919 69.6732 65.0263 70.4647 65.0263C72.183 65.0263 73.6178 64.3075 75.4017 63.1154L76.2546 62.5318L77.8629 61.4002L78.5908 60.9021C80.8424 59.4022 83.6591 57.9094 87.3941 57.9094C91.1292 57.9094 93.9458 59.4039 96.1974 60.9021L96.9275 61.4002L98.5358 62.5318L99.3865 63.1154C101.17 64.3075 102.603 65.0263 104.324 65.0263C105.043 65.0263 105.369 64.3378 105.532 63.6759L105.612 63.288L105.691 62.724C105.951 60.685 105.549 57.8044 104.652 54.7832C103.835 52.0325 102.65 49.3174 101.346 47.2143L100.586 46.04L100.252 45.5543C99.6531 44.7163 98.8596 43.8142 97.975 43.6754ZM79.9875 47.2339C81.3906 47.2339 82.7363 47.7026 83.7284 48.5367C84.7206 49.3709 85.2779 50.5023 85.2779 51.682C85.2779 52.8617 84.7206 53.9931 83.7284 54.8273C82.7363 55.6615 81.3906 56.1301 79.9875 56.1301C78.5844 56.1301 77.2387 55.6615 76.2466 54.8273C75.2544 53.9931 74.6971 52.8617 74.6971 51.682C74.6971 50.5023 75.2544 49.3709 76.2466 48.5367C77.2387 47.7026 78.5844 47.2339 79.9875 47.2339ZM94.8008 47.2339C95.3191 47.234 95.8193 47.394 96.2067 47.6836C96.594 47.9731 96.8415 48.3722 96.9021 48.805L96.9169 49.0132V49.9028H97.975C98.5144 49.9033 99.0332 50.0769 99.4254 50.3882C99.8176 50.6996 100.054 51.125 100.085 51.5777C100.117 52.0305 99.9416 52.4762 99.5955 52.824C99.2493 53.1718 98.7582 53.3952 98.2226 53.4488L97.975 53.4613H96.9169V54.3509C96.9163 54.8044 96.7098 55.2406 96.3395 55.5703C95.9693 55.9001 95.4632 56.0985 94.9248 56.1251C94.3863 56.1517 93.8561 56.0044 93.4425 55.7133C93.0289 55.4222 92.7631 55.0094 92.6994 54.5591L92.6846 54.3509V53.4613H91.6265C91.0871 53.4608 90.5683 53.2871 90.1761 52.9758C89.7839 52.6645 89.5479 52.239 89.5163 51.7863C89.4847 51.3336 89.6599 50.8878 90.0061 50.54C90.3522 50.1923 90.8433 49.9688 91.3789 49.9152L91.6265 49.9028H92.6846V49.0132C92.6846 48.5413 92.9075 48.0887 93.3044 47.755C93.7012 47.4214 94.2395 47.2339 94.8008 47.2339ZM79.9875 50.7924C79.7069 50.7924 79.4377 50.8861 79.2393 51.053C79.0409 51.2198 78.9294 51.4461 78.9294 51.682C78.9294 51.918 79.0409 52.1442 79.2393 52.3111C79.4377 52.4779 79.7069 52.5716 79.9875 52.5716C80.2681 52.5716 80.5373 52.4779 80.7357 52.3111C80.9341 52.1442 81.0456 51.918 81.0456 51.682C81.0456 51.4461 80.9341 51.2198 80.7357 51.053C80.5373 50.8861 80.2681 50.7924 79.9875 50.7924Z" fill="black"/>
<path d="M62.4593 48.3597C61.5953 46.6957 60.3953 45.4477 58.8593 44.6158C57.3233 43.7517 55.5473 43.3197 53.5313 43.3197C51.3233 43.3197 49.3553 43.8158 47.6273 44.8078C45.8993 45.7997 44.5393 47.2077 43.5473 49.0317C42.5873 50.8557 42.1073 52.9678 42.1073 55.3678C42.1073 57.7678 42.5873 59.8958 43.5473 61.7518C44.5393 63.5758 45.8993 64.9838 47.6273 65.9758C49.3553 66.9678 51.3233 67.4638 53.5313 67.4638C56.5073 67.4638 58.9233 66.6318 60.7793 64.9678C62.6353 63.3038 63.7713 61.0478 64.1873 58.1997H51.6593V53.8318H70.0433V58.1037C69.6913 60.6958 68.7633 63.0798 67.2593 65.2558C65.7873 67.4318 63.8513 69.1758 61.4513 70.4878C59.0833 71.7678 56.4433 72.4078 53.5313 72.4078C50.3953 72.4078 47.5313 71.6878 44.9393 70.2478C42.3473 68.7758 40.2833 66.7438 38.7473 64.1518C37.2433 61.5598 36.4913 58.6318 36.4913 55.3678C36.4913 52.1037 37.2433 49.1757 38.7473 46.5838C40.2833 43.9917 42.3473 41.9757 44.9393 40.5357C47.5633 39.0637 50.4273 38.3277 53.5313 38.3277C57.0833 38.3277 60.2353 39.2077 62.9873 40.9677C65.7713 42.6957 67.7873 45.1597 69.0353 48.3597H62.4593ZM147.983 38.7597V72.1198H142.511V49.2718L132.335 72.1198H128.543L118.319 49.2718V72.1198H112.847V38.7597H118.751L130.463 64.9198L142.127 38.7597H147.983ZM160.647 43.1757V52.9678H172.167V57.4317H160.647V67.6558H173.607V72.1198H155.175V38.7117H173.607V43.1757H160.647ZM212.927 65.3038H198.959L196.559 72.1198H190.847L202.799 38.7117H209.135L221.087 72.1198H215.327L212.927 65.3038ZM211.391 60.8398L205.967 45.3357L200.495 60.8398H211.391ZM249.612 48.6957C249.612 50.3917 249.212 51.9917 248.412 53.4958C247.612 54.9998 246.332 56.2318 244.572 57.1918C242.812 58.1198 240.556 58.5838 237.804 58.5838H231.756V72.1198H226.284V38.7597H237.804C240.364 38.7597 242.524 39.2077 244.284 40.1037C246.076 40.9677 247.404 42.1517 248.268 43.6557C249.164 45.1597 249.612 46.8398 249.612 48.6957ZM237.804 54.1197C239.884 54.1197 241.436 53.6557 242.46 52.7278C243.484 51.7678 243.996 50.4237 243.996 48.6957C243.996 45.0477 241.932 43.2237 237.804 43.2237H231.756V54.1197H237.804ZM278.159 48.6957C278.159 50.3917 277.759 51.9917 276.959 53.4958C276.159 54.9998 274.879 56.2318 273.119 57.1918C271.359 58.1198 269.103 58.5838 266.351 58.5838H260.303V72.1198H254.831V38.7597H266.351C268.911 38.7597 271.071 39.2077 272.831 40.1037C274.623 40.9677 275.951 42.1517 276.815 43.6557C277.711 45.1597 278.159 46.8398 278.159 48.6957ZM266.351 54.1197C268.431 54.1197 269.983 53.6557 271.007 52.7278C272.031 51.7678 272.543 50.4237 272.543 48.6957C272.543 45.0477 270.479 43.2237 266.351 43.2237H260.303V54.1197H266.351Z" fill="black"/>
<defs>
<filter id="filter0_i_91_943" x="0" y="0" width="309.651" height="134" filterUnits="userSpaceOnUse" color-interpolation-filters="sRGB">
<feFlood flood-opacity="0" result="BackgroundImageFix"/>
<feBlend mode="normal" in="SourceGraphic" in2="BackgroundImageFix" result="shape"/>
<feColorMatrix in="SourceAlpha" type="matrix" values="0 0 0 0 0 0 0 0 0 0 0 0 0 0 0 0 0 0 127 0" result="hardAlpha"/>
<feOffset dy="4"/>
<feGaussianBlur stdDeviation="2"/>
<feComposite in2="hardAlpha" operator="arithmetic" k2="-1" k3="1"/>
<feColorMatrix type="matrix" values="0 0 0 0 0 0 0 0 0 0 0 0 0 0 0 0 0 0 0.25 0"/>
<feBlend mode="normal" in2="shape" result="effect1_innerShadow_91_943"/>
</filter>
</defs>
</svg>
