<svg width="122" height="26" viewBox="0 0 122 26" fill="none" xmlns="http://www.w3.org/2000/svg">
<path d="M16.7503 22.208C16.7503 22.1653 16.7289 22.144 16.6863 22.144C16.6436 22.1227 16.6116 22.1227 16.5903 22.144C16.3982 22.3573 16.1849 22.56 15.9503 22.752C15.7156 22.944 15.4703 23.1253 15.2143 23.296C14.5956 23.68 13.8916 23.968 13.1023 24.16C12.3343 24.3733 11.4916 24.48 10.5743 24.48C8.67558 24.48 6.92625 23.9893 5.32625 23.008C3.74758 22.0053 2.48892 20.6187 1.55025 18.848C0.632917 17.0773 0.17425 15.0613 0.17425 12.8C0.17425 10.5387 0.643583 8.52267 1.58225 6.752C2.52092 4.98133 3.80092 3.60533 5.42225 2.624C7.04358 1.62133 8.83558 1.12 10.7983 1.12C11.9929 1.12 13.0489 1.30133 13.9663 1.664C14.9903 2.06933 15.8436 2.63467 16.5263 3.36V0.831999H20.9743V9.6H16.5903V9.216C16.4836 8.61867 16.1849 8.064 15.6943 7.552C15.2036 7.01867 14.5849 6.60267 13.8383 6.304C13.0916 5.984 12.2703 5.824 11.3743 5.824C10.1796 5.824 9.10225 6.12267 8.14225 6.72C7.20358 7.31733 6.46758 8.14933 5.93425 9.216C5.40092 10.2613 5.13425 11.456 5.13425 12.8C5.13425 14.1653 5.40092 15.4027 5.93425 16.512C6.46758 17.6 7.20358 18.4533 8.14225 19.072C9.08092 19.6907 10.1369 20 11.3103 20C12.2276 20 13.0703 19.8293 13.8383 19.488C14.6276 19.1467 15.2676 18.7093 15.7583 18.176C16.2489 17.6213 16.5476 17.024 16.6543 16.384V15.488H11.6623V11.68H23.8543V15.904H21.5823V24.16H16.7503V22.208ZM23.3882 19.552H26.0443L31.2923 6.08L31.2603 6.048H28.1243V1.6H39.6123L46.0763 19.552H48.8283V24H37.7563V19.552H40.8603L39.8043 16.608H31.8363L30.7163 19.552H34.1403V24H23.3882V19.552ZM38.5563 12.896L36.1883 6.304H35.6443L33.1483 12.896H38.5563ZM48.9265 19.552H51.8385V6.048H48.9265V1.6H59.1025L63.9985 18.08L68.8945 1.6H79.0065V6.048H76.1265V19.552H79.0065V24H69.1505V19.552H71.6145V6.464H71.4545L66.0785 24H61.8225L56.4465 6.464H56.3185V19.552H58.7825V24H48.9265V19.552ZM96.5158 24H80.7078V19.552H83.6518V6.048H80.7078V1.6H95.7478V0.0319996H100.196V10.336H95.7478V6.048C95.7478 6.02667 95.7371 6.016 95.7158 6.016C95.7158 5.99467 95.7051 5.984 95.6838 5.984H88.1318V10.688H90.1158C90.1371 10.688 90.1478 10.688 90.1478 10.688C90.1691 10.6667 90.1798 10.656 90.1798 10.656V9.28H93.4438V16.288H90.1798V14.944C90.1798 14.944 90.1691 14.944 90.1478 14.944C90.1478 14.9227 90.1371 14.912 90.1158 14.912H88.1318V19.648H96.3558C96.3771 19.648 96.3878 19.648 96.3878 19.648C96.3878 19.6267 96.3878 19.616 96.3878 19.616C96.4091 19.616 96.4198 19.6053 96.4198 19.584V15.232H100.964V25.792H96.5158V24ZM102.27 15.456H106.814V15.84C106.921 16.6507 107.273 17.3973 107.87 18.08C108.489 18.7627 109.278 19.3173 110.238 19.744C111.198 20.1493 112.212 20.352 113.278 20.352C113.982 20.352 114.601 20.2667 115.134 20.096C115.689 19.9253 116.126 19.6693 116.446 19.328C116.766 18.9653 116.926 18.5493 116.926 18.08C116.926 17.5467 116.713 17.1093 116.286 16.768C115.86 16.4053 115.294 16.1067 114.59 15.872C113.886 15.616 112.862 15.3067 111.518 14.944C111.39 14.9013 111.252 14.8587 111.102 14.816C110.953 14.7733 110.814 14.7413 110.686 14.72C110.665 14.72 110.644 14.72 110.622 14.72C110.622 14.6987 110.612 14.688 110.59 14.688C109.14 14.2827 107.86 13.8347 106.75 13.344C105.641 12.8533 104.67 12.128 103.838 11.168C103.028 10.1867 102.622 8.928 102.622 7.392C102.622 6.048 102.964 4.90667 103.646 3.968C104.329 3.008 105.257 2.29333 106.43 1.824C107.604 1.35467 108.894 1.12 110.302 1.12C111.134 1.12 111.924 1.20533 112.67 1.376C113.417 1.52533 114.121 1.74933 114.782 2.048C115.145 2.24 115.497 2.45333 115.838 2.688C116.201 2.90133 116.532 3.15733 116.83 3.456V1.184H121.246V9.728H116.894V9.408C116.788 8.768 116.436 8.128 115.838 7.488C115.262 6.82667 114.516 6.29333 113.598 5.888C112.702 5.46133 111.732 5.248 110.686 5.248C109.726 5.248 108.948 5.45067 108.35 5.856C107.774 6.26133 107.486 6.848 107.486 7.616C107.486 8.17067 107.7 8.64 108.126 9.024C108.553 9.38667 109.086 9.68533 109.726 9.92C110.388 10.1547 111.348 10.432 112.606 10.752C112.734 10.7947 112.852 10.8267 112.958 10.848C113.086 10.8693 113.214 10.9013 113.342 10.944L113.79 11.072C115.497 11.5413 116.884 12 117.95 12.448C119.017 12.896 119.934 13.568 120.702 14.464C121.47 15.36 121.854 16.5333 121.854 17.984C121.854 19.392 121.492 20.5867 120.766 21.568C120.041 22.528 119.06 23.2533 117.822 23.744C116.606 24.2347 115.252 24.48 113.758 24.48C112.841 24.48 111.966 24.384 111.134 24.192C110.302 24 109.534 23.7333 108.83 23.392C108.425 23.1787 108.041 22.944 107.678 22.688C107.316 22.4107 106.985 22.112 106.686 21.792V24.192H102.27V15.456Z" fill="black"/>
</svg>
