<svg width="190" height="34" viewBox="0 0 190 34" fill="none" xmlns="http://www.w3.org/2000/svg">
<path d="M43.3796 23.456H47.9236V23.84C48.0303 24.6507 48.3823 25.3973 48.9796 26.08C49.5983 26.7627 50.3876 27.3173 51.3476 27.744C52.3076 28.1493 53.321 28.352 54.3876 28.352C55.0916 28.352 55.7103 28.2667 56.2436 28.096C56.7983 27.9253 57.2356 27.6693 57.5556 27.328C57.8756 26.9653 58.0356 26.5493 58.0356 26.08C58.0356 25.5467 57.8223 25.1093 57.3956 24.768C56.969 24.4053 56.4036 24.1067 55.6996 23.872C54.9956 23.616 53.9716 23.3067 52.6276 22.944C52.4996 22.9013 52.361 22.8587 52.2116 22.816C52.0623 22.7733 51.9236 22.7413 51.7956 22.72C51.7743 22.72 51.753 22.72 51.7316 22.72C51.7316 22.6987 51.721 22.688 51.6996 22.688C50.249 22.2827 48.969 21.8347 47.8596 21.344C46.7503 20.8533 45.7796 20.128 44.9476 19.168C44.137 18.1867 43.7316 16.928 43.7316 15.392C43.7316 14.048 44.073 12.9067 44.7556 11.968C45.4383 11.008 46.3663 10.2933 47.5396 9.824C48.713 9.35467 50.0036 9.12 51.4116 9.12C52.2436 9.12 53.033 9.20533 53.7796 9.376C54.5263 9.52533 55.2303 9.74933 55.8916 10.048C56.2543 10.24 56.6063 10.4533 56.9476 10.688C57.3103 10.9013 57.641 11.1573 57.9396 11.456V9.184H62.3556V17.728H58.0036V17.408C57.897 16.768 57.545 16.128 56.9476 15.488C56.3716 14.8267 55.625 14.2933 54.7076 13.888C53.8116 13.4613 52.841 13.248 51.7956 13.248C50.8356 13.248 50.057 13.4507 49.4596 13.856C48.8836 14.2613 48.5956 14.848 48.5956 15.616C48.5956 16.1707 48.809 16.64 49.2356 17.024C49.6623 17.3867 50.1956 17.6853 50.8356 17.92C51.497 18.1547 52.457 18.432 53.7156 18.752C53.8436 18.7947 53.961 18.8267 54.0676 18.848C54.1956 18.8693 54.3236 18.9013 54.4516 18.944L54.8996 19.072C56.6063 19.5413 57.993 20 59.0596 20.448C60.1263 20.896 61.0436 21.568 61.8116 22.464C62.5796 23.36 62.9636 24.5333 62.9636 25.984C62.9636 27.392 62.601 28.5867 61.8756 29.568C61.1503 30.528 60.169 31.2533 58.9316 31.744C57.7156 32.2347 56.361 32.48 54.8676 32.48C53.9503 32.48 53.0756 32.384 52.2436 32.192C51.4116 32 50.6436 31.7333 49.9396 31.392C49.5343 31.1787 49.1503 30.944 48.7876 30.688C48.425 30.4107 48.0943 30.112 47.7956 29.792V32.192H43.3796V23.456ZM64.5671 27.552H67.5111V14.048H64.5671V9.6H75.3511V14.048H72.1831V18.752H81.4631V14.048H78.2951V9.6H89.0791V14.048H86.1351V27.552H89.0791V32H78.2951V27.552H81.4631V22.848H72.1831V27.552H75.3511V32H64.5671V27.552ZM102.465 32.48C100.246 32.48 98.2411 31.9787 96.4491 30.976C94.6571 29.9733 93.2491 28.5867 92.2251 26.816C91.2225 25.024 90.7211 23.0187 90.7211 20.8C90.7211 18.5813 91.2225 16.5867 92.2251 14.816C93.2491 13.024 94.6571 11.6267 96.4491 10.624C98.2411 9.62133 100.246 9.12 102.465 9.12C104.684 9.12 106.689 9.62133 108.481 10.624C110.273 11.6267 111.67 13.024 112.673 14.816C113.697 16.5867 114.209 18.5813 114.209 20.8C114.209 23.0187 113.697 25.024 112.673 26.816C111.67 28.5867 110.273 29.9733 108.481 30.976C106.689 31.9787 104.684 32.48 102.465 32.48ZM102.465 27.712C103.766 27.712 104.918 27.424 105.921 26.848C106.945 26.2507 107.745 25.4293 108.321 24.384C108.897 23.3173 109.185 22.1227 109.185 20.8C109.185 19.4773 108.897 18.2933 108.321 17.248C107.745 16.1813 106.945 15.36 105.921 14.784C104.918 14.1867 103.766 13.888 102.465 13.888C101.164 13.888 100.001 14.1867 98.9771 14.784C97.9745 15.36 97.1851 16.1813 96.6091 17.248C96.0331 18.2933 95.7451 19.4773 95.7451 20.8C95.7451 22.1227 96.0331 23.3173 96.6091 24.384C97.1851 25.4293 97.9745 26.2507 98.9771 26.848C100.001 27.424 101.164 27.712 102.465 27.712ZM116.584 14.048H114.056V9.6H124.072V14.048H121.64L125.064 27.552H125.288L128.648 14.944L128.392 14.048H126.152V9.6H136.168V14.048H133.544L137.224 27.552H137.448L140.936 14.048H138.44V9.6H148.392V14.048H145.864L141.192 32H134.568L131.208 19.552L127.848 32H121.288L116.584 14.048Z" fill="black"/>
</svg>
