<svg width="244" height="50" viewBox="0 0 244 50" fill="none" xmlns="http://www.w3.org/2000/svg">
<path d="M57.2403 29.274H60.3683V14.926H57.2403V10.2H70.1943C72.8463 10.2 74.9429 10.8233 76.4843 12.07C78.0256 13.3167 78.7963 15.0167 78.7963 17.17C78.7963 18.7567 78.3769 20.1053 77.5383 21.216C76.6996 22.3267 75.5323 23.12 74.0363 23.596L78.6943 29.274H81.1423V34H70.0923V29.274H72.4383L68.7323 24.616H65.3323V29.274H67.7463V34H57.2403V29.274ZM69.6843 20.842C70.8403 20.842 71.7583 20.57 72.4383 20.026C73.1409 19.4593 73.4923 18.7113 73.4923 17.782C73.4923 16.8527 73.1409 16.1047 72.4383 15.538C71.7583 14.9713 70.8403 14.688 69.6843 14.688H65.3323V20.842H69.6843ZM98.1749 34H81.3789V29.274H84.5069V14.926H81.3789V10.2H97.3589V8.534H102.085V19.482H97.3589V14.926C97.3589 14.9033 97.3476 14.892 97.3249 14.892C97.3249 14.8693 97.3136 14.858 97.2909 14.858H89.2669V19.856H91.3749C91.3976 19.856 91.4089 19.856 91.4089 19.856C91.4316 19.8333 91.4429 19.822 91.4429 19.822V18.36H94.9109V25.806H91.4429V24.378C91.4429 24.378 91.4316 24.378 91.4089 24.378C91.4089 24.3553 91.3976 24.344 91.3749 24.344H89.2669V29.376H98.0049C98.0276 29.376 98.0389 29.376 98.0389 29.376C98.0389 29.3533 98.0389 29.342 98.0389 29.342C98.0616 29.342 98.0729 29.3307 98.0729 29.308V24.684H102.901V35.904H98.1749V34ZM121.998 32.096C121.998 32.0507 121.976 32.028 121.93 32.028C121.885 32.0053 121.851 32.0053 121.828 32.028C121.624 32.2547 121.398 32.47 121.148 32.674C120.899 32.878 120.638 33.0707 120.366 33.252C119.709 33.66 118.961 33.966 118.122 34.17C117.306 34.3967 116.411 34.51 115.436 34.51C113.419 34.51 111.56 33.9887 109.86 32.946C108.183 31.8807 106.846 30.4073 105.848 28.526C104.874 26.6447 104.386 24.5027 104.386 22.1C104.386 19.6973 104.885 17.5553 105.882 15.674C106.88 13.7927 108.24 12.3307 109.962 11.288C111.685 10.2227 113.589 9.69 115.674 9.69C116.944 9.69 118.066 9.88267 119.04 10.268C120.128 10.6987 121.035 11.2993 121.76 12.07V9.384H126.486V18.7H121.828V18.292C121.715 17.6573 121.398 17.068 120.876 16.524C120.355 15.9573 119.698 15.5153 118.904 15.198C118.111 14.858 117.238 14.688 116.286 14.688C115.017 14.688 113.872 15.0053 112.852 15.64C111.855 16.2747 111.073 17.1587 110.506 18.292C109.94 19.4027 109.656 20.672 109.656 22.1C109.656 23.5507 109.94 24.8653 110.506 26.044C111.073 27.2 111.855 28.1067 112.852 28.764C113.85 29.4213 114.972 29.75 116.218 29.75C117.193 29.75 118.088 29.5687 118.904 29.206C119.743 28.8433 120.423 28.3787 120.944 27.812C121.466 27.2227 121.783 26.588 121.896 25.908V24.956H116.592V20.91H129.546V25.398H127.132V34.17H121.998V32.096ZM130.785 29.274H133.913V14.926H130.785V10.2H142.005V14.926H138.877V29.274H142.005V34H130.785V29.274ZM143.834 24.922H148.662V25.33C148.775 26.1913 149.149 26.9847 149.784 27.71C150.441 28.4353 151.28 29.0247 152.3 29.478C153.32 29.9087 154.397 30.124 155.53 30.124C156.278 30.124 156.935 30.0333 157.502 29.852C158.091 29.6707 158.556 29.3987 158.896 29.036C159.236 28.6507 159.406 28.2087 159.406 27.71C159.406 27.1433 159.179 26.6787 158.726 26.316C158.273 25.9307 157.672 25.6133 156.924 25.364C156.176 25.092 155.088 24.7633 153.66 24.378C153.524 24.3327 153.377 24.2873 153.218 24.242C153.059 24.1967 152.912 24.1627 152.776 24.14C152.753 24.14 152.731 24.14 152.708 24.14C152.708 24.1173 152.697 24.106 152.674 24.106C151.133 23.6753 149.773 23.1993 148.594 22.678C147.415 22.1567 146.384 21.386 145.5 20.366C144.639 19.3233 144.208 17.986 144.208 16.354C144.208 14.926 144.571 13.7133 145.296 12.716C146.021 11.696 147.007 10.9367 148.254 10.438C149.501 9.93933 150.872 9.69 152.368 9.69C153.252 9.69 154.091 9.78067 154.884 9.962C155.677 10.1207 156.425 10.3587 157.128 10.676C157.513 10.88 157.887 11.1067 158.25 11.356C158.635 11.5827 158.987 11.8547 159.304 12.172V9.758H163.996V18.836H159.372V18.496C159.259 17.816 158.885 17.136 158.25 16.456C157.638 15.7533 156.845 15.1867 155.87 14.756C154.918 14.3027 153.887 14.076 152.776 14.076C151.756 14.076 150.929 14.2913 150.294 14.722C149.682 15.1527 149.376 15.776 149.376 16.592C149.376 17.1813 149.603 17.68 150.056 18.088C150.509 18.4733 151.076 18.7907 151.756 19.04C152.459 19.2893 153.479 19.584 154.816 19.924C154.952 19.9693 155.077 20.0033 155.19 20.026C155.326 20.0487 155.462 20.0827 155.598 20.128L156.074 20.264C157.887 20.7627 159.361 21.25 160.494 21.726C161.627 22.202 162.602 22.916 163.418 23.868C164.234 24.82 164.642 26.0667 164.642 27.608C164.642 29.104 164.257 30.3733 163.486 31.416C162.715 32.436 161.673 33.2067 160.358 33.728C159.066 34.2493 157.627 34.51 156.04 34.51C155.065 34.51 154.136 34.408 153.252 34.204C152.368 34 151.552 33.7167 150.804 33.354C150.373 33.1273 149.965 32.878 149.58 32.606C149.195 32.3113 148.843 31.994 148.526 31.654V34.204H143.834V24.922ZM170.197 29.274H175.093V14.858H170.571C170.549 14.858 170.537 14.8693 170.537 14.892C170.537 14.892 170.526 14.892 170.503 14.892C170.503 14.892 170.503 14.9033 170.503 14.926V19.856H165.777V8.534H170.503V10.2H184.681V8.534H189.407V19.856H184.681V14.926C184.681 14.9033 184.67 14.892 184.647 14.892C184.647 14.8693 184.636 14.858 184.613 14.858H180.057V29.274H184.953V34H170.197V29.274ZM207.845 34H191.049V29.274H194.177V14.926H191.049V10.2H207.029V8.534H211.755V19.482H207.029V14.926C207.029 14.9033 207.018 14.892 206.995 14.892C206.995 14.8693 206.984 14.858 206.961 14.858H198.937V19.856H201.045C201.068 19.856 201.079 19.856 201.079 19.856C201.102 19.8333 201.113 19.822 201.113 19.822V18.36H204.581V25.806H201.113V24.378C201.113 24.378 201.102 24.378 201.079 24.378C201.079 24.3553 201.068 24.344 201.045 24.344H198.937V29.376H207.675C207.698 29.376 207.709 29.376 207.709 29.376C207.709 29.3533 207.709 29.342 207.709 29.342C207.732 29.342 207.743 29.3307 207.743 29.308V24.684H212.571V35.904H207.845V34ZM214.457 29.274H217.585V14.926H214.457V10.2H227.411C230.063 10.2 232.16 10.8233 233.701 12.07C235.242 13.3167 236.013 15.0167 236.013 17.17C236.013 18.7567 235.594 20.1053 234.755 21.216C233.916 22.3267 232.749 23.12 231.253 23.596L235.911 29.274H238.359V34H227.309V29.274H229.655L225.949 24.616H222.549V29.274H224.963V34H214.457V29.274ZM226.901 20.842C228.057 20.842 228.975 20.57 229.655 20.026C230.358 19.4593 230.709 18.7113 230.709 17.782C230.709 16.8527 230.358 16.1047 229.655 15.538C228.975 14.9713 228.057 14.688 226.901 14.688H222.549V20.842H226.901Z" fill="black"/>
<path d="M2.75 40C2.75 40 0 40 0 36.75C0 33.5 2.75 23.75 16.5 23.75C30.25 23.75 33 33.5 33 36.75C33 40 30.25 40 30.25 40H2.75ZM16.5 20.5C18.688 20.5 20.7865 19.4728 22.3336 17.6443C23.8808 15.8158 24.75 13.3359 24.75 10.75C24.75 8.16414 23.8808 5.68419 22.3336 3.85571C20.7865 2.02723 18.688 1 16.5 1C14.312 1 12.2135 2.02723 10.6664 3.85571C9.11919 5.68419 8.25 8.16414 8.25 10.75C8.25 13.3359 9.11919 15.8158 10.6664 17.6443C12.2135 19.4728 14.312 20.5 16.5 20.5Z" fill="black"/>
</svg>
