<svg width="280" height="50" viewBox="0 0 280 50" fill="none" xmlns="http://www.w3.org/2000/svg">
<path d="M60.8794 10.2C63.5767 10.2 65.9454 10.6987 67.9854 11.696C70.0481 12.6707 71.6347 14.0647 72.7454 15.878C73.8561 17.6687 74.4114 19.7427 74.4114 22.1C74.4114 24.4573 73.8561 26.5427 72.7454 28.356C71.6347 30.1467 70.0481 31.5407 67.9854 32.538C65.9454 33.5127 63.5767 34 60.8794 34H51.3594V29.274H54.4874V14.926H51.3594V10.2H60.8794ZM61.2534 29.274C62.9081 29.274 64.3247 28.9907 65.5034 28.424C66.6821 27.8347 67.5774 27.0073 68.1894 25.942C68.8241 24.854 69.1414 23.5733 69.1414 22.1C69.1414 20.6267 68.8241 19.3573 68.1894 18.292C67.5774 17.204 66.6821 16.3767 65.5034 15.81C64.3247 15.2207 62.9081 14.926 61.2534 14.926H59.4514V29.274H61.2534ZM74.4281 29.274H77.2501L82.8261 14.96L82.7921 14.926H79.4601V10.2H91.6661L98.5341 29.274H101.458V34H89.6941V29.274H92.9921L91.8701 26.146H83.4041L82.2141 29.274H85.8521V34H74.4281V29.274ZM90.5441 22.202L88.0281 15.198H87.4501L84.7981 22.202H90.5441ZM101.164 24.922H105.992V25.33C106.105 26.1913 106.479 26.9847 107.114 27.71C107.771 28.4353 108.61 29.0247 109.63 29.478C110.65 29.9087 111.727 30.124 112.86 30.124C113.608 30.124 114.265 30.0333 114.832 29.852C115.421 29.6707 115.886 29.3987 116.226 29.036C116.566 28.6507 116.736 28.2087 116.736 27.71C116.736 27.1433 116.509 26.6787 116.056 26.316C115.603 25.9307 115.002 25.6133 114.254 25.364C113.506 25.092 112.418 24.7633 110.99 24.378C110.854 24.3327 110.707 24.2873 110.548 24.242C110.389 24.1967 110.242 24.1627 110.106 24.14C110.083 24.14 110.061 24.14 110.038 24.14C110.038 24.1173 110.027 24.106 110.004 24.106C108.463 23.6753 107.103 23.1993 105.924 22.678C104.745 22.1567 103.714 21.386 102.83 20.366C101.969 19.3233 101.538 17.986 101.538 16.354C101.538 14.926 101.901 13.7133 102.626 12.716C103.351 11.696 104.337 10.9367 105.584 10.438C106.831 9.93933 108.202 9.69 109.698 9.69C110.582 9.69 111.421 9.78067 112.214 9.962C113.007 10.1207 113.755 10.3587 114.458 10.676C114.843 10.88 115.217 11.1067 115.58 11.356C115.965 11.5827 116.317 11.8547 116.634 12.172V9.758H121.326V18.836H116.702V18.496C116.589 17.816 116.215 17.136 115.58 16.456C114.968 15.7533 114.175 15.1867 113.2 14.756C112.248 14.3027 111.217 14.076 110.106 14.076C109.086 14.076 108.259 14.2913 107.624 14.722C107.012 15.1527 106.706 15.776 106.706 16.592C106.706 17.1813 106.933 17.68 107.386 18.088C107.839 18.4733 108.406 18.7907 109.086 19.04C109.789 19.2893 110.809 19.584 112.146 19.924C112.282 19.9693 112.407 20.0033 112.52 20.026C112.656 20.0487 112.792 20.0827 112.928 20.128L113.404 20.264C115.217 20.7627 116.691 21.25 117.824 21.726C118.957 22.202 119.932 22.916 120.748 23.868C121.564 24.82 121.972 26.0667 121.972 27.608C121.972 29.104 121.587 30.3733 120.816 31.416C120.045 32.436 119.003 33.2067 117.688 33.728C116.396 34.2493 114.957 34.51 113.37 34.51C112.395 34.51 111.466 34.408 110.582 34.204C109.698 34 108.882 33.7167 108.134 33.354C107.703 33.1273 107.295 32.878 106.91 32.606C106.525 32.3113 106.173 31.994 105.856 31.654V34.204H101.164V24.922ZM123.676 29.274H126.804V14.926H123.676V10.2H135.134V14.926H131.768V19.924H141.628V14.926H138.262V10.2H149.72V14.926H146.592V29.274H149.72V34H138.262V29.274H141.628V24.276H131.768V29.274H135.134V34H123.676V29.274ZM151.566 29.274H154.694V14.926H151.566V10.2H165.2C167.603 10.2 169.496 10.744 170.878 11.832C172.284 12.92 172.986 14.416 172.986 16.32C172.986 17.612 172.646 18.7453 171.966 19.72C171.286 20.672 170.323 21.3747 169.076 21.828V22.168C170.595 22.5533 171.762 23.2333 172.578 24.208C173.394 25.1827 173.802 26.4067 173.802 27.88C173.802 29.784 173.1 31.28 171.694 32.368C170.312 33.456 168.408 34 165.982 34H151.566V29.274ZM165.03 29.444C166.05 29.444 166.855 29.206 167.444 28.73C168.056 28.254 168.362 27.6193 168.362 26.826C168.362 26.01 168.045 25.364 167.41 24.888C166.776 24.3893 165.982 24.14 165.03 24.14H159.658V29.444H165.03ZM164.316 20.06C165.314 20.06 166.107 19.822 166.696 19.346C167.308 18.8473 167.614 18.19 167.614 17.374C167.614 16.5807 167.308 15.946 166.696 15.47C166.107 14.994 165.314 14.756 164.316 14.756H159.658V20.06H164.316ZM187.915 34.51C185.558 34.51 183.427 33.9773 181.523 32.912C179.619 31.8467 178.123 30.3733 177.035 28.492C175.97 26.588 175.437 24.4573 175.437 22.1C175.437 19.7427 175.97 17.6233 177.035 15.742C178.123 13.838 179.619 12.3533 181.523 11.288C183.427 10.2227 185.558 9.69 187.915 9.69C190.272 9.69 192.403 10.2227 194.307 11.288C196.211 12.3533 197.696 13.838 198.761 15.742C199.849 17.6233 200.393 19.7427 200.393 22.1C200.393 24.4573 199.849 26.588 198.761 28.492C197.696 30.3733 196.211 31.8467 194.307 32.912C192.403 33.9773 190.272 34.51 187.915 34.51ZM187.915 29.444C189.298 29.444 190.522 29.138 191.587 28.526C192.675 27.8913 193.525 27.0187 194.137 25.908C194.749 24.7747 195.055 23.5053 195.055 22.1C195.055 20.6947 194.749 19.4367 194.137 18.326C193.525 17.1927 192.675 16.32 191.587 15.708C190.522 15.0733 189.298 14.756 187.915 14.756C186.532 14.756 185.297 15.0733 184.209 15.708C183.144 16.32 182.305 17.1927 181.693 18.326C181.081 19.4367 180.775 20.6947 180.775 22.1C180.775 23.5053 181.081 24.7747 181.693 25.908C182.305 27.0187 183.144 27.8913 184.209 28.526C185.297 29.138 186.532 29.444 187.915 29.444ZM200.401 29.274H203.223L208.799 14.96L208.765 14.926H205.433V10.2H217.639L224.507 29.274H227.431V34H215.667V29.274H218.965L217.843 26.146H209.377L208.187 29.274H211.825V34H200.401V29.274ZM216.517 22.202L214.001 15.198H213.423L210.771 22.202H216.517ZM227.535 29.274H230.663V14.926H227.535V10.2H240.489C243.141 10.2 245.238 10.8233 246.779 12.07C248.321 13.3167 249.091 15.0167 249.091 17.17C249.091 18.7567 248.672 20.1053 247.833 21.216C246.995 22.3267 245.827 23.12 244.331 23.596L248.989 29.274H251.437V34H240.387V29.274H242.733L239.027 24.616H235.627V29.274H238.041V34H227.535V29.274ZM239.979 20.842C241.135 20.842 242.053 20.57 242.733 20.026C243.436 19.4593 243.787 18.7113 243.787 17.782C243.787 16.8527 243.436 16.1047 242.733 15.538C242.053 14.9713 241.135 14.688 239.979 14.688H235.627V20.842H239.979ZM261.194 10.2C263.891 10.2 266.26 10.6987 268.3 11.696C270.363 12.6707 271.949 14.0647 273.06 15.878C274.171 17.6687 274.726 19.7427 274.726 22.1C274.726 24.4573 274.171 26.5427 273.06 28.356C271.949 30.1467 270.363 31.5407 268.3 32.538C266.26 33.5127 263.891 34 261.194 34H251.674V29.274H254.802V14.926H251.674V10.2H261.194ZM261.568 29.274C263.223 29.274 264.639 28.9907 265.818 28.424C266.997 27.8347 267.892 27.0073 268.504 25.942C269.139 24.854 269.456 23.5733 269.456 22.1C269.456 20.6267 269.139 19.3573 268.504 18.292C267.892 17.204 266.997 16.3767 265.818 15.81C264.639 15.2207 263.223 14.926 261.568 14.926H259.766V29.274H261.568Z" fill="black"/>
<path d="M8.76923 9.09091C8.76923 10.1759 8.30728 11.2164 7.48501 11.9836C6.66273 12.7508 5.54749 13.1818 4.38462 13.1818C3.22174 13.1818 2.1065 12.7508 1.28422 11.9836C0.461949 11.2164 0 10.1759 0 9.09091C0 8.00593 0.461949 6.96539 1.28422 6.1982C2.1065 5.431 3.22174 5 4.38462 5C5.54749 5 6.66273 5.431 7.48501 6.1982C8.30728 6.96539 8.76923 8.00593 8.76923 9.09091ZM8.76923 20C8.76923 21.085 8.30728 22.1255 7.48501 22.8927C6.66273 23.6599 5.54749 24.0909 4.38462 24.0909C3.22174 24.0909 2.1065 23.6599 1.28422 22.8927C0.461949 22.1255 0 21.085 0 20C0 18.915 0.461949 17.8745 1.28422 17.1073C2.1065 16.3401 3.22174 15.9091 4.38462 15.9091C5.54749 15.9091 6.66273 16.3401 7.48501 17.1073C8.30728 17.8745 8.76923 18.915 8.76923 20ZM8.76923 30.9091C8.76923 31.9941 8.30728 33.0346 7.48501 33.8018C6.66273 34.569 5.54749 35 4.38462 35C3.22174 35 2.1065 34.569 1.28422 33.8018C0.461949 33.0346 0 31.9941 0 30.9091C0 29.8241 0.461949 28.7836 1.28422 28.0164C2.1065 27.2492 3.22174 26.8182 4.38462 26.8182C5.54749 26.8182 6.66273 27.2492 7.48501 28.0164C8.30728 28.7836 8.76923 29.8241 8.76923 30.9091Z" fill="black"/>
<path fill-rule="evenodd" clip-rule="evenodd" d="M11.6924 9.09092C11.6924 8.3676 12.0003 7.67391 12.5485 7.16245C13.0967 6.65098 13.8402 6.36365 14.6155 6.36365H35.077C35.8522 6.36365 36.5957 6.65098 37.1439 7.16245C37.6921 7.67391 38.0001 8.3676 38.0001 9.09092C38.0001 9.81424 37.6921 10.5079 37.1439 11.0194C36.5957 11.5309 35.8522 11.8182 35.077 11.8182H14.6155C13.8402 11.8182 13.0967 11.5309 12.5485 11.0194C12.0003 10.5079 11.6924 9.81424 11.6924 9.09092ZM11.6924 20C11.6924 19.2767 12.0003 18.583 12.5485 18.0715C13.0967 17.5601 13.8402 17.2727 14.6155 17.2727H35.077C35.8522 17.2727 36.5957 17.5601 37.1439 18.0715C37.6921 18.583 38.0001 19.2767 38.0001 20C38.0001 20.7233 37.6921 21.417 37.1439 21.9285C36.5957 22.4399 35.8522 22.7273 35.077 22.7273H14.6155C13.8402 22.7273 13.0967 22.4399 12.5485 21.9285C12.0003 21.417 11.6924 20.7233 11.6924 20ZM11.6924 30.9091C11.6924 30.1858 12.0003 29.4921 12.5485 28.9806C13.0967 28.4692 13.8402 28.1818 14.6155 28.1818H35.077C35.8522 28.1818 36.5957 28.4692 37.1439 28.9806C37.6921 29.4921 38.0001 30.1858 38.0001 30.9091C38.0001 31.6324 37.6921 32.3261 37.1439 32.8376C36.5957 33.349 35.8522 33.6364 35.077 33.6364H14.6155C13.8402 33.6364 13.0967 33.349 12.5485 32.8376C12.0003 32.3261 11.6924 31.6324 11.6924 30.9091Z" fill="black"/>
</svg>
