<svg width="218" height="26" viewBox="0 0 218 26" fill="none" xmlns="http://www.w3.org/2000/svg">
<path d="M11.5669 24.384C9.58288 24.384 7.76954 23.8933 6.12688 22.912C4.48421 21.9307 3.18288 20.5547 2.22288 18.784C1.28421 17.0133 0.814875 15.0187 0.814875 12.8C0.814875 10.5813 1.28421 8.58667 2.22288 6.816C3.18288 5.04533 4.48421 3.66933 6.12688 2.688C7.76954 1.70667 9.58288 1.216 11.5669 1.216C12.5695 1.216 13.5402 1.376 14.4789 1.696C15.4389 2.016 16.2602 2.47467 16.9429 3.072V0.831999H21.3909V10.72H16.7829V10.016C16.6975 9.22667 16.4202 8.512 15.9509 7.872C15.5029 7.232 14.9055 6.73067 14.1589 6.368C13.4335 5.984 12.6229 5.792 11.7269 5.792C10.5749 5.792 9.55088 6.09067 8.65488 6.688C7.75888 7.28533 7.05488 8.11733 6.54288 9.184C6.03088 10.2507 5.77488 11.456 5.77488 12.8C5.77488 14.144 6.03088 15.3493 6.54288 16.416C7.05488 17.4827 7.75888 18.3147 8.65488 18.912C9.57221 19.5093 10.5962 19.808 11.7269 19.808C12.6442 19.808 13.4869 19.6267 14.2549 19.264C15.0229 18.88 15.6415 18.368 16.1109 17.728C16.6015 17.088 16.8789 16.3733 16.9429 15.584V14.784H21.5829V24.384H17.1349V22.528C16.4522 23.1253 15.6095 23.584 14.6069 23.904C13.6255 24.224 12.6122 24.384 11.5669 24.384ZM22.2476 19.552H24.9036L30.1516 6.08L30.1196 6.048H26.9836V1.6H38.4716L44.9356 19.552H47.6876V24H36.6156V19.552H39.7196L38.6636 16.608H30.6956L29.5756 19.552H32.9996V24H22.2476V19.552ZM37.4156 12.896L35.0476 6.304H34.5036L32.0076 12.896H37.4156ZM49.9109 19.552H54.5189V5.984H50.2629C50.2415 5.984 50.2309 5.99467 50.2309 6.016C50.2309 6.016 50.2202 6.016 50.1989 6.016C50.1989 6.016 50.1989 6.02667 50.1989 6.048V10.688H45.7509V0.0319996H50.1989V1.6H63.5429V0.0319996H67.9909V10.688H63.5429V6.048C63.5429 6.02667 63.5322 6.016 63.5109 6.016C63.5109 5.99467 63.5002 5.984 63.4789 5.984H59.1909V19.552H63.7989V24H49.9109V19.552ZM85.3439 24H69.5359V19.552H72.4799V6.048H69.5359V1.6H84.5759V0.0319996H89.0239V10.336H84.5759V6.048C84.5759 6.02667 84.5652 6.016 84.5439 6.016C84.5439 5.99467 84.5332 5.984 84.5119 5.984H76.9599V10.688H78.9439C78.9652 10.688 78.9759 10.688 78.9759 10.688C78.9972 10.6667 79.0079 10.656 79.0079 10.656V9.28H82.2719V16.288H79.0079V14.944C79.0079 14.944 78.9972 14.944 78.9759 14.944C78.9759 14.9227 78.9652 14.912 78.9439 14.912H76.9599V19.648H85.1839C85.2052 19.648 85.2159 19.648 85.2159 19.648C85.2159 19.6267 85.2159 19.616 85.2159 19.616C85.2372 19.616 85.2479 19.6053 85.2479 19.584V15.232H89.7919V25.792H85.3439V24ZM107.766 22.208C107.766 22.1653 107.745 22.144 107.702 22.144C107.659 22.1227 107.627 22.1227 107.606 22.144C107.414 22.3573 107.201 22.56 106.966 22.752C106.731 22.944 106.486 23.1253 106.23 23.296C105.611 23.68 104.907 23.968 104.118 24.16C103.35 24.3733 102.507 24.48 101.59 24.48C99.6912 24.48 97.9419 23.9893 96.3419 23.008C94.7632 22.0053 93.5045 20.6187 92.5659 18.848C91.6485 17.0773 91.1899 15.0613 91.1899 12.8C91.1899 10.5387 91.6592 8.52267 92.5979 6.752C93.5365 4.98133 94.8165 3.60533 96.4379 2.624C98.0592 1.62133 99.8512 1.12 101.814 1.12C103.009 1.12 104.065 1.30133 104.982 1.664C106.006 2.06933 106.859 2.63467 107.542 3.36V0.831999H111.99V9.6H107.606V9.216C107.499 8.61867 107.201 8.064 106.71 7.552C106.219 7.01867 105.601 6.60267 104.854 6.304C104.107 5.984 103.286 5.824 102.39 5.824C101.195 5.824 100.118 6.12267 99.1579 6.72C98.2192 7.31733 97.4832 8.14933 96.9499 9.216C96.4165 10.2613 96.1499 11.456 96.1499 12.8C96.1499 14.1653 96.4165 15.4027 96.9499 16.512C97.4832 17.6 98.2192 18.4533 99.1579 19.072C100.097 19.6907 101.153 20 102.326 20C103.243 20 104.086 19.8293 104.854 19.488C105.643 19.1467 106.283 18.7093 106.774 18.176C107.265 17.6213 107.563 17.024 107.67 16.384V15.488H102.678V11.68H114.87V15.904H112.598V24.16H107.766V22.208ZM127.684 24.48C125.465 24.48 123.46 23.9787 121.668 22.976C119.876 21.9733 118.468 20.5867 117.444 18.816C116.441 17.024 115.94 15.0187 115.94 12.8C115.94 10.5813 116.441 8.58667 117.444 6.816C118.468 5.024 119.876 3.62667 121.668 2.624C123.46 1.62133 125.465 1.12 127.684 1.12C129.903 1.12 131.908 1.62133 133.7 2.624C135.492 3.62667 136.889 5.024 137.892 6.816C138.916 8.58667 139.428 10.5813 139.428 12.8C139.428 15.0187 138.916 17.024 137.892 18.816C136.889 20.5867 135.492 21.9733 133.7 22.976C131.908 23.9787 129.903 24.48 127.684 24.48ZM127.684 19.712C128.985 19.712 130.137 19.424 131.14 18.848C132.164 18.2507 132.964 17.4293 133.54 16.384C134.116 15.3173 134.404 14.1227 134.404 12.8C134.404 11.4773 134.116 10.2933 133.54 9.248C132.964 8.18133 132.164 7.36 131.14 6.784C130.137 6.18667 128.985 5.888 127.684 5.888C126.383 5.888 125.22 6.18667 124.196 6.784C123.193 7.36 122.404 8.18133 121.828 9.248C121.252 10.2933 120.964 11.4773 120.964 12.8C120.964 14.1227 121.252 15.3173 121.828 16.384C122.404 17.4293 123.193 18.2507 124.196 18.848C125.22 19.424 126.383 19.712 127.684 19.712ZM141.067 19.552H144.011V6.048H141.067V1.6H153.259C155.755 1.6 157.728 2.18667 159.179 3.36C160.63 4.53333 161.355 6.13333 161.355 8.16C161.355 9.65333 160.96 10.9227 160.171 11.968C159.382 13.0133 158.283 13.76 156.875 14.208L161.259 19.552H163.563V24H153.163V19.552H155.371L151.883 15.168H148.683V19.552H150.955V24H141.067V19.552ZM152.779 11.616C153.867 11.616 154.731 11.36 155.371 10.848C156.032 10.3147 156.363 9.61067 156.363 8.736C156.363 7.86133 156.032 7.15733 155.371 6.624C154.731 6.09067 153.867 5.824 152.779 5.824H148.683V11.616H152.779ZM163.786 19.552H166.73V6.048H163.786V1.6H174.346V6.048H171.402V19.552H174.346V24H163.786V19.552ZM191.875 24H176.067V19.552H179.011V6.048H176.067V1.6H191.107V0.0319996H195.555V10.336H191.107V6.048C191.107 6.02667 191.096 6.016 191.075 6.016C191.075 5.99467 191.064 5.984 191.043 5.984H183.491V10.688H185.475C185.496 10.688 185.507 10.688 185.507 10.688C185.528 10.6667 185.539 10.656 185.539 10.656V9.28H188.803V16.288H185.539V14.944C185.539 14.944 185.528 14.944 185.507 14.944C185.507 14.9227 185.496 14.912 185.475 14.912H183.491V19.648H191.715C191.736 19.648 191.747 19.648 191.747 19.648C191.747 19.6267 191.747 19.616 191.747 19.616C191.768 19.616 191.779 19.6053 191.779 19.584V15.232H196.323V25.792H191.875V24ZM197.63 15.456H202.174V15.84C202.28 16.6507 202.632 17.3973 203.23 18.08C203.848 18.7627 204.638 19.3173 205.598 19.744C206.558 20.1493 207.571 20.352 208.638 20.352C209.342 20.352 209.96 20.2667 210.494 20.096C211.048 19.9253 211.486 19.6693 211.806 19.328C212.126 18.9653 212.286 18.5493 212.286 18.08C212.286 17.5467 212.072 17.1093 211.646 16.768C211.219 16.4053 210.654 16.1067 209.95 15.872C209.246 15.616 208.222 15.3067 206.878 14.944C206.75 14.9013 206.611 14.8587 206.462 14.816C206.312 14.7733 206.174 14.7413 206.046 14.72C206.024 14.72 206.003 14.72 205.982 14.72C205.982 14.6987 205.971 14.688 205.95 14.688C204.499 14.2827 203.219 13.8347 202.11 13.344C201 12.8533 200.03 12.128 199.198 11.168C198.387 10.1867 197.982 8.928 197.982 7.392C197.982 6.048 198.323 4.90667 199.006 3.968C199.688 3.008 200.616 2.29333 201.79 1.824C202.963 1.35467 204.254 1.12 205.662 1.12C206.494 1.12 207.283 1.20533 208.03 1.376C208.776 1.52533 209.48 1.74933 210.142 2.048C210.504 2.24 210.856 2.45333 211.198 2.688C211.56 2.90133 211.891 3.15733 212.19 3.456V1.184H216.606V9.728H212.254V9.408C212.147 8.768 211.795 8.128 211.198 7.488C210.622 6.82667 209.875 6.29333 208.958 5.888C208.062 5.46133 207.091 5.248 206.046 5.248C205.086 5.248 204.307 5.45067 203.71 5.856C203.134 6.26133 202.846 6.848 202.846 7.616C202.846 8.17067 203.059 8.64 203.486 9.024C203.912 9.38667 204.446 9.68533 205.086 9.92C205.747 10.1547 206.707 10.432 207.966 10.752C208.094 10.7947 208.211 10.8267 208.318 10.848C208.446 10.8693 208.574 10.9013 208.702 10.944L209.15 11.072C210.856 11.5413 212.243 12 213.31 12.448C214.376 12.896 215.294 13.568 216.062 14.464C216.83 15.36 217.214 16.5333 217.214 17.984C217.214 19.392 216.851 20.5867 216.126 21.568C215.4 22.528 214.419 23.2533 213.182 23.744C211.966 24.2347 210.611 24.48 209.118 24.48C208.2 24.48 207.326 24.384 206.494 24.192C205.662 24 204.894 23.7333 204.19 23.392C203.784 23.1787 203.4 22.944 203.038 22.688C202.675 22.4107 202.344 22.112 202.046 21.792V24.192H197.63V15.456Z" fill="black"/>
</svg>
