<svg width="238" height="34" viewBox="0 0 238 34" fill="none" xmlns="http://www.w3.org/2000/svg">
<path d="M15.2703 27.552H18.1823V14.048H15.2703V9.6H25.4463L30.3423 26.08L35.2383 9.6H45.3503V14.048H42.4703V27.552H45.3503V32H35.4943V27.552H37.9583V14.464H37.7983L32.4223 32H28.1663L22.7903 14.464H22.6623V27.552H25.1263V32H15.2703V27.552ZM51.2115 27.552H55.4675V23.84L47.9475 14.048H45.3235V9.6H56.4275V14.048H53.3875L57.9635 20.224L62.5395 14.048H59.4675V9.6H70.4755V14.048H67.8515L60.3635 23.808V27.552H64.6195V32H51.2115V27.552ZM78.489 27.552H81.433V14.048H78.489V9.6H90.489C93.0917 9.6 95.1397 10.2293 96.633 11.488C98.1263 12.7253 98.873 14.432 98.873 16.608C98.873 18.8053 98.1263 20.5333 96.633 21.792C95.1397 23.0293 93.0917 23.648 90.489 23.648H86.105V27.552H90.521V32H78.489V27.552ZM90.265 19.904C91.3743 19.904 92.2597 19.6267 92.921 19.072C93.5823 18.5173 93.913 17.7813 93.913 16.864C93.913 15.9253 93.5823 15.1893 92.921 14.656C92.2597 14.1013 91.3743 13.824 90.265 13.824H86.105V19.904H90.265ZM100.239 27.552H103.183V14.048H100.239V9.6H112.431C114.927 9.6 116.9 10.1867 118.351 11.36C119.802 12.5333 120.527 14.1333 120.527 16.16C120.527 17.6533 120.132 18.9227 119.343 19.968C118.554 21.0133 117.455 21.76 116.047 22.208L120.431 27.552H122.735V32H112.335V27.552H114.543L111.055 23.168H107.855V27.552H110.127V32H100.239V27.552ZM111.951 19.616C113.039 19.616 113.903 19.36 114.543 18.848C115.204 18.3147 115.535 17.6107 115.535 16.736C115.535 15.8613 115.204 15.1573 114.543 14.624C113.903 14.0907 113.039 13.824 111.951 13.824H107.855V19.616H111.951ZM134.606 32.48C132.387 32.48 130.382 31.9787 128.59 30.976C126.798 29.9733 125.39 28.5867 124.366 26.816C123.363 25.024 122.862 23.0187 122.862 20.8C122.862 18.5813 123.363 16.5867 124.366 14.816C125.39 13.024 126.798 11.6267 128.59 10.624C130.382 9.62133 132.387 9.12 134.606 9.12C136.824 9.12 138.83 9.62133 140.622 10.624C142.414 11.6267 143.811 13.024 144.814 14.816C145.838 16.5867 146.35 18.5813 146.35 20.8C146.35 23.0187 145.838 25.024 144.814 26.816C143.811 28.5867 142.414 29.9733 140.622 30.976C138.83 31.9787 136.824 32.48 134.606 32.48ZM134.606 27.712C135.907 27.712 137.059 27.424 138.062 26.848C139.086 26.2507 139.886 25.4293 140.462 24.384C141.038 23.3173 141.326 22.1227 141.326 20.8C141.326 19.4773 141.038 18.2933 140.462 17.248C139.886 16.1813 139.086 15.36 138.062 14.784C137.059 14.1867 135.907 13.888 134.606 13.888C133.304 13.888 132.142 14.1867 131.118 14.784C130.115 15.36 129.326 16.1813 128.75 17.248C128.174 18.2933 127.886 19.4773 127.886 20.8C127.886 22.1227 128.174 23.3173 128.75 24.384C129.326 25.4293 130.115 26.2507 131.118 26.848C132.142 27.424 133.304 27.712 134.606 27.712ZM147.989 27.552H150.933V14.048H147.989V9.6H162.933V8.032H167.381V18.112H162.933V14.112C162.933 14.0907 162.922 14.08 162.901 14.08C162.901 14.0587 162.89 14.048 162.869 14.048H155.605V18.464H157.877C157.898 18.464 157.909 18.464 157.909 18.464C157.93 18.464 157.941 18.4533 157.941 18.432V17.024H161.013V24.128H157.941V22.72C157.941 22.72 157.93 22.72 157.909 22.72C157.909 22.72 157.898 22.72 157.877 22.72C157.877 22.6987 157.877 22.688 157.877 22.688H155.605V27.552H161.013V32H147.989V27.552ZM169.052 27.552H171.996V14.048H169.052V9.6H179.612V14.048H176.668V27.552H179.612V32H169.052V27.552ZM196.277 32H181.333V27.552H184.277V14.048H181.333V9.6H193.205V14.048H188.949V27.552H196.213C196.234 27.552 196.245 27.552 196.245 27.552C196.245 27.5307 196.245 27.52 196.245 27.52C196.266 27.52 196.277 27.5093 196.277 27.488V21.664H200.949V33.792H196.277V32ZM218.235 32H202.427V27.552H205.371V14.048H202.427V9.6H217.467V8.032H221.915V18.336H217.467V14.048C217.467 14.0267 217.456 14.016 217.435 14.016C217.435 13.9947 217.424 13.984 217.403 13.984H209.851V18.688H211.835C211.856 18.688 211.867 18.688 211.867 18.688C211.888 18.6667 211.899 18.656 211.899 18.656V17.28H215.163V24.288H211.899V22.944C211.899 22.944 211.888 22.944 211.867 22.944C211.867 22.9227 211.856 22.912 211.835 22.912H209.851V27.648H218.075C218.096 27.648 218.107 27.648 218.107 27.648C218.107 27.6267 218.107 27.616 218.107 27.616C218.128 27.616 218.139 27.6053 218.139 27.584V23.232H222.683V33.792H218.235V32Z" fill="black"/>
</svg>
