<svg width="200" height="200" viewBox="0 0 200 200" fill="none" xmlns="http://www.w3.org/2000/svg">
<rect width="200" height="200" rx="20" fill="#FF0000" fill-opacity="0.4"/>
<g clip-path="url(#clip0_245_7)">
<path d="M95.34 76.1183C109.185 76.1183 121.776 80.1285 131.038 85.7797C135.661 88.5995 139.614 91.9278 142.468 95.5451C145.276 99.0987 147.345 103.352 147.345 107.899C147.345 112.782 144.97 116.63 141.549 119.375C138.313 121.975 134.043 123.697 129.507 124.899C120.389 127.309 108.22 128.123 95.34 128.123C82.4601 128.123 70.2909 127.314 61.1727 124.899C56.6367 123.697 52.3665 121.975 49.1306 119.375C45.7041 116.624 43.335 112.782 43.335 107.899C43.335 103.352 45.4036 99.0987 48.2119 95.5393C51.0664 91.9278 55.013 88.6053 59.6414 85.7739C68.9041 80.1342 81.5009 76.1183 95.34 76.1183ZM95.34 12.5566C103.003 12.5566 110.351 15.6006 115.769 21.0188C121.188 26.4371 124.232 33.7858 124.232 41.4483C124.232 49.1108 121.188 56.4596 115.769 61.8778C110.351 67.296 103.003 70.34 95.34 70.34C87.6774 70.34 80.3287 67.296 74.9105 61.8778C69.4922 56.4596 66.4483 49.1108 66.4483 41.4483C66.4483 33.7858 69.4922 26.4371 74.9105 21.0188C80.3287 15.6006 87.6774 12.5566 95.34 12.5566Z" fill="#3D0000"/>
</g>
<path d="M27.0875 163C26.6075 163 26.0915 162.922 25.5395 162.766C24.9995 162.598 24.4835 162.394 23.9915 162.154C23.5115 161.902 23.1095 161.644 22.7855 161.38C22.4615 161.116 22.2815 160.882 22.2455 160.678V152.848C22.2455 152.452 22.2815 152.134 22.3535 151.894C22.4255 151.654 22.4975 151.504 22.5695 151.444H20.9135C20.8775 151.384 20.8355 151.312 20.7875 151.228C20.7395 151.132 20.7095 151.018 20.6975 150.886C20.7695 150.814 20.8775 150.736 21.0215 150.652C21.1775 150.568 21.3275 150.496 21.4715 150.436C21.6275 150.364 21.7415 150.328 21.8135 150.328H26.2055C26.2535 150.388 26.3015 150.49 26.3495 150.634C26.4095 150.778 26.4395 150.946 26.4395 151.138L25.6655 151.372C25.4615 151.432 25.2935 151.516 25.1615 151.624C25.0295 151.72 24.9395 151.87 24.8915 152.074C24.8435 152.266 24.8195 152.548 24.8195 152.92V160.426C24.9395 160.558 25.1135 160.69 25.3415 160.822C25.5815 160.954 25.8335 161.074 26.0975 161.182C26.3735 161.29 26.6375 161.38 26.8895 161.452C27.1415 161.512 27.3515 161.542 27.5195 161.542C27.9275 161.542 28.3235 161.494 28.7075 161.398C29.0915 161.29 29.4395 161.158 29.7515 161.002C30.0755 160.834 30.3275 160.666 30.5075 160.498V152.848C30.5075 152.452 30.5375 152.134 30.5975 151.894C30.6695 151.654 30.7355 151.504 30.7955 151.444H29.1935C29.1455 151.396 29.1035 151.324 29.0675 151.228C29.0315 151.132 29.0075 151.018 28.9955 150.886C29.0675 150.814 29.1755 150.736 29.3195 150.652C29.4635 150.556 29.6075 150.478 29.7515 150.418C29.9075 150.358 30.0215 150.328 30.0935 150.328H33.2615C33.3215 150.4 33.3755 150.502 33.4235 150.634C33.4835 150.766 33.5135 150.934 33.5135 151.138L32.8115 151.336C32.5835 151.396 32.4035 151.48 32.2715 151.588C32.1515 151.696 32.0615 151.858 32.0015 152.074C31.9535 152.29 31.9295 152.602 31.9295 153.01V161.038C31.7855 161.242 31.5455 161.458 31.2095 161.686C30.8735 161.914 30.4835 162.13 30.0395 162.334C29.5955 162.526 29.1155 162.688 28.5995 162.82C28.0955 162.94 27.5915 163 27.0875 163ZM39.0805 163C38.9965 163 38.8105 162.988 38.5225 162.964C38.2465 162.928 37.9225 162.886 37.5505 162.838C37.1905 162.79 36.8245 162.742 36.4525 162.694C36.0805 162.634 35.7505 162.58 35.4625 162.532C35.1745 162.484 34.9765 162.442 34.8685 162.406C34.8685 162.298 34.8865 162.19 34.9225 162.082C34.9585 161.962 34.9945 161.878 35.0305 161.83L35.5525 161.758C35.7565 161.722 35.9185 161.65 36.0385 161.542C36.1705 161.422 36.2665 161.242 36.3265 161.002C36.3865 160.75 36.4165 160.408 36.4165 159.976V152.848C36.4165 152.476 36.4345 152.194 36.4705 152.002C36.5185 151.81 36.5725 151.672 36.6325 151.588C36.6925 151.504 36.7225 151.456 36.7225 151.444H35.0665C35.0305 151.396 34.9885 151.318 34.9405 151.21C34.9045 151.102 34.8805 150.994 34.8685 150.886C34.9285 150.814 35.0305 150.736 35.1745 150.652C35.3305 150.568 35.4865 150.496 35.6425 150.436C35.7985 150.364 35.9065 150.328 35.9665 150.328H42.4285C42.6925 150.388 42.9865 150.49 43.3105 150.634C43.6345 150.778 43.9345 150.934 44.2105 151.102C44.4985 151.27 44.7145 151.432 44.8585 151.588C44.9905 151.828 45.0865 152.116 45.1465 152.452C45.2065 152.776 45.2365 153.112 45.2365 153.46C45.2365 153.844 45.2065 154.228 45.1465 154.612C45.0865 154.996 45.0085 155.344 44.9125 155.656C44.8285 155.956 44.7205 156.184 44.5885 156.34C44.3965 156.508 44.1445 156.7 43.8325 156.916C43.5325 157.12 43.2085 157.306 42.8605 157.474C42.5245 157.642 42.1945 157.744 41.8705 157.78H38.9725V160.426C38.9725 160.726 38.9365 160.984 38.8645 161.2C38.7925 161.404 38.7205 161.542 38.6485 161.614L40.5025 161.848C40.5385 161.896 40.5685 161.968 40.5925 162.064C40.6285 162.16 40.6525 162.274 40.6645 162.406C40.4845 162.55 40.2325 162.688 39.9085 162.82C39.5845 162.94 39.3085 163 39.0805 163ZM38.9725 156.556C39.5965 156.556 40.2025 156.544 40.7905 156.52C41.3785 156.496 41.8765 156.46 42.2845 156.412C42.3925 156.232 42.4825 155.992 42.5545 155.692C42.6265 155.392 42.6865 155.074 42.7345 154.738C42.7825 154.39 42.8065 154.06 42.8065 153.748C42.8065 153.352 42.7645 152.98 42.6805 152.632C42.6085 152.272 42.4705 151.984 42.2665 151.768C42.0865 151.708 41.8465 151.66 41.5465 151.624C41.2585 151.588 40.9705 151.558 40.6825 151.534C40.4065 151.51 40.1965 151.498 40.0525 151.498C39.7525 151.498 39.5245 151.558 39.3685 151.678C39.2125 151.798 39.1045 151.954 39.0445 152.146C38.9965 152.338 38.9725 152.56 38.9725 152.812V156.556ZM54.8563 163C54.5443 163 54.1063 162.988 53.5423 162.964C52.9903 162.94 52.3783 162.91 51.7063 162.874C51.0343 162.838 50.3623 162.796 49.6903 162.748C49.0303 162.688 48.4183 162.628 47.8543 162.568C47.3023 162.508 46.8643 162.454 46.5403 162.406C46.5403 162.286 46.5583 162.172 46.5943 162.064C46.6303 161.944 46.6663 161.86 46.7023 161.812L47.2243 161.758C47.4403 161.722 47.6083 161.644 47.7283 161.524C47.8483 161.404 47.9383 161.224 47.9983 160.984C48.0583 160.732 48.0883 160.396 48.0883 159.976V152.848C48.0883 152.476 48.1063 152.194 48.1423 152.002C48.1903 151.81 48.2443 151.672 48.3043 151.588C48.3643 151.504 48.3943 151.456 48.3943 151.444H46.7383C46.7023 151.396 46.6603 151.318 46.6123 151.21C46.5763 151.102 46.5523 150.994 46.5403 150.886C46.6003 150.814 46.7023 150.736 46.8463 150.652C47.0023 150.568 47.1583 150.496 47.3143 150.436C47.4703 150.364 47.5783 150.328 47.6383 150.328H52.0303C52.0903 150.388 52.1443 150.496 52.1923 150.652C52.2403 150.808 52.2703 150.97 52.2823 151.138L51.4903 151.372C51.2983 151.42 51.1363 151.492 51.0043 151.588C50.8843 151.684 50.7943 151.834 50.7343 152.038C50.6743 152.242 50.6443 152.536 50.6443 152.92V160.444C50.6443 160.72 50.6083 160.966 50.5363 161.182C50.4643 161.386 50.3923 161.536 50.3203 161.632H53.8843L55.1083 158.266C55.4203 158.266 55.6963 158.302 55.9363 158.374C56.1883 158.446 56.3623 158.512 56.4583 158.572C56.4583 158.992 56.4403 159.43 56.4043 159.886C56.3803 160.342 56.3443 160.774 56.2963 161.182C56.2483 161.578 56.2003 161.92 56.1523 162.208C56.0803 162.292 55.9543 162.4 55.7743 162.532C55.6063 162.652 55.4323 162.76 55.2523 162.856C55.0843 162.952 54.9523 163 54.8563 163ZM63.4248 163C62.9808 163 62.5188 162.928 62.0388 162.784C61.5588 162.628 61.1028 162.442 60.6708 162.226C60.2388 162.01 59.8608 161.794 59.5368 161.578C59.2128 161.35 58.9908 161.164 58.8708 161.02C58.5948 160.612 58.3848 160.054 58.2408 159.346C58.1088 158.638 58.0428 157.894 58.0428 157.114C58.0428 156.466 58.0788 155.824 58.1508 155.188C58.2228 154.552 58.3128 153.97 58.4208 153.442C58.5408 152.902 58.6668 152.458 58.7988 152.11C59.1228 151.858 59.5128 151.612 59.9688 151.372C60.4248 151.12 60.9168 150.892 61.4448 150.688C61.9728 150.484 62.5008 150.328 63.0288 150.22C63.5568 150.1 64.0488 150.04 64.5048 150.04C64.8408 150.04 65.2068 150.088 65.6028 150.184C65.9988 150.28 66.3948 150.406 66.7908 150.562C67.1868 150.718 67.5408 150.892 67.8528 151.084C68.1648 151.264 68.3928 151.444 68.5368 151.624C68.7408 151.948 68.9088 152.362 69.0408 152.866C69.1728 153.358 69.2748 153.886 69.3468 154.45C69.4188 155.014 69.4548 155.572 69.4548 156.124C69.4548 156.748 69.4188 157.372 69.3468 157.996C69.2748 158.608 69.1728 159.19 69.0408 159.742C68.9208 160.282 68.7768 160.774 68.6088 161.218C68.2848 161.482 67.8408 161.752 67.2768 162.028C66.7128 162.304 66.0948 162.538 65.4228 162.73C64.7508 162.91 64.0848 163 63.4248 163ZM63.8388 161.488C64.0428 161.488 64.2948 161.464 64.5948 161.416C64.9068 161.356 65.2068 161.278 65.4948 161.182C65.7948 161.086 66.0168 161.002 66.1608 160.93C66.2928 160.582 66.4008 160.18 66.4848 159.724C66.5808 159.256 66.6468 158.752 66.6828 158.212C66.7188 157.66 66.7368 157.108 66.7368 156.556C66.7368 155.776 66.7008 155.044 66.6288 154.36C66.5688 153.664 66.4848 153.1 66.3768 152.668C66.3048 152.572 66.1668 152.464 65.9628 152.344C65.7588 152.224 65.5308 152.116 65.2788 152.02C65.0268 151.912 64.7808 151.822 64.5408 151.75C64.3008 151.678 64.0968 151.642 63.9288 151.642C63.7128 151.642 63.4368 151.666 63.1008 151.714C62.7768 151.75 62.4468 151.804 62.1108 151.876C61.7868 151.948 61.5108 152.02 61.2828 152.092C61.1508 152.404 61.0368 152.782 60.9408 153.226C60.8568 153.658 60.7908 154.132 60.7428 154.648C60.6948 155.164 60.6708 155.704 60.6708 156.268C60.6708 157.036 60.7188 157.798 60.8148 158.554C60.9228 159.298 61.0788 159.916 61.2828 160.408C61.3668 160.516 61.5228 160.636 61.7508 160.768C61.9788 160.888 62.2248 161.008 62.4888 161.128C62.7648 161.236 63.0288 161.326 63.2808 161.398C63.5328 161.458 63.7188 161.488 63.8388 161.488ZM75.0854 163C75.0254 163 74.8754 162.988 74.6354 162.964C74.3954 162.928 74.1014 162.892 73.7534 162.856C73.4174 162.808 73.0694 162.76 72.7094 162.712C72.3494 162.652 72.0074 162.592 71.6834 162.532C71.3714 162.472 71.1314 162.418 70.9634 162.37C70.9634 162.226 70.9814 162.1 71.0174 161.992C71.0654 161.884 71.1074 161.812 71.1434 161.776L71.4134 161.722C71.5454 161.698 71.6834 161.656 71.8274 161.596C71.9834 161.536 72.1394 161.404 72.2954 161.2C72.4634 160.984 72.6374 160.66 72.8174 160.228C73.0094 159.796 73.2134 159.196 73.4294 158.428L75.4094 151.462C75.5054 151.354 75.6674 151.222 75.8954 151.066C76.1354 150.91 76.3994 150.754 76.6874 150.598C76.9754 150.442 77.2514 150.31 77.5154 150.202C77.7794 150.094 77.9834 150.04 78.1274 150.04C78.2954 150.04 78.5354 150.094 78.8474 150.202C79.1594 150.298 79.4774 150.43 79.8014 150.598C80.1254 150.754 80.3954 150.922 80.6114 151.102L82.9334 161.236C82.9694 161.38 83.0234 161.488 83.0954 161.56C83.1674 161.62 83.2874 161.656 83.4554 161.668L84.5714 161.812C84.6074 161.872 84.6434 161.926 84.6794 161.974C84.7154 162.022 84.7394 162.154 84.7514 162.37C84.6554 162.466 84.5114 162.562 84.3194 162.658C84.1394 162.754 83.9414 162.838 83.7254 162.91C83.5214 162.97 83.3474 163 83.2034 163C83.1194 163 82.9274 162.982 82.6274 162.946C82.3394 162.91 81.9974 162.868 81.6014 162.82C81.2054 162.76 80.8034 162.7 80.3954 162.64C79.9994 162.568 79.6454 162.502 79.3334 162.442C79.0214 162.382 78.8114 162.328 78.7034 162.28C78.7034 162.136 78.7334 162.016 78.7934 161.92C78.8534 161.812 78.8834 161.746 78.8834 161.722L79.4774 161.704C79.6334 161.692 79.7774 161.668 79.9094 161.632C80.0534 161.584 80.1554 161.476 80.2154 161.308C80.2874 161.14 80.2754 160.87 80.1794 160.498L79.5854 157.888H75.2654L74.5634 160.372C74.5034 160.588 74.4194 160.786 74.3114 160.966C74.2154 161.146 74.1074 161.296 73.9874 161.416C73.8794 161.536 73.7714 161.608 73.6634 161.632L76.4354 161.83C76.4474 161.866 76.4774 161.938 76.5254 162.046C76.5734 162.142 76.5974 162.256 76.5974 162.388C76.5134 162.484 76.3754 162.58 76.1834 162.676C75.9914 162.772 75.7934 162.85 75.5894 162.91C75.3854 162.97 75.2174 163 75.0854 163ZM75.5714 156.7C76.2074 156.688 76.7654 156.676 77.2454 156.664C77.7374 156.64 78.1514 156.616 78.4874 156.592C78.8354 156.556 79.0994 156.52 79.2794 156.484L78.3254 152.218C78.0974 152.05 77.8634 151.918 77.6234 151.822C77.3954 151.726 77.1614 151.66 76.9214 151.624L75.5714 156.7ZM93.4038 163.018C93.0798 163.006 92.6418 162.982 92.0898 162.946C91.5498 162.91 90.9618 162.868 90.3258 162.82C89.7018 162.772 89.0838 162.724 88.4718 162.676C87.8718 162.616 87.3438 162.562 86.8878 162.514C86.4318 162.466 86.1018 162.43 85.8978 162.406C85.8978 162.286 85.9158 162.172 85.9518 162.064C85.9878 161.944 86.0238 161.86 86.0598 161.812L86.5818 161.758C86.7978 161.722 86.9658 161.644 87.0858 161.524C87.2058 161.404 87.2958 161.224 87.3558 160.984C87.4158 160.732 87.4458 160.396 87.4458 159.976V152.848C87.4458 152.476 87.4638 152.194 87.4998 152.002C87.5478 151.81 87.6018 151.672 87.6618 151.588C87.7218 151.504 87.7518 151.456 87.7518 151.444H86.0958C86.0598 151.396 86.0178 151.318 85.9698 151.21C85.9338 151.102 85.9098 150.994 85.8978 150.886C85.9578 150.814 86.0598 150.736 86.2038 150.652C86.3598 150.556 86.5098 150.478 86.6538 150.418C86.8098 150.346 86.9238 150.304 86.9958 150.292H94.0698C94.2018 150.316 94.3938 150.382 94.6458 150.49C94.8978 150.586 95.1678 150.706 95.4558 150.85C95.7438 150.982 96.0078 151.12 96.2478 151.264C96.4878 151.396 96.6558 151.516 96.7518 151.624C97.1478 152.284 97.4178 153.004 97.5618 153.784C97.7058 154.564 97.7778 155.35 97.7778 156.142C97.7778 156.874 97.7298 157.582 97.6338 158.266C97.5378 158.938 97.4118 159.544 97.2558 160.084C97.1118 160.624 96.9558 161.05 96.7878 161.362C96.5838 161.566 96.3258 161.764 96.0138 161.956C95.7138 162.148 95.3958 162.322 95.0598 162.478C94.7358 162.622 94.4238 162.748 94.1238 162.856C93.8358 162.952 93.5958 163.006 93.4038 163.018ZM89.6778 161.632H94.0158C94.2078 161.404 94.3758 161.11 94.5198 160.75C94.6638 160.378 94.7838 159.964 94.8798 159.508C94.9758 159.052 95.0418 158.572 95.0778 158.068C95.1258 157.552 95.1498 157.042 95.1498 156.538C95.1498 156.046 95.1258 155.56 95.0778 155.08C95.0418 154.588 94.9758 154.126 94.8798 153.694C94.7838 153.25 94.6518 152.866 94.4838 152.542C94.3278 152.206 94.1418 151.948 93.9258 151.768C93.7098 151.708 93.4518 151.66 93.1518 151.624C92.8518 151.588 92.5278 151.558 92.1798 151.534C91.8318 151.51 91.4778 151.498 91.1178 151.498C90.6618 151.498 90.3618 151.612 90.2178 151.84C90.0738 152.068 90.0018 152.41 90.0018 152.866V160.444C90.0018 160.72 89.9658 160.966 89.8938 161.182C89.8218 161.386 89.7498 161.536 89.6778 161.632ZM107.547 163C107.463 163 107.277 162.988 106.989 162.964C106.713 162.928 106.389 162.886 106.017 162.838C105.657 162.79 105.291 162.742 104.919 162.694C104.547 162.634 104.217 162.58 103.929 162.532C103.641 162.484 103.443 162.442 103.335 162.406C103.335 162.298 103.353 162.19 103.389 162.082C103.425 161.962 103.461 161.878 103.497 161.83L104.019 161.758C104.223 161.722 104.385 161.65 104.505 161.542C104.637 161.422 104.733 161.242 104.793 161.002C104.853 160.75 104.883 160.408 104.883 159.976V152.848C104.883 152.476 104.901 152.194 104.937 152.002C104.985 151.81 105.039 151.672 105.099 151.588C105.159 151.504 105.189 151.456 105.189 151.444H103.533C103.497 151.396 103.455 151.318 103.407 151.21C103.371 151.102 103.347 150.994 103.335 150.886C103.395 150.814 103.497 150.736 103.641 150.652C103.797 150.568 103.953 150.496 104.109 150.436C104.265 150.364 104.373 150.328 104.433 150.328H110.895C111.159 150.388 111.453 150.49 111.777 150.634C112.101 150.778 112.401 150.934 112.677 151.102C112.965 151.27 113.181 151.432 113.325 151.588C113.457 151.828 113.553 152.116 113.613 152.452C113.673 152.776 113.703 153.112 113.703 153.46C113.703 153.844 113.673 154.228 113.613 154.612C113.553 154.996 113.475 155.344 113.379 155.656C113.295 155.956 113.187 156.184 113.055 156.34C112.863 156.508 112.611 156.7 112.299 156.916C111.999 157.12 111.675 157.306 111.327 157.474C110.991 157.642 110.661 157.744 110.337 157.78H107.439V160.426C107.439 160.726 107.403 160.984 107.331 161.2C107.259 161.404 107.187 161.542 107.115 161.614L108.969 161.848C109.005 161.896 109.035 161.968 109.059 162.064C109.095 162.16 109.119 162.274 109.131 162.406C108.951 162.55 108.699 162.688 108.375 162.82C108.051 162.94 107.775 163 107.547 163ZM107.439 156.556C108.063 156.556 108.669 156.544 109.257 156.52C109.845 156.496 110.343 156.46 110.751 156.412C110.859 156.232 110.949 155.992 111.021 155.692C111.093 155.392 111.153 155.074 111.201 154.738C111.249 154.39 111.273 154.06 111.273 153.748C111.273 153.352 111.231 152.98 111.147 152.632C111.075 152.272 110.937 151.984 110.733 151.768C110.553 151.708 110.313 151.66 110.013 151.624C109.725 151.588 109.437 151.558 109.149 151.534C108.873 151.51 108.663 151.498 108.519 151.498C108.219 151.498 107.991 151.558 107.835 151.678C107.679 151.798 107.571 151.954 107.511 152.146C107.463 152.338 107.439 152.56 107.439 152.812V156.556ZM119.219 163C119.135 163 118.949 162.988 118.661 162.964C118.385 162.928 118.061 162.886 117.689 162.838C117.329 162.79 116.963 162.742 116.591 162.694C116.219 162.634 115.889 162.58 115.601 162.532C115.313 162.484 115.115 162.442 115.007 162.406C115.007 162.298 115.025 162.19 115.061 162.082C115.097 161.962 115.133 161.878 115.169 161.83L115.691 161.758C115.883 161.722 116.039 161.656 116.159 161.56C116.291 161.464 116.387 161.29 116.447 161.038C116.519 160.786 116.555 160.432 116.555 159.976V152.848C116.555 152.44 116.591 152.128 116.663 151.912C116.735 151.696 116.801 151.54 116.861 151.444H115.205C115.181 151.396 115.145 151.324 115.097 151.228C115.049 151.132 115.019 151.018 115.007 150.886C115.079 150.814 115.187 150.736 115.331 150.652C115.475 150.556 115.625 150.478 115.781 150.418C115.937 150.358 116.045 150.328 116.105 150.328H120.497C120.545 150.388 120.593 150.49 120.641 150.634C120.701 150.766 120.737 150.934 120.749 151.138L119.957 151.372C119.765 151.42 119.603 151.492 119.471 151.588C119.351 151.684 119.261 151.834 119.201 152.038C119.141 152.242 119.111 152.536 119.111 152.92V155.854C119.567 155.854 120.035 155.848 120.515 155.836C121.007 155.824 121.481 155.812 121.937 155.8C122.405 155.788 122.825 155.776 123.197 155.764C123.569 155.74 123.875 155.716 124.115 155.692V152.848C124.115 152.44 124.151 152.122 124.223 151.894C124.295 151.666 124.367 151.516 124.439 151.444H122.783C122.759 151.396 122.723 151.324 122.675 151.228C122.627 151.12 122.597 151.006 122.585 150.886C122.657 150.802 122.765 150.718 122.909 150.634C123.065 150.55 123.215 150.478 123.359 150.418C123.515 150.358 123.623 150.328 123.683 150.328H128.075C128.135 150.388 128.189 150.496 128.237 150.652C128.285 150.796 128.309 150.958 128.309 151.138L127.535 151.372C127.343 151.42 127.181 151.492 127.049 151.588C126.929 151.684 126.833 151.834 126.761 152.038C126.701 152.242 126.671 152.536 126.671 152.92V160.426C126.671 160.714 126.635 160.966 126.563 161.182C126.503 161.386 126.437 161.53 126.365 161.614L128.075 161.848C128.099 161.872 128.129 161.938 128.165 162.046C128.201 162.154 128.219 162.274 128.219 162.406C128.039 162.55 127.811 162.688 127.535 162.82C127.259 162.94 127.013 163 126.797 163C126.713 163 126.527 162.988 126.239 162.964C125.963 162.928 125.639 162.886 125.267 162.838C124.895 162.79 124.523 162.742 124.151 162.694C123.791 162.634 123.467 162.58 123.179 162.532C122.891 162.484 122.693 162.442 122.585 162.406C122.585 162.286 122.603 162.172 122.639 162.064C122.675 161.956 122.711 161.878 122.747 161.83L123.269 161.758C123.473 161.722 123.635 161.65 123.755 161.542C123.887 161.434 123.977 161.254 124.025 161.002C124.085 160.75 124.115 160.408 124.115 159.976V157.06H119.111V160.426C119.111 160.726 119.075 160.984 119.003 161.2C118.931 161.404 118.859 161.542 118.787 161.614L120.497 161.848C120.521 161.884 120.551 161.962 120.587 162.082C120.623 162.19 120.641 162.298 120.641 162.406C120.461 162.562 120.233 162.7 119.957 162.82C119.693 162.94 119.447 163 119.219 163ZM135.653 163C135.209 163 134.747 162.928 134.267 162.784C133.787 162.628 133.331 162.442 132.899 162.226C132.467 162.01 132.089 161.794 131.765 161.578C131.441 161.35 131.219 161.164 131.099 161.02C130.823 160.612 130.613 160.054 130.469 159.346C130.337 158.638 130.271 157.894 130.271 157.114C130.271 156.466 130.307 155.824 130.379 155.188C130.451 154.552 130.541 153.97 130.649 153.442C130.769 152.902 130.895 152.458 131.027 152.11C131.351 151.858 131.741 151.612 132.197 151.372C132.653 151.12 133.145 150.892 133.673 150.688C134.201 150.484 134.729 150.328 135.257 150.22C135.785 150.1 136.277 150.04 136.733 150.04C137.069 150.04 137.435 150.088 137.831 150.184C138.227 150.28 138.623 150.406 139.019 150.562C139.415 150.718 139.769 150.892 140.081 151.084C140.393 151.264 140.621 151.444 140.765 151.624C140.969 151.948 141.137 152.362 141.269 152.866C141.401 153.358 141.503 153.886 141.575 154.45C141.647 155.014 141.683 155.572 141.683 156.124C141.683 156.748 141.647 157.372 141.575 157.996C141.503 158.608 141.401 159.19 141.269 159.742C141.149 160.282 141.005 160.774 140.837 161.218C140.513 161.482 140.069 161.752 139.505 162.028C138.941 162.304 138.323 162.538 137.651 162.73C136.979 162.91 136.313 163 135.653 163ZM136.067 161.488C136.271 161.488 136.523 161.464 136.823 161.416C137.135 161.356 137.435 161.278 137.723 161.182C138.023 161.086 138.245 161.002 138.389 160.93C138.521 160.582 138.629 160.18 138.713 159.724C138.809 159.256 138.875 158.752 138.911 158.212C138.947 157.66 138.965 157.108 138.965 156.556C138.965 155.776 138.929 155.044 138.857 154.36C138.797 153.664 138.713 153.1 138.605 152.668C138.533 152.572 138.395 152.464 138.191 152.344C137.987 152.224 137.759 152.116 137.507 152.02C137.255 151.912 137.009 151.822 136.769 151.75C136.529 151.678 136.325 151.642 136.157 151.642C135.941 151.642 135.665 151.666 135.329 151.714C135.005 151.75 134.675 151.804 134.339 151.876C134.015 151.948 133.739 152.02 133.511 152.092C133.379 152.404 133.265 152.782 133.169 153.226C133.085 153.658 133.019 154.132 132.971 154.648C132.923 155.164 132.899 155.704 132.899 156.268C132.899 157.036 132.947 157.798 133.043 158.554C133.151 159.298 133.307 159.916 133.511 160.408C133.595 160.516 133.751 160.636 133.979 160.768C134.207 160.888 134.453 161.008 134.717 161.128C134.993 161.236 135.257 161.326 135.509 161.398C135.761 161.458 135.947 161.488 136.067 161.488ZM150.446 163C150.362 163 150.176 162.988 149.888 162.964C149.612 162.928 149.282 162.886 148.898 162.838C148.514 162.79 148.13 162.742 147.746 162.694C147.362 162.634 147.026 162.58 146.738 162.532C146.45 162.484 146.252 162.442 146.144 162.406C146.144 162.286 146.162 162.172 146.198 162.064C146.234 161.944 146.27 161.866 146.306 161.83L146.936 161.758C147.164 161.734 147.338 161.662 147.458 161.542C147.578 161.41 147.662 161.218 147.71 160.966C147.77 160.714 147.8 160.384 147.8 159.976V152.866C147.8 152.47 147.83 152.176 147.89 151.984C147.95 151.792 148.004 151.654 148.052 151.57H145.388L144.956 154.414C144.812 154.474 144.602 154.534 144.326 154.594C144.05 154.642 143.786 154.666 143.534 154.666C143.486 154.486 143.42 154.228 143.336 153.892C143.264 153.544 143.192 153.154 143.12 152.722C143.06 152.278 143.018 151.816 142.994 151.336C143.162 151.168 143.39 150.976 143.678 150.76C143.966 150.544 144.224 150.4 144.452 150.328H153.83C154.082 150.436 154.334 150.586 154.586 150.778C154.85 150.958 155.048 151.144 155.18 151.336C155.132 152.092 155.054 152.752 154.946 153.316C154.838 153.868 154.73 154.318 154.622 154.666C154.382 154.666 154.124 154.642 153.848 154.594C153.572 154.534 153.368 154.474 153.236 154.414L152.804 151.678C152.66 151.63 152.444 151.582 152.156 151.534C151.868 151.486 151.538 151.462 151.166 151.462C150.95 151.462 150.776 151.51 150.644 151.606C150.524 151.69 150.44 151.81 150.392 151.966C150.356 152.122 150.338 152.302 150.338 152.506V160.426C150.338 160.714 150.302 160.966 150.23 161.182C150.158 161.386 150.092 161.53 150.032 161.614L151.886 161.848C151.91 161.884 151.94 161.956 151.976 162.064C152.012 162.16 152.03 162.274 152.03 162.406C151.85 162.562 151.592 162.7 151.256 162.82C150.932 162.94 150.662 163 150.446 163ZM161.88 163C161.436 163 160.974 162.928 160.494 162.784C160.014 162.628 159.558 162.442 159.126 162.226C158.694 162.01 158.316 161.794 157.992 161.578C157.668 161.35 157.446 161.164 157.326 161.02C157.05 160.612 156.84 160.054 156.696 159.346C156.564 158.638 156.498 157.894 156.498 157.114C156.498 156.466 156.534 155.824 156.606 155.188C156.678 154.552 156.768 153.97 156.876 153.442C156.996 152.902 157.122 152.458 157.254 152.11C157.578 151.858 157.968 151.612 158.424 151.372C158.88 151.12 159.372 150.892 159.9 150.688C160.428 150.484 160.956 150.328 161.484 150.22C162.012 150.1 162.504 150.04 162.96 150.04C163.296 150.04 163.662 150.088 164.058 150.184C164.454 150.28 164.85 150.406 165.246 150.562C165.642 150.718 165.996 150.892 166.308 151.084C166.62 151.264 166.848 151.444 166.992 151.624C167.196 151.948 167.364 152.362 167.496 152.866C167.628 153.358 167.73 153.886 167.802 154.45C167.874 155.014 167.91 155.572 167.91 156.124C167.91 156.748 167.874 157.372 167.802 157.996C167.73 158.608 167.628 159.19 167.496 159.742C167.376 160.282 167.232 160.774 167.064 161.218C166.74 161.482 166.296 161.752 165.732 162.028C165.168 162.304 164.55 162.538 163.878 162.73C163.206 162.91 162.54 163 161.88 163ZM162.294 161.488C162.498 161.488 162.75 161.464 163.05 161.416C163.362 161.356 163.662 161.278 163.95 161.182C164.25 161.086 164.472 161.002 164.616 160.93C164.748 160.582 164.856 160.18 164.94 159.724C165.036 159.256 165.102 158.752 165.138 158.212C165.174 157.66 165.192 157.108 165.192 156.556C165.192 155.776 165.156 155.044 165.084 154.36C165.024 153.664 164.94 153.1 164.832 152.668C164.76 152.572 164.622 152.464 164.418 152.344C164.214 152.224 163.986 152.116 163.734 152.02C163.482 151.912 163.236 151.822 162.996 151.75C162.756 151.678 162.552 151.642 162.384 151.642C162.168 151.642 161.892 151.666 161.556 151.714C161.232 151.75 160.902 151.804 160.566 151.876C160.242 151.948 159.966 152.02 159.738 152.092C159.606 152.404 159.492 152.782 159.396 153.226C159.312 153.658 159.246 154.132 159.198 154.648C159.15 155.164 159.126 155.704 159.126 156.268C159.126 157.036 159.174 157.798 159.27 158.554C159.378 159.298 159.534 159.916 159.738 160.408C159.822 160.516 159.978 160.636 160.206 160.768C160.434 160.888 160.68 161.008 160.944 161.128C161.22 161.236 161.484 161.326 161.736 161.398C161.988 161.458 162.174 161.488 162.294 161.488Z" fill="black"/>
<defs>
<clipPath id="clip0_245_7">
<rect width="138.68" height="138.68" fill="white" transform="translate(26 13)"/>
</clipPath>
</defs>
</svg>
