<svg width="50" height="55" viewBox="0 0 50 55" fill="none" xmlns="http://www.w3.org/2000/svg">
<path d="M2.15 4.50017L33.575 0.0126671C33.7521 -0.0127448 33.9327 0.000174888 34.1044 0.050553C34.2761 0.100931 34.435 0.187593 34.5703 0.304679C34.7057 0.421765 34.8143 0.566545 34.8889 0.72923C34.9634 0.891915 35.0022 1.06871 35.0025 1.24767V53.3677C35.0021 53.5464 34.9634 53.7229 34.889 53.8854C34.8146 54.0479 34.7062 54.1925 34.5712 54.3096C34.4361 54.4266 34.2775 54.5134 34.1061 54.5639C33.9347 54.6145 33.7545 54.6277 33.5775 54.6027L2.1475 50.1152C1.55155 50.0303 1.00623 49.7332 0.611722 49.2786C0.217213 48.8239 5.77643e-06 48.2421 0 47.6402V6.97517C5.77643e-06 6.3732 0.217213 5.79145 0.611722 5.33678C1.00623 4.8821 1.55405 4.58504 2.15 4.50017ZM5.0025 9.14517V45.4702L30.0025 49.0427V5.57267L5.0025 9.14517ZM37.5025 44.8077H45.0025V9.80767H37.5025V4.80767H47.5025C48.1655 4.80767 48.8014 5.07106 49.2703 5.5399C49.7391 6.00874 50.0025 6.64463 50.0025 7.30767V47.3077C50.0025 47.9707 49.7391 48.6066 49.2703 49.0754C48.8014 49.5443 48.1655 49.8077 47.5025 49.8077H37.5025V44.8077ZM20.5025 27.3077L27.5025 37.3077H21.5025L17.5025 31.5927L13.5025 37.3077H7.5025L14.5025 27.3077L7.5025 17.3077H13.5025L17.5025 23.0227L21.5025 17.3077H27.5025L20.5025 27.3077Z" fill="black"/>
</svg>
