<svg width="47" height="55" viewBox="0 0 47 55" fill="none" xmlns="http://www.w3.org/2000/svg">
<path d="M0 0H31.035L45 13.965V25H40V20H25V5H5V50H45V55H0V0ZM30 6.035V15H38.965L30 6.035ZM7.5 27.5H16.785C18.56 27.5 20 28.94 20 30.715V36.785C20 38.56 18.56 40 16.785 40H12.5V47.5H7.5V27.5ZM12.5 35H15V32.5H12.5V35ZM21.25 27.5H30.535C32.31 27.5 33.75 28.94 33.75 30.715V44.285C33.75 46.06 32.31 47.5 30.535 47.5H21.25V27.5ZM26.25 32.5V42.5H28.75V32.5H26.25ZM35 30.715C35 28.94 36.44 27.5 38.215 27.5H46.665V32.5H40V35H46.6675V40H40V47.5H35V30.715Z" fill="black"/>
</svg>
