<svg width="60" height="60" viewBox="0 0 60 60" fill="none" xmlns="http://www.w3.org/2000/svg">
<mask id="path-1-inside-1_143_684" fill="white">
<path d="M50.4 30C50.4 41.28 41.28 50.4 30 50.4C18.72 50.4 9.60001 41.28 9.60001 30C9.60001 18.72 18.72 9.59999 30 9.59999C41.28 9.59999 50.4 18.72 50.4 30ZM12 30C12 39.96 20.04 48 30 48C39.96 48 48 39.96 48 30C48 20.04 39.96 12 30 12C20.04 12 12 20.04 12 30Z"/>
</mask>
<path d="M50.4 30C50.4 41.28 41.28 50.4 30 50.4C18.72 50.4 9.60001 41.28 9.60001 30C9.60001 18.72 18.72 9.59999 30 9.59999C41.28 9.59999 50.4 18.72 50.4 30ZM12 30C12 39.96 20.04 48 30 48C39.96 48 48 39.96 48 30C48 20.04 39.96 12 30 12C20.04 12 12 20.04 12 30Z" fill="#666666"/>
<path d="M42.4 30C42.4 36.8617 36.8617 42.4 30 42.4V58.4C45.6983 58.4 58.4 45.6983 58.4 30H42.4ZM30 42.4C23.1383 42.4 17.6 36.8617 17.6 30H1.60001C1.60001 45.6983 14.3017 58.4 30 58.4V42.4ZM17.6 30C17.6 23.1383 23.1383 17.6 30 17.6V1.59999C14.3017 1.59999 1.60001 14.3017 1.60001 30H17.6ZM30 17.6C36.8617 17.6 42.4 23.1383 42.4 30H58.4C58.4 14.3017 45.6983 1.59999 30 1.59999V17.6ZM4.00001 30C4.00001 44.3783 15.6217 56 30 56V40C24.4583 40 20 35.5417 20 30H4.00001ZM30 56C44.3783 56 56 44.3783 56 30L40 30C40 35.5417 35.5417 40 30 40V56ZM56 30C56 15.6217 44.3783 4 30 4L30 20C35.5417 20 40 24.4583 40 30L56 30ZM30 4C15.6217 4 4.00001 15.6217 4.00001 30H20C20 24.4583 24.4583 20 30 20L30 4Z" fill="black" mask="url(#path-1-inside-1_143_684)"/>
<mask id="path-3-inside-2_143_684" fill="white">
<path d="M32.04 20.04L22.08 30L32.04 39.96L30.36 41.64L18.72 30L30.36 18.36L32.04 20.04Z"/>
</mask>
<path d="M32.04 20.04L22.08 30L32.04 39.96L30.36 41.64L18.72 30L30.36 18.36L32.04 20.04Z" fill="#666666"/>
<path d="M32.04 20.04L37.6969 25.6969L43.3537 20.04L37.6969 14.3831L32.04 20.04ZM22.08 30L16.4231 24.3431L10.7663 30L16.4231 35.6569L22.08 30ZM32.04 39.96L37.6969 45.6169L43.3537 39.96L37.6969 34.3031L32.04 39.96ZM30.36 41.64L24.7031 47.2969L30.36 52.9537L36.0169 47.2969L30.36 41.64ZM18.72 30L13.0631 24.3431L7.40629 30L13.0631 35.6569L18.72 30ZM30.36 18.36L36.0169 12.7031L30.36 7.04629L24.7031 12.7031L30.36 18.36ZM26.3831 14.3831L16.4231 24.3431L27.7369 35.6569L37.6969 25.6969L26.3831 14.3831ZM16.4231 35.6569L26.3831 45.6169L37.6969 34.3031L27.7369 24.3431L16.4231 35.6569ZM26.3832 34.3031L24.7031 35.9831L36.0169 47.2969L37.6969 45.6169L26.3832 34.3031ZM36.0169 35.9831L24.3769 24.3431L13.0631 35.6569L24.7031 47.2969L36.0169 35.9831ZM24.3769 35.6569L36.0169 24.0169L24.7031 12.7031L13.0631 24.3431L24.3769 35.6569ZM24.7031 24.0169L26.3831 25.6969L37.6969 14.3831L36.0169 12.7031L24.7031 24.0169Z" fill="black" mask="url(#path-3-inside-2_143_684)"/>
<mask id="path-5-inside-3_143_684" fill="white">
<path d="M20.4 31.2V28.8H40.8V31.2H20.4Z"/>
</mask>
<path d="M20.4 31.2V28.8H40.8V31.2H20.4Z" fill="#666666"/>
<path d="M20.4 31.2H12.4V39.2H20.4V31.2ZM20.4 28.8V20.8H12.4V28.8H20.4ZM40.8 28.8H48.8V20.8H40.8V28.8ZM40.8 31.2V39.2H48.8V31.2H40.8ZM28.4 31.2V28.8H12.4V31.2H28.4ZM20.4 36.8H40.8V20.8H20.4V36.8ZM32.8 28.8V31.2H48.8V28.8H32.8ZM40.8 23.2H20.4V39.2H40.8V23.2Z" fill="black" mask="url(#path-5-inside-3_143_684)"/>
</svg>
