<svg width="219" height="46" viewBox="0 0 219 46" fill="none" xmlns="http://www.w3.org/2000/svg">
<path d="M29.4167 11.3829C29.0466 10.6095 28.5252 9.91807 27.8833 9.34958C25.1167 7.08291 22.2 3.11958 18.9 3.01958C18.7961 2.99347 18.6873 2.99347 18.5833 3.01958H8.68333C7.57959 2.97299 6.4776 3.14627 5.44143 3.52936C4.40525 3.91246 3.45557 4.49771 2.6476 5.25109C1.83962 6.00448 1.18947 6.91097 0.734953 7.91786C0.280432 8.92475 0.0306058 10.0119 0 11.1162V28.2762C0.0589433 29.9417 0.616183 31.5512 1.59966 32.8966C2.58314 34.242 3.94762 35.2613 5.51667 35.8229C6.53737 36.2087 7.62692 36.379 8.71667 36.3229H21.3167C22.4204 36.3693 23.5222 36.1958 24.5583 35.8127C25.5944 35.4295 26.544 34.8442 27.3519 34.0909C28.1598 33.3375 28.81 32.4311 29.2646 31.4244C29.7192 30.4176 29.9692 29.3305 30 28.2262V13.9479C29.9902 13.0606 29.7913 12.1856 29.4167 11.3812M20.2333 24.7096H15.95V28.9579C15.95 29.3999 15.7744 29.8239 15.4618 30.1364C15.1493 30.449 14.7254 30.6246 14.2833 30.6246C13.8413 30.6246 13.4174 30.449 13.1048 30.1364C12.7923 29.8239 12.6167 29.3999 12.6167 28.9579V24.7079H8.33333C8.11014 24.715 7.8878 24.6771 7.67953 24.5966C7.47125 24.516 7.28128 24.3945 7.1209 24.2391C6.96053 24.0837 6.83301 23.8977 6.74593 23.692C6.65884 23.4864 6.61397 23.2654 6.61397 23.0421C6.61397 22.8188 6.65884 22.5977 6.74593 22.3921C6.83301 22.1865 6.96053 22.0005 7.1209 21.8451C7.28128 21.6897 7.47125 21.5681 7.67953 21.4876C7.8878 21.407 8.11014 21.3692 8.33333 21.3762H12.5833V17.0946C12.5833 16.6526 12.7589 16.2286 13.0715 15.9161C13.384 15.6035 13.808 15.4279 14.25 15.4279C14.692 15.4279 15.116 15.6035 15.4285 15.9161C15.7411 16.2286 15.9167 16.6526 15.9167 17.0946V21.3779H20.2C20.5675 21.4593 20.8967 21.6628 21.1338 21.9552C21.371 22.2475 21.5022 22.6116 21.5061 22.988C21.5099 23.3644 21.3862 23.7311 21.1551 24.0283C20.924 24.3254 20.5991 24.5356 20.2333 24.6246V24.7096ZM21.7167 12.1146C21.4789 12.1168 21.243 12.0718 21.0227 11.9824C20.8024 11.8929 20.602 11.7607 20.4331 11.5933C20.2642 11.4259 20.1301 11.2268 20.0386 11.0073C19.9471 10.7878 19.9 10.5524 19.9 10.3146V5.93458C21.0167 6.15125 25.3 10.5829 26.2167 11.2996C26.4933 11.5329 26.73 11.8079 26.9167 12.1162L21.7167 12.1146Z" fill="black"/>
<path d="M62.5384 30C61.9304 30 61.2984 29.896 60.6424 29.688C59.9864 29.48 59.3704 29.232 58.7944 28.944C58.2184 28.64 57.7224 28.344 57.3064 28.056C56.8904 27.768 56.6104 27.544 56.4664 27.384C56.1144 26.92 55.8424 26.224 55.6504 25.296C55.4584 24.368 55.3624 23.36 55.3624 22.272C55.3624 21.328 55.4104 20.408 55.5064 19.512C55.6024 18.6 55.7224 17.792 55.8664 17.088C56.0264 16.368 56.1784 15.832 56.3224 15.48C56.7224 15.128 57.2264 14.792 57.8344 14.472C58.4584 14.152 59.1224 13.856 59.8264 13.584C60.5304 13.312 61.2184 13.104 61.8904 12.96C62.5624 12.8 63.1464 12.72 63.6424 12.72C64.2504 12.72 64.8904 12.8 65.5624 12.96C66.2344 13.104 66.8584 13.304 67.4344 13.56C68.0264 13.816 68.5144 14.096 68.8984 14.4C68.8824 15.36 68.8024 16.24 68.6584 17.04C68.5144 17.824 68.3864 18.44 68.2744 18.888C67.7784 18.856 67.3704 18.816 67.0504 18.768C66.7304 18.704 66.4904 18.648 66.3304 18.6L65.6344 15.384C65.4424 15.288 65.1944 15.192 64.8904 15.096C64.5864 15 64.2744 14.92 63.9544 14.856C63.6504 14.792 63.3944 14.76 63.1864 14.76C62.8664 14.76 62.4824 14.792 62.0344 14.856C61.5864 14.92 61.1464 15 60.7144 15.096C60.2984 15.192 59.9544 15.296 59.6824 15.408C59.5384 15.792 59.4024 16.312 59.2744 16.968C59.1624 17.624 59.0744 18.32 59.0104 19.056C58.9464 19.776 58.9144 20.456 58.9144 21.096C58.9144 21.768 58.9464 22.448 59.0104 23.136C59.0744 23.808 59.1624 24.432 59.2744 25.008C59.3864 25.584 59.5144 26.04 59.6584 26.376C59.7544 26.488 59.9384 26.632 60.2104 26.808C60.4984 26.968 60.8264 27.128 61.1944 27.288C61.5624 27.432 61.9304 27.56 62.2984 27.672C62.6664 27.784 63.0024 27.84 63.3064 27.84C63.4824 27.84 63.7144 27.824 64.0024 27.792C64.2904 27.76 64.5704 27.72 64.8424 27.672C65.1144 27.608 65.3144 27.544 65.4424 27.48L66.9304 23.664C67.3144 23.664 67.6744 23.712 68.0104 23.808C68.3624 23.904 68.6344 23.992 68.8264 24.072C68.8104 24.504 68.7784 24.976 68.7304 25.488C68.6984 26 68.6584 26.496 68.6104 26.976C68.5624 27.456 68.5144 27.872 68.4664 28.224C68.1944 28.432 67.7624 28.68 67.1704 28.968C66.5944 29.24 65.9064 29.48 65.1064 29.688C64.3224 29.896 63.4664 30 62.5384 30ZM78.7561 30C78.1961 30 77.5961 29.904 76.9561 29.712C76.3161 29.504 75.7081 29.256 75.1321 28.968C74.5561 28.68 74.0521 28.392 73.6201 28.104C73.2041 27.8 72.9081 27.552 72.7321 27.36C72.3641 26.832 72.0841 26.096 71.8921 25.152C71.7161 24.208 71.6281 23.216 71.6281 22.176C71.6281 21.296 71.6761 20.432 71.7721 19.584C71.8681 18.736 71.9881 17.96 72.1321 17.256C72.2921 16.536 72.4601 15.944 72.6361 15.48C73.0521 15.144 73.5641 14.816 74.1721 14.496C74.7801 14.16 75.4281 13.856 76.1161 13.584C76.8201 13.312 77.5241 13.104 78.2281 12.96C78.9321 12.8 79.5881 12.72 80.1961 12.72C80.6281 12.72 81.1081 12.784 81.6361 12.912C82.1801 13.04 82.7161 13.208 83.2441 13.416C83.7721 13.624 84.2441 13.856 84.6601 14.112C85.0761 14.352 85.3881 14.592 85.5961 14.832C85.8521 15.264 86.0681 15.816 86.2441 16.488C86.4201 17.144 86.5561 17.848 86.6521 18.6C86.7481 19.336 86.7961 20.072 86.7961 20.808C86.7961 21.64 86.7481 22.472 86.6521 23.304C86.5561 24.12 86.4201 24.896 86.2441 25.632C86.0841 26.352 85.8921 27.008 85.6681 27.6C85.2521 27.952 84.6681 28.32 83.9161 28.704C83.1641 29.072 82.3401 29.384 81.4441 29.64C80.5481 29.88 79.6521 30 78.7561 30ZM79.3081 28.008C79.5961 28.008 79.9481 27.968 80.3641 27.888C80.7801 27.808 81.1801 27.704 81.5641 27.576C81.9481 27.448 82.2361 27.336 82.4281 27.24C82.6041 26.776 82.7481 26.232 82.8601 25.608C82.9881 24.984 83.0761 24.312 83.1241 23.592C83.1881 22.872 83.2201 22.136 83.2201 21.384C83.2201 20.36 83.1721 19.392 83.0761 18.48C82.9961 17.552 82.8761 16.8 82.7161 16.224C82.6201 16.096 82.4361 15.952 82.1641 15.792C81.9081 15.632 81.6041 15.48 81.2521 15.336C80.9161 15.192 80.5801 15.08 80.2441 15C79.9241 14.904 79.6521 14.856 79.4281 14.856C79.1401 14.856 78.7721 14.888 78.3241 14.952C77.8761 15 77.4361 15.072 77.0041 15.168C76.5721 15.248 76.2041 15.344 75.9001 15.456C75.7401 15.872 75.5961 16.376 75.4681 16.968C75.3401 17.544 75.2441 18.184 75.1801 18.888C75.1321 19.576 75.1081 20.296 75.1081 21.048C75.1081 22.072 75.1721 23.08 75.3001 24.072C75.4281 25.064 75.6281 25.888 75.9001 26.544C76.0121 26.688 76.2201 26.848 76.5241 27.024C76.8281 27.184 77.1561 27.344 77.5081 27.504C77.8761 27.648 78.2281 27.768 78.5641 27.864C78.9001 27.96 79.1481 28.008 79.3081 28.008ZM100.378 30C99.9464 30 99.3624 29.984 98.6264 29.952C97.8904 29.92 97.0744 29.88 96.1784 29.832C95.2984 29.784 94.4104 29.728 93.5144 29.664C92.6344 29.584 91.8264 29.504 91.0904 29.424C90.3544 29.344 89.7704 29.272 89.3384 29.208C89.3384 29.048 89.3624 28.896 89.4104 28.752C89.4744 28.592 89.5304 28.48 89.5784 28.416L90.2744 28.344C90.5624 28.296 90.7864 28.192 90.9464 28.032C91.1064 27.872 91.2184 27.632 91.2824 27.312C91.3624 26.976 91.4024 26.528 91.4024 25.968V16.464C91.4024 15.984 91.4264 15.616 91.4744 15.36C91.5384 15.088 91.6104 14.896 91.6904 14.784C91.7704 14.672 91.8184 14.608 91.8344 14.592H89.6024C89.5544 14.528 89.4984 14.424 89.4344 14.28C89.3864 14.136 89.3544 13.992 89.3384 13.848C89.4184 13.752 89.5544 13.648 89.7464 13.536C89.9544 13.424 90.1624 13.328 90.3704 13.248C90.5784 13.152 90.7224 13.104 90.8024 13.104H96.6344C96.7144 13.184 96.7864 13.328 96.8504 13.536C96.9144 13.728 96.9544 13.936 96.9704 14.16L95.9144 14.472C95.6584 14.552 95.4424 14.656 95.2664 14.784C95.1064 14.912 94.9784 15.112 94.8824 15.384C94.8024 15.64 94.7624 16.024 94.7624 16.536V26.568C94.7624 26.952 94.7144 27.288 94.6184 27.576C94.5384 27.848 94.4504 28.048 94.3544 28.176H99.1304L100.714 23.712C101.13 23.712 101.498 23.76 101.818 23.856C102.138 23.952 102.37 24.04 102.514 24.12C102.514 24.68 102.49 25.264 102.442 25.872C102.394 26.464 102.338 27.032 102.274 27.576C102.21 28.104 102.154 28.56 102.106 28.944C101.994 29.056 101.826 29.2 101.602 29.376C101.378 29.536 101.146 29.68 100.906 29.808C100.666 29.936 100.49 30 100.378 30ZM115.261 30C114.829 30 114.245 29.984 113.509 29.952C112.773 29.92 111.957 29.88 111.061 29.832C110.181 29.784 109.293 29.728 108.397 29.664C107.517 29.584 106.709 29.504 105.973 29.424C105.237 29.344 104.653 29.272 104.221 29.208C104.221 29.048 104.245 28.896 104.293 28.752C104.357 28.592 104.413 28.48 104.461 28.416L105.157 28.344C105.445 28.296 105.669 28.192 105.829 28.032C105.989 27.872 106.101 27.632 106.165 27.312C106.245 26.976 106.285 26.528 106.285 25.968V16.464C106.285 15.984 106.309 15.616 106.357 15.36C106.421 15.088 106.493 14.896 106.573 14.784C106.653 14.672 106.701 14.608 106.717 14.592H104.485C104.437 14.528 104.381 14.424 104.317 14.28C104.269 14.136 104.237 13.992 104.221 13.848C104.301 13.752 104.437 13.648 104.629 13.536C104.837 13.424 105.045 13.328 105.253 13.248C105.461 13.152 105.605 13.104 105.685 13.104H111.517C111.597 13.184 111.669 13.328 111.733 13.536C111.797 13.728 111.837 13.936 111.853 14.16L110.797 14.472C110.541 14.552 110.325 14.656 110.149 14.784C109.989 14.912 109.861 15.112 109.765 15.384C109.685 15.64 109.645 16.024 109.645 16.536V26.568C109.645 26.952 109.597 27.288 109.501 27.576C109.421 27.848 109.333 28.048 109.237 28.176H114.013L115.597 23.712C116.013 23.712 116.381 23.76 116.701 23.856C117.021 23.952 117.253 24.04 117.397 24.12C117.397 24.68 117.373 25.264 117.325 25.872C117.277 26.464 117.221 27.032 117.157 27.576C117.093 28.104 117.037 28.56 116.989 28.944C116.877 29.056 116.709 29.2 116.485 29.376C116.261 29.536 116.029 29.68 115.789 29.808C115.549 29.936 115.373 30 115.261 30ZM131.176 30C130.84 30 130.352 29.992 129.712 29.976C129.088 29.944 128.384 29.912 127.6 29.88C126.816 29.832 126 29.784 125.152 29.736C124.32 29.688 123.504 29.64 122.704 29.592C121.92 29.528 121.208 29.464 120.568 29.4C119.944 29.336 119.456 29.272 119.104 29.208C119.104 29.048 119.128 28.896 119.176 28.752C119.24 28.592 119.296 28.48 119.344 28.416L120.04 28.344C120.328 28.296 120.552 28.192 120.712 28.032C120.872 27.872 120.984 27.632 121.048 27.312C121.128 26.976 121.168 26.528 121.168 25.968V16.464C121.168 15.984 121.192 15.616 121.24 15.36C121.304 15.088 121.376 14.896 121.456 14.784C121.536 14.672 121.584 14.608 121.6 14.592H119.368C119.32 14.528 119.264 14.432 119.2 14.304C119.152 14.16 119.12 14.008 119.104 13.848C119.2 13.752 119.344 13.648 119.536 13.536C119.728 13.408 119.928 13.304 120.136 13.224C120.344 13.144 120.488 13.104 120.568 13.104H131.224C131.576 13.232 131.936 13.424 132.304 13.68C132.672 13.92 132.96 14.184 133.168 14.472C133.104 15.48 132.992 16.368 132.832 17.136C132.672 17.904 132.536 18.48 132.424 18.864C132.088 18.864 131.76 18.832 131.44 18.768C131.136 18.704 130.888 18.632 130.696 18.552L130.072 15.072C129.864 15.008 129.56 14.944 129.16 14.88C128.776 14.816 128.312 14.768 127.768 14.736C127.224 14.688 126.624 14.664 125.968 14.664C125.568 14.664 125.264 14.744 125.056 14.904C124.848 15.064 124.704 15.28 124.624 15.552C124.56 15.824 124.528 16.128 124.528 16.464V20.544C125.2 20.528 125.808 20.512 126.352 20.496C126.896 20.464 127.416 20.424 127.912 20.376C128.424 20.328 128.92 20.28 129.4 20.232L129.712 20.568C129.68 20.936 129.64 21.256 129.592 21.528C129.544 21.784 129.488 21.992 129.424 22.152H124.528V26.568C124.528 26.952 124.48 27.288 124.384 27.576C124.304 27.848 124.216 28.048 124.12 28.176H129.928L131.536 23.904C131.92 23.904 132.28 23.952 132.616 24.048C132.968 24.144 133.2 24.232 133.312 24.312C133.312 24.872 133.288 25.44 133.24 26.016C133.208 26.592 133.16 27.136 133.096 27.648C133.048 28.16 132.984 28.592 132.904 28.944C132.808 29.072 132.64 29.216 132.4 29.376C132.176 29.536 131.944 29.68 131.704 29.808C131.48 29.936 131.304 30 131.176 30ZM143.304 30C142.696 30 142.064 29.896 141.408 29.688C140.752 29.48 140.136 29.232 139.56 28.944C138.984 28.64 138.488 28.344 138.072 28.056C137.656 27.768 137.376 27.544 137.232 27.384C136.88 26.92 136.608 26.224 136.416 25.296C136.224 24.368 136.128 23.36 136.128 22.272C136.128 21.328 136.176 20.408 136.272 19.512C136.368 18.6 136.488 17.792 136.632 17.088C136.792 16.368 136.944 15.832 137.088 15.48C137.488 15.128 137.992 14.792 138.6 14.472C139.224 14.152 139.888 13.856 140.592 13.584C141.296 13.312 141.984 13.104 142.656 12.96C143.328 12.8 143.912 12.72 144.408 12.72C145.016 12.72 145.656 12.8 146.328 12.96C147 13.104 147.624 13.304 148.2 13.56C148.792 13.816 149.28 14.096 149.664 14.4C149.648 15.36 149.568 16.24 149.424 17.04C149.28 17.824 149.152 18.44 149.04 18.888C148.544 18.856 148.136 18.816 147.816 18.768C147.496 18.704 147.256 18.648 147.096 18.6L146.4 15.384C146.208 15.288 145.96 15.192 145.656 15.096C145.352 15 145.04 14.92 144.72 14.856C144.416 14.792 144.16 14.76 143.952 14.76C143.632 14.76 143.248 14.792 142.8 14.856C142.352 14.92 141.912 15 141.48 15.096C141.064 15.192 140.72 15.296 140.448 15.408C140.304 15.792 140.168 16.312 140.04 16.968C139.928 17.624 139.84 18.32 139.776 19.056C139.712 19.776 139.68 20.456 139.68 21.096C139.68 21.768 139.712 22.448 139.776 23.136C139.84 23.808 139.928 24.432 140.04 25.008C140.152 25.584 140.28 26.04 140.424 26.376C140.52 26.488 140.704 26.632 140.976 26.808C141.264 26.968 141.592 27.128 141.96 27.288C142.328 27.432 142.696 27.56 143.064 27.672C143.432 27.784 143.768 27.84 144.072 27.84C144.248 27.84 144.48 27.824 144.768 27.792C145.056 27.76 145.336 27.72 145.608 27.672C145.88 27.608 146.08 27.544 146.208 27.48L147.696 23.664C148.08 23.664 148.44 23.712 148.776 23.808C149.128 23.904 149.4 23.992 149.592 24.072C149.576 24.504 149.544 24.976 149.496 25.488C149.464 26 149.424 26.496 149.376 26.976C149.328 27.456 149.28 27.872 149.232 28.224C148.96 28.432 148.528 28.68 147.936 28.968C147.36 29.24 146.672 29.48 145.872 29.688C145.088 29.896 144.232 30 143.304 30ZM161.058 30C160.946 30 160.698 29.984 160.314 29.952C159.946 29.904 159.506 29.848 158.994 29.784C158.498 29.72 157.994 29.656 157.482 29.592C156.97 29.512 156.522 29.44 156.138 29.376C155.754 29.312 155.49 29.256 155.346 29.208C155.346 29.048 155.37 28.896 155.418 28.752C155.466 28.592 155.514 28.488 155.562 28.44L156.402 28.344C156.706 28.312 156.938 28.216 157.098 28.056C157.258 27.88 157.37 27.624 157.434 27.288C157.514 26.952 157.554 26.512 157.554 25.968V16.44C157.554 15.928 157.594 15.544 157.674 15.288C157.754 15.032 157.826 14.856 157.89 14.76H154.314L153.738 18.552C153.562 18.632 153.29 18.712 152.922 18.792C152.57 18.856 152.226 18.888 151.89 18.888C151.826 18.648 151.746 18.304 151.65 17.856C151.554 17.392 151.458 16.872 151.362 16.296C151.266 15.704 151.202 15.096 151.17 14.472C151.394 14.232 151.698 13.968 152.082 13.68C152.466 13.392 152.818 13.2 153.138 13.104H165.522C165.858 13.248 166.194 13.448 166.53 13.704C166.882 13.96 167.154 14.216 167.346 14.472C167.282 15.464 167.17 16.336 167.01 17.088C166.866 17.824 166.73 18.424 166.602 18.888C166.266 18.888 165.922 18.856 165.57 18.792C165.218 18.712 164.954 18.632 164.778 18.552L164.202 14.88C163.994 14.832 163.698 14.776 163.314 14.712C162.946 14.632 162.514 14.592 162.018 14.592C161.714 14.592 161.482 14.656 161.322 14.784C161.162 14.912 161.05 15.08 160.986 15.288C160.938 15.496 160.914 15.728 160.914 15.984V26.568C160.898 26.952 160.842 27.288 160.746 27.576C160.666 27.848 160.578 28.04 160.482 28.152L162.978 28.464C163.01 28.512 163.042 28.608 163.074 28.752C163.122 28.88 163.154 29.032 163.17 29.208C162.914 29.416 162.57 29.6 162.138 29.76C161.706 29.92 161.346 30 161.058 30ZM174.266 30C174.154 30 173.914 29.984 173.546 29.952C173.178 29.904 172.746 29.848 172.25 29.784C171.77 29.72 171.282 29.656 170.786 29.592C170.29 29.512 169.85 29.44 169.466 29.376C169.082 29.312 168.818 29.256 168.674 29.208C168.674 29.064 168.698 28.92 168.746 28.776C168.794 28.616 168.85 28.504 168.914 28.44L169.61 28.344C169.898 28.296 170.122 28.192 170.282 28.032C170.442 27.872 170.554 27.632 170.618 27.312C170.698 26.976 170.738 26.528 170.738 25.968V16.44C170.738 15.736 170.802 15.264 170.93 15.024C171.058 14.768 171.138 14.624 171.17 14.592H168.938C168.906 14.528 168.858 14.44 168.794 14.328C168.73 14.2 168.69 14.04 168.674 13.848C168.77 13.752 168.914 13.648 169.106 13.536C169.298 13.408 169.498 13.304 169.706 13.224C169.914 13.144 170.058 13.104 170.138 13.104H175.97C176.034 13.184 176.098 13.32 176.162 13.512C176.242 13.688 176.29 13.904 176.306 14.16L175.25 14.472C174.994 14.552 174.778 14.656 174.602 14.784C174.442 14.912 174.314 15.112 174.218 15.384C174.138 15.64 174.098 16.024 174.098 16.536V26.568C174.098 26.968 174.05 27.312 173.954 27.6C173.858 27.872 173.77 28.056 173.69 28.152L175.994 28.464C176.026 28.512 176.058 28.616 176.09 28.776C176.138 28.92 176.162 29.064 176.162 29.208C175.922 29.416 175.618 29.6 175.25 29.76C174.898 29.92 174.57 30 174.266 30ZM185.983 30C185.423 30 184.823 29.904 184.183 29.712C183.543 29.504 182.935 29.256 182.359 28.968C181.783 28.68 181.279 28.392 180.847 28.104C180.431 27.8 180.135 27.552 179.959 27.36C179.591 26.832 179.311 26.096 179.119 25.152C178.943 24.208 178.855 23.216 178.855 22.176C178.855 21.296 178.903 20.432 178.999 19.584C179.095 18.736 179.215 17.96 179.359 17.256C179.519 16.536 179.687 15.944 179.863 15.48C180.279 15.144 180.791 14.816 181.399 14.496C182.007 14.16 182.655 13.856 183.343 13.584C184.047 13.312 184.751 13.104 185.455 12.96C186.159 12.8 186.815 12.72 187.423 12.72C187.855 12.72 188.335 12.784 188.863 12.912C189.407 13.04 189.943 13.208 190.471 13.416C190.999 13.624 191.471 13.856 191.887 14.112C192.303 14.352 192.615 14.592 192.823 14.832C193.079 15.264 193.295 15.816 193.471 16.488C193.647 17.144 193.783 17.848 193.879 18.6C193.975 19.336 194.023 20.072 194.023 20.808C194.023 21.64 193.975 22.472 193.879 23.304C193.783 24.12 193.647 24.896 193.471 25.632C193.311 26.352 193.119 27.008 192.895 27.6C192.479 27.952 191.895 28.32 191.143 28.704C190.391 29.072 189.567 29.384 188.671 29.64C187.775 29.88 186.879 30 185.983 30ZM186.535 28.008C186.823 28.008 187.175 27.968 187.591 27.888C188.007 27.808 188.407 27.704 188.791 27.576C189.175 27.448 189.463 27.336 189.655 27.24C189.831 26.776 189.975 26.232 190.087 25.608C190.215 24.984 190.303 24.312 190.351 23.592C190.415 22.872 190.447 22.136 190.447 21.384C190.447 20.36 190.399 19.392 190.303 18.48C190.223 17.552 190.103 16.8 189.943 16.224C189.847 16.096 189.663 15.952 189.391 15.792C189.135 15.632 188.831 15.48 188.479 15.336C188.143 15.192 187.807 15.08 187.471 15C187.151 14.904 186.879 14.856 186.655 14.856C186.367 14.856 185.999 14.888 185.551 14.952C185.103 15 184.663 15.072 184.231 15.168C183.799 15.248 183.431 15.344 183.127 15.456C182.967 15.872 182.823 16.376 182.695 16.968C182.567 17.544 182.471 18.184 182.407 18.888C182.359 19.576 182.335 20.296 182.335 21.048C182.335 22.072 182.399 23.08 182.527 24.072C182.655 25.064 182.855 25.888 183.127 26.544C183.239 26.688 183.447 26.848 183.751 27.024C184.055 27.184 184.383 27.344 184.735 27.504C185.103 27.648 185.455 27.768 185.791 27.864C186.127 27.96 186.375 28.008 186.535 28.008ZM201.269 30C201.125 30 200.845 29.976 200.429 29.928C200.029 29.864 199.581 29.792 199.085 29.712C198.589 29.632 198.109 29.552 197.645 29.472C197.197 29.376 196.837 29.288 196.565 29.208C196.565 29.064 196.589 28.92 196.637 28.776C196.685 28.616 196.741 28.504 196.805 28.44L197.453 28.344C197.741 28.296 197.957 28.176 198.101 27.984C198.261 27.776 198.373 27.48 198.437 27.096C198.501 26.712 198.533 26.224 198.533 25.632V16.416C198.533 15.872 198.581 15.448 198.677 15.144C198.789 14.84 198.885 14.656 198.965 14.592H196.829C196.781 14.528 196.725 14.432 196.661 14.304C196.613 14.16 196.581 14.008 196.565 13.848C196.645 13.752 196.781 13.648 196.973 13.536C197.181 13.424 197.389 13.328 197.597 13.248C197.805 13.152 197.949 13.104 198.029 13.104H202.565L210.437 25.92C210.373 25.584 210.317 25.192 210.269 24.744C210.237 24.28 210.221 23.608 210.221 22.728V16.488C210.221 15.928 210.269 15.488 210.365 15.168C210.461 14.848 210.557 14.656 210.653 14.592H208.253C208.221 14.528 208.165 14.44 208.085 14.328C208.021 14.2 207.981 14.048 207.965 13.872C208.045 13.76 208.181 13.648 208.373 13.536C208.581 13.408 208.789 13.304 208.997 13.224C209.205 13.144 209.357 13.104 209.453 13.104H213.893C213.973 13.2 214.045 13.344 214.109 13.536C214.173 13.728 214.205 13.936 214.205 14.16L213.293 14.448C212.989 14.544 212.749 14.656 212.573 14.784C212.397 14.912 212.277 15.12 212.213 15.408C212.149 15.696 212.117 16.12 212.117 16.68V25.608C212.117 26.52 212.141 27.296 212.189 27.936C212.253 28.576 212.317 28.992 212.381 29.184C212.157 29.376 211.829 29.536 211.397 29.664C210.981 29.776 210.557 29.856 210.125 29.904C209.693 29.952 209.317 29.984 208.997 30L201.821 18.264C201.437 17.624 201.149 17.088 200.957 16.656C200.781 16.208 200.685 15.896 200.669 15.72H200.525C200.509 15.816 200.485 15.992 200.453 16.248C200.437 16.488 200.429 16.864 200.429 17.376V26.496C200.429 26.848 200.389 27.176 200.309 27.48C200.229 27.768 200.141 27.984 200.045 28.128L203.189 28.464C203.221 28.512 203.261 28.608 203.309 28.752C203.357 28.88 203.381 29.032 203.381 29.208C203.221 29.352 203.005 29.488 202.733 29.616C202.477 29.728 202.213 29.824 201.941 29.904C201.669 29.968 201.445 30 201.269 30Z" fill="black"/>
</svg>
