<svg width="245" height="39" viewBox="0 0 245 39" fill="none" xmlns="http://www.w3.org/2000/svg">
<path d="M55.5564 38C54.7964 38 54.0064 37.88 53.1864 37.64C52.3864 37.38 51.6264 37.07 50.9064 36.71C50.1864 36.33 49.5664 35.96 49.0464 35.6C48.5264 35.24 48.1764 34.96 47.9964 34.76C47.5364 34.18 47.1864 33.31 46.9464 32.15C46.7264 30.99 46.6164 29.72 46.6164 28.34C46.6164 27.18 46.6764 26.04 46.7964 24.92C46.9164 23.78 47.0664 22.76 47.2464 21.86C47.4464 20.96 47.6364 20.3 47.8164 19.88C48.2964 19.44 48.9164 19.02 49.6764 18.62C50.4364 18.2 51.2564 17.82 52.1364 17.48C53.0164 17.14 53.8664 16.88 54.6864 16.7C55.5264 16.5 56.2564 16.4 56.8764 16.4C57.6564 16.4 58.4564 16.5 59.2764 16.7C60.1164 16.88 60.8964 17.13 61.6164 17.45C62.3564 17.75 62.9564 18.09 63.4164 18.47C63.3964 19.69 63.2964 20.8 63.1164 21.8C62.9564 22.78 62.8064 23.54 62.6664 24.08C62.0464 24.06 61.5364 24.01 61.1364 23.93C60.7364 23.85 60.4464 23.78 60.2664 23.72L59.4264 19.73C59.1864 19.59 58.8664 19.47 58.4664 19.37C58.0864 19.25 57.6964 19.15 57.2964 19.07C56.9164 18.99 56.5964 18.95 56.3364 18.95C55.9364 18.95 55.4564 18.99 54.8964 19.07C54.3564 19.13 53.8164 19.22 53.2764 19.34C52.7564 19.46 52.3164 19.6 51.9564 19.76C51.7764 20.24 51.6064 20.89 51.4464 21.71C51.3064 22.53 51.1964 23.4 51.1164 24.32C51.0364 25.22 50.9964 26.08 50.9964 26.9C50.9964 27.74 51.0364 28.59 51.1164 29.45C51.1964 30.29 51.3064 31.07 51.4464 31.79C51.5864 32.49 51.7464 33.05 51.9264 33.47C52.0664 33.61 52.3064 33.79 52.6464 34.01C52.9864 34.21 53.3864 34.41 53.8464 34.61C54.3064 34.81 54.7664 34.98 55.2264 35.12C55.6864 35.26 56.0964 35.33 56.4564 35.33C56.6964 35.33 56.9964 35.31 57.3564 35.27C57.7164 35.23 58.0664 35.18 58.4064 35.12C58.7464 35.04 58.9964 34.96 59.1564 34.88L60.9864 30.11C61.4664 30.11 61.9164 30.17 62.3364 30.29C62.7564 30.41 63.0864 30.52 63.3264 30.62C63.3264 31.16 63.2964 31.75 63.2364 32.39C63.1964 33.03 63.1464 33.65 63.0864 34.25C63.0264 34.83 62.9664 35.34 62.9064 35.78C62.5664 36.04 62.0364 36.35 61.3164 36.71C60.5964 37.05 59.7364 37.35 58.7364 37.61C57.7564 37.87 56.6964 38 55.5564 38ZM72.232 38C72.112 38 71.852 37.98 71.452 37.94C71.072 37.88 70.602 37.82 70.042 37.76C69.502 37.68 68.942 37.6 68.362 37.52C67.782 37.42 67.232 37.32 66.712 37.22C66.212 37.12 65.822 37.03 65.542 36.95C65.542 36.73 65.572 36.53 65.632 36.35C65.712 36.17 65.782 36.05 65.842 35.99L66.292 35.9C66.512 35.86 66.742 35.79 66.982 35.69C67.222 35.59 67.472 35.37 67.732 35.03C68.012 34.67 68.302 34.14 68.602 33.44C68.902 32.72 69.232 31.73 69.592 30.47L72.892 18.74C73.052 18.56 73.322 18.34 73.702 18.08C74.082 17.82 74.502 17.56 74.962 17.3C75.442 17.04 75.892 16.83 76.312 16.67C76.752 16.49 77.082 16.4 77.302 16.4C77.582 16.4 77.972 16.49 78.472 16.67C78.992 16.83 79.512 17.05 80.032 17.33C80.572 17.59 81.012 17.87 81.352 18.17L85.222 35.09C85.282 35.33 85.372 35.51 85.492 35.63C85.632 35.73 85.832 35.79 86.092 35.81L87.922 36.05C87.982 36.13 88.042 36.22 88.102 36.32C88.162 36.42 88.192 36.63 88.192 36.95C88.032 37.11 87.802 37.27 87.502 37.43C87.202 37.59 86.882 37.73 86.542 37.85C86.202 37.95 85.912 38 85.672 38C85.532 38 85.222 37.97 84.742 37.91C84.262 37.85 83.702 37.78 83.062 37.7C82.422 37.6 81.772 37.5 81.112 37.4C80.472 37.28 79.892 37.17 79.372 37.07C78.872 36.97 78.532 36.89 78.352 36.83C78.352 36.59 78.392 36.39 78.472 36.23C78.572 36.05 78.632 35.94 78.652 35.9L79.582 35.87C79.862 35.85 80.112 35.8 80.332 35.72C80.552 35.64 80.712 35.46 80.812 35.18C80.912 34.9 80.892 34.47 80.752 33.89L79.762 29.51H72.562L71.422 33.65C71.322 34.01 71.182 34.35 71.002 34.67C70.842 34.97 70.662 35.22 70.462 35.42C70.282 35.6 70.112 35.71 69.952 35.75L74.452 36.08C74.472 36.14 74.522 36.25 74.602 36.41C74.682 36.57 74.722 36.76 74.722 36.98C74.582 37.14 74.352 37.3 74.032 37.46C73.732 37.62 73.412 37.75 73.072 37.85C72.732 37.95 72.452 38 72.232 38ZM73.072 27.53C74.092 27.51 75.012 27.49 75.832 27.47C76.652 27.43 77.352 27.39 77.932 27.35C78.512 27.29 78.952 27.23 79.252 27.17L77.662 20C77.282 19.72 76.892 19.5 76.492 19.34C76.112 19.16 75.722 19.04 75.322 18.98L73.072 27.53ZM99.3981 38C99.2581 38 98.9481 37.98 98.4681 37.94C98.0081 37.88 97.4581 37.81 96.8181 37.73C96.1981 37.65 95.5681 37.57 94.9281 37.49C94.3081 37.39 93.7581 37.3 93.2781 37.22C92.7981 37.14 92.4681 37.07 92.2881 37.01C92.2881 36.81 92.3181 36.62 92.3781 36.44C92.4381 36.24 92.4981 36.11 92.5581 36.05L93.6081 35.93C93.9881 35.89 94.2781 35.77 94.4781 35.57C94.6981 35.35 94.8481 35.03 94.9281 34.61C95.0081 34.19 95.0481 33.63 95.0481 32.93V20.99C95.0481 20.37 95.0981 19.9 95.1981 19.58C95.2981 19.26 95.3881 19.04 95.4681 18.92H90.9981L90.2781 23.69C90.0581 23.79 89.7281 23.88 89.2881 23.96C88.8481 24.04 88.4181 24.08 87.9981 24.08C87.9181 23.78 87.8081 23.35 87.6681 22.79C87.5481 22.23 87.4281 21.59 87.3081 20.87C87.2081 20.13 87.1381 19.37 87.0981 18.59C87.3781 18.29 87.7581 17.96 88.2381 17.6C88.7181 17.24 89.1581 17 89.5581 16.88H104.918C105.338 17.06 105.758 17.31 106.178 17.63C106.618 17.95 106.958 18.27 107.198 18.59C107.118 19.81 106.988 20.89 106.808 21.83C106.628 22.77 106.448 23.52 106.268 24.08C105.848 24.08 105.418 24.04 104.978 23.96C104.558 23.88 104.238 23.79 104.018 23.69L103.298 19.07C103.058 19.01 102.698 18.94 102.218 18.86C101.738 18.78 101.188 18.74 100.568 18.74C100.188 18.74 99.8981 18.82 99.6981 18.98C99.4981 19.12 99.3581 19.32 99.2781 19.58C99.2181 19.84 99.1881 20.14 99.1881 20.48V33.71C99.1881 34.19 99.1281 34.61 99.0081 34.97C98.8881 35.31 98.7781 35.56 98.6781 35.72L101.768 36.08C101.808 36.14 101.858 36.26 101.918 36.44C101.978 36.6 102.008 36.79 102.008 37.01C101.708 37.27 101.288 37.5 100.748 37.7C100.208 37.9 99.7581 38 99.3981 38ZM112.925 38C112.805 38 112.545 37.98 112.145 37.94C111.765 37.88 111.295 37.82 110.735 37.76C110.195 37.68 109.635 37.6 109.055 37.52C108.475 37.42 107.925 37.32 107.405 37.22C106.905 37.12 106.515 37.03 106.235 36.95C106.235 36.73 106.265 36.53 106.325 36.35C106.405 36.17 106.475 36.05 106.535 35.99L106.985 35.9C107.205 35.86 107.435 35.79 107.675 35.69C107.915 35.59 108.165 35.37 108.425 35.03C108.705 34.67 108.995 34.14 109.295 33.44C109.595 32.72 109.925 31.73 110.285 30.47L113.585 18.74C113.745 18.56 114.015 18.34 114.395 18.08C114.775 17.82 115.195 17.56 115.655 17.3C116.135 17.04 116.585 16.83 117.005 16.67C117.445 16.49 117.775 16.4 117.995 16.4C118.275 16.4 118.665 16.49 119.165 16.67C119.685 16.83 120.205 17.05 120.725 17.33C121.265 17.59 121.705 17.87 122.045 18.17L125.915 35.09C125.975 35.33 126.065 35.51 126.185 35.63C126.325 35.73 126.525 35.79 126.785 35.81L128.615 36.05C128.675 36.13 128.735 36.22 128.795 36.32C128.855 36.42 128.885 36.63 128.885 36.95C128.725 37.11 128.495 37.27 128.195 37.43C127.895 37.59 127.575 37.73 127.235 37.85C126.895 37.95 126.605 38 126.365 38C126.225 38 125.915 37.97 125.435 37.91C124.955 37.85 124.395 37.78 123.755 37.7C123.115 37.6 122.465 37.5 121.805 37.4C121.165 37.28 120.585 37.17 120.065 37.07C119.565 36.97 119.225 36.89 119.045 36.83C119.045 36.59 119.085 36.39 119.165 36.23C119.265 36.05 119.325 35.94 119.345 35.9L120.275 35.87C120.555 35.85 120.805 35.8 121.025 35.72C121.245 35.64 121.405 35.46 121.505 35.18C121.605 34.9 121.585 34.47 121.445 33.89L120.455 29.51H113.255L112.115 33.65C112.015 34.01 111.875 34.35 111.695 34.67C111.535 34.97 111.355 35.22 111.155 35.42C110.975 35.6 110.805 35.71 110.645 35.75L115.145 36.08C115.165 36.14 115.215 36.25 115.295 36.41C115.375 36.57 115.415 36.76 115.415 36.98C115.275 37.14 115.045 37.3 114.725 37.46C114.425 37.62 114.105 37.75 113.765 37.85C113.425 37.95 113.145 38 112.925 38ZM113.765 27.53C114.785 27.51 115.705 27.49 116.525 27.47C117.345 27.43 118.045 27.39 118.625 27.35C119.205 27.29 119.645 27.23 119.945 27.17L118.355 20C117.975 19.72 117.585 19.5 117.185 19.34C116.805 19.16 116.415 19.04 116.015 18.98L113.765 27.53ZM144.369 38C143.829 38 143.099 37.98 142.179 37.94C141.259 37.9 140.249 37.85 139.149 37.79C138.049 37.73 136.949 37.66 135.849 37.58C134.749 37.48 133.739 37.38 132.819 37.28C131.919 37.18 131.199 37.09 130.659 37.01C130.659 36.81 130.689 36.62 130.749 36.44C130.809 36.24 130.869 36.1 130.929 36.02L131.799 35.93C132.179 35.87 132.469 35.74 132.669 35.54C132.869 35.34 133.009 35.03 133.089 34.61C133.189 34.19 133.239 33.63 133.239 32.93V21.08C133.239 20.48 133.279 20.02 133.359 19.7C133.439 19.36 133.519 19.12 133.599 18.98C133.699 18.82 133.759 18.73 133.779 18.71H130.989C130.929 18.65 130.859 18.53 130.779 18.35C130.719 18.17 130.679 18 130.659 17.84C130.759 17.7 130.929 17.56 131.169 17.42C131.429 17.28 131.689 17.16 131.949 17.06C132.209 16.94 132.389 16.88 132.489 16.88H139.749C139.849 16.98 139.939 17.16 140.019 17.42C140.099 17.66 140.139 17.92 140.139 18.2L138.849 18.59C138.529 18.67 138.259 18.79 138.039 18.95C137.839 19.11 137.679 19.36 137.559 19.7C137.459 20.02 137.409 20.51 137.409 21.17V33.71C137.409 34.19 137.349 34.61 137.229 34.97C137.109 35.31 136.989 35.56 136.869 35.72H142.839L144.849 30.17C145.349 30.17 145.799 30.23 146.199 30.35C146.599 30.47 146.879 30.58 147.039 30.68C147.039 31.38 147.009 32.11 146.949 32.87C146.909 33.61 146.849 34.31 146.769 34.97C146.689 35.63 146.609 36.19 146.529 36.65C146.409 36.81 146.199 37 145.899 37.22C145.619 37.42 145.329 37.6 145.029 37.76C144.749 37.92 144.529 38 144.369 38ZM158.446 38C157.746 38 156.996 37.88 156.196 37.64C155.416 37.4 154.666 37.1 153.946 36.74C153.226 36.38 152.596 36.02 152.056 35.66C151.516 35.28 151.146 34.97 150.946 34.73C150.486 34.05 150.136 33.13 149.896 31.97C149.676 30.79 149.566 29.55 149.566 28.25C149.566 27.15 149.626 26.07 149.746 25.01C149.866 23.95 150.016 22.97 150.196 22.07C150.396 21.17 150.596 20.44 150.796 19.88C151.316 19.46 151.946 19.05 152.686 18.65C153.446 18.23 154.256 17.85 155.116 17.51C155.976 17.17 156.846 16.9 157.726 16.7C158.606 16.5 159.436 16.4 160.216 16.4C160.756 16.4 161.356 16.48 162.016 16.64C162.676 16.8 163.336 17.01 163.996 17.27C164.656 17.53 165.246 17.82 165.766 18.14C166.306 18.44 166.696 18.75 166.936 19.07C167.276 19.59 167.546 20.26 167.746 21.08C167.966 21.9 168.136 22.78 168.256 23.72C168.376 24.64 168.436 25.56 168.436 26.48C168.436 27.52 168.376 28.56 168.256 29.6C168.136 30.64 167.966 31.62 167.746 32.54C167.546 33.44 167.316 34.24 167.056 34.94C166.536 35.38 165.806 35.84 164.866 36.32C163.926 36.8 162.896 37.2 161.776 37.52C160.656 37.84 159.546 38 158.446 38ZM159.136 35.51C159.496 35.51 159.936 35.46 160.456 35.36C160.976 35.26 161.476 35.13 161.956 34.97C162.436 34.81 162.796 34.67 163.036 34.55C163.256 33.97 163.436 33.29 163.576 32.51C163.736 31.73 163.846 30.89 163.906 29.99C163.986 29.07 164.026 28.14 164.026 27.2C164.026 25.94 163.966 24.74 163.846 23.6C163.746 22.44 163.596 21.5 163.396 20.78C163.296 20.62 163.076 20.44 162.736 20.24C162.396 20.04 162.006 19.85 161.566 19.67C161.146 19.49 160.726 19.34 160.306 19.22C159.886 19.1 159.536 19.04 159.256 19.04C158.876 19.04 158.406 19.08 157.846 19.16C157.306 19.22 156.766 19.31 156.226 19.43C155.686 19.55 155.226 19.67 154.846 19.79C154.646 20.31 154.466 20.95 154.306 21.71C154.146 22.45 154.026 23.26 153.946 24.14C153.886 25 153.856 25.9 153.856 26.84C153.856 28.12 153.936 29.38 154.096 30.62C154.256 31.84 154.506 32.86 154.846 33.68C154.986 33.86 155.246 34.06 155.626 34.28C156.006 34.48 156.416 34.68 156.856 34.88C157.316 35.06 157.756 35.21 158.176 35.33C158.596 35.45 158.916 35.51 159.136 35.51ZM181.006 38C180.246 38 179.456 37.88 178.636 37.64C177.836 37.38 177.076 37.07 176.356 36.71C175.636 36.35 175.006 35.99 174.466 35.63C173.946 35.27 173.596 34.99 173.416 34.79C172.956 34.17 172.606 33.28 172.366 32.12C172.146 30.94 172.036 29.68 172.036 28.34C172.036 27.18 172.096 26.04 172.216 24.92C172.336 23.78 172.486 22.76 172.666 21.86C172.866 20.96 173.056 20.3 173.236 19.88C173.716 19.44 174.336 19.02 175.096 18.62C175.856 18.2 176.676 17.83 177.556 17.51C178.456 17.17 179.326 16.9 180.166 16.7C181.006 16.5 181.736 16.4 182.356 16.4C183.096 16.4 183.886 16.49 184.726 16.67C185.586 16.85 186.396 17.1 187.156 17.42C187.936 17.72 188.566 18.07 189.046 18.47C189.026 19.71 188.926 20.82 188.746 21.8C188.586 22.76 188.426 23.52 188.266 24.08C187.706 24.06 187.206 24.01 186.766 23.93C186.346 23.85 186.046 23.78 185.866 23.72L184.876 19.73C184.676 19.61 184.396 19.49 184.036 19.37C183.676 19.25 183.316 19.15 182.956 19.07C182.596 18.99 182.286 18.95 182.026 18.95C181.606 18.95 181.096 18.99 180.496 19.07C179.916 19.13 179.336 19.23 178.756 19.37C178.196 19.49 177.736 19.63 177.376 19.79C177.236 20.15 177.106 20.61 176.986 21.17C176.866 21.73 176.756 22.34 176.656 23C176.576 23.64 176.516 24.3 176.476 24.98C176.436 25.66 176.416 26.3 176.416 26.9C176.416 27.74 176.456 28.59 176.536 29.45C176.616 30.29 176.726 31.07 176.866 31.79C177.006 32.49 177.166 33.05 177.346 33.47C177.486 33.63 177.726 33.81 178.066 34.01C178.406 34.21 178.806 34.41 179.266 34.61C179.746 34.81 180.216 34.98 180.676 35.12C181.136 35.26 181.546 35.33 181.906 35.33C182.346 35.33 182.806 35.3 183.286 35.24C183.766 35.18 184.216 35.11 184.636 35.03C185.076 34.93 185.436 34.84 185.716 34.76V31.79C185.716 31.27 185.746 30.79 185.806 30.35C185.886 29.89 185.956 29.56 186.016 29.36H181.786C181.786 29 181.836 28.62 181.936 28.22C182.056 27.8 182.156 27.49 182.236 27.29C183.036 27.29 183.896 27.27 184.816 27.23C185.736 27.19 186.626 27.14 187.486 27.08C188.346 27.02 189.076 26.96 189.676 26.9L190.036 27.26C189.916 27.72 189.786 28.45 189.646 29.45C189.526 30.43 189.466 31.55 189.466 32.81V36.08C189.146 36.26 188.676 36.46 188.056 36.68C187.456 36.9 186.756 37.12 185.956 37.34C185.156 37.54 184.326 37.7 183.466 37.82C182.626 37.94 181.806 38 181.006 38ZM204.026 38C203.246 38 202.396 37.87 201.476 37.61C200.576 37.33 199.726 36.99 198.926 36.59C198.126 36.17 197.456 35.75 196.916 35.33C196.376 34.89 196.086 34.5 196.046 34.16V21.08C196.046 20.38 196.106 19.84 196.226 19.46C196.346 19.06 196.466 18.81 196.586 18.71H193.796C193.736 18.63 193.666 18.52 193.586 18.38C193.506 18.22 193.456 18.04 193.436 17.84C193.556 17.7 193.736 17.56 193.976 17.42C194.236 17.28 194.486 17.16 194.726 17.06C194.986 16.94 195.176 16.88 195.296 16.88H202.556C202.636 16.98 202.716 17.15 202.796 17.39C202.896 17.63 202.946 17.9 202.946 18.2L201.626 18.59C201.306 18.69 201.036 18.82 200.816 18.98C200.596 19.14 200.436 19.39 200.336 19.73C200.256 20.07 200.216 20.55 200.216 21.17V33.68C200.416 33.9 200.706 34.13 201.086 34.37C201.486 34.59 201.906 34.79 202.346 34.97C202.806 35.15 203.246 35.3 203.666 35.42C204.086 35.52 204.436 35.57 204.716 35.57C205.376 35.57 206.026 35.49 206.666 35.33C207.326 35.15 207.916 34.93 208.436 34.67C208.976 34.41 209.386 34.14 209.666 33.86V21.08C209.666 20.38 209.726 19.84 209.846 19.46C209.966 19.06 210.076 18.81 210.176 18.71H207.476C207.396 18.63 207.316 18.52 207.236 18.38C207.176 18.22 207.136 18.04 207.116 17.84C207.236 17.7 207.416 17.56 207.656 17.42C207.896 17.26 208.136 17.13 208.376 17.03C208.636 16.93 208.826 16.88 208.946 16.88H214.286C214.386 17 214.476 17.17 214.556 17.39C214.636 17.61 214.676 17.88 214.676 18.2L213.506 18.53C213.126 18.65 212.826 18.8 212.606 18.98C212.406 19.14 212.256 19.4 212.156 19.76C212.076 20.12 212.036 20.65 212.036 21.35V34.67C211.816 35.01 211.426 35.37 210.866 35.75C210.326 36.13 209.686 36.49 208.946 36.83C208.206 37.17 207.406 37.45 206.546 37.67C205.706 37.89 204.866 38 204.026 38ZM231.851 38C231.411 38 230.791 37.99 229.991 37.97C229.211 37.93 228.331 37.89 227.351 37.85C226.371 37.79 225.361 37.73 224.321 37.67C223.281 37.61 222.271 37.55 221.291 37.49C220.311 37.41 219.431 37.33 218.651 37.25C217.871 37.17 217.261 37.09 216.821 37.01C216.821 36.81 216.851 36.62 216.911 36.44C216.971 36.24 217.031 36.1 217.091 36.02L217.961 35.93C218.341 35.87 218.631 35.74 218.831 35.54C219.031 35.34 219.171 35.03 219.251 34.61C219.351 34.19 219.401 33.63 219.401 32.93V21.08C219.401 20.48 219.441 20.02 219.521 19.7C219.601 19.36 219.681 19.12 219.761 18.98C219.861 18.82 219.921 18.73 219.941 18.71H217.151C217.091 18.65 217.021 18.54 216.941 18.38C216.881 18.2 216.841 18.02 216.821 17.84C216.941 17.7 217.121 17.56 217.361 17.42C217.601 17.26 217.851 17.13 218.111 17.03C218.371 16.93 218.551 16.88 218.651 16.88H231.941C232.361 17.04 232.791 17.28 233.231 17.6C233.691 17.92 234.051 18.25 234.311 18.59C234.231 19.85 234.091 20.96 233.891 21.92C233.711 22.88 233.541 23.59 233.381 24.05C232.961 24.05 232.561 24.01 232.181 23.93C231.801 23.85 231.491 23.76 231.251 23.66L230.471 19.34C230.211 19.24 229.831 19.16 229.331 19.1C228.851 19.02 228.271 18.95 227.591 18.89C226.911 18.83 226.161 18.8 225.341 18.8C224.841 18.8 224.461 18.91 224.201 19.13C223.941 19.33 223.771 19.6 223.691 19.94C223.611 20.28 223.571 20.66 223.571 21.08V26.18C224.391 26.16 225.141 26.14 225.821 26.12C226.521 26.08 227.181 26.03 227.801 25.97C228.421 25.91 229.031 25.85 229.631 25.79L230.021 26.21C229.981 26.65 229.931 27.04 229.871 27.38C229.811 27.72 229.741 27.98 229.661 28.16H223.571V33.71C223.571 34.19 223.511 34.61 223.391 34.97C223.271 35.31 223.151 35.56 223.031 35.72H230.321L232.301 30.38C232.781 30.38 233.231 30.45 233.651 30.59C234.071 30.71 234.351 30.82 234.491 30.92C234.491 31.6 234.461 32.3 234.401 33.02C234.361 33.74 234.301 34.42 234.221 35.06C234.161 35.7 234.091 36.23 234.011 36.65C233.871 36.81 233.651 37 233.351 37.22C233.071 37.42 232.791 37.6 232.511 37.76C232.231 37.92 232.011 38 231.851 38Z" fill="black"/>
<path d="M6.75 17.375C6.75 18.2701 6.39442 19.1286 5.76149 19.7615C5.12855 20.3944 4.27011 20.75 3.375 20.75C2.47989 20.75 1.62145 20.3944 0.988515 19.7615C0.355579 19.1286 0 18.2701 0 17.375C0 16.4799 0.355579 15.6214 0.988515 14.9885C1.62145 14.3556 2.47989 14 3.375 14C4.27011 14 5.12855 14.3556 5.76149 14.9885C6.39442 15.6214 6.75 16.4799 6.75 17.375ZM6.75 26.375C6.75 27.2701 6.39442 28.1286 5.76149 28.7615C5.12855 29.3944 4.27011 29.75 3.375 29.75C2.47989 29.75 1.62145 29.3944 0.988515 28.7615C0.355579 28.1286 0 27.2701 0 26.375C0 25.4799 0.355579 24.6214 0.988515 23.9885C1.62145 23.3556 2.47989 23 3.375 23C4.27011 23 5.12855 23.3556 5.76149 23.9885C6.39442 24.6214 6.75 25.4799 6.75 26.375ZM6.75 35.375C6.75 36.2701 6.39442 37.1286 5.76149 37.7615C5.12855 38.3944 4.27011 38.75 3.375 38.75C2.47989 38.75 1.62145 38.3944 0.988515 37.7615C0.355579 37.1286 0 36.2701 0 35.375C0 34.4799 0.355579 33.6214 0.988515 32.9885C1.62145 32.3556 2.47989 32 3.375 32C4.27011 32 5.12855 32.3556 5.76149 32.9885C6.39442 33.6214 6.75 34.4799 6.75 35.375Z" fill="black"/>
<path fill-rule="evenodd" clip-rule="evenodd" d="M9 17.375C9 16.7783 9.23705 16.206 9.65901 15.784C10.081 15.3621 10.6533 15.125 11.25 15.125H27C27.5967 15.125 28.169 15.3621 28.591 15.784C29.0129 16.206 29.25 16.7783 29.25 17.375C29.25 17.9717 29.0129 18.544 28.591 18.966C28.169 19.3879 27.5967 19.625 27 19.625H11.25C10.6533 19.625 10.081 19.3879 9.65901 18.966C9.23705 18.544 9 17.9717 9 17.375ZM9 26.375C9 25.7783 9.23705 25.206 9.65901 24.784C10.081 24.3621 10.6533 24.125 11.25 24.125H27C27.5967 24.125 28.169 24.3621 28.591 24.784C29.0129 25.206 29.25 25.7783 29.25 26.375C29.25 26.9717 29.0129 27.544 28.591 27.966C28.169 28.3879 27.5967 28.625 27 28.625H11.25C10.6533 28.625 10.081 28.3879 9.65901 27.966C9.23705 27.544 9 26.9717 9 26.375ZM9 35.375C9 34.7783 9.23705 34.206 9.65901 33.784C10.081 33.3621 10.6533 33.125 11.25 33.125H27C27.5967 33.125 28.169 33.3621 28.591 33.784C29.0129 34.206 29.25 34.7783 29.25 35.375C29.25 35.9717 29.0129 36.544 28.591 36.966C28.169 37.3879 27.5967 37.625 27 37.625H11.25C10.6533 37.625 10.081 37.3879 9.65901 36.966C9.23705 36.544 9 35.9717 9 35.375Z" fill="black"/>
</svg>
