<svg width="40" height="30" viewBox="0 0 40 30" fill="none" xmlns="http://www.w3.org/2000/svg">
<path d="M19.9263 0C24.0123 0 28.3723 1.55 32.2943 4.868C35.1923 7.32 37.7003 10.472 39.8203 14.312C40.0403 14.708 40.0603 15.19 39.8743 15.602C37.8983 20.002 35.2843 23.366 32.0323 25.666C27.8803 28.6 23.4983 30 19.9983 30C16.0523 30 12.5303 28.95 8.51832 25.812C5.36432 23.348 2.59032 20.01 0.190325 15.812C0.0731228 15.6066 0.00801567 15.3756 0.000694175 15.1392C-0.00662732 14.9028 0.0440596 14.6683 0.148325 14.456C1.61632 11.47 3.85032 8.556 6.84232 5.702C10.8763 1.856 15.6663 0 19.9263 0ZM19.9983 6.812C15.7023 6.812 12.2183 10.396 12.2183 14.818C12.2183 19.238 15.7023 22.822 19.9983 22.822C24.2963 22.822 27.7783 19.238 27.7783 14.818C27.7783 10.398 24.2963 6.812 20.0003 6.812M20.0003 9.638C22.7803 9.638 25.0343 11.958 25.0343 14.818C25.0343 17.678 22.7803 19.998 20.0003 19.998C17.2203 19.998 14.9663 17.678 14.9663 14.818C14.9663 11.958 17.2203 9.638 20.0003 9.638Z" fill="black"/>
</svg>
