<svg width="212" height="42" viewBox="0 0 212 42" fill="none" xmlns="http://www.w3.org/2000/svg">
<path d="M23.3333 18H21.6667V16.3333C21.6667 11.7383 17.9283 8 13.3333 8C8.73833 8 5 11.7383 5 16.3333V18H3.33333C2.44928 18 1.60143 18.3512 0.976311 18.9763C0.351189 19.6014 0 20.4493 0 21.3333V38C0 38.8841 0.351189 39.7319 0.976311 40.357C1.60143 40.9821 2.44928 41.3333 3.33333 41.3333H23.3333C24.2174 41.3333 25.0652 40.9821 25.6904 40.357C26.3155 39.7319 26.6667 38.8841 26.6667 38V21.3333C26.6667 20.4493 26.3155 19.6014 25.6904 18.9763C25.0652 18.3512 24.2174 18 23.3333 18ZM8.33333 16.3333C8.33333 13.5767 10.5767 11.3333 13.3333 11.3333C16.09 11.3333 18.3333 13.5767 18.3333 16.3333V18H8.33333V16.3333ZM15 30.8717V34.6667H11.6667V30.8717C10.675 30.295 10 29.2317 10 28C10 27.1159 10.3512 26.2681 10.9763 25.643C11.6014 25.0179 12.4493 24.6667 13.3333 24.6667C14.2174 24.6667 15.0652 25.0179 15.6904 25.643C16.3155 26.2681 16.6667 27.1159 16.6667 28C16.6667 29.23 15.9917 30.2933 15 30.8717Z" fill="black"/>
<path d="M72.7553 38C72.2153 38 71.4853 37.98 70.5653 37.94C69.6453 37.9 68.6353 37.85 67.5353 37.79C66.4353 37.73 65.3353 37.66 64.2353 37.58C63.1353 37.48 62.1253 37.38 61.2053 37.28C60.3053 37.18 59.5853 37.09 59.0453 37.01C59.0453 36.81 59.0753 36.62 59.1353 36.44C59.1953 36.24 59.2553 36.1 59.3153 36.02L60.1853 35.93C60.5653 35.87 60.8553 35.74 61.0553 35.54C61.2553 35.34 61.3953 35.03 61.4753 34.61C61.5753 34.19 61.6253 33.63 61.6253 32.93V21.08C61.6253 20.48 61.6653 20.02 61.7453 19.7C61.8253 19.36 61.9053 19.12 61.9853 18.98C62.0853 18.82 62.1453 18.73 62.1653 18.71H59.3753C59.3153 18.65 59.2453 18.53 59.1653 18.35C59.1053 18.17 59.0653 18 59.0453 17.84C59.1453 17.7 59.3153 17.56 59.5553 17.42C59.8153 17.28 60.0753 17.16 60.3353 17.06C60.5953 16.94 60.7753 16.88 60.8753 16.88H68.1353C68.2353 16.98 68.3253 17.16 68.4053 17.42C68.4853 17.66 68.5253 17.92 68.5253 18.2L67.2353 18.59C66.9153 18.67 66.6453 18.79 66.4253 18.95C66.2253 19.11 66.0653 19.36 65.9453 19.7C65.8453 20.02 65.7953 20.51 65.7953 21.17V33.71C65.7953 34.19 65.7353 34.61 65.6153 34.97C65.4953 35.31 65.3753 35.56 65.2553 35.72H71.2253L73.2353 30.17C73.7353 30.17 74.1853 30.23 74.5853 30.35C74.9853 30.47 75.2653 30.58 75.4253 30.68C75.4253 31.38 75.3953 32.11 75.3353 32.87C75.2953 33.61 75.2353 34.31 75.1553 34.97C75.0753 35.63 74.9953 36.19 74.9153 36.65C74.7953 36.81 74.5853 37 74.2853 37.22C74.0053 37.42 73.7153 37.6 73.4153 37.76C73.1353 37.92 72.9153 38 72.7553 38ZM86.8323 38C86.1323 38 85.3823 37.88 84.5823 37.64C83.8023 37.4 83.0523 37.1 82.3323 36.74C81.6123 36.38 80.9823 36.02 80.4423 35.66C79.9023 35.28 79.5323 34.97 79.3323 34.73C78.8723 34.05 78.5223 33.13 78.2823 31.97C78.0623 30.79 77.9523 29.55 77.9523 28.25C77.9523 27.15 78.0123 26.07 78.1323 25.01C78.2523 23.95 78.4023 22.97 78.5823 22.07C78.7823 21.17 78.9823 20.44 79.1823 19.88C79.7023 19.46 80.3323 19.05 81.0723 18.65C81.8323 18.23 82.6423 17.85 83.5023 17.51C84.3623 17.17 85.2323 16.9 86.1123 16.7C86.9923 16.5 87.8223 16.4 88.6023 16.4C89.1423 16.4 89.7423 16.48 90.4023 16.64C91.0623 16.8 91.7223 17.01 92.3823 17.27C93.0423 17.53 93.6323 17.82 94.1523 18.14C94.6923 18.44 95.0823 18.75 95.3223 19.07C95.6623 19.59 95.9323 20.26 96.1323 21.08C96.3523 21.9 96.5223 22.78 96.6423 23.72C96.7623 24.64 96.8223 25.56 96.8223 26.48C96.8223 27.52 96.7623 28.56 96.6423 29.6C96.5223 30.64 96.3523 31.62 96.1323 32.54C95.9323 33.44 95.7023 34.24 95.4423 34.94C94.9223 35.38 94.1923 35.84 93.2523 36.32C92.3123 36.8 91.2823 37.2 90.1623 37.52C89.0423 37.84 87.9323 38 86.8323 38ZM87.5223 35.51C87.8823 35.51 88.3223 35.46 88.8423 35.36C89.3623 35.26 89.8623 35.13 90.3423 34.97C90.8223 34.81 91.1823 34.67 91.4223 34.55C91.6423 33.97 91.8223 33.29 91.9623 32.51C92.1223 31.73 92.2323 30.89 92.2923 29.99C92.3723 29.07 92.4123 28.14 92.4123 27.2C92.4123 25.94 92.3523 24.74 92.2323 23.6C92.1323 22.44 91.9823 21.5 91.7823 20.78C91.6823 20.62 91.4623 20.44 91.1223 20.24C90.7823 20.04 90.3923 19.85 89.9523 19.67C89.5323 19.49 89.1123 19.34 88.6923 19.22C88.2723 19.1 87.9223 19.04 87.6423 19.04C87.2623 19.04 86.7923 19.08 86.2323 19.16C85.6923 19.22 85.1523 19.31 84.6123 19.43C84.0723 19.55 83.6123 19.67 83.2323 19.79C83.0323 20.31 82.8523 20.95 82.6923 21.71C82.5323 22.45 82.4123 23.26 82.3323 24.14C82.2723 25 82.2423 25.9 82.2423 26.84C82.2423 28.12 82.3223 29.38 82.4823 30.62C82.6423 31.84 82.8923 32.86 83.2323 33.68C83.3723 33.86 83.6323 34.06 84.0123 34.28C84.3923 34.48 84.8023 34.68 85.2423 34.88C85.7023 35.06 86.1423 35.21 86.5623 35.33C86.9823 35.45 87.3023 35.51 87.5223 35.51ZM109.393 38C108.633 38 107.843 37.88 107.023 37.64C106.223 37.38 105.463 37.07 104.743 36.71C104.023 36.35 103.393 35.99 102.853 35.63C102.333 35.27 101.983 34.99 101.803 34.79C101.343 34.17 100.993 33.28 100.753 32.12C100.533 30.94 100.423 29.68 100.423 28.34C100.423 27.18 100.483 26.04 100.603 24.92C100.723 23.78 100.873 22.76 101.053 21.86C101.253 20.96 101.443 20.3 101.623 19.88C102.103 19.44 102.723 19.02 103.483 18.62C104.243 18.2 105.063 17.83 105.943 17.51C106.843 17.17 107.713 16.9 108.553 16.7C109.393 16.5 110.123 16.4 110.743 16.4C111.483 16.4 112.273 16.49 113.113 16.67C113.973 16.85 114.783 17.1 115.543 17.42C116.323 17.72 116.953 18.07 117.433 18.47C117.413 19.71 117.313 20.82 117.133 21.8C116.973 22.76 116.813 23.52 116.653 24.08C116.093 24.06 115.593 24.01 115.153 23.93C114.733 23.85 114.433 23.78 114.253 23.72L113.263 19.73C113.063 19.61 112.783 19.49 112.423 19.37C112.063 19.25 111.703 19.15 111.343 19.07C110.983 18.99 110.673 18.95 110.413 18.95C109.993 18.95 109.483 18.99 108.883 19.07C108.303 19.13 107.723 19.23 107.143 19.37C106.583 19.49 106.123 19.63 105.763 19.79C105.623 20.15 105.493 20.61 105.373 21.17C105.253 21.73 105.143 22.34 105.043 23C104.963 23.64 104.903 24.3 104.863 24.98C104.823 25.66 104.803 26.3 104.803 26.9C104.803 27.74 104.843 28.59 104.923 29.45C105.003 30.29 105.113 31.07 105.253 31.79C105.393 32.49 105.553 33.05 105.733 33.47C105.873 33.63 106.113 33.81 106.453 34.01C106.793 34.21 107.193 34.41 107.653 34.61C108.133 34.81 108.603 34.98 109.063 35.12C109.523 35.26 109.933 35.33 110.293 35.33C110.733 35.33 111.193 35.3 111.673 35.24C112.153 35.18 112.603 35.11 113.023 35.03C113.463 34.93 113.823 34.84 114.103 34.76V31.79C114.103 31.27 114.133 30.79 114.193 30.35C114.273 29.89 114.343 29.56 114.403 29.36H110.173C110.173 29 110.223 28.62 110.323 28.22C110.443 27.8 110.543 27.49 110.623 27.29C111.423 27.29 112.283 27.27 113.203 27.23C114.123 27.19 115.013 27.14 115.873 27.08C116.733 27.02 117.463 26.96 118.063 26.9L118.423 27.26C118.303 27.72 118.173 28.45 118.033 29.45C117.913 30.43 117.853 31.55 117.853 32.81V36.08C117.533 36.26 117.063 36.46 116.443 36.68C115.843 36.9 115.143 37.12 114.343 37.34C113.543 37.54 112.713 37.7 111.853 37.82C111.013 37.94 110.193 38 109.393 38ZM129.023 38C128.883 38 128.583 37.98 128.123 37.94C127.663 37.88 127.123 37.81 126.503 37.73C125.903 37.65 125.293 37.57 124.673 37.49C124.053 37.39 123.503 37.3 123.023 37.22C122.563 37.14 122.243 37.07 122.063 37.01C122.063 36.81 122.093 36.62 122.153 36.44C122.213 36.26 122.273 36.13 122.333 36.05L123.203 35.93C123.583 35.87 123.873 35.74 124.073 35.54C124.273 35.34 124.413 35.03 124.493 34.61C124.593 34.19 124.643 33.63 124.643 32.93V21.05C124.643 20.15 124.723 19.55 124.883 19.25C125.063 18.93 125.163 18.75 125.183 18.71H122.393C122.353 18.65 122.293 18.55 122.213 18.41C122.133 18.25 122.083 18.06 122.063 17.84C122.183 17.7 122.363 17.56 122.603 17.42C122.843 17.26 123.093 17.13 123.353 17.03C123.613 16.93 123.793 16.88 123.893 16.88H131.153C131.233 16.98 131.313 17.15 131.393 17.39C131.493 17.61 131.543 17.88 131.543 18.2L130.253 18.59C129.933 18.67 129.663 18.79 129.443 18.95C129.243 19.11 129.083 19.36 128.963 19.7C128.863 20.02 128.813 20.51 128.813 21.17V33.71C128.813 34.21 128.753 34.64 128.633 35C128.513 35.34 128.393 35.58 128.273 35.72L131.183 36.08C131.223 36.14 131.263 36.26 131.303 36.44C131.363 36.62 131.393 36.81 131.393 37.01C131.093 37.27 130.713 37.5 130.253 37.7C129.813 37.9 129.403 38 129.023 38ZM140.16 38C139.98 38 139.63 37.97 139.11 37.91C138.61 37.83 138.04 37.74 137.4 37.64C136.78 37.54 136.18 37.43 135.6 37.31C135.02 37.19 134.57 37.09 134.25 37.01C134.25 36.81 134.28 36.62 134.34 36.44C134.4 36.26 134.46 36.13 134.52 36.05L135.36 35.93C135.74 35.87 136.02 35.72 136.2 35.48C136.4 35.22 136.54 34.85 136.62 34.37C136.7 33.89 136.74 33.28 136.74 32.54V21.02C136.74 20.34 136.8 19.81 136.92 19.43C137.04 19.03 137.15 18.79 137.25 18.71H134.58C134.52 18.63 134.45 18.51 134.37 18.35C134.31 18.19 134.27 18.02 134.25 17.84C134.35 17.7 134.52 17.56 134.76 17.42C135.02 17.28 135.28 17.16 135.54 17.06C135.8 16.94 135.98 16.88 136.08 16.88H141.72L151.5 32.93C151.42 32.51 151.35 32.01 151.29 31.43C151.25 30.85 151.23 30.01 151.23 28.91V21.11C151.23 20.41 151.29 19.86 151.41 19.46C151.53 19.06 151.65 18.82 151.77 18.74H148.77C148.73 18.66 148.67 18.55 148.59 18.41C148.51 18.25 148.46 18.06 148.44 17.84C148.54 17.72 148.71 17.59 148.95 17.45C149.21 17.29 149.46 17.16 149.7 17.06C149.96 16.94 150.15 16.88 150.27 16.88H155.82C155.94 17 156.04 17.18 156.12 17.42C156.2 17.66 156.24 17.92 156.24 18.2L155.07 18.56C154.67 18.66 154.36 18.8 154.14 18.98C153.94 19.14 153.8 19.4 153.72 19.76C153.64 20.12 153.6 20.65 153.6 21.35V32.45C153.6 33.61 153.63 34.59 153.69 35.39C153.77 36.19 153.85 36.72 153.93 36.98C153.65 37.22 153.25 37.42 152.73 37.58C152.21 37.72 151.68 37.82 151.14 37.88C150.6 37.94 150.14 37.98 149.76 38L140.82 23.3C140.34 22.52 139.98 21.86 139.74 21.32C139.52 20.76 139.4 20.37 139.38 20.15H139.2C139.18 20.25 139.16 20.46 139.14 20.78C139.12 21.1 139.11 21.57 139.11 22.19V33.62C139.11 34.06 139.05 34.47 138.93 34.85C138.83 35.23 138.72 35.5 138.6 35.66L142.56 36.08C142.58 36.14 142.62 36.26 142.68 36.44C142.74 36.6 142.77 36.79 142.77 37.01C142.57 37.19 142.3 37.36 141.96 37.52C141.64 37.66 141.31 37.78 140.97 37.88C140.65 37.96 140.38 38 140.16 38Z" fill="black"/>
</svg>
