<svg width="244" height="48" viewBox="0 0 244 48" fill="none" xmlns="http://www.w3.org/2000/svg">
<path d="M6.10576 42.3858C4.19556 40.5408 2.67192 38.3339 1.62374 35.8939C0.575556 33.4538 0.0238315 30.8294 0.000755135 28.1738C-0.0223212 25.5182 0.483713 22.8846 1.48933 20.4267C2.49495 17.9688 3.98001 15.7357 5.85786 13.8579C7.73572 11.98 9.96876 10.4949 12.4267 9.48933C14.8846 8.48371 17.5182 7.97768 20.1738 8.00076C22.8294 8.02383 25.4538 8.57556 27.8939 9.62374C30.3339 10.6719 32.5408 12.1956 34.3858 14.1058C38.0289 17.8778 40.0448 22.9299 39.9992 28.1738C39.9537 33.4177 37.8503 38.434 34.1421 42.1421C30.434 45.8503 25.4177 47.9537 20.1738 47.9992C14.9299 48.0448 9.87781 46.0289 6.10576 42.3858ZM23.0458 28.2458L28.7058 22.5858L25.8858 19.7658L20.2458 25.4258L14.5858 19.7658L11.7658 22.5858L17.4258 28.2458L11.7658 33.9058L14.5858 36.7258L20.2458 31.0658L25.9058 36.7258L28.7258 33.9058L23.0658 28.2458H23.0458Z" fill="black"/>
<path d="M86.9135 38C86.3735 38 85.6435 37.98 84.7235 37.94C83.8035 37.9 82.7935 37.85 81.6935 37.79C80.5935 37.73 79.4935 37.66 78.3935 37.58C77.2935 37.48 76.2835 37.38 75.3635 37.28C74.4635 37.18 73.7435 37.09 73.2035 37.01C73.2035 36.81 73.2335 36.62 73.2935 36.44C73.3535 36.24 73.4135 36.1 73.4735 36.02L74.3435 35.93C74.7235 35.87 75.0135 35.74 75.2135 35.54C75.4135 35.34 75.5535 35.03 75.6335 34.61C75.7335 34.19 75.7835 33.63 75.7835 32.93V21.08C75.7835 20.48 75.8235 20.02 75.9035 19.7C75.9835 19.36 76.0635 19.12 76.1435 18.98C76.2435 18.82 76.3035 18.73 76.3235 18.71H73.5335C73.4735 18.65 73.4035 18.53 73.3235 18.35C73.2635 18.17 73.2235 18 73.2035 17.84C73.3035 17.7 73.4735 17.56 73.7135 17.42C73.9735 17.28 74.2335 17.16 74.4935 17.06C74.7535 16.94 74.9335 16.88 75.0335 16.88H82.2935C82.3935 16.98 82.4835 17.16 82.5635 17.42C82.6435 17.66 82.6835 17.92 82.6835 18.2L81.3935 18.59C81.0735 18.67 80.8035 18.79 80.5835 18.95C80.3835 19.11 80.2235 19.36 80.1035 19.7C80.0035 20.02 79.9535 20.51 79.9535 21.17V33.71C79.9535 34.19 79.8935 34.61 79.7735 34.97C79.6535 35.31 79.5335 35.56 79.4135 35.72H85.3835L87.3935 30.17C87.8935 30.17 88.3435 30.23 88.7435 30.35C89.1435 30.47 89.4235 30.58 89.5835 30.68C89.5835 31.38 89.5535 32.11 89.4935 32.87C89.4535 33.61 89.3935 34.31 89.3135 34.97C89.2335 35.63 89.1535 36.19 89.0735 36.65C88.9535 36.81 88.7435 37 88.4435 37.22C88.1635 37.42 87.8735 37.6 87.5735 37.76C87.2935 37.92 87.0735 38 86.9135 38ZM100.991 38C100.291 38 99.5405 37.88 98.7405 37.64C97.9605 37.4 97.2105 37.1 96.4905 36.74C95.7705 36.38 95.1405 36.02 94.6005 35.66C94.0605 35.28 93.6905 34.97 93.4905 34.73C93.0305 34.05 92.6805 33.13 92.4405 31.97C92.2205 30.79 92.1105 29.55 92.1105 28.25C92.1105 27.15 92.1705 26.07 92.2905 25.01C92.4105 23.95 92.5605 22.97 92.7405 22.07C92.9405 21.17 93.1405 20.44 93.3405 19.88C93.8605 19.46 94.4905 19.05 95.2305 18.65C95.9905 18.23 96.8005 17.85 97.6605 17.51C98.5205 17.17 99.3905 16.9 100.271 16.7C101.151 16.5 101.981 16.4 102.761 16.4C103.301 16.4 103.901 16.48 104.561 16.64C105.221 16.8 105.881 17.01 106.541 17.27C107.201 17.53 107.791 17.82 108.311 18.14C108.851 18.44 109.241 18.75 109.481 19.07C109.821 19.59 110.091 20.26 110.291 21.08C110.511 21.9 110.681 22.78 110.801 23.72C110.921 24.64 110.981 25.56 110.981 26.48C110.981 27.52 110.921 28.56 110.801 29.6C110.681 30.64 110.511 31.62 110.291 32.54C110.091 33.44 109.861 34.24 109.601 34.94C109.081 35.38 108.351 35.84 107.411 36.32C106.471 36.8 105.441 37.2 104.321 37.52C103.201 37.84 102.091 38 100.991 38ZM101.681 35.51C102.041 35.51 102.481 35.46 103.001 35.36C103.521 35.26 104.021 35.13 104.501 34.97C104.981 34.81 105.341 34.67 105.581 34.55C105.801 33.97 105.981 33.29 106.121 32.51C106.281 31.73 106.391 30.89 106.451 29.99C106.531 29.07 106.571 28.14 106.571 27.2C106.571 25.94 106.511 24.74 106.391 23.6C106.291 22.44 106.141 21.5 105.941 20.78C105.841 20.62 105.621 20.44 105.281 20.24C104.941 20.04 104.551 19.85 104.111 19.67C103.691 19.49 103.271 19.34 102.851 19.22C102.431 19.1 102.081 19.04 101.801 19.04C101.421 19.04 100.951 19.08 100.391 19.16C99.8505 19.22 99.3105 19.31 98.7705 19.43C98.2305 19.55 97.7705 19.67 97.3905 19.79C97.1905 20.31 97.0105 20.95 96.8505 21.71C96.6905 22.45 96.5705 23.26 96.4905 24.14C96.4305 25 96.4005 25.9 96.4005 26.84C96.4005 28.12 96.4805 29.38 96.6405 30.62C96.8005 31.84 97.0505 32.86 97.3905 33.68C97.5305 33.86 97.7905 34.06 98.1705 34.28C98.5505 34.48 98.9605 34.68 99.4005 34.88C99.8605 35.06 100.301 35.21 100.721 35.33C101.141 35.45 101.461 35.51 101.681 35.51ZM123.551 38C122.791 38 122.001 37.88 121.181 37.64C120.381 37.38 119.621 37.07 118.901 36.71C118.181 36.35 117.551 35.99 117.011 35.63C116.491 35.27 116.141 34.99 115.961 34.79C115.501 34.17 115.151 33.28 114.911 32.12C114.691 30.94 114.581 29.68 114.581 28.34C114.581 27.18 114.641 26.04 114.761 24.92C114.881 23.78 115.031 22.76 115.211 21.86C115.411 20.96 115.601 20.3 115.781 19.88C116.261 19.44 116.881 19.02 117.641 18.62C118.401 18.2 119.221 17.83 120.101 17.51C121.001 17.17 121.871 16.9 122.711 16.7C123.551 16.5 124.281 16.4 124.901 16.4C125.641 16.4 126.431 16.49 127.271 16.67C128.131 16.85 128.941 17.1 129.701 17.42C130.481 17.72 131.111 18.07 131.591 18.47C131.571 19.71 131.471 20.82 131.291 21.8C131.131 22.76 130.971 23.52 130.811 24.08C130.251 24.06 129.751 24.01 129.311 23.93C128.891 23.85 128.591 23.78 128.411 23.72L127.421 19.73C127.221 19.61 126.941 19.49 126.581 19.37C126.221 19.25 125.861 19.15 125.501 19.07C125.141 18.99 124.831 18.95 124.571 18.95C124.151 18.95 123.641 18.99 123.041 19.07C122.461 19.13 121.881 19.23 121.301 19.37C120.741 19.49 120.281 19.63 119.921 19.79C119.781 20.15 119.651 20.61 119.531 21.17C119.411 21.73 119.301 22.34 119.201 23C119.121 23.64 119.061 24.3 119.021 24.98C118.981 25.66 118.961 26.3 118.961 26.9C118.961 27.74 119.001 28.59 119.081 29.45C119.161 30.29 119.271 31.07 119.411 31.79C119.551 32.49 119.711 33.05 119.891 33.47C120.031 33.63 120.271 33.81 120.611 34.01C120.951 34.21 121.351 34.41 121.811 34.61C122.291 34.81 122.761 34.98 123.221 35.12C123.681 35.26 124.091 35.33 124.451 35.33C124.891 35.33 125.351 35.3 125.831 35.24C126.311 35.18 126.761 35.11 127.181 35.03C127.621 34.93 127.981 34.84 128.261 34.76V31.79C128.261 31.27 128.291 30.79 128.351 30.35C128.431 29.89 128.501 29.56 128.561 29.36H124.331C124.331 29 124.381 28.62 124.481 28.22C124.601 27.8 124.701 27.49 124.781 27.29C125.581 27.29 126.441 27.27 127.361 27.23C128.281 27.19 129.171 27.14 130.031 27.08C130.891 27.02 131.621 26.96 132.221 26.9L132.581 27.26C132.461 27.72 132.331 28.45 132.191 29.45C132.071 30.43 132.011 31.55 132.011 32.81V36.08C131.691 36.26 131.221 36.46 130.601 36.68C130.001 36.9 129.301 37.12 128.501 37.34C127.701 37.54 126.871 37.7 126.011 37.82C125.171 37.94 124.351 38 123.551 38ZM151.557 38C150.857 38 150.107 37.88 149.307 37.64C148.527 37.4 147.777 37.1 147.057 36.74C146.337 36.38 145.707 36.02 145.167 35.66C144.627 35.28 144.257 34.97 144.057 34.73C143.597 34.05 143.247 33.13 143.007 31.97C142.787 30.79 142.677 29.55 142.677 28.25C142.677 27.15 142.737 26.07 142.857 25.01C142.977 23.95 143.127 22.97 143.307 22.07C143.507 21.17 143.707 20.44 143.907 19.88C144.427 19.46 145.057 19.05 145.797 18.65C146.557 18.23 147.367 17.85 148.227 17.51C149.087 17.17 149.957 16.9 150.837 16.7C151.717 16.5 152.547 16.4 153.327 16.4C153.867 16.4 154.467 16.48 155.127 16.64C155.787 16.8 156.447 17.01 157.107 17.27C157.767 17.53 158.357 17.82 158.877 18.14C159.417 18.44 159.807 18.75 160.047 19.07C160.387 19.59 160.657 20.26 160.857 21.08C161.077 21.9 161.247 22.78 161.367 23.72C161.487 24.64 161.547 25.56 161.547 26.48C161.547 27.52 161.487 28.56 161.367 29.6C161.247 30.64 161.077 31.62 160.857 32.54C160.657 33.44 160.427 34.24 160.167 34.94C159.647 35.38 158.917 35.84 157.977 36.32C157.037 36.8 156.007 37.2 154.887 37.52C153.767 37.84 152.657 38 151.557 38ZM152.247 35.51C152.607 35.51 153.047 35.46 153.567 35.36C154.087 35.26 154.587 35.13 155.067 34.97C155.547 34.81 155.907 34.67 156.147 34.55C156.367 33.97 156.547 33.29 156.687 32.51C156.847 31.73 156.957 30.89 157.017 29.99C157.097 29.07 157.137 28.14 157.137 27.2C157.137 25.94 157.077 24.74 156.957 23.6C156.857 22.44 156.707 21.5 156.507 20.78C156.407 20.62 156.187 20.44 155.847 20.24C155.507 20.04 155.117 19.85 154.677 19.67C154.257 19.49 153.837 19.34 153.417 19.22C152.997 19.1 152.647 19.04 152.367 19.04C151.987 19.04 151.517 19.08 150.957 19.16C150.417 19.22 149.877 19.31 149.337 19.43C148.797 19.55 148.337 19.67 147.957 19.79C147.757 20.31 147.577 20.95 147.417 21.71C147.257 22.45 147.137 23.26 147.057 24.14C146.997 25 146.967 25.9 146.967 26.84C146.967 28.12 147.047 29.38 147.207 30.62C147.367 31.84 147.617 32.86 147.957 33.68C148.097 33.86 148.357 34.06 148.737 34.28C149.117 34.48 149.527 34.68 149.967 34.88C150.427 35.06 150.867 35.21 151.287 35.33C151.707 35.45 152.027 35.51 152.247 35.51ZM175.048 38C174.268 38 173.418 37.87 172.498 37.61C171.598 37.33 170.748 36.99 169.948 36.59C169.148 36.17 168.478 35.75 167.938 35.33C167.398 34.89 167.108 34.5 167.068 34.16V21.08C167.068 20.38 167.128 19.84 167.248 19.46C167.368 19.06 167.488 18.81 167.608 18.71H164.818C164.758 18.63 164.688 18.52 164.608 18.38C164.528 18.22 164.478 18.04 164.458 17.84C164.578 17.7 164.758 17.56 164.998 17.42C165.258 17.28 165.508 17.16 165.748 17.06C166.008 16.94 166.198 16.88 166.318 16.88H173.578C173.658 16.98 173.738 17.15 173.818 17.39C173.918 17.63 173.968 17.9 173.968 18.2L172.648 18.59C172.328 18.69 172.058 18.82 171.838 18.98C171.618 19.14 171.458 19.39 171.358 19.73C171.278 20.07 171.238 20.55 171.238 21.17V33.68C171.438 33.9 171.728 34.13 172.108 34.37C172.508 34.59 172.928 34.79 173.368 34.97C173.828 35.15 174.268 35.3 174.688 35.42C175.108 35.52 175.458 35.57 175.738 35.57C176.398 35.57 177.048 35.49 177.688 35.33C178.348 35.15 178.938 34.93 179.458 34.67C179.998 34.41 180.408 34.14 180.688 33.86V21.08C180.688 20.38 180.748 19.84 180.868 19.46C180.988 19.06 181.098 18.81 181.198 18.71H178.498C178.418 18.63 178.338 18.52 178.258 18.38C178.198 18.22 178.158 18.04 178.138 17.84C178.258 17.7 178.438 17.56 178.678 17.42C178.918 17.26 179.158 17.13 179.398 17.03C179.658 16.93 179.848 16.88 179.968 16.88H185.308C185.408 17 185.498 17.17 185.578 17.39C185.658 17.61 185.698 17.88 185.698 18.2L184.528 18.53C184.148 18.65 183.848 18.8 183.628 18.98C183.428 19.14 183.278 19.4 183.178 19.76C183.098 20.12 183.058 20.65 183.058 21.35V34.67C182.838 35.01 182.448 35.37 181.888 35.75C181.348 36.13 180.708 36.49 179.968 36.83C179.228 37.17 178.428 37.45 177.568 37.67C176.728 37.89 175.888 38 175.048 38ZM199.062 38C198.922 38 198.612 37.98 198.132 37.94C197.672 37.88 197.122 37.81 196.482 37.73C195.862 37.65 195.232 37.57 194.592 37.49C193.972 37.39 193.422 37.3 192.942 37.22C192.462 37.14 192.132 37.07 191.952 37.01C191.952 36.81 191.982 36.62 192.042 36.44C192.102 36.24 192.162 36.11 192.222 36.05L193.272 35.93C193.652 35.89 193.942 35.77 194.142 35.57C194.362 35.35 194.512 35.03 194.592 34.61C194.672 34.19 194.712 33.63 194.712 32.93V20.99C194.712 20.37 194.762 19.9 194.862 19.58C194.962 19.26 195.052 19.04 195.132 18.92H190.662L189.942 23.69C189.722 23.79 189.392 23.88 188.952 23.96C188.512 24.04 188.082 24.08 187.662 24.08C187.582 23.78 187.472 23.35 187.332 22.79C187.212 22.23 187.092 21.59 186.972 20.87C186.872 20.13 186.802 19.37 186.762 18.59C187.042 18.29 187.422 17.96 187.902 17.6C188.382 17.24 188.822 17 189.222 16.88H204.582C205.002 17.06 205.422 17.31 205.842 17.63C206.282 17.95 206.622 18.27 206.862 18.59C206.782 19.81 206.652 20.89 206.472 21.83C206.292 22.77 206.112 23.52 205.932 24.08C205.512 24.08 205.082 24.04 204.642 23.96C204.222 23.88 203.902 23.79 203.682 23.69L202.962 19.07C202.722 19.01 202.362 18.94 201.882 18.86C201.402 18.78 200.852 18.74 200.232 18.74C199.852 18.74 199.562 18.82 199.362 18.98C199.162 19.12 199.022 19.32 198.942 19.58C198.882 19.84 198.852 20.14 198.852 20.48V33.71C198.852 34.19 198.792 34.61 198.672 34.97C198.552 35.31 198.442 35.56 198.342 35.72L201.432 36.08C201.472 36.14 201.522 36.26 201.582 36.44C201.642 36.6 201.672 36.79 201.672 37.01C201.372 37.27 200.952 37.5 200.412 37.7C199.872 37.9 199.422 38 199.062 38Z" fill="black"/>
</svg>
