<svg width="64" height="48" viewBox="0 0 64 48" fill="none" xmlns="http://www.w3.org/2000/svg">
<path fill-rule="evenodd" clip-rule="evenodd" d="M46.5833 0.666664C48.8088 0.666664 50.6492 1.9325 51.9967 3.2625C53.3996 4.64208 54.6858 6.49708 55.8292 8.54166C58.1246 12.6425 60.1225 18.0004 61.4437 23.2942C62.7562 28.5471 63.4825 34.0333 63.0188 38.3471C62.5521 42.6783 60.3208 47.3333 55.3333 47.3333C51.0283 47.3333 47.5983 45.1167 44.7925 42.8679L43.7688 42.025L42.3338 40.8146L41.0388 39.7412C38.0667 37.335 35.4271 35.6667 32 35.6667C28.5729 35.6667 25.9333 37.335 22.9613 39.7412L21.6663 40.8146L20.2313 42.025L19.2104 42.8679C16.3988 45.1167 12.9688 47.3333 8.66667 47.3333C3.67626 47.3333 1.44501 42.6783 0.981255 38.3471C0.520422 34.0304 1.24376 28.5471 2.55625 23.2942C3.87751 18.0004 5.87542 12.6425 8.17084 8.53875C9.31417 6.49708 10.6004 4.64208 12.0033 3.25958C13.3508 1.9325 15.1913 0.666664 17.4167 0.666664C18.9188 0.666664 20.3858 1.02541 21.8296 1.45416L23.5563 1.98208C23.845 2.06958 24.1308 2.15708 24.4167 2.23583C26.9396 2.95916 29.5208 3.58333 32 3.58333C34.4792 3.58333 37.0604 2.95916 39.5833 2.23583L42.1646 1.45708C43.6171 1.02833 45.0958 0.666664 46.5833 0.666664ZM46.5833 6.5C45.4663 6.5 44.2996 6.83833 43.1679 7.20875L41.8321 7.64916C41.6183 7.71869 41.4034 7.78481 41.1875 7.8475C38.6063 8.5825 35.3542 9.41666 32 9.41666C28.6458 9.41666 25.3938 8.5825 22.8125 7.8475L22.1708 7.64916L20.8321 7.20875C19.7004 6.83541 18.5338 6.5 17.4167 6.5C16.1975 6.7275 15.1038 8.20625 14.2783 9.57708L13.8175 10.3792L13.2633 11.3883C11.2742 14.9408 9.4425 19.7883 8.2175 24.7087C7.06542 29.3054 6.50542 33.7096 6.71834 36.9879L6.79417 37.8425L6.85251 38.3558L6.94001 38.9625C7.14126 40.1321 7.57584 41.5 8.66667 41.5C11.035 41.5 13.0125 40.3217 15.4713 38.3675L16.6467 37.4108L18.8633 35.5558L19.8667 34.7392C22.97 32.2804 26.8521 29.8333 32 29.8333C37.1479 29.8333 41.03 32.2833 44.1333 34.7392L45.1396 35.5558L47.3563 37.4108L48.5288 38.3675C50.9875 40.3217 52.9621 41.5 55.3333 41.5C56.325 41.5 56.7742 40.3712 56.9987 39.2862L57.1096 38.6504L57.2175 37.7258C57.5763 34.3833 57.0221 29.6612 55.7854 24.7087C54.6596 20.1996 53.0263 15.7487 51.2296 12.3012L50.1825 10.3762L49.7217 9.58C48.8963 8.20625 47.8025 6.7275 46.5833 6.5ZM21.7917 12.3333C23.7255 12.3333 25.5802 13.1016 26.9477 14.469C28.3151 15.8365 29.0833 17.6911 29.0833 19.625C29.0833 21.5589 28.3151 23.4135 26.9477 24.781C25.5802 26.1484 23.7255 26.9167 21.7917 26.9167C19.8578 26.9167 18.0031 26.1484 16.6357 24.781C15.2682 23.4135 14.5 21.5589 14.5 19.625C14.5 17.6911 15.2682 15.8365 16.6357 14.469C18.0031 13.1016 19.8578 12.3333 21.7917 12.3333ZM42.2083 12.3333C42.9227 12.3334 43.6122 12.5957 44.1461 13.0704C44.6799 13.5451 45.021 14.1993 45.1046 14.9087L45.125 15.25V16.7083H46.5833C47.3267 16.7092 48.0418 16.9938 48.5823 17.5041C49.1229 18.0145 49.4482 18.7119 49.4918 19.4541C49.5353 20.1962 49.2939 20.9269 48.8167 21.497C48.3396 22.0671 47.6628 22.4334 46.9246 22.5212L46.5833 22.5417H45.125V24C45.1242 24.7434 44.8395 25.4584 44.3292 25.999C43.8189 26.5396 43.1214 26.8649 42.3793 26.9084C41.6371 26.952 40.9064 26.7105 40.3363 26.2334C39.7663 25.7563 39.3999 25.0794 39.3121 24.3412L39.2917 24V22.5417H37.8333C37.0899 22.5408 36.3749 22.2562 35.8343 21.7459C35.2938 21.2355 34.9685 20.5381 34.9249 19.7959C34.8814 19.0538 35.1228 18.3231 35.5999 17.753C36.0771 17.1829 36.7539 16.8165 37.4921 16.7287L37.8333 16.7083H39.2917V15.25C39.2917 14.4764 39.599 13.7346 40.1459 13.1876C40.6929 12.6406 41.4348 12.3333 42.2083 12.3333ZM21.7917 18.1667C21.4049 18.1667 21.034 18.3203 20.7605 18.5938C20.487 18.8673 20.3333 19.2382 20.3333 19.625C20.3333 20.0118 20.487 20.3827 20.7605 20.6562C21.034 20.9297 21.4049 21.0833 21.7917 21.0833C22.1784 21.0833 22.5494 20.9297 22.8229 20.6562C23.0964 20.3827 23.25 20.0118 23.25 19.625C23.25 19.2382 23.0964 18.8673 22.8229 18.5938C22.5494 18.3203 22.1784 18.1667 21.7917 18.1667Z" fill="black"/>
</svg>
