<svg width="54" height="60" viewBox="0 0 54 60" fill="none" xmlns="http://www.w3.org/2000/svg">
<path d="M27 32.9167C33.9883 32.9167 40.3438 34.9408 45.0192 37.7933C47.3525 39.2167 49.3475 40.8967 50.7883 42.7225C52.2058 44.5163 53.25 46.6629 53.25 48.9583C53.25 51.4229 52.0513 53.3654 50.3246 54.7508C48.6912 56.0633 46.5358 56.9325 44.2463 57.5392C39.6438 58.7554 33.5013 59.1667 27 59.1667C20.4988 59.1667 14.3562 58.7583 9.75375 57.5392C7.46417 56.9325 5.30875 56.0633 3.67542 54.7508C1.94583 53.3625 0.75 51.4229 0.75 48.9583C0.75 46.6629 1.79417 44.5163 3.21167 42.7196C4.6525 40.8967 6.64458 39.2196 8.98083 37.7904C13.6563 34.9438 20.0146 32.9167 27 32.9167ZM27 0.833344C30.8677 0.833344 34.5771 2.3698 37.312 5.1047C40.0469 7.83961 41.5833 11.5489 41.5833 15.4167C41.5833 19.2844 40.0469 22.9937 37.312 25.7286C34.5771 28.4636 30.8677 30 27 30C23.1323 30 19.4229 28.4636 16.688 25.7286C13.9531 22.9937 12.4167 19.2844 12.4167 15.4167C12.4167 11.5489 13.9531 7.83961 16.688 5.1047C19.4229 2.3698 23.1323 0.833344 27 0.833344Z" fill="#3D0000"/>
</svg>
