<svg width="23" height="35" viewBox="0 0 23 35" fill="none" xmlns="http://www.w3.org/2000/svg">
<path d="M9.87648 29.856C9.03648 29.64 8.23248 29.292 7.46448 28.812C7.15248 28.62 6.86448 28.416 6.60048 28.2C6.33648 27.984 6.09648 27.756 5.88048 27.516V30.216H0.912484V20.388H6.02448V20.82C6.14448 21.732 6.54048 22.572 7.21248 23.34C7.90848 24.108 8.79648 24.732 9.87648 25.212C10.9565 25.668 12.0965 25.896 13.2965 25.896C14.0885 25.896 14.7845 25.8 15.3845 25.608C16.0085 25.416 16.5005 25.128 16.8605 24.744C17.2205 24.336 17.4005 23.868 17.4005 23.34C17.4005 22.74 17.1605 22.248 16.6805 21.864C16.2005 21.456 15.5645 21.12 14.7725 20.856C13.9805 20.568 12.8285 20.22 11.3165 19.812C11.1725 19.764 11.0165 19.716 10.8485 19.668C10.6805 19.62 10.5245 19.584 10.3805 19.56C10.3565 19.56 10.3325 19.56 10.3085 19.56C10.3085 19.536 10.2965 19.524 10.2725 19.524C8.64048 19.068 7.20048 18.564 5.95248 18.012C4.70448 17.46 3.61248 16.644 2.67648 15.564C1.76448 14.46 1.30848 13.044 1.30848 11.316C1.30848 9.804 1.69248 8.52 2.46048 7.464C3.22848 6.384 4.26048 5.58 5.55648 5.052C6.87648 4.524 8.32848 4.26 9.91249 4.26C9.93648 4.26 9.94848 4.26 9.94848 4.26C9.97249 4.26 9.98449 4.26 9.98449 4.26V0.119998H13.7285V4.872C14.5685 5.088 15.3005 5.4 15.9245 5.808C16.1645 5.952 16.4045 6.12 16.6445 6.312C16.8845 6.504 17.1005 6.696 17.2925 6.888V4.332H22.2605V13.944H17.3645V13.584C17.2445 12.864 16.8485 12.144 16.1765 11.424C15.5285 10.68 14.6885 10.08 13.6565 9.624C12.6485 9.144 11.5565 8.904 10.3805 8.904C9.30048 8.904 8.42448 9.132 7.75248 9.588C7.10448 10.044 6.78048 10.704 6.78048 11.568C6.78048 12.192 7.02048 12.72 7.50048 13.152C7.98048 13.56 8.58048 13.896 9.30048 14.16C10.0445 14.424 11.1245 14.736 12.5405 15.096C12.6845 15.144 12.8165 15.18 12.9365 15.204C13.0805 15.228 13.2245 15.264 13.3685 15.312L13.8725 15.456C15.7925 15.984 17.3525 16.5 18.5525 17.004C19.7525 17.508 20.7845 18.264 21.6485 19.272C22.5125 20.28 22.9445 21.6 22.9445 23.232C22.9445 24.792 22.5365 26.124 21.7205 27.228C20.9285 28.308 19.8485 29.136 18.4805 29.712C17.1365 30.264 15.6365 30.54 13.9805 30.54C13.9085 30.54 13.8365 30.54 13.7645 30.54C13.7165 30.54 13.6685 30.54 13.6205 30.54V34.68H9.87648V29.856Z" fill="black"/>
</svg>
