<svg width="232" height="44" viewBox="0 0 232 44" fill="none" xmlns="http://www.w3.org/2000/svg">
<path d="M56.3276 38C56.1876 38 55.8876 37.98 55.4276 37.94C54.9676 37.88 54.4276 37.81 53.8076 37.73C53.2076 37.65 52.5976 37.57 51.9776 37.49C51.3576 37.39 50.8076 37.3 50.3276 37.22C49.8676 37.14 49.5476 37.07 49.3676 37.01C49.3676 36.81 49.3976 36.62 49.4576 36.44C49.5176 36.26 49.5776 36.13 49.6376 36.05L50.5076 35.93C50.8876 35.87 51.1776 35.74 51.3776 35.54C51.5776 35.34 51.7176 35.03 51.7976 34.61C51.8976 34.19 51.9476 33.63 51.9476 32.93V21.08C51.9476 20.48 51.9876 20.02 52.0676 19.7C52.1476 19.36 52.2276 19.12 52.3076 18.98C52.4076 18.82 52.4676 18.73 52.4876 18.71H49.6976C49.6376 18.65 49.5676 18.53 49.4876 18.35C49.4276 18.17 49.3876 18 49.3676 17.84C49.4676 17.7 49.6376 17.56 49.8776 17.42C50.1376 17.28 50.3976 17.16 50.6576 17.06C50.9176 16.94 51.0976 16.88 51.1976 16.88H62.2676C62.7076 16.98 63.1876 17.15 63.7076 17.39C64.2276 17.63 64.7176 17.89 65.1776 18.17C65.6376 18.43 65.9876 18.7 66.2276 18.98C66.4476 19.36 66.5976 19.81 66.6776 20.33C66.7776 20.85 66.8276 21.4 66.8276 21.98C66.8276 22.7 66.7776 23.33 66.6776 23.87C66.5776 24.39 66.4376 24.84 66.2576 25.22C66.0976 25.58 65.9176 25.88 65.7176 26.12C65.5176 26.36 65.2176 26.6 64.8176 26.84C64.4376 27.08 64.0176 27.31 63.5576 27.53C63.1176 27.73 62.6876 27.9 62.2676 28.04V28.19C62.6676 28.39 62.9876 28.65 63.2276 28.97C63.4876 29.27 63.7576 29.73 64.0376 30.35L65.2076 32.87C65.5476 33.57 65.8676 34.12 66.1676 34.52C66.4676 34.92 66.7776 35.21 67.0976 35.39C67.4376 35.57 67.8076 35.67 68.2076 35.69H69.0176C69.0976 35.77 69.1776 35.92 69.2576 36.14C69.3576 36.36 69.4076 36.61 69.4076 36.89C69.0676 37.13 68.6776 37.34 68.2376 37.52C67.7976 37.68 67.3676 37.8 66.9476 37.88C66.5276 37.96 66.1576 38 65.8376 38C64.6976 38 63.7876 37.7 63.1076 37.1C62.4276 36.48 61.8876 35.64 61.4876 34.58L59.5976 29.72C59.4576 29.36 59.2776 29.09 59.0576 28.91C58.8376 28.71 58.5276 28.61 58.1276 28.61H56.1176V33.71C56.1176 34.21 56.0576 34.64 55.9376 35C55.8176 35.34 55.6976 35.58 55.5776 35.72L58.6976 36.08C58.7376 36.16 58.7876 36.28 58.8476 36.44C58.9076 36.6 58.9376 36.79 58.9376 37.01C58.6576 37.25 58.2476 37.48 57.7076 37.7C57.1676 37.9 56.7076 38 56.3276 38ZM56.1176 26.63C56.8576 26.61 57.5876 26.6 58.3076 26.6C59.0276 26.58 59.6976 26.55 60.3176 26.51C60.9576 26.45 61.5176 26.39 61.9976 26.33C62.2376 25.97 62.4376 25.47 62.5976 24.83C62.7576 24.17 62.8376 23.4 62.8376 22.52C62.8376 21.84 62.7676 21.22 62.6276 20.66C62.5076 20.08 62.2976 19.62 61.9976 19.28C61.6776 19.18 61.2476 19.1 60.7076 19.04C60.1676 18.96 59.6376 18.9 59.1176 18.86C58.6176 18.82 58.2376 18.8 57.9776 18.8C57.2576 18.8 56.7676 19 56.5076 19.4C56.2476 19.8 56.1176 20.34 56.1176 21.02V26.63ZM85.9894 38C85.5494 38 84.9294 37.99 84.1294 37.97C83.3494 37.93 82.4694 37.89 81.4894 37.85C80.5094 37.79 79.4994 37.73 78.4594 37.67C77.4194 37.61 76.4094 37.55 75.4294 37.49C74.4494 37.41 73.5694 37.33 72.7894 37.25C72.0094 37.17 71.3994 37.09 70.9594 37.01C70.9594 36.81 70.9894 36.62 71.0494 36.44C71.1094 36.24 71.1694 36.1 71.2294 36.02L72.0994 35.93C72.4794 35.87 72.7694 35.74 72.9694 35.54C73.1694 35.34 73.3094 35.03 73.3894 34.61C73.4894 34.19 73.5394 33.63 73.5394 32.93V21.08C73.5394 20.48 73.5794 20.02 73.6594 19.7C73.7394 19.36 73.8194 19.12 73.8994 18.98C73.9994 18.82 74.0594 18.73 74.0794 18.71H71.2894C71.2294 18.65 71.1594 18.54 71.0794 18.38C71.0194 18.2 70.9794 18.02 70.9594 17.84C71.0794 17.7 71.2594 17.56 71.4994 17.42C71.7394 17.26 71.9894 17.13 72.2494 17.03C72.5094 16.93 72.6894 16.88 72.7894 16.88H86.0794C86.4994 17.04 86.9294 17.28 87.3694 17.6C87.8294 17.92 88.1894 18.25 88.4494 18.59C88.3694 19.85 88.2294 20.96 88.0294 21.92C87.8494 22.88 87.6794 23.59 87.5194 24.05C87.0994 24.05 86.6994 24.01 86.3194 23.93C85.9394 23.85 85.6294 23.76 85.3894 23.66L84.6094 19.34C84.3494 19.24 83.9694 19.16 83.4694 19.1C82.9894 19.02 82.4094 18.95 81.7294 18.89C81.0494 18.83 80.2994 18.8 79.4794 18.8C78.9794 18.8 78.5994 18.91 78.3394 19.13C78.0794 19.33 77.9094 19.6 77.8294 19.94C77.7494 20.28 77.7094 20.66 77.7094 21.08V26.18C78.5294 26.16 79.2794 26.14 79.9594 26.12C80.6594 26.08 81.3194 26.03 81.9394 25.97C82.5594 25.91 83.1694 25.85 83.7694 25.79L84.1594 26.21C84.1194 26.65 84.0694 27.04 84.0094 27.38C83.9494 27.72 83.8794 27.98 83.7994 28.16H77.7094V33.71C77.7094 34.19 77.6494 34.61 77.5294 34.97C77.4094 35.31 77.2894 35.56 77.1694 35.72H84.4594L86.4394 30.38C86.9194 30.38 87.3694 30.45 87.7894 30.59C88.2094 30.71 88.4894 30.82 88.6294 30.92C88.6294 31.6 88.5994 32.3 88.5394 33.02C88.4994 33.74 88.4394 34.42 88.3594 35.06C88.2994 35.7 88.2294 36.23 88.1494 36.65C88.0094 36.81 87.7894 37 87.4894 37.22C87.2094 37.42 86.9294 37.6 86.6494 37.76C86.3694 37.92 86.1494 38 85.9894 38ZM101.092 38C100.332 38 99.5423 37.88 98.7223 37.64C97.9223 37.38 97.1623 37.07 96.4423 36.71C95.7223 36.35 95.0923 35.99 94.5523 35.63C94.0323 35.27 93.6823 34.99 93.5023 34.79C93.0423 34.17 92.6923 33.28 92.4523 32.12C92.2323 30.94 92.1223 29.68 92.1223 28.34C92.1223 27.18 92.1823 26.04 92.3023 24.92C92.4223 23.78 92.5723 22.76 92.7523 21.86C92.9523 20.96 93.1423 20.3 93.3223 19.88C93.8023 19.44 94.4223 19.02 95.1823 18.62C95.9423 18.2 96.7623 17.83 97.6423 17.51C98.5423 17.17 99.4123 16.9 100.252 16.7C101.092 16.5 101.822 16.4 102.442 16.4C103.182 16.4 103.972 16.49 104.812 16.67C105.672 16.85 106.482 17.1 107.242 17.42C108.022 17.72 108.652 18.07 109.132 18.47C109.112 19.71 109.012 20.82 108.832 21.8C108.672 22.76 108.512 23.52 108.352 24.08C107.792 24.06 107.292 24.01 106.852 23.93C106.432 23.85 106.132 23.78 105.952 23.72L104.962 19.73C104.762 19.61 104.482 19.49 104.122 19.37C103.762 19.25 103.402 19.15 103.042 19.07C102.682 18.99 102.372 18.95 102.112 18.95C101.692 18.95 101.182 18.99 100.582 19.07C100.002 19.13 99.4223 19.23 98.8423 19.37C98.2823 19.49 97.8223 19.63 97.4623 19.79C97.3223 20.15 97.1923 20.61 97.0723 21.17C96.9523 21.73 96.8423 22.34 96.7423 23C96.6623 23.64 96.6023 24.3 96.5623 24.98C96.5223 25.66 96.5023 26.3 96.5023 26.9C96.5023 27.74 96.5423 28.59 96.6223 29.45C96.7023 30.29 96.8123 31.07 96.9523 31.79C97.0923 32.49 97.2523 33.05 97.4323 33.47C97.5723 33.63 97.8123 33.81 98.1523 34.01C98.4923 34.21 98.8923 34.41 99.3523 34.61C99.8323 34.81 100.302 34.98 100.762 35.12C101.222 35.26 101.632 35.33 101.992 35.33C102.432 35.33 102.892 35.3 103.372 35.24C103.852 35.18 104.302 35.11 104.722 35.03C105.162 34.93 105.522 34.84 105.802 34.76V31.79C105.802 31.27 105.832 30.79 105.892 30.35C105.972 29.89 106.042 29.56 106.102 29.36H101.872C101.872 29 101.922 28.62 102.022 28.22C102.142 27.8 102.242 27.49 102.322 27.29C103.122 27.29 103.982 27.27 104.902 27.23C105.822 27.19 106.712 27.14 107.572 27.08C108.432 27.02 109.162 26.96 109.762 26.9L110.122 27.26C110.002 27.72 109.872 28.45 109.732 29.45C109.612 30.43 109.552 31.55 109.552 32.81V36.08C109.232 36.26 108.762 36.46 108.142 36.68C107.542 36.9 106.842 37.12 106.042 37.34C105.242 37.54 104.412 37.7 103.552 37.82C102.712 37.94 101.892 38 101.092 38ZM120.722 38C120.582 38 120.282 37.98 119.822 37.94C119.362 37.88 118.822 37.81 118.202 37.73C117.602 37.65 116.992 37.57 116.372 37.49C115.752 37.39 115.202 37.3 114.722 37.22C114.262 37.14 113.942 37.07 113.762 37.01C113.762 36.81 113.792 36.62 113.852 36.44C113.912 36.26 113.972 36.13 114.032 36.05L114.902 35.93C115.282 35.87 115.572 35.74 115.772 35.54C115.972 35.34 116.112 35.03 116.192 34.61C116.292 34.19 116.342 33.63 116.342 32.93V21.05C116.342 20.15 116.422 19.55 116.582 19.25C116.762 18.93 116.862 18.75 116.882 18.71H114.092C114.052 18.65 113.992 18.55 113.912 18.41C113.832 18.25 113.782 18.06 113.762 17.84C113.882 17.7 114.062 17.56 114.302 17.42C114.542 17.26 114.792 17.13 115.052 17.03C115.312 16.93 115.492 16.88 115.592 16.88H122.852C122.932 16.98 123.012 17.15 123.092 17.39C123.192 17.61 123.242 17.88 123.242 18.2L121.952 18.59C121.632 18.67 121.362 18.79 121.142 18.95C120.942 19.11 120.782 19.36 120.662 19.7C120.562 20.02 120.512 20.51 120.512 21.17V33.71C120.512 34.21 120.452 34.64 120.332 35C120.212 35.34 120.092 35.58 119.972 35.72L122.882 36.08C122.922 36.14 122.962 36.26 123.002 36.44C123.062 36.62 123.092 36.81 123.092 37.01C122.792 37.27 122.412 37.5 121.952 37.7C121.512 37.9 121.102 38 120.722 38ZM133.6 38C133.04 38 132.41 37.91 131.71 37.73C131.01 37.53 130.3 37.29 129.58 37.01C128.88 36.71 128.25 36.39 127.69 36.05C127.15 35.71 126.74 35.39 126.46 35.09C126.48 34.53 126.54 33.92 126.64 33.26C126.74 32.6 126.86 31.98 127 31.4C127.16 30.8 127.3 30.34 127.42 30.02C127.86 30.02 128.27 30.07 128.65 30.17C129.03 30.27 129.31 30.35 129.49 30.41L130.51 34.34C130.85 34.5 131.26 34.66 131.74 34.82C132.24 34.96 132.75 35.07 133.27 35.15C133.81 35.23 134.28 35.27 134.68 35.27C135 35.27 135.36 35.25 135.76 35.21C136.16 35.15 136.55 35.08 136.93 35C137.33 34.9 137.65 34.8 137.89 34.7C138.01 34.38 138.11 33.99 138.19 33.53C138.27 33.07 138.31 32.6 138.31 32.12C138.31 31.86 138.3 31.57 138.28 31.25C138.26 30.93 138.22 30.66 138.16 30.44C137.58 30.22 136.86 29.98 136 29.72C135.14 29.44 134.23 29.15 133.27 28.85C132.33 28.53 131.43 28.21 130.57 27.89C129.71 27.57 128.98 27.26 128.38 26.96C127.78 26.64 127.41 26.34 127.27 26.06C127.11 25.76 127 25.39 126.94 24.95C126.9 24.49 126.88 24.04 126.88 23.6C126.88 22.78 126.95 21.96 127.09 21.14C127.25 20.3 127.43 19.68 127.63 19.28C128.03 18.98 128.54 18.67 129.16 18.35C129.78 18.01 130.45 17.7 131.17 17.42C131.89 17.12 132.59 16.88 133.27 16.7C133.97 16.5 134.57 16.4 135.07 16.4C135.87 16.4 136.7 16.49 137.56 16.67C138.42 16.85 139.22 17.08 139.96 17.36C140.7 17.64 141.29 17.95 141.73 18.29C141.71 18.69 141.67 19.15 141.61 19.67C141.55 20.17 141.47 20.69 141.37 21.23C141.29 21.75 141.19 22.23 141.07 22.67C140.97 23.11 140.88 23.45 140.8 23.69C140.32 23.69 139.87 23.64 139.45 23.54C139.05 23.44 138.75 23.36 138.55 23.3L137.83 19.52C137.61 19.44 137.32 19.36 136.96 19.28C136.62 19.2 136.25 19.14 135.85 19.1C135.47 19.04 135.11 19.01 134.77 19.01C134.39 19.01 133.99 19.03 133.57 19.07C133.15 19.11 132.74 19.17 132.34 19.25C131.96 19.33 131.62 19.42 131.32 19.52C131.2 19.84 131.11 20.25 131.05 20.75C131.01 21.25 130.99 21.73 130.99 22.19C130.99 22.49 131 22.79 131.02 23.09C131.04 23.37 131.07 23.6 131.11 23.78C131.59 23.96 132.24 24.18 133.06 24.44C133.9 24.68 134.81 24.95 135.79 25.25C136.77 25.55 137.71 25.87 138.61 26.21C139.51 26.53 140.28 26.86 140.92 27.2C141.56 27.54 141.96 27.87 142.12 28.19C142.24 28.51 142.31 28.84 142.33 29.18C142.37 29.5 142.39 29.88 142.39 30.32C142.39 31.5 142.31 32.49 142.15 33.29C141.99 34.07 141.79 34.73 141.55 35.27C141.33 35.49 140.94 35.76 140.38 36.08C139.84 36.38 139.18 36.68 138.4 36.98C137.64 37.26 136.84 37.5 136 37.7C135.16 37.9 134.36 38 133.6 38ZM156.593 38C156.453 38 156.143 37.98 155.663 37.94C155.203 37.88 154.653 37.81 154.013 37.73C153.393 37.65 152.763 37.57 152.123 37.49C151.503 37.39 150.953 37.3 150.473 37.22C149.993 37.14 149.663 37.07 149.483 37.01C149.483 36.81 149.513 36.62 149.573 36.44C149.633 36.24 149.693 36.11 149.753 36.05L150.803 35.93C151.183 35.89 151.473 35.77 151.673 35.57C151.893 35.35 152.043 35.03 152.123 34.61C152.203 34.19 152.243 33.63 152.243 32.93V20.99C152.243 20.37 152.293 19.9 152.393 19.58C152.493 19.26 152.583 19.04 152.663 18.92H148.193L147.473 23.69C147.253 23.79 146.923 23.88 146.483 23.96C146.043 24.04 145.613 24.08 145.193 24.08C145.113 23.78 145.003 23.35 144.863 22.79C144.743 22.23 144.623 21.59 144.503 20.87C144.403 20.13 144.333 19.37 144.293 18.59C144.573 18.29 144.953 17.96 145.433 17.6C145.913 17.24 146.353 17 146.753 16.88H162.113C162.533 17.06 162.953 17.31 163.373 17.63C163.813 17.95 164.153 18.27 164.393 18.59C164.313 19.81 164.183 20.89 164.003 21.83C163.823 22.77 163.643 23.52 163.463 24.08C163.043 24.08 162.613 24.04 162.173 23.96C161.753 23.88 161.433 23.79 161.213 23.69L160.493 19.07C160.253 19.01 159.893 18.94 159.413 18.86C158.933 18.78 158.383 18.74 157.763 18.74C157.383 18.74 157.093 18.82 156.893 18.98C156.693 19.12 156.553 19.32 156.473 19.58C156.413 19.84 156.383 20.14 156.383 20.48V33.71C156.383 34.19 156.323 34.61 156.203 34.97C156.083 35.31 155.973 35.56 155.873 35.72L158.963 36.08C159.003 36.14 159.053 36.26 159.113 36.44C159.173 36.6 159.203 36.79 159.203 37.01C158.903 37.27 158.483 37.5 157.943 37.7C157.403 37.9 156.953 38 156.593 38ZM181.058 38C180.618 38 179.998 37.99 179.198 37.97C178.418 37.93 177.538 37.89 176.558 37.85C175.578 37.79 174.568 37.73 173.528 37.67C172.488 37.61 171.478 37.55 170.498 37.49C169.518 37.41 168.638 37.33 167.858 37.25C167.078 37.17 166.468 37.09 166.028 37.01C166.028 36.81 166.058 36.62 166.118 36.44C166.178 36.24 166.238 36.1 166.298 36.02L167.168 35.93C167.548 35.87 167.838 35.74 168.038 35.54C168.238 35.34 168.378 35.03 168.458 34.61C168.558 34.19 168.608 33.63 168.608 32.93V21.08C168.608 20.48 168.648 20.02 168.728 19.7C168.808 19.36 168.888 19.12 168.968 18.98C169.068 18.82 169.128 18.73 169.148 18.71H166.358C166.298 18.65 166.228 18.54 166.148 18.38C166.088 18.2 166.048 18.02 166.028 17.84C166.148 17.7 166.328 17.56 166.568 17.42C166.808 17.26 167.058 17.13 167.318 17.03C167.578 16.93 167.758 16.88 167.858 16.88H181.148C181.568 17.04 181.998 17.28 182.438 17.6C182.898 17.92 183.258 18.25 183.518 18.59C183.438 19.85 183.298 20.96 183.098 21.92C182.918 22.88 182.748 23.59 182.588 24.05C182.168 24.05 181.768 24.01 181.388 23.93C181.008 23.85 180.698 23.76 180.458 23.66L179.678 19.34C179.418 19.24 179.038 19.16 178.538 19.1C178.058 19.02 177.478 18.95 176.798 18.89C176.118 18.83 175.368 18.8 174.548 18.8C174.048 18.8 173.668 18.91 173.408 19.13C173.148 19.33 172.978 19.6 172.898 19.94C172.818 20.28 172.778 20.66 172.778 21.08V26.18C173.598 26.16 174.348 26.14 175.028 26.12C175.728 26.08 176.388 26.03 177.008 25.97C177.628 25.91 178.238 25.85 178.838 25.79L179.228 26.21C179.188 26.65 179.138 27.04 179.078 27.38C179.018 27.72 178.948 27.98 178.868 28.16H172.778V33.71C172.778 34.19 172.718 34.61 172.598 34.97C172.478 35.31 172.358 35.56 172.238 35.72H179.528L181.508 30.38C181.988 30.38 182.438 30.45 182.858 30.59C183.278 30.71 183.558 30.82 183.698 30.92C183.698 31.6 183.668 32.3 183.608 33.02C183.568 33.74 183.508 34.42 183.428 35.06C183.368 35.7 183.298 36.23 183.218 36.65C183.078 36.81 182.858 37 182.558 37.22C182.278 37.42 181.998 37.6 181.718 37.76C181.438 37.92 181.218 38 181.058 38ZM193.701 38C193.561 38 193.261 37.98 192.801 37.94C192.341 37.88 191.801 37.81 191.181 37.73C190.581 37.65 189.971 37.57 189.351 37.49C188.731 37.39 188.181 37.3 187.701 37.22C187.241 37.14 186.921 37.07 186.741 37.01C186.741 36.81 186.771 36.62 186.831 36.44C186.891 36.26 186.951 36.13 187.011 36.05L187.881 35.93C188.261 35.87 188.551 35.74 188.751 35.54C188.951 35.34 189.091 35.03 189.171 34.61C189.271 34.19 189.321 33.63 189.321 32.93V21.08C189.321 20.48 189.361 20.02 189.441 19.7C189.521 19.36 189.601 19.12 189.681 18.98C189.781 18.82 189.841 18.73 189.861 18.71H187.071C187.011 18.65 186.941 18.53 186.861 18.35C186.801 18.17 186.761 18 186.741 17.84C186.841 17.7 187.011 17.56 187.251 17.42C187.511 17.28 187.771 17.16 188.031 17.06C188.291 16.94 188.471 16.88 188.571 16.88H199.641C200.081 16.98 200.561 17.15 201.081 17.39C201.601 17.63 202.091 17.89 202.551 18.17C203.011 18.43 203.361 18.7 203.601 18.98C203.821 19.36 203.971 19.81 204.051 20.33C204.151 20.85 204.201 21.4 204.201 21.98C204.201 22.7 204.151 23.33 204.051 23.87C203.951 24.39 203.811 24.84 203.631 25.22C203.471 25.58 203.291 25.88 203.091 26.12C202.891 26.36 202.591 26.6 202.191 26.84C201.811 27.08 201.391 27.31 200.931 27.53C200.491 27.73 200.061 27.9 199.641 28.04V28.19C200.041 28.39 200.361 28.65 200.601 28.97C200.861 29.27 201.131 29.73 201.411 30.35L202.581 32.87C202.921 33.57 203.241 34.12 203.541 34.52C203.841 34.92 204.151 35.21 204.471 35.39C204.811 35.57 205.181 35.67 205.581 35.69H206.391C206.471 35.77 206.551 35.92 206.631 36.14C206.731 36.36 206.781 36.61 206.781 36.89C206.441 37.13 206.051 37.34 205.611 37.52C205.171 37.68 204.741 37.8 204.321 37.88C203.901 37.96 203.531 38 203.211 38C202.071 38 201.161 37.7 200.481 37.1C199.801 36.48 199.261 35.64 198.861 34.58L196.971 29.72C196.831 29.36 196.651 29.09 196.431 28.91C196.211 28.71 195.901 28.61 195.501 28.61H193.491V33.71C193.491 34.21 193.431 34.64 193.311 35C193.191 35.34 193.071 35.58 192.951 35.72L196.071 36.08C196.111 36.16 196.161 36.28 196.221 36.44C196.281 36.6 196.311 36.79 196.311 37.01C196.031 37.25 195.621 37.48 195.081 37.7C194.541 37.9 194.081 38 193.701 38ZM193.491 26.63C194.231 26.61 194.961 26.6 195.681 26.6C196.401 26.58 197.071 26.55 197.691 26.51C198.331 26.45 198.891 26.39 199.371 26.33C199.611 25.97 199.811 25.47 199.971 24.83C200.131 24.17 200.211 23.4 200.211 22.52C200.211 21.84 200.141 21.22 200.001 20.66C199.881 20.08 199.671 19.62 199.371 19.28C199.051 19.18 198.621 19.1 198.081 19.04C197.541 18.96 197.011 18.9 196.491 18.86C195.991 18.82 195.611 18.8 195.351 18.8C194.631 18.8 194.141 19 193.881 19.4C193.621 19.8 193.491 20.34 193.491 21.02V26.63Z" fill="black"/>
<path d="M2.5 44C2.5 44 0 44 0 41.5C0 39 2.5 31.5 15 31.5C27.5 31.5 30 39 30 41.5C30 44 27.5 44 27.5 44H2.5ZM15 29C16.9891 29 18.8968 28.2098 20.3033 26.8033C21.7098 25.3968 22.5 23.4891 22.5 21.5C22.5 19.5109 21.7098 17.6032 20.3033 16.1967C18.8968 14.7902 16.9891 14 15 14C13.0109 14 11.1032 14.7902 9.6967 16.1967C8.29018 17.6032 7.5 19.5109 7.5 21.5C7.5 23.4891 8.29018 25.3968 9.6967 26.8033C11.1032 28.2098 13.0109 29 15 29Z" fill="black"/>
</svg>
