<svg width="30" height="30" viewBox="0 0 30 30" fill="none" xmlns="http://www.w3.org/2000/svg">
<path d="M12.6625 19.8025L11.6787 23.4775L9.26372 22.8312L10.2475 19.1562C8.77502 18.6135 7.40646 17.8225 6.20122 16.8175L3.50997 19.5087L1.74247 17.7412L4.43372 15.0487C2.91382 13.2284 1.89258 11.0447 1.46997 8.71125L2.59497 8.50625C6.20665 11.1098 10.5477 12.5074 15 12.5C19.63 12.5 23.915 11.02 27.405 8.50625L28.53 8.71C28.1079 11.0438 27.0871 13.2279 25.5675 15.0487L28.2587 17.7412L26.4912 19.5087L23.7987 16.8175C22.5936 17.8229 21.225 18.6144 19.7525 19.1575L20.7375 22.8312L18.3225 23.4775L17.3375 19.8025C15.7904 20.0675 14.2095 20.0675 12.6625 19.8025Z" fill="black"/>
</svg>
