<svg width="108" height="13" viewBox="0 0 108 13" fill="none" xmlns="http://www.w3.org/2000/svg">
<path d="M5.8758 13C5.3958 13 4.9098 12.922 4.4178 12.766C3.9258 12.61 3.4638 12.418 3.0318 12.19C2.5998 11.962 2.2278 11.746 1.9158 11.542C1.6038 11.326 1.3938 11.158 1.2858 11.038C1.0218 10.69 0.817797 10.168 0.673797 9.472C0.529797 8.776 0.457797 8.014 0.457797 7.186C0.457797 6.49 0.493797 5.806 0.565797 5.134C0.637797 4.45 0.727797 3.838 0.835797 3.298C0.955797 2.758 1.0698 2.362 1.1778 2.11C1.4778 1.846 1.8618 1.594 2.3298 1.354C2.7978 1.114 3.2958 0.891999 3.8238 0.688C4.3638 0.483999 4.8858 0.327999 5.3898 0.219999C5.8938 0.0999994 6.3318 0.0399995 6.7038 0.0399995C7.1718 0.0399995 7.6518 0.0999994 8.1438 0.219999C8.6478 0.327999 9.1218 0.477999 9.5658 0.669999C10.0098 0.861999 10.3758 1.072 10.6638 1.3C10.6518 2.02 10.5918 2.68 10.4838 3.28C10.3878 3.88 10.2978 4.348 10.2138 4.684C9.8178 4.66 9.4998 4.63 9.2598 4.594C9.0198 4.546 8.8398 4.504 8.7198 4.468L8.1978 2.056C8.0538 1.972 7.8618 1.894 7.6218 1.822C7.3938 1.75 7.1658 1.696 6.9378 1.66C6.7098 1.612 6.5178 1.588 6.3618 1.588C6.1218 1.588 5.8338 1.612 5.4978 1.66C5.1618 1.696 4.8318 1.75 4.5078 1.822C4.1958 1.894 3.9378 1.978 3.7338 2.074C3.6258 2.35 3.5238 2.734 3.4278 3.226C3.3438 3.706 3.2778 4.222 3.2298 4.774C3.1818 5.326 3.1578 5.836 3.1578 6.304C3.1578 6.808 3.1818 7.318 3.2298 7.834C3.2778 8.35 3.3438 8.824 3.4278 9.256C3.5118 9.676 3.6078 10.018 3.7158 10.282C3.7878 10.366 3.9258 10.468 4.1298 10.588C4.3458 10.708 4.5918 10.828 4.8678 10.948C5.1438 11.068 5.4198 11.17 5.6958 11.254C5.9718 11.326 6.2178 11.362 6.4338 11.362C6.5658 11.362 6.7398 11.35 6.9558 11.326C7.1718 11.302 7.3818 11.272 7.5858 11.236C7.8018 11.188 7.9518 11.134 8.0358 11.074L9.1698 8.23C9.4578 8.23 9.7278 8.266 9.9798 8.338C10.2438 8.41 10.4538 8.476 10.6098 8.536C10.5978 8.872 10.5738 9.232 10.5378 9.616C10.5138 10 10.4838 10.372 10.4478 10.732C10.4118 11.092 10.3758 11.404 10.3398 11.668C10.1358 11.824 9.8118 12.01 9.3678 12.226C8.9238 12.43 8.4018 12.61 7.8018 12.766C7.2018 12.922 6.5598 13 5.8758 13ZM18.1269 13C17.6829 13 17.2209 12.928 16.7409 12.784C16.2609 12.628 15.8049 12.442 15.3729 12.226C14.9409 12.01 14.5629 11.794 14.2389 11.578C13.9149 11.35 13.6929 11.164 13.5729 11.02C13.2969 10.612 13.0869 10.054 12.9429 9.346C12.8109 8.638 12.7449 7.894 12.7449 7.114C12.7449 6.466 12.7809 5.824 12.8529 5.188C12.9249 4.552 13.0149 3.97 13.1229 3.442C13.2429 2.902 13.3689 2.458 13.5009 2.11C13.8249 1.858 14.2149 1.612 14.6709 1.372C15.1269 1.12 15.6189 0.891999 16.1469 0.688C16.6749 0.483999 17.2029 0.327999 17.7309 0.219999C18.2589 0.0999994 18.7509 0.0399995 19.2069 0.0399995C19.5429 0.0399995 19.9089 0.0879996 20.3049 0.184C20.7009 0.279999 21.0969 0.405999 21.4929 0.561999C21.8889 0.717999 22.2429 0.891999 22.5549 1.084C22.8669 1.264 23.0949 1.444 23.2389 1.624C23.4429 1.948 23.6109 2.362 23.7429 2.866C23.8749 3.358 23.9769 3.886 24.0489 4.45C24.1209 5.014 24.1569 5.572 24.1569 6.124C24.1569 6.748 24.1209 7.372 24.0489 7.996C23.9769 8.608 23.8749 9.19 23.7429 9.742C23.6229 10.282 23.4789 10.774 23.3109 11.218C22.9869 11.482 22.5429 11.752 21.9789 12.028C21.4149 12.304 20.7969 12.538 20.1249 12.73C19.4529 12.91 18.7869 13 18.1269 13ZM18.5409 11.488C18.7449 11.488 18.9969 11.464 19.2969 11.416C19.6089 11.356 19.9089 11.278 20.1969 11.182C20.4969 11.086 20.7189 11.002 20.8629 10.93C20.9949 10.582 21.1029 10.18 21.1869 9.724C21.2829 9.256 21.3489 8.752 21.3849 8.212C21.4209 7.66 21.4389 7.108 21.4389 6.556C21.4389 5.776 21.4029 5.044 21.3309 4.36C21.2709 3.664 21.1869 3.1 21.0789 2.668C21.0069 2.572 20.8689 2.464 20.6649 2.344C20.4609 2.224 20.2329 2.116 19.9809 2.02C19.7289 1.912 19.4829 1.822 19.2429 1.75C19.0029 1.678 18.7989 1.642 18.6309 1.642C18.4149 1.642 18.1389 1.666 17.8029 1.714C17.4789 1.75 17.1489 1.804 16.8129 1.876C16.4889 1.948 16.2129 2.02 15.9849 2.092C15.8529 2.404 15.7389 2.782 15.6429 3.226C15.5589 3.658 15.4929 4.132 15.4449 4.648C15.3969 5.164 15.3729 5.704 15.3729 6.268C15.3729 7.036 15.4209 7.798 15.5169 8.554C15.6249 9.298 15.7809 9.916 15.9849 10.408C16.0689 10.516 16.2249 10.636 16.4529 10.768C16.6809 10.888 16.9269 11.008 17.1909 11.128C17.4669 11.236 17.7309 11.326 17.9829 11.398C18.2349 11.458 18.4209 11.488 18.5409 11.488ZM30.7775 13C30.4295 13 30.0395 12.946 29.6075 12.838C29.1755 12.718 28.7435 12.568 28.3115 12.388C27.8795 12.208 27.4955 12.016 27.1595 11.812C26.8235 11.596 26.5715 11.392 26.4035 11.2C26.4275 10.864 26.4695 10.498 26.5295 10.102C26.5895 9.706 26.6615 9.334 26.7455 8.986C26.8415 8.638 26.9255 8.374 26.9975 8.194C27.2495 8.194 27.4955 8.224 27.7355 8.284C27.9755 8.344 28.1555 8.392 28.2755 8.428L28.8875 10.786C29.1035 10.882 29.3615 10.978 29.6615 11.074C29.9615 11.158 30.2675 11.224 30.5795 11.272C30.9035 11.32 31.1915 11.344 31.4435 11.344C31.6235 11.344 31.8335 11.332 32.0735 11.308C32.3255 11.272 32.5655 11.23 32.7935 11.182C33.0335 11.122 33.2255 11.068 33.3695 11.02C33.4415 10.816 33.5015 10.576 33.5495 10.3C33.5975 10.024 33.6215 9.748 33.6215 9.472C33.6215 9.328 33.6155 9.166 33.6035 8.986C33.5915 8.794 33.5675 8.632 33.5315 8.5C33.1835 8.38 32.7515 8.242 32.2355 8.086C31.7195 7.918 31.1735 7.744 30.5975 7.564C30.0215 7.372 29.4695 7.18 28.9415 6.988C28.4255 6.796 27.9815 6.61 27.6095 6.43C27.2495 6.238 27.0275 6.064 26.9435 5.908C26.8355 5.728 26.7635 5.494 26.7275 5.206C26.7035 4.906 26.6915 4.618 26.6915 4.342C26.6915 3.85 26.7335 3.358 26.8175 2.866C26.9135 2.362 27.0215 1.996 27.1415 1.768C27.3935 1.588 27.7055 1.402 28.0775 1.21C28.4615 1.006 28.8695 0.819999 29.3015 0.651999C29.7455 0.471999 30.1715 0.327999 30.5795 0.219999C30.9995 0.0999994 31.3655 0.0399995 31.6775 0.0399995C32.1695 0.0399995 32.6735 0.0939995 33.1895 0.202C33.7175 0.31 34.2035 0.448 34.6475 0.616C35.1035 0.784 35.4635 0.97 35.7275 1.174C35.7155 1.414 35.6855 1.69 35.6375 2.002C35.6015 2.314 35.5535 2.632 35.4935 2.956C35.4455 3.268 35.3855 3.556 35.3135 3.82C35.2535 4.084 35.1995 4.288 35.1515 4.432C34.8635 4.432 34.5875 4.402 34.3235 4.342C34.0715 4.282 33.8855 4.228 33.7655 4.18L33.3335 1.912C33.2135 1.876 33.0455 1.834 32.8295 1.786C32.6255 1.738 32.4035 1.702 32.1635 1.678C31.9355 1.642 31.7195 1.624 31.5155 1.624C31.2875 1.624 31.0415 1.636 30.7775 1.66C30.5135 1.684 30.2615 1.726 30.0215 1.786C29.7815 1.834 29.5715 1.888 29.3915 1.948C29.3195 2.128 29.2655 2.362 29.2295 2.65C29.2055 2.938 29.1935 3.214 29.1935 3.478C29.1935 3.67 29.1995 3.856 29.2115 4.036C29.2235 4.216 29.2415 4.354 29.2655 4.45C29.5535 4.558 29.9495 4.69 30.4535 4.846C30.9575 5.002 31.5035 5.17 32.0915 5.35C32.6795 5.518 33.2435 5.704 33.7835 5.908C34.3355 6.1 34.8035 6.298 35.1875 6.502C35.5835 6.706 35.8295 6.904 35.9255 7.096C36.0095 7.264 36.0635 7.45 36.0875 7.654C36.1115 7.858 36.1235 8.098 36.1235 8.374C36.1235 9.106 36.0695 9.718 35.9615 10.21C35.8655 10.69 35.7395 11.086 35.5835 11.398C35.4635 11.53 35.2355 11.686 34.8995 11.866C34.5635 12.046 34.1615 12.226 33.6935 12.406C33.2255 12.574 32.7335 12.718 32.2175 12.838C31.7135 12.946 31.2335 13 30.7775 13ZM44.7672 13C44.6832 13 44.4972 12.988 44.2092 12.964C43.9332 12.928 43.6032 12.886 43.2192 12.838C42.8352 12.79 42.4512 12.742 42.0672 12.694C41.6832 12.634 41.3472 12.58 41.0592 12.532C40.7712 12.484 40.5732 12.442 40.4652 12.406C40.4652 12.286 40.4832 12.172 40.5192 12.064C40.5552 11.944 40.5912 11.866 40.6272 11.83L41.2572 11.758C41.4852 11.734 41.6592 11.662 41.7792 11.542C41.8992 11.41 41.9832 11.218 42.0312 10.966C42.0912 10.714 42.1212 10.384 42.1212 9.976V2.866C42.1212 2.47 42.1512 2.176 42.2112 1.984C42.2712 1.792 42.3252 1.654 42.3732 1.57H39.7092L39.2772 4.414C39.1332 4.474 38.9232 4.534 38.6472 4.594C38.3712 4.642 38.1072 4.666 37.8552 4.666C37.8072 4.486 37.7412 4.228 37.6572 3.892C37.5852 3.544 37.5132 3.154 37.4412 2.722C37.3812 2.278 37.3392 1.816 37.3152 1.336C37.4832 1.168 37.7112 0.975999 37.9992 0.76C38.2872 0.544 38.5452 0.399999 38.7732 0.327999H48.1512C48.4032 0.435999 48.6552 0.585999 48.9072 0.778C49.1712 0.957999 49.3692 1.144 49.5012 1.336C49.4532 2.092 49.3752 2.752 49.2672 3.316C49.1592 3.868 49.0512 4.318 48.9432 4.666C48.7032 4.666 48.4452 4.642 48.1692 4.594C47.8932 4.534 47.6892 4.474 47.5572 4.414L47.1252 1.678C46.9812 1.63 46.7652 1.582 46.4772 1.534C46.1892 1.486 45.8592 1.462 45.4872 1.462C45.2712 1.462 45.0972 1.51 44.9652 1.606C44.8452 1.69 44.7612 1.81 44.7132 1.966C44.6772 2.122 44.6592 2.302 44.6592 2.506V10.426C44.6592 10.714 44.6232 10.966 44.5512 11.182C44.4792 11.386 44.4132 11.53 44.3532 11.614L46.2072 11.848C46.2312 11.884 46.2612 11.956 46.2972 12.064C46.3332 12.16 46.3512 12.274 46.3512 12.406C46.1712 12.562 45.9132 12.7 45.5772 12.82C45.2532 12.94 44.9832 13 44.7672 13ZM56.8131 13C56.3331 13 55.8171 12.922 55.2651 12.766C54.7251 12.598 54.2091 12.394 53.7171 12.154C53.2371 11.902 52.8351 11.644 52.5111 11.38C52.1871 11.116 52.0071 10.882 51.9711 10.678V2.848C51.9711 2.452 52.0071 2.134 52.0791 1.894C52.1511 1.654 52.2231 1.504 52.2951 1.444H50.6391C50.6031 1.384 50.5611 1.312 50.5131 1.228C50.4651 1.132 50.4351 1.018 50.4231 0.885999C50.4951 0.814 50.6031 0.735999 50.7471 0.651999C50.9031 0.567999 51.0531 0.496 51.1971 0.436C51.3531 0.363999 51.4671 0.327999 51.5391 0.327999H55.9311C55.9791 0.387999 56.0271 0.489999 56.0751 0.633999C56.1351 0.778 56.1651 0.946 56.1651 1.138L55.3911 1.372C55.1871 1.432 55.0191 1.516 54.8871 1.624C54.7551 1.72 54.6651 1.87 54.6171 2.074C54.5691 2.266 54.5451 2.548 54.5451 2.92V10.426C54.6651 10.558 54.8391 10.69 55.0671 10.822C55.3071 10.954 55.5591 11.074 55.8231 11.182C56.0991 11.29 56.3631 11.38 56.6151 11.452C56.8671 11.512 57.0771 11.542 57.2451 11.542C57.6531 11.542 58.0491 11.494 58.4331 11.398C58.8171 11.29 59.1651 11.158 59.4771 11.002C59.8011 10.834 60.0531 10.666 60.2331 10.498V2.848C60.2331 2.452 60.2631 2.134 60.3231 1.894C60.3951 1.654 60.4611 1.504 60.5211 1.444H58.9191C58.8711 1.396 58.8291 1.324 58.7931 1.228C58.7571 1.132 58.7331 1.018 58.7211 0.885999C58.7931 0.814 58.9011 0.735999 59.0451 0.651999C59.1891 0.556 59.3331 0.478 59.4771 0.417999C59.6331 0.357999 59.7471 0.327999 59.8191 0.327999H62.9871C63.0471 0.399999 63.1011 0.502 63.1491 0.633999C63.2091 0.765999 63.2391 0.933999 63.2391 1.138L62.5371 1.336C62.3091 1.396 62.1291 1.48 61.9971 1.588C61.8771 1.696 61.7871 1.858 61.7271 2.074C61.6791 2.29 61.6551 2.602 61.6551 3.01V11.038C61.5111 11.242 61.2711 11.458 60.9351 11.686C60.5991 11.914 60.2091 12.13 59.7651 12.334C59.3211 12.526 58.8411 12.688 58.3251 12.82C57.8211 12.94 57.3171 13 56.8131 13ZM67.942 13C67.846 13 67.642 12.982 67.33 12.946C67.018 12.898 66.67 12.844 66.286 12.784C65.902 12.712 65.542 12.646 65.206 12.586C64.882 12.514 64.654 12.454 64.522 12.406C64.522 12.286 64.54 12.172 64.576 12.064C64.612 11.956 64.648 11.878 64.684 11.83L65.116 11.758C65.332 11.722 65.5 11.662 65.62 11.578C65.752 11.494 65.848 11.332 65.908 11.092C65.98 10.84 66.028 10.468 66.052 9.976L66.448 2.866C66.472 2.422 66.526 2.086 66.61 1.858C66.694 1.618 66.76 1.48 66.808 1.444H65.08C65.032 1.396 64.984 1.324 64.936 1.228C64.9 1.132 64.876 1.018 64.864 0.885999C64.924 0.814 65.026 0.735999 65.17 0.651999C65.314 0.567999 65.464 0.496 65.62 0.436C65.788 0.363999 65.908 0.327999 65.98 0.327999H69.67L72.766 8.266C72.922 7.918 73.096 7.504 73.288 7.024C73.492 6.544 73.702 6.028 73.918 5.476C74.134 4.912 74.35 4.336 74.566 3.748C74.794 3.16 75.004 2.572 75.196 1.984C75.388 1.396 75.562 0.844 75.718 0.327999H80.65C80.698 0.399999 80.746 0.502 80.794 0.633999C80.854 0.765999 80.89 0.933999 80.902 1.138L80.128 1.372C79.876 1.444 79.672 1.534 79.516 1.642C79.372 1.75 79.27 1.9 79.21 2.092C79.162 2.284 79.144 2.542 79.156 2.866L79.552 10.318C79.576 10.678 79.552 10.972 79.48 11.2C79.42 11.428 79.354 11.566 79.282 11.614L81.028 11.848C81.064 11.908 81.094 11.986 81.118 12.082C81.154 12.178 81.172 12.286 81.172 12.406C81.004 12.55 80.776 12.688 80.488 12.82C80.2 12.94 79.942 13 79.714 13C79.594 13 79.384 12.988 79.084 12.964C78.796 12.928 78.46 12.892 78.076 12.856C77.704 12.808 77.326 12.76 76.942 12.712C76.558 12.652 76.222 12.598 75.934 12.55C75.658 12.502 75.46 12.46 75.34 12.424C75.34 12.304 75.358 12.184 75.394 12.064C75.442 11.944 75.484 11.86 75.52 11.812L76.204 11.758C76.444 11.722 76.63 11.674 76.762 11.614C76.906 11.542 77.002 11.38 77.05 11.128C77.11 10.876 77.122 10.456 77.086 9.868L76.744 3.982C76.72 3.514 76.72 3.124 76.744 2.812C76.768 2.488 76.804 2.278 76.852 2.182L76.708 2.128L73.162 11.254C73.018 11.326 72.79 11.404 72.478 11.488C72.166 11.572 71.824 11.614 71.452 11.614L68.518 4C68.374 3.616 68.26 3.256 68.176 2.92C68.104 2.572 68.062 2.32 68.05 2.164H67.942C67.93 2.236 67.906 2.392 67.87 2.632C67.846 2.86 67.822 3.16 67.798 3.532L67.456 10.48C67.444 10.744 67.402 10.978 67.33 11.182C67.27 11.386 67.21 11.524 67.15 11.596L69.418 11.848C69.442 11.896 69.466 11.968 69.49 12.064C69.526 12.16 69.55 12.274 69.562 12.406C69.43 12.514 69.262 12.616 69.058 12.712C68.866 12.796 68.668 12.868 68.464 12.928C68.26 12.976 68.086 13 67.942 13ZM91.8954 13C91.6434 13 91.2774 12.994 90.7974 12.982C90.3294 12.958 89.7954 12.934 89.1954 12.91C88.6074 12.874 87.9954 12.838 87.3594 12.802C86.7234 12.766 86.1054 12.73 85.5054 12.694C84.9054 12.646 84.3654 12.598 83.8854 12.55C83.4174 12.502 83.0514 12.454 82.7874 12.406C82.7874 12.286 82.8054 12.172 82.8414 12.064C82.8774 11.944 82.9134 11.86 82.9494 11.812L83.4714 11.758C83.6874 11.722 83.8554 11.644 83.9754 11.524C84.0954 11.404 84.1854 11.224 84.2454 10.984C84.3054 10.732 84.3354 10.396 84.3354 9.976V2.848C84.3354 2.476 84.3534 2.194 84.3894 2.002C84.4374 1.81 84.4914 1.672 84.5514 1.588C84.6114 1.504 84.6414 1.456 84.6414 1.444H82.9854C82.9494 1.396 82.9074 1.324 82.8594 1.228C82.8234 1.12 82.7994 1.006 82.7874 0.885999C82.8594 0.814 82.9674 0.735999 83.1114 0.651999C83.2554 0.556 83.4054 0.478 83.5614 0.417999C83.7174 0.357999 83.8254 0.327999 83.8854 0.327999H91.8954C92.1594 0.423999 92.4294 0.567999 92.7054 0.76C92.9934 0.94 93.2154 1.132 93.3714 1.336C93.3234 2.104 93.2394 2.776 93.1194 3.352C93.0114 3.928 92.9094 4.366 92.8134 4.666C92.5614 4.666 92.3154 4.642 92.0754 4.594C91.8474 4.546 91.6614 4.492 91.5174 4.432L91.0314 1.822C90.8874 1.762 90.6654 1.714 90.3654 1.678C90.0774 1.63 89.7294 1.588 89.3214 1.552C88.9134 1.516 88.4574 1.498 87.9534 1.498C87.6534 1.498 87.4254 1.558 87.2694 1.678C87.1134 1.798 87.0114 1.96 86.9634 2.164C86.9154 2.368 86.8914 2.596 86.8914 2.848V5.908C87.3954 5.896 87.8514 5.884 88.2594 5.872C88.6674 5.848 89.0574 5.818 89.4294 5.782C89.8014 5.746 90.1734 5.71 90.5454 5.674L90.7794 5.944C90.7554 6.208 90.7254 6.442 90.6894 6.646C90.6534 6.838 90.6114 6.994 90.5634 7.114H86.8914V10.444C86.8914 10.72 86.8554 10.966 86.7834 11.182C86.7114 11.386 86.6394 11.536 86.5674 11.632H90.9234L92.1474 8.428C92.4354 8.428 92.7054 8.464 92.9574 8.536C93.2214 8.608 93.4014 8.674 93.4974 8.734C93.4974 9.142 93.4794 9.562 93.4434 9.994C93.4194 10.426 93.3834 10.84 93.3354 11.236C93.2874 11.62 93.2394 11.944 93.1914 12.208C93.1194 12.304 92.9934 12.412 92.8134 12.532C92.6334 12.652 92.4594 12.76 92.2914 12.856C92.1234 12.952 91.9914 13 91.8954 13ZM99.5678 13C99.4838 13 99.2978 12.988 99.0098 12.964C98.7338 12.928 98.4098 12.886 98.0378 12.838C97.6778 12.79 97.3118 12.742 96.9398 12.694C96.5678 12.634 96.2378 12.58 95.9498 12.532C95.6618 12.484 95.4638 12.442 95.3558 12.406C95.3558 12.298 95.3738 12.19 95.4098 12.082C95.4458 11.962 95.4818 11.878 95.5178 11.83L96.0398 11.758C96.2558 11.722 96.4238 11.644 96.5438 11.524C96.6638 11.404 96.7538 11.224 96.8138 10.984C96.8738 10.732 96.9038 10.396 96.9038 9.976V2.848C96.9038 2.476 96.9218 2.194 96.9578 2.002C97.0058 1.81 97.0598 1.672 97.1198 1.588C97.1798 1.504 97.2098 1.456 97.2098 1.444H95.5538C95.5178 1.396 95.4758 1.318 95.4278 1.21C95.3918 1.102 95.3678 0.993999 95.3558 0.885999C95.4158 0.814 95.5178 0.735999 95.6618 0.651999C95.8178 0.567999 95.9738 0.496 96.1298 0.436C96.2858 0.363999 96.3938 0.327999 96.4538 0.327999H103.186C103.438 0.387999 103.714 0.489999 104.014 0.633999C104.326 0.765999 104.62 0.909999 104.896 1.066C105.172 1.222 105.382 1.378 105.526 1.534C105.658 1.774 105.754 2.056 105.814 2.38C105.874 2.704 105.904 3.052 105.904 3.424C105.904 3.856 105.868 4.228 105.796 4.54C105.736 4.852 105.658 5.116 105.562 5.332C105.466 5.536 105.364 5.71 105.256 5.854C105.124 5.998 104.938 6.148 104.698 6.304C104.47 6.448 104.218 6.586 103.942 6.718C103.678 6.838 103.426 6.94 103.186 7.024V7.114C103.426 7.234 103.624 7.39 103.78 7.582C103.948 7.774 104.116 8.062 104.284 8.446L104.986 9.976C105.19 10.396 105.376 10.72 105.544 10.948C105.724 11.176 105.91 11.338 106.102 11.434C106.294 11.53 106.504 11.584 106.732 11.596H107.254C107.302 11.644 107.35 11.734 107.398 11.866C107.458 11.998 107.488 12.154 107.488 12.334C107.284 12.478 107.044 12.604 106.768 12.712C106.504 12.808 106.24 12.88 105.976 12.928C105.724 12.976 105.502 13 105.31 13C104.626 13 104.074 12.826 103.654 12.478C103.246 12.118 102.922 11.62 102.682 10.984L101.53 8.032C101.446 7.816 101.338 7.654 101.206 7.546C101.074 7.426 100.888 7.366 100.648 7.366H99.4598V10.426C99.4598 10.726 99.4238 10.984 99.3518 11.2C99.2798 11.404 99.2078 11.542 99.1358 11.614L100.99 11.848C101.026 11.896 101.056 11.968 101.08 12.064C101.116 12.16 101.14 12.274 101.152 12.406C100.972 12.55 100.72 12.688 100.396 12.82C100.072 12.94 99.7958 13 99.5678 13ZM99.4598 6.16C99.9038 6.16 100.336 6.154 100.756 6.142C101.188 6.13 101.59 6.112 101.962 6.088C102.334 6.064 102.664 6.034 102.952 5.998C103.096 5.794 103.216 5.5 103.312 5.116C103.42 4.732 103.474 4.27 103.474 3.73C103.474 3.322 103.432 2.95 103.348 2.614C103.264 2.266 103.132 1.984 102.952 1.768C102.76 1.708 102.496 1.66 102.16 1.624C101.836 1.588 101.518 1.558 101.206 1.534C100.906 1.51 100.684 1.498 100.54 1.498C100.108 1.498 99.8198 1.618 99.6758 1.858C99.5318 2.098 99.4598 2.416 99.4598 2.812V6.16Z" fill="black"/>
</svg>
