<svg width="24" height="24" viewBox="0 0 24 24" fill="none" xmlns="http://www.w3.org/2000/svg">
<g clip-path="url(#clip0_143_752)">
<path fill-rule="evenodd" clip-rule="evenodd" d="M17 4C17.763 4 18.394 4.434 18.856 4.89C19.337 5.363 19.778 5.999 20.17 6.7C20.957 8.106 21.642 9.943 22.095 11.758C22.545 13.559 22.794 15.44 22.635 16.919C22.475 18.404 21.71 20 20 20C18.524 20 17.348 19.24 16.386 18.469L16.035 18.18L15.543 17.765L15.099 17.397C14.08 16.572 13.175 16 12 16C10.825 16 9.92 16.572 8.901 17.397L8.457 17.765L7.965 18.18L7.615 18.469C6.651 19.24 5.475 20 4 20C2.289 20 1.524 18.404 1.365 16.919C1.207 15.439 1.455 13.559 1.905 11.758C2.358 9.943 3.043 8.106 3.83 6.699C4.222 5.999 4.663 5.363 5.144 4.889C5.606 4.434 6.237 4 7 4C7.515 4 8.018 4.123 8.513 4.27L9.105 4.451C9.204 4.481 9.302 4.511 9.4 4.538C10.265 4.786 11.15 5 12 5C12.85 5 13.735 4.786 14.6 4.538L15.485 4.271C15.983 4.124 16.49 4 17 4ZM17 6C16.617 6 16.217 6.116 15.829 6.243L15.371 6.394C15.2977 6.41784 15.224 6.44051 15.15 6.462C14.265 6.714 13.15 7 12 7C10.85 7 9.735 6.714 8.85 6.462L8.63 6.394L8.171 6.243C7.783 6.115 7.383 6 7 6C6.582 6.078 6.207 6.585 5.924 7.055L5.766 7.33L5.576 7.676C4.894 8.894 4.266 10.556 3.846 12.243C3.451 13.819 3.259 15.329 3.332 16.453L3.358 16.746L3.378 16.922L3.408 17.13C3.477 17.531 3.626 18 4 18C4.812 18 5.49 17.596 6.333 16.926L6.736 16.598L7.496 15.962L7.84 15.682C8.904 14.839 10.235 14 12 14C13.765 14 15.096 14.84 16.16 15.682L16.505 15.962L17.265 16.598L17.667 16.926C18.51 17.596 19.187 18 20 18C20.34 18 20.494 17.613 20.571 17.241L20.609 17.023L20.646 16.706C20.769 15.56 20.579 13.941 20.155 12.243C19.769 10.697 19.209 9.171 18.593 7.989L18.234 7.329L18.076 7.056C17.793 6.585 17.418 6.078 17 6ZM8.5 8C9.16304 8 9.79893 8.26339 10.2678 8.73223C10.7366 9.20107 11 9.83696 11 10.5C11 11.163 10.7366 11.7989 10.2678 12.2678C9.79893 12.7366 9.16304 13 8.5 13C7.83696 13 7.20108 12.7366 6.73223 12.2678C6.26339 11.7989 6 11.163 6 10.5C6 9.83696 6.26339 9.20107 6.73223 8.73223C7.20108 8.26339 7.83696 8 8.5 8ZM15.5 8C15.7449 8.00003 15.9813 8.08996 16.1644 8.25272C16.3474 8.41547 16.4643 8.63975 16.493 8.883L16.5 9V9.5H17C17.2549 9.50028 17.5 9.59788 17.6854 9.77285C17.8707 9.94782 17.9822 10.187 17.9972 10.4414C18.0121 10.6958 17.9293 10.9464 17.7657 11.1418C17.6021 11.3373 17.3701 11.4629 17.117 11.493L17 11.5H16.5V12C16.4997 12.2549 16.4021 12.5 16.2272 12.6854C16.0522 12.8707 15.813 12.9822 15.5586 12.9972C15.3042 13.0121 15.0536 12.9293 14.8582 12.7657C14.6627 12.6021 14.5371 12.3701 14.507 12.117L14.5 12V11.5H14C13.7451 11.4997 13.5 11.4021 13.3146 11.2272C13.1293 11.0522 13.0178 10.813 13.0028 10.5586C12.9879 10.3042 13.0707 10.0536 13.2343 9.85817C13.3979 9.66271 13.6299 9.5371 13.883 9.507L14 9.5H14.5V9C14.5 8.73478 14.6054 8.48043 14.7929 8.29289C14.9804 8.10536 15.2348 8 15.5 8ZM8.5 10C8.36739 10 8.24022 10.0527 8.14645 10.1464C8.05268 10.2402 8 10.3674 8 10.5C8 10.6326 8.05268 10.7598 8.14645 10.8536C8.24022 10.9473 8.36739 11 8.5 11C8.63261 11 8.75979 10.9473 8.85356 10.8536C8.94732 10.7598 9 10.6326 9 10.5C9 10.3674 8.94732 10.2402 8.85356 10.1464C8.75979 10.0527 8.63261 10 8.5 10Z" fill="black"/>
</g>
<defs>
<clipPath id="clip0_143_752">
<rect width="24" height="24" fill="white"/>
</clipPath>
</defs>
</svg>
