<svg width="99" height="25" viewBox="0 0 99 25" fill="none" xmlns="http://www.w3.org/2000/svg">
<path d="M0.710391 18.83H3.44039V6.17H0.710391V2H10.2504L14.8404 17.45L19.4304 2H28.9104V6.17H26.2104V18.83H28.9104V23H19.6704V18.83H21.9804V6.56H21.8304L16.7904 23H12.8004L7.76039 6.56H7.64039V18.83H9.95039V23H0.710391V18.83ZM45.3253 23H30.5053V18.83H33.2653V6.17H30.5053V2H44.6053V0.53H48.7753V10.19H44.6053V6.17C44.6053 6.15 44.5953 6.14 44.5753 6.14C44.5753 6.12 44.5653 6.11 44.5453 6.11H37.4653V10.52H39.3253C39.3453 10.52 39.3553 10.52 39.3553 10.52C39.3753 10.5 39.3853 10.49 39.3853 10.49V9.2H42.4453V15.77H39.3853V14.51C39.3853 14.51 39.3753 14.51 39.3553 14.51C39.3553 14.49 39.3453 14.48 39.3253 14.48H37.4653V18.92H45.1753C45.1953 18.92 45.2053 18.92 45.2053 18.92C45.2053 18.9 45.2053 18.89 45.2053 18.89C45.2253 18.89 45.2353 18.88 45.2353 18.86V14.78H49.4953V24.68H45.3253V23ZM58.1196 8.3V18.83H61.3896V23H51.1596V18.83H53.9196V6.2L53.8896 6.17H51.0996V2H59.1696L68.0196 15.65V6.17H65.2296V2H74.6496V6.17H72.2196V23.24H67.8096L58.1196 8.3ZM87.3113 23.45C85.5313 23.45 83.9413 23.07 82.5413 22.31C81.1613 21.55 80.0713 20.49 79.2713 19.13C78.4913 17.75 78.1013 16.19 78.1013 14.45V6.17H75.5213V2H85.5713V6.17H82.5413V14.3C82.5413 15.24 82.7413 16.08 83.1413 16.82C83.5413 17.56 84.1013 18.14 84.8213 18.56C85.5413 18.96 86.3713 19.16 87.3113 19.16C88.1913 19.16 88.9713 18.96 89.6513 18.56C90.3513 18.14 90.8913 17.56 91.2713 16.82C91.6513 16.08 91.8413 15.24 91.8413 14.3V6.17H88.8113V2H98.8613V6.17H96.2813V14.45C96.2813 16.19 95.8913 17.75 95.1113 19.13C94.3513 20.49 93.2913 21.55 91.9313 22.31C90.5713 23.07 89.0313 23.45 87.3113 23.45Z" fill="black"/>
</svg>
