<svg width="37" height="37" viewBox="0 0 37 37" fill="none" xmlns="http://www.w3.org/2000/svg">
<path d="M33.3333 25.3067V8.33333C33.3333 7.44928 32.9822 6.60143 32.357 5.97631C31.7319 5.35119 30.8841 5 30 5H21.38L24.0233 2.35667L21.6667 0L17.3567 4.31L15 6.66667L17.3567 9.02333L21.6667 13.3333L24.0233 10.9767L21.38 8.33333H30V25.3067C28.888 25.6998 27.9508 26.4734 27.354 27.4908C26.7572 28.5082 26.5392 29.7037 26.7387 30.8662C26.9381 32.0287 27.5421 33.0833 28.4439 33.8435C29.3457 34.6037 30.4872 35.0207 31.6667 35.0207C32.8462 35.0207 33.9877 34.6037 34.8894 33.8435C35.7912 33.0833 36.3952 32.0287 36.5947 30.8662C36.7941 29.7037 36.5762 28.5082 35.9794 27.4908C35.3826 26.4734 34.4454 25.6998 33.3333 25.3067ZM19.31 27.6433L15 23.3333L12.6433 25.69L15.2867 28.3333H6.66668V11.36C7.7787 10.9668 8.71593 10.1932 9.31273 9.17587C9.90953 8.15851 10.1275 6.96294 9.928 5.80045C9.72855 4.63795 9.12456 3.5834 8.22278 2.82316C7.321 2.06292 6.17949 1.64595 5.00001 1.64595C3.82053 1.64595 2.67903 2.06292 1.77724 2.82316C0.875462 3.5834 0.27147 4.63795 0.0720175 5.80045C-0.127435 6.96294 0.0904959 8.15851 0.687291 9.17587C1.28409 10.1932 2.22132 10.9668 3.33334 11.36V28.3333C3.33334 29.2174 3.68453 30.0652 4.30965 30.6904C4.93478 31.3155 5.78262 31.6667 6.66668 31.6667H15.2867L12.6433 34.31L15 36.6667L19.31 32.3567L21.6667 30L19.31 27.6433Z" fill="black"/>
</svg>
