<svg width="31" height="25" viewBox="0 0 31 25" fill="none" xmlns="http://www.w3.org/2000/svg">
<path d="M7.625 3.5C7.625 4.39511 7.26942 5.25355 6.63649 5.88649C6.00355 6.51942 5.14511 6.875 4.25 6.875C3.35489 6.875 2.49645 6.51942 1.86351 5.88649C1.23058 5.25355 0.875 4.39511 0.875 3.5C0.875 2.60489 1.23058 1.74645 1.86351 1.11351C2.49645 0.480579 3.35489 0.125 4.25 0.125C5.14511 0.125 6.00355 0.480579 6.63649 1.11351C7.26942 1.74645 7.625 2.60489 7.625 3.5ZM7.625 12.5C7.625 13.3951 7.26942 14.2536 6.63649 14.8865C6.00355 15.5194 5.14511 15.875 4.25 15.875C3.35489 15.875 2.49645 15.5194 1.86351 14.8865C1.23058 14.2536 0.875 13.3951 0.875 12.5C0.875 11.6049 1.23058 10.7464 1.86351 10.1135C2.49645 9.48058 3.35489 9.125 4.25 9.125C5.14511 9.125 6.00355 9.48058 6.63649 10.1135C7.26942 10.7464 7.625 11.6049 7.625 12.5ZM7.625 21.5C7.625 22.3951 7.26942 23.2536 6.63649 23.8865C6.00355 24.5194 5.14511 24.875 4.25 24.875C3.35489 24.875 2.49645 24.5194 1.86351 23.8865C1.23058 23.2536 0.875 22.3951 0.875 21.5C0.875 20.6049 1.23058 19.7464 1.86351 19.1135C2.49645 18.4806 3.35489 18.125 4.25 18.125C5.14511 18.125 6.00355 18.4806 6.63649 19.1135C7.26942 19.7464 7.625 20.6049 7.625 21.5Z" fill="black"/>
<path fill-rule="evenodd" clip-rule="evenodd" d="M9.875 3.5C9.875 2.90326 10.1121 2.33097 10.534 1.90901C10.956 1.48705 11.5283 1.25 12.125 1.25H27.875C28.4717 1.25 29.044 1.48705 29.466 1.90901C29.8879 2.33097 30.125 2.90326 30.125 3.5C30.125 4.09674 29.8879 4.66903 29.466 5.09099C29.044 5.51295 28.4717 5.75 27.875 5.75H12.125C11.5283 5.75 10.956 5.51295 10.534 5.09099C10.1121 4.66903 9.875 4.09674 9.875 3.5ZM9.875 12.5C9.875 11.9033 10.1121 11.331 10.534 10.909C10.956 10.4871 11.5283 10.25 12.125 10.25H27.875C28.4717 10.25 29.044 10.4871 29.466 10.909C29.8879 11.331 30.125 11.9033 30.125 12.5C30.125 13.0967 29.8879 13.669 29.466 14.091C29.044 14.5129 28.4717 14.75 27.875 14.75H12.125C11.5283 14.75 10.956 14.5129 10.534 14.091C10.1121 13.669 9.875 13.0967 9.875 12.5ZM9.875 21.5C9.875 20.9033 10.1121 20.331 10.534 19.909C10.956 19.4871 11.5283 19.25 12.125 19.25H27.875C28.4717 19.25 29.044 19.4871 29.466 19.909C29.8879 20.331 30.125 20.9033 30.125 21.5C30.125 22.0967 29.8879 22.669 29.466 23.091C29.044 23.5129 28.4717 23.75 27.875 23.75H12.125C11.5283 23.75 10.956 23.5129 10.534 23.091C10.1121 22.669 9.875 22.0967 9.875 21.5Z" fill="black"/>
</svg>
