<svg width="27" height="21" viewBox="0 0 27 21" fill="none" xmlns="http://www.w3.org/2000/svg">
<path d="M27 3.3871H23.625V0H20.25V3.3871H16.875V6.77419H20.25V10.1613H23.625V6.77419H27V3.3871Z" fill="black"/>
<path d="M22.7779 10.7845C23.2639 11.3264 23.706 11.9107 24.0975 12.5306C23.0915 14.1308 21.7461 15.4886 20.1572 16.507C18.1694 17.7817 15.8597 18.459 13.5008 18.459C11.1419 18.459 8.83228 17.7817 6.8445 16.507C5.2567 15.4872 3.91156 14.1297 2.90419 12.5306C3.97641 10.8254 5.43311 9.39712 7.15669 8.36105C6.81978 9.29049 6.68976 10.2827 6.77574 11.268C6.86173 12.2532 7.16165 13.2076 7.65443 14.0642C8.1472 14.9207 8.82088 15.6585 9.62814 16.2258C10.4354 16.7931 11.3566 17.1762 12.3271 17.348C13.2977 17.5199 14.2939 17.4764 15.2459 17.2206C16.1978 16.9648 17.0824 16.5029 17.8375 15.8673C18.5926 15.2318 19.1999 14.438 19.6167 13.5417C20.0334 12.6455 20.2496 11.6685 20.25 10.6795V10.6253C18.8172 10.2532 17.5459 9.41907 16.6315 8.25114C15.7172 7.08322 15.2104 5.64619 15.1892 4.16105C14.6284 4.09718 14.0644 4.06495 13.5 4.06451C7.61231 4.06451 2.50762 7.50581 0 12.5323C2.50762 17.5587 7.61231 21 13.5 21C19.3877 21 24.4924 17.5587 27 12.5323C26.5374 11.6055 25.984 10.7273 25.3479 9.91064C24.5597 10.3753 23.6851 10.6716 22.7779 10.7845ZM10.9688 7.44992C11.3013 7.45003 11.6305 7.51587 11.9377 7.64368C12.2448 7.77148 12.5239 7.95876 12.759 8.19481C12.994 8.43086 13.1804 8.71105 13.3076 9.01941C13.4347 9.32776 13.5001 9.65822 13.5 9.99193C13.4999 10.3256 13.4343 10.6561 13.3069 10.9643C13.1796 11.2726 12.993 11.5527 12.7578 11.7886C12.5226 12.0245 12.2434 12.2115 11.9361 12.3391C11.6289 12.4667 11.2996 12.5324 10.9671 12.5323C10.2955 12.532 9.65155 12.2641 9.17685 11.7874C8.70215 11.3106 8.43559 10.6642 8.43581 9.99024C8.43604 9.31628 8.70302 8.67001 9.17804 8.19361C9.65306 7.71721 10.2972 7.44969 10.9688 7.44992Z" fill="black"/>
</svg>
