<svg width="69" height="14" viewBox="0 0 69 14" fill="none" xmlns="http://www.w3.org/2000/svg">
<path d="M4.6264 13C4.5664 13 4.4164 12.988 4.1764 12.964C3.9364 12.928 3.6424 12.892 3.2944 12.856C2.9584 12.808 2.6104 12.76 2.2504 12.712C1.8904 12.652 1.5484 12.592 1.2244 12.532C0.912398 12.472 0.672398 12.418 0.504398 12.37C0.504398 12.226 0.522398 12.1 0.558398 11.992C0.606398 11.884 0.648398 11.812 0.684398 11.776L0.954398 11.722C1.0864 11.698 1.2244 11.656 1.3684 11.596C1.5244 11.536 1.6804 11.404 1.8364 11.2C2.0044 10.984 2.1784 10.66 2.3584 10.228C2.5504 9.796 2.7544 9.196 2.9704 8.428L4.9504 1.462C5.0464 1.354 5.2084 1.222 5.4364 1.066C5.6764 0.909999 5.9404 0.753999 6.2284 0.598C6.5164 0.442 6.7924 0.31 7.0564 0.202C7.3204 0.0939995 7.5244 0.0399995 7.6684 0.0399995C7.8364 0.0399995 8.0764 0.0939995 8.3884 0.202C8.7004 0.298 9.0184 0.43 9.3424 0.598C9.6664 0.753999 9.9364 0.921999 10.1524 1.102L12.4744 11.236C12.5104 11.38 12.5644 11.488 12.6364 11.56C12.7084 11.62 12.8284 11.656 12.9964 11.668L14.1124 11.812C14.1484 11.872 14.1844 11.926 14.2204 11.974C14.2564 12.022 14.2804 12.154 14.2924 12.37C14.1964 12.466 14.0524 12.562 13.8604 12.658C13.6804 12.754 13.4824 12.838 13.2664 12.91C13.0624 12.97 12.8884 13 12.7444 13C12.6604 13 12.4684 12.982 12.1684 12.946C11.8804 12.91 11.5384 12.868 11.1424 12.82C10.7464 12.76 10.3444 12.7 9.9364 12.64C9.5404 12.568 9.1864 12.502 8.8744 12.442C8.5624 12.382 8.3524 12.328 8.2444 12.28C8.2444 12.136 8.2744 12.016 8.3344 11.92C8.3944 11.812 8.4244 11.746 8.4244 11.722L9.0184 11.704C9.1744 11.692 9.3184 11.668 9.4504 11.632C9.5944 11.584 9.6964 11.476 9.7564 11.308C9.8284 11.14 9.8164 10.87 9.7204 10.498L9.1264 7.888H4.8064L4.1044 10.372C4.0444 10.588 3.9604 10.786 3.8524 10.966C3.7564 11.146 3.6484 11.296 3.5284 11.416C3.4204 11.536 3.3124 11.608 3.2044 11.632L5.9764 11.83C5.9884 11.866 6.0184 11.938 6.0664 12.046C6.1144 12.142 6.1384 12.256 6.1384 12.388C6.0544 12.484 5.9164 12.58 5.7244 12.676C5.5324 12.772 5.3344 12.85 5.1304 12.91C4.9264 12.97 4.7584 13 4.6264 13ZM5.1124 6.7C5.7484 6.688 6.3064 6.676 6.7864 6.664C7.2784 6.64 7.6924 6.616 8.0284 6.592C8.3764 6.556 8.6404 6.52 8.8204 6.484L7.8664 2.218C7.6384 2.05 7.4044 1.918 7.1644 1.822C6.9364 1.726 6.7024 1.66 6.4624 1.624L5.1124 6.7ZM22.9448 13.018C22.6208 13.006 22.1828 12.982 21.6308 12.946C21.0908 12.91 20.5028 12.868 19.8668 12.82C19.2428 12.772 18.6248 12.724 18.0128 12.676C17.4128 12.616 16.8848 12.562 16.4288 12.514C15.9728 12.466 15.6428 12.43 15.4388 12.406C15.4388 12.286 15.4568 12.172 15.4928 12.064C15.5288 11.944 15.5648 11.86 15.6008 11.812L16.1228 11.758C16.3388 11.722 16.5068 11.644 16.6268 11.524C16.7468 11.404 16.8368 11.224 16.8968 10.984C16.9568 10.732 16.9868 10.396 16.9868 9.976V2.848C16.9868 2.476 17.0048 2.194 17.0408 2.002C17.0888 1.81 17.1428 1.672 17.2028 1.588C17.2628 1.504 17.2928 1.456 17.2928 1.444H15.6368C15.6008 1.396 15.5588 1.318 15.5108 1.21C15.4748 1.102 15.4508 0.993999 15.4388 0.885999C15.4988 0.814 15.6008 0.735999 15.7448 0.651999C15.9008 0.556 16.0508 0.478 16.1948 0.417999C16.3508 0.345999 16.4648 0.303999 16.5368 0.291999H23.6108C23.7428 0.315999 23.9348 0.381999 24.1868 0.489999C24.4388 0.585999 24.7088 0.705999 24.9968 0.85C25.2848 0.982 25.5488 1.12 25.7888 1.264C26.0288 1.396 26.1968 1.516 26.2928 1.624C26.6888 2.284 26.9588 3.004 27.1028 3.784C27.2468 4.564 27.3188 5.35 27.3188 6.142C27.3188 6.874 27.2708 7.582 27.1748 8.266C27.0788 8.938 26.9528 9.544 26.7968 10.084C26.6528 10.624 26.4968 11.05 26.3288 11.362C26.1248 11.566 25.8668 11.764 25.5548 11.956C25.2548 12.148 24.9368 12.322 24.6008 12.478C24.2768 12.622 23.9648 12.748 23.6648 12.856C23.3768 12.952 23.1368 13.006 22.9448 13.018ZM19.2188 11.632H23.5568C23.7488 11.404 23.9168 11.11 24.0608 10.75C24.2048 10.378 24.3248 9.964 24.4208 9.508C24.5168 9.052 24.5828 8.572 24.6188 8.068C24.6668 7.552 24.6908 7.042 24.6908 6.538C24.6908 6.046 24.6668 5.56 24.6188 5.08C24.5828 4.588 24.5168 4.126 24.4208 3.694C24.3248 3.25 24.1928 2.866 24.0248 2.542C23.8688 2.206 23.6828 1.948 23.4668 1.768C23.2508 1.708 22.9928 1.66 22.6928 1.624C22.3928 1.588 22.0688 1.558 21.7208 1.534C21.3728 1.51 21.0188 1.498 20.6588 1.498C20.2028 1.498 19.9028 1.612 19.7588 1.84C19.6148 2.068 19.5428 2.41 19.5428 2.866V10.444C19.5428 10.72 19.5068 10.966 19.4348 11.182C19.3628 11.386 19.2908 11.536 19.2188 11.632ZM32.6208 13C32.5248 13 32.3208 12.982 32.0088 12.946C31.6968 12.898 31.3488 12.844 30.9648 12.784C30.5808 12.712 30.2208 12.646 29.8848 12.586C29.5608 12.514 29.3328 12.454 29.2008 12.406C29.2008 12.286 29.2188 12.172 29.2548 12.064C29.2908 11.956 29.3268 11.878 29.3628 11.83L29.7948 11.758C30.0108 11.722 30.1788 11.662 30.2988 11.578C30.4308 11.494 30.5268 11.332 30.5868 11.092C30.6588 10.84 30.7068 10.468 30.7308 9.976L31.1268 2.866C31.1508 2.422 31.2048 2.086 31.2888 1.858C31.3728 1.618 31.4388 1.48 31.4868 1.444H29.7588C29.7108 1.396 29.6628 1.324 29.6148 1.228C29.5788 1.132 29.5548 1.018 29.5428 0.885999C29.6028 0.814 29.7048 0.735999 29.8488 0.651999C29.9928 0.567999 30.1428 0.496 30.2988 0.436C30.4668 0.363999 30.5868 0.327999 30.6588 0.327999H34.3488L37.4448 8.266C37.6008 7.918 37.7748 7.504 37.9668 7.024C38.1708 6.544 38.3808 6.028 38.5968 5.476C38.8128 4.912 39.0288 4.336 39.2448 3.748C39.4728 3.16 39.6828 2.572 39.8748 1.984C40.0668 1.396 40.2408 0.844 40.3968 0.327999H45.3288C45.3768 0.399999 45.4248 0.502 45.4728 0.633999C45.5328 0.765999 45.5688 0.933999 45.5808 1.138L44.8068 1.372C44.5548 1.444 44.3508 1.534 44.1948 1.642C44.0508 1.75 43.9488 1.9 43.8888 2.092C43.8408 2.284 43.8228 2.542 43.8348 2.866L44.2308 10.318C44.2548 10.678 44.2308 10.972 44.1588 11.2C44.0988 11.428 44.0328 11.566 43.9608 11.614L45.7068 11.848C45.7428 11.908 45.7728 11.986 45.7968 12.082C45.8328 12.178 45.8508 12.286 45.8508 12.406C45.6828 12.55 45.4548 12.688 45.1668 12.82C44.8788 12.94 44.6208 13 44.3928 13C44.2728 13 44.0628 12.988 43.7628 12.964C43.4748 12.928 43.1388 12.892 42.7548 12.856C42.3828 12.808 42.0048 12.76 41.6208 12.712C41.2368 12.652 40.9008 12.598 40.6128 12.55C40.3368 12.502 40.1388 12.46 40.0188 12.424C40.0188 12.304 40.0368 12.184 40.0728 12.064C40.1208 11.944 40.1628 11.86 40.1988 11.812L40.8828 11.758C41.1228 11.722 41.3088 11.674 41.4408 11.614C41.5848 11.542 41.6808 11.38 41.7288 11.128C41.7888 10.876 41.8008 10.456 41.7648 9.868L41.4228 3.982C41.3988 3.514 41.3988 3.124 41.4228 2.812C41.4468 2.488 41.4828 2.278 41.5308 2.182L41.3868 2.128L37.8408 11.254C37.6968 11.326 37.4688 11.404 37.1568 11.488C36.8448 11.572 36.5028 11.614 36.1308 11.614L33.1968 4C33.0528 3.616 32.9388 3.256 32.8548 2.92C32.7828 2.572 32.7408 2.32 32.7288 2.164H32.6208C32.6088 2.236 32.5848 2.392 32.5488 2.632C32.5248 2.86 32.5008 3.16 32.4768 3.532L32.1348 10.48C32.1228 10.744 32.0808 10.978 32.0088 11.182C31.9488 11.386 31.8888 11.524 31.8288 11.596L34.0968 11.848C34.1208 11.896 34.1448 11.968 34.1688 12.064C34.2048 12.16 34.2288 12.274 34.2408 12.406C34.1088 12.514 33.9408 12.616 33.7368 12.712C33.5448 12.796 33.3468 12.868 33.1428 12.928C32.9388 12.976 32.7648 13 32.6208 13ZM51.6781 13C51.5941 13 51.4081 12.988 51.1201 12.964C50.8441 12.928 50.5201 12.886 50.1481 12.838C49.7881 12.79 49.4221 12.742 49.0501 12.694C48.6781 12.634 48.3481 12.58 48.0601 12.532C47.7721 12.484 47.5741 12.442 47.4661 12.406C47.4661 12.298 47.4841 12.19 47.5201 12.082C47.5561 11.962 47.5921 11.878 47.6281 11.83L48.1501 11.758C48.3661 11.722 48.5341 11.644 48.6541 11.524C48.7741 11.404 48.8641 11.224 48.9241 10.984C48.9841 10.732 49.0141 10.396 49.0141 9.976V2.83C49.0141 2.302 49.0621 1.948 49.1581 1.768C49.2541 1.576 49.3141 1.468 49.3381 1.444H47.6641C47.6401 1.396 47.6041 1.324 47.5561 1.228C47.5081 1.132 47.4781 1.018 47.4661 0.885999C47.5381 0.814 47.6461 0.735999 47.7901 0.651999C47.9341 0.556 48.0841 0.478 48.2401 0.417999C48.3961 0.357999 48.5041 0.327999 48.5641 0.327999H52.9561C53.0041 0.387999 53.0521 0.489999 53.1001 0.633999C53.1601 0.765999 53.1961 0.933999 53.2081 1.138L52.4161 1.372C52.2241 1.42 52.0621 1.492 51.9301 1.588C51.8101 1.684 51.7201 1.834 51.6601 2.038C51.6001 2.242 51.5701 2.536 51.5701 2.92V10.426C51.5701 10.726 51.5341 10.984 51.4621 11.2C51.3901 11.404 51.3181 11.542 51.2461 11.614L52.9561 11.848C52.9801 11.884 53.0101 11.962 53.0461 12.082C53.0821 12.19 53.1001 12.298 53.1001 12.406C52.9201 12.562 52.6921 12.7 52.4161 12.82C52.1521 12.94 51.9061 13 51.6781 13ZM58.4117 13C58.3037 13 58.0997 12.982 57.7997 12.946C57.4997 12.898 57.1577 12.844 56.7737 12.784C56.4017 12.724 56.0477 12.664 55.7117 12.604C55.3757 12.532 55.1057 12.466 54.9017 12.406C54.9017 12.298 54.9197 12.19 54.9557 12.082C54.9917 11.962 55.0277 11.878 55.0637 11.83L55.5677 11.758C55.7837 11.722 55.9457 11.632 56.0537 11.488C56.1737 11.332 56.2577 11.11 56.3057 10.822C56.3537 10.534 56.3777 10.168 56.3777 9.724V2.812C56.3777 2.392 56.4137 2.074 56.4857 1.858C56.5577 1.63 56.6237 1.492 56.6837 1.444H55.0997C55.0637 1.396 55.0217 1.324 54.9737 1.228C54.9377 1.12 54.9137 1.006 54.9017 0.885999C54.9617 0.814 55.0637 0.735999 55.2077 0.651999C55.3637 0.567999 55.5197 0.496 55.6757 0.436C55.8317 0.363999 55.9397 0.327999 55.9997 0.327999H59.4377L65.3417 9.94C65.2937 9.688 65.2577 9.394 65.2337 9.058C65.2097 8.71 65.1977 8.212 65.1977 7.564V2.848C65.1977 2.44 65.2277 2.116 65.2877 1.876C65.3597 1.636 65.4317 1.492 65.5037 1.444H63.7037C63.6797 1.396 63.6437 1.33 63.5957 1.246C63.5477 1.15 63.5177 1.03 63.5057 0.885999C63.5657 0.814 63.6677 0.735999 63.8117 0.651999C63.9677 0.556 64.1237 0.478 64.2797 0.417999C64.4357 0.357999 64.5437 0.327999 64.6037 0.327999H67.9337C68.0057 0.399999 68.0657 0.508 68.1137 0.651999C68.1617 0.795999 68.1857 0.957999 68.1857 1.138L67.5017 1.336C67.2617 1.408 67.0757 1.492 66.9437 1.588C66.8237 1.684 66.7397 1.84 66.6917 2.056C66.6437 2.272 66.6197 2.59 66.6197 3.01V9.724C66.6197 10.396 66.6377 10.972 66.6737 11.452C66.7217 11.932 66.7697 12.244 66.8177 12.388C66.6377 12.532 66.3857 12.652 66.0617 12.748C65.7497 12.832 65.4257 12.892 65.0897 12.928C64.7657 12.964 64.4837 12.988 64.2437 13L58.8257 4.198C58.5497 3.718 58.3397 3.316 58.1957 2.992C58.0637 2.656 57.9917 2.422 57.9797 2.29H57.8717C57.8597 2.362 57.8417 2.494 57.8177 2.686C57.8057 2.878 57.7997 3.16 57.7997 3.532V10.372C57.7997 10.624 57.7697 10.864 57.7097 11.092C57.6497 11.32 57.5837 11.488 57.5117 11.596L59.8697 11.848C59.8937 11.884 59.9237 11.956 59.9597 12.064C59.9957 12.16 60.0137 12.274 60.0137 12.406C59.8817 12.514 59.7137 12.616 59.5097 12.712C59.3177 12.796 59.1197 12.868 58.9157 12.928C58.7117 12.976 58.5437 13 58.4117 13Z" fill="black"/>
</svg>
