<svg width="40" height="40" viewBox="0 0 40 40" fill="none" xmlns="http://www.w3.org/2000/svg">
<path fill-rule="evenodd" clip-rule="evenodd" d="M28.3333 6.66666C29.605 6.66666 30.6567 7.39 31.4267 8.15C32.2283 8.93833 32.9633 9.99833 33.6167 11.1667C34.9283 13.51 36.07 16.5717 36.825 19.5967C37.575 22.5983 37.99 25.7333 37.725 28.1983C37.4583 30.6733 36.1833 33.3333 33.3333 33.3333C30.8733 33.3333 28.9133 32.0667 27.31 30.7817L26.725 30.3L25.905 29.6083L25.165 28.995C23.4667 27.62 21.9583 26.6667 20 26.6667C18.0417 26.6667 16.5333 27.62 14.835 28.995L14.095 29.6083L13.275 30.3L12.6917 30.7817C11.085 32.0667 9.125 33.3333 6.66667 33.3333C3.815 33.3333 2.54 30.6733 2.275 28.1983C2.01167 25.7317 2.425 22.5983 3.175 19.5967C3.93 16.5717 5.07167 13.51 6.38334 11.165C7.03667 9.99833 7.77167 8.93833 8.57334 8.14833C9.34334 7.39 10.395 6.66666 11.6667 6.66666C12.525 6.66666 13.3633 6.87166 14.1883 7.11666L15.175 7.41833C15.34 7.46833 15.5033 7.51833 15.6667 7.56333C17.1083 7.97666 18.5833 8.33333 20 8.33333C21.4167 8.33333 22.8917 7.97666 24.3333 7.56333L25.8083 7.11833C26.6383 6.87333 27.4833 6.66666 28.3333 6.66666ZM28.3333 10C27.695 10 27.0283 10.1933 26.3817 10.405L25.6183 10.6567C25.4962 10.6964 25.3734 10.7342 25.25 10.77C23.775 11.19 21.9167 11.6667 20 11.6667C18.0833 11.6667 16.225 11.19 14.75 10.77L14.3833 10.6567L13.6183 10.405C12.9717 10.1917 12.305 10 11.6667 10C10.97 10.13 10.345 10.975 9.87334 11.7583L9.61 12.2167L9.29334 12.7933C8.15667 14.8233 7.11 17.5933 6.41 20.405C5.75167 23.0317 5.43167 25.5483 5.55334 27.4217L5.59667 27.91L5.63 28.2033L5.68 28.55C5.795 29.2183 6.04334 30 6.66667 30C8.02 30 9.15 29.3267 10.555 28.21L11.2267 27.6633L12.4933 26.6033L13.0667 26.1367C14.84 24.7317 17.0583 23.3333 20 23.3333C22.9417 23.3333 25.16 24.7333 26.9333 26.1367L27.5083 26.6033L28.775 27.6633L29.445 28.21C30.85 29.3267 31.9783 30 33.3333 30C33.9 30 34.1567 29.355 34.285 28.735L34.3483 28.3717L34.41 27.8433C34.615 25.9333 34.2983 23.235 33.5917 20.405C32.9483 17.8283 32.015 15.285 30.9883 13.315L30.39 12.215L30.1267 11.76C29.655 10.975 29.03 10.13 28.3333 10ZM14.1667 13.3333C15.2717 13.3333 16.3315 13.7723 17.1129 14.5537C17.8943 15.3351 18.3333 16.3949 18.3333 17.5C18.3333 18.6051 17.8943 19.6649 17.1129 20.4463C16.3315 21.2277 15.2717 21.6667 14.1667 21.6667C13.0616 21.6667 12.0018 21.2277 11.2204 20.4463C10.439 19.6649 10 18.6051 10 17.5C10 16.3949 10.439 15.3351 11.2204 14.5537C12.0018 13.7723 13.0616 13.3333 14.1667 13.3333ZM25.8333 13.3333C26.2416 13.3334 26.6356 13.4833 26.9406 13.7545C27.2457 14.0258 27.4406 14.3996 27.4883 14.805L27.5 15V15.8333H28.3333C28.7581 15.8338 29.1667 15.9965 29.4756 16.2881C29.7845 16.5797 29.9704 16.9783 29.9953 17.4023C30.0202 17.8264 29.8822 18.244 29.6096 18.5697C29.3369 18.8955 28.9502 19.1048 28.5283 19.155L28.3333 19.1667H27.5V20C27.4995 20.4248 27.3369 20.8334 27.0453 21.1423C26.7536 21.4512 26.3551 21.6371 25.931 21.662C25.5069 21.6868 25.0894 21.5489 24.7636 21.2762C24.4379 21.0036 24.2285 20.6168 24.1783 20.195L24.1667 20V19.1667H23.3333C22.9085 19.1662 22.4999 19.0035 22.1911 18.7119C21.8822 18.4203 21.6963 18.0217 21.6714 17.5977C21.6465 17.1736 21.7845 16.756 22.0571 16.4303C22.3298 16.1045 22.7165 15.8952 23.1383 15.845L23.3333 15.8333H24.1667V15C24.1667 14.558 24.3423 14.134 24.6548 13.8215C24.9674 13.5089 25.3913 13.3333 25.8333 13.3333ZM14.1667 16.6667C13.9457 16.6667 13.7337 16.7545 13.5774 16.9107C13.4211 17.067 13.3333 17.279 13.3333 17.5C13.3333 17.721 13.4211 17.933 13.5774 18.0893C13.7337 18.2455 13.9457 18.3333 14.1667 18.3333C14.3877 18.3333 14.5996 18.2455 14.7559 18.0893C14.9122 17.933 15 17.721 15 17.5C15 17.279 14.9122 17.067 14.7559 16.9107C14.5996 16.7545 14.3877 16.6667 14.1667 16.6667Z" fill="black"/>
</svg>
