<svg width="34" height="27" viewBox="0 0 34 27" fill="none" xmlns="http://www.w3.org/2000/svg">
<path fill-rule="evenodd" clip-rule="evenodd" d="M1.64812 1.64813C-1.11759e-07 3.29438 0 5.9475 0 11.25V15C0 20.3025 -1.11759e-07 22.9556 1.64812 24.6019C3.29437 26.25 5.9475 26.25 11.25 26.25H22.5C27.8025 26.25 30.4556 26.25 32.1019 24.6019C33.75 22.9556 33.75 20.3025 33.75 15V11.25C33.75 5.9475 33.75 3.29438 32.1019 1.64813C30.4556 3.35276e-07 27.8025 0 22.5 0H11.25C5.9475 0 3.29437 3.35276e-07 1.64812 1.64813ZM6.66562 5.94C6.25189 5.66401 5.74546 5.56368 5.25775 5.66108C4.77003 5.75848 4.34099 6.04564 4.065 6.45937C3.78901 6.87311 3.68868 7.37954 3.78608 7.86725C3.88348 8.35497 4.17064 8.78401 4.58438 9.06L14.7956 15.8663C15.4115 16.2766 16.135 16.4956 16.875 16.4956C17.615 16.4956 18.3385 16.2766 18.9544 15.8663L29.1656 9.06C29.5794 8.78401 29.8665 8.35497 29.9639 7.86725C30.0613 7.37954 29.961 6.87311 29.685 6.45937C29.409 6.04564 28.98 5.75848 28.4923 5.66108C28.0045 5.56368 27.4981 5.66401 27.0844 5.94L16.875 12.7463L6.66562 5.94Z" fill="black"/>
</svg>
