<svg width="64" height="56" viewBox="0 0 64 56" fill="none" xmlns="http://www.w3.org/2000/svg">
<path d="M21.3503 21C24.1689 21 26.8721 19.8938 28.8652 17.9246C30.8582 15.9555 31.9779 13.2848 31.9779 10.5C31.9779 7.71523 30.8582 5.04451 28.8652 3.07538C26.8721 1.10625 24.1689 0 21.3503 0C18.5316 0 15.8284 1.10625 13.8354 3.07538C11.8423 5.04451 10.7226 7.71523 10.7226 10.5C10.7226 13.2848 11.8423 15.9555 13.8354 17.9246C15.8284 19.8938 18.5316 21 21.3503 21ZM47.9194 24.5C50.2683 24.5 52.5209 23.5781 54.1818 21.9372C55.8427 20.2962 56.7758 18.0706 56.7758 15.75C56.7758 13.4294 55.8427 11.2038 54.1818 9.56282C52.5209 7.92187 50.2683 7 47.9194 7C45.5705 7 43.3179 7.92187 41.657 9.56282C39.9961 11.2038 39.063 13.4294 39.063 15.75C39.063 18.0706 39.9961 20.2962 41.657 21.9372C43.3179 23.5781 45.5705 24.5 47.9194 24.5ZM2.27361 50.498C1.57904 50.0703 1.02116 49.4572 0.664466 48.7294C0.307766 48.0017 0.166812 47.1891 0.257898 46.3855C0.910987 41.3142 3.41343 36.6522 7.29628 33.2732C11.1791 29.8941 16.1759 28.0299 21.3503 28.0299C26.5246 28.0299 31.5214 29.8941 35.4042 33.2732C39.2871 36.6522 41.7895 41.3142 42.4426 46.3855C42.6481 48.02 41.8333 49.6055 40.4234 50.4945C34.7314 54.0983 28.1107 56.0093 21.3503 56C14.589 56.011 7.96701 54.1012 2.27361 50.498ZM47.9194 49H47.5439C47.7919 47.9605 47.8556 46.8615 47.7139 45.7345C47.1085 40.9231 45.1607 36.3727 42.0884 32.592C44.0655 31.8233 46.1782 31.4528 48.3024 31.502C50.4266 31.5513 52.5193 32.0194 54.4578 32.8789C56.3963 33.7383 58.1415 34.9718 59.5907 36.5069C61.04 38.042 62.1642 39.8477 62.8973 41.818C63.1226 42.447 63.1184 43.1339 62.8855 43.7602C62.6527 44.3864 62.2058 44.9127 61.622 45.248C57.4868 47.7112 52.748 49.0087 47.9194 49Z" fill="#3D0000"/>
</svg>
