<svg width="207" height="88" viewBox="0 0 207 88" fill="none" xmlns="http://www.w3.org/2000/svg">
<g filter="url(#filter0_i_143_772)">
<path d="M73.95 62.1026L44.7152 79.0506C41.4614 80.9365 37.3162 82.2207 32.8036 82.7409C28.291 83.2612 23.6136 82.9941 19.3628 81.9734C15.112 80.9528 11.4787 79.2243 8.92215 77.0067C6.36563 74.7891 5.00073 72.1818 5 69.5145V62.1026L18.3665 23.3642C20.1517 18.1863 24.9764 13.5268 32.0197 10.1787C39.063 6.83057 47.8897 5.00055 56.9981 5H150.002C159.11 5.00055 167.937 6.83057 174.98 10.1787C182.024 13.5268 186.848 18.1863 188.634 23.3642L202 62.1026V69.5088C201.999 72.1761 200.634 74.7833 198.078 77.001C195.521 79.2186 191.888 80.947 187.637 81.9677C183.386 82.9884 178.709 83.2555 174.196 82.7352C169.684 82.215 165.539 80.9307 162.285 79.0449L133.05 62.1026H73.95Z" fill="#FF0000"/>
</g>
<path d="M73.95 62.1026L44.7152 79.0506C41.4614 80.9365 37.3162 82.2207 32.8036 82.7409C28.291 83.2612 23.6136 82.9941 19.3628 81.9734C15.112 80.9528 11.4787 79.2243 8.92215 77.0067C6.36563 74.7891 5.00073 72.1818 5 69.5145V62.1026L18.3665 23.3642C20.1517 18.1863 24.9764 13.5268 32.0197 10.1787C39.063 6.83057 47.8897 5.00055 56.9981 5H150.002C159.11 5.00055 167.937 6.83057 174.98 10.1787C182.024 13.5268 186.848 18.1863 188.634 23.3642L202 62.1026V69.5088C201.999 72.1761 200.634 74.7833 198.078 77.001C195.521 79.2186 191.888 80.947 187.637 81.9677C183.386 82.9884 178.709 83.2555 174.196 82.7352C169.684 82.215 165.539 80.9307 162.285 79.0449L133.05 62.1026H73.95Z" stroke="black" stroke-width="10" stroke-linecap="round" stroke-linejoin="round"/>
<path d="M73.95 5L83.8 16.4205H123.2L133.05 5" fill="#950101"/>
<path d="M73.95 5L83.8 16.4205H123.2L133.05 5" stroke="black" stroke-width="10" stroke-linecap="round" stroke-linejoin="round"/>
<path fill-rule="evenodd" clip-rule="evenodd" d="M74.8182 27C75.7824 27 76.5798 27.4069 77.1637 27.8344C77.7715 28.2778 78.3288 28.8741 78.8242 29.5312C79.8187 30.8494 80.6843 32.5716 81.2568 34.2731C81.8254 35.9616 82.1401 37.725 81.9392 39.1116C81.737 40.5038 80.7703 42 78.6093 42C76.7441 42 75.258 41.2875 74.0423 40.5647L73.5988 40.2938L72.977 39.9047L72.416 39.5597C71.1282 38.7862 69.9846 38.25 68.4998 38.25C67.0149 38.25 65.8713 38.7862 64.5836 39.5597L64.0225 39.9047L63.4007 40.2938L62.9584 40.5647C61.7402 41.2875 60.2541 42 58.3902 42C56.228 42 55.2613 40.5038 55.0603 39.1116C54.8607 37.7241 55.1741 35.9616 55.7427 34.2731C56.3152 32.5716 57.1808 30.8494 58.1753 29.5303C58.6707 28.8741 59.228 28.2778 59.8358 27.8334C60.4197 27.4069 61.2171 27 62.1813 27C62.8321 27 63.4677 27.1153 64.0932 27.2531L64.8413 27.4228C64.9665 27.4509 65.0903 27.4791 65.2141 27.5044C66.3072 27.7369 67.4256 27.9375 68.4998 27.9375C69.5739 27.9375 70.6923 27.7369 71.7854 27.5044L72.9037 27.2541C73.5331 27.1162 74.1738 27 74.8182 27ZM74.8182 28.875C74.3342 28.875 73.8288 28.9837 73.3385 29.1028L72.7597 29.2444C72.667 29.2667 72.5739 29.288 72.4804 29.3081C71.362 29.5444 69.953 29.8125 68.4998 29.8125C67.0465 29.8125 65.6375 29.5444 64.5191 29.3081L64.2411 29.2444L63.6611 29.1028C63.1707 28.9828 62.6653 28.875 62.1813 28.875C61.653 28.9481 61.1792 29.4234 60.8215 29.8641L60.6219 30.1219L60.3818 30.4463C59.5199 31.5881 58.7263 33.1462 58.1956 34.7278C57.6964 36.2053 57.4538 37.6209 57.546 38.6747L57.5789 38.9494L57.6042 39.1144L57.6421 39.3094C57.7293 39.6853 57.9176 40.125 58.3902 40.125C59.4163 40.125 60.2731 39.7463 61.3384 39.1181L61.8477 38.8106L62.8081 38.2144L63.2428 37.9519C64.5873 37.1616 66.2693 36.375 68.4998 36.375C70.7302 36.375 72.4122 37.1625 73.7567 37.9519L74.1927 38.2144L75.1531 38.8106L75.6611 39.1181C76.7264 39.7463 77.5819 40.125 78.6093 40.125C79.039 40.125 79.2336 39.7622 79.3309 39.4134L79.3789 39.2091L79.4257 38.9119C79.5811 37.8375 79.341 36.3197 78.8052 34.7278C78.3174 33.2784 77.6098 31.8478 76.8313 30.7397L76.3776 30.1209L76.178 29.865C75.8204 29.4234 75.3465 28.9481 74.8182 28.875ZM64.0768 30.75C64.9147 30.75 65.7183 30.9969 66.3107 31.4365C66.9032 31.876 67.2361 32.4721 67.2361 33.0938C67.2361 33.7154 66.9032 34.3115 66.3107 34.751C65.7183 35.1906 64.9147 35.4375 64.0768 35.4375C63.2389 35.4375 62.4354 35.1906 61.8429 34.751C61.2504 34.3115 60.9176 33.7154 60.9176 33.0938C60.9176 32.4721 61.2504 31.876 61.8429 31.4365C62.4354 30.9969 63.2389 30.75 64.0768 30.75ZM72.9227 30.75C73.2322 30.75 73.531 30.8343 73.7623 30.9869C73.9936 31.1395 74.1413 31.3498 74.1775 31.5778L74.1864 31.6875V32.1562H74.8182C75.1403 32.1565 75.4501 32.248 75.6843 32.412C75.9185 32.5761 76.0595 32.8003 76.0784 33.0388C76.0972 33.2773 75.9926 33.5122 75.7859 33.6955C75.5792 33.8787 75.2859 33.9965 74.9661 34.0247L74.8182 34.0312H74.1864V34.5C74.186 34.7389 74.0627 34.9688 73.8416 35.1425C73.6205 35.3163 73.3183 35.4208 72.9968 35.4348C72.6752 35.4489 72.3586 35.3712 72.1116 35.2179C71.8646 35.0645 71.7059 34.847 71.6678 34.6097L71.659 34.5V34.0312H71.0271C70.7051 34.031 70.3953 33.9395 70.1611 33.7755C69.9268 33.6114 69.7859 33.3872 69.767 33.1487C69.7481 32.9102 69.8528 32.6753 70.0595 32.492C70.2662 32.3088 70.5595 32.191 70.8793 32.1628L71.0271 32.1562H71.659V31.6875C71.659 31.4389 71.7921 31.2004 72.0291 31.0246C72.2661 30.8488 72.5875 30.75 72.9227 30.75ZM64.0768 32.625C63.9092 32.625 63.7485 32.6744 63.63 32.7623C63.5115 32.8502 63.445 32.9694 63.445 33.0938C63.445 33.2181 63.5115 33.3373 63.63 33.4252C63.7485 33.5131 63.9092 33.5625 64.0768 33.5625C64.2444 33.5625 64.4051 33.5131 64.5236 33.4252C64.6421 33.3373 64.7087 33.2181 64.7087 33.0938C64.7087 32.9694 64.6421 32.8502 64.5236 32.7623C64.4051 32.6744 64.2444 32.625 64.0768 32.625Z" fill="black"/>
<path d="M49.7991 31.3178C49.2951 30.3471 48.5951 29.6191 47.6991 29.1338C46.8031 28.6298 45.7671 28.3778 44.5911 28.3778C43.3031 28.3778 42.1551 28.6671 41.1471 29.2458C40.1391 29.8245 39.3458 30.6458 38.7671 31.7098C38.2071 32.7738 37.9271 34.0058 37.9271 35.4058C37.9271 36.8058 38.2071 38.0471 38.7671 39.1298C39.3458 40.1938 40.1391 41.0151 41.1471 41.5938C42.1551 42.1725 43.3031 42.4618 44.5911 42.4618C46.3271 42.4618 47.7364 41.9765 48.8191 41.0058C49.9018 40.0351 50.5644 38.7191 50.8071 37.0578H43.4991V34.5098H54.2231V37.0018C54.0178 38.5138 53.4764 39.9045 52.5991 41.1738C51.7404 42.4431 50.6111 43.4605 49.2111 44.2258C47.8298 44.9725 46.2898 45.3458 44.5911 45.3458C42.7618 45.3458 41.0911 44.9258 39.5791 44.0858C38.0671 43.2271 36.8631 42.0418 35.9671 40.5298C35.0898 39.0178 34.6511 37.3098 34.6511 35.4058C34.6511 33.5018 35.0898 31.7938 35.9671 30.2818C36.8631 28.7698 38.0671 27.5938 39.5791 26.7538C41.1098 25.8951 42.7804 25.4658 44.5911 25.4658C46.6631 25.4658 48.5018 25.9791 50.1071 27.0058C51.7311 28.0138 52.9071 29.4511 53.6351 31.3178H49.7991ZM99.6877 25.7178V45.1778H96.4957V31.8498L90.5597 45.1778H88.3477L82.3837 31.8498V45.1778H79.1917V25.7178H82.6357L89.4677 40.9778L96.2717 25.7178H99.6877ZM107.075 28.2938V34.0058H113.795V36.6098H107.075V42.5738H114.635V45.1778H103.883V25.6898H114.635V28.2938H107.075ZM137.572 41.2018H129.424L128.024 45.1778H124.692L131.664 25.6898H135.36L142.332 45.1778H138.972L137.572 41.2018ZM136.676 38.5978L133.512 29.5538L130.32 38.5978H136.676ZM158.972 31.5138C158.972 32.5031 158.738 33.4365 158.272 34.3138C157.805 35.1911 157.058 35.9098 156.032 36.4698C155.005 37.0111 153.689 37.2818 152.084 37.2818H148.556V45.1778H145.364V25.7178H152.084C153.577 25.7178 154.837 25.9791 155.864 26.5018C156.909 27.0058 157.684 27.6965 158.188 28.5738C158.71 29.4511 158.972 30.4311 158.972 31.5138ZM152.084 34.6778C153.297 34.6778 154.202 34.4071 154.8 33.8658C155.397 33.3058 155.696 32.5218 155.696 31.5138C155.696 29.3858 154.492 28.3218 152.084 28.3218H148.556V34.6778H152.084ZM175.624 31.5138C175.624 32.5031 175.391 33.4365 174.924 34.3138C174.457 35.1911 173.711 35.9098 172.684 36.4698C171.657 37.0111 170.341 37.2818 168.736 37.2818H165.208V45.1778H162.016V25.7178H168.736C170.229 25.7178 171.489 25.9791 172.516 26.5018C173.561 27.0058 174.336 27.6965 174.84 28.5738C175.363 29.4511 175.624 30.4311 175.624 31.5138ZM168.736 34.6778C169.949 34.6778 170.855 34.4071 171.452 33.8658C172.049 33.3058 172.348 32.5218 172.348 31.5138C172.348 29.3858 171.144 28.3218 168.736 28.3218H165.208V34.6778H168.736Z" fill="black"/>
<defs>
<filter id="filter0_i_143_772" x="0" y="0" width="207" height="92" filterUnits="userSpaceOnUse" color-interpolation-filters="sRGB">
<feFlood flood-opacity="0" result="BackgroundImageFix"/>
<feBlend mode="normal" in="SourceGraphic" in2="BackgroundImageFix" result="shape"/>
<feColorMatrix in="SourceAlpha" type="matrix" values="0 0 0 0 0 0 0 0 0 0 0 0 0 0 0 0 0 0 127 0" result="hardAlpha"/>
<feOffset dy="4"/>
<feGaussianBlur stdDeviation="2"/>
<feComposite in2="hardAlpha" operator="arithmetic" k2="-1" k3="1"/>
<feColorMatrix type="matrix" values="0 0 0 0 0 0 0 0 0 0 0 0 0 0 0 0 0 0 0.25 0"/>
<feBlend mode="normal" in2="shape" result="effect1_innerShadow_143_772"/>
</filter>
</defs>
</svg>
