<svg width="112" height="26" viewBox="0 0 112 26" fill="none" xmlns="http://www.w3.org/2000/svg">
<path d="M12.7539 24.48C10.8552 24.48 9.15921 24.0747 7.66588 23.264C6.19388 22.4533 5.03121 21.3227 4.17788 19.872C3.34588 18.4 2.92988 16.736 2.92988 14.88V6.048H0.177875V1.6H10.8979V6.048H7.66588V14.72C7.66588 15.7227 7.87921 16.6187 8.30588 17.408C8.73254 18.1973 9.32988 18.816 10.0979 19.264C10.8659 19.6907 11.7512 19.904 12.7539 19.904C13.6925 19.904 14.5245 19.6907 15.2499 19.264C15.9965 18.816 16.5725 18.1973 16.9779 17.408C17.3832 16.6187 17.5859 15.7227 17.5859 14.72V6.048H14.3539V1.6H25.0739V6.048H22.3219V14.88C22.3219 16.736 21.9059 18.4 21.0739 19.872C20.2632 21.3227 19.1325 22.4533 17.6819 23.264C16.2312 24.0747 14.5885 24.48 12.7539 24.48ZM25.8171 15.456H30.3611V15.84C30.4678 16.6507 30.8198 17.3973 31.4171 18.08C32.0358 18.7627 32.8251 19.3173 33.7851 19.744C34.7451 20.1493 35.7585 20.352 36.8251 20.352C37.5291 20.352 38.1478 20.2667 38.6811 20.096C39.2358 19.9253 39.6731 19.6693 39.9931 19.328C40.3131 18.9653 40.4731 18.5493 40.4731 18.08C40.4731 17.5467 40.2598 17.1093 39.8331 16.768C39.4065 16.4053 38.8411 16.1067 38.1371 15.872C37.4331 15.616 36.4091 15.3067 35.0651 14.944C34.9371 14.9013 34.7985 14.8587 34.6491 14.816C34.4998 14.7733 34.3611 14.7413 34.2331 14.72C34.2118 14.72 34.1905 14.72 34.1691 14.72C34.1691 14.6987 34.1585 14.688 34.1371 14.688C32.6865 14.2827 31.4065 13.8347 30.2971 13.344C29.1878 12.8533 28.2171 12.128 27.3851 11.168C26.5745 10.1867 26.1691 8.928 26.1691 7.392C26.1691 6.048 26.5105 4.90667 27.1931 3.968C27.8758 3.008 28.8038 2.29333 29.9771 1.824C31.1505 1.35467 32.4411 1.12 33.8491 1.12C34.6811 1.12 35.4705 1.20533 36.2171 1.376C36.9638 1.52533 37.6678 1.74933 38.3291 2.048C38.6918 2.24 39.0438 2.45333 39.3851 2.688C39.7478 2.90133 40.0785 3.15733 40.3771 3.456V1.184H44.7931V9.728H40.4411V9.408C40.3345 8.768 39.9825 8.128 39.3851 7.488C38.8091 6.82667 38.0625 6.29333 37.1451 5.888C36.2491 5.46133 35.2785 5.248 34.2331 5.248C33.2731 5.248 32.4945 5.45067 31.8971 5.856C31.3211 6.26133 31.0331 6.848 31.0331 7.616C31.0331 8.17067 31.2465 8.64 31.6731 9.024C32.0998 9.38667 32.6331 9.68533 33.2731 9.92C33.9345 10.1547 34.8945 10.432 36.1531 10.752C36.2811 10.7947 36.3985 10.8267 36.5051 10.848C36.6331 10.8693 36.7611 10.9013 36.8891 10.944L37.3371 11.072C39.0438 11.5413 40.4305 12 41.4971 12.448C42.5638 12.896 43.4811 13.568 44.2491 14.464C45.0171 15.36 45.4011 16.5333 45.4011 17.984C45.4011 19.392 45.0385 20.5867 44.3131 21.568C43.5878 22.528 42.6065 23.2533 41.3691 23.744C40.1531 24.2347 38.7985 24.48 37.3051 24.48C36.3878 24.48 35.5131 24.384 34.6811 24.192C33.8491 24 33.0811 23.7333 32.3771 23.392C31.9718 23.1787 31.5878 22.944 31.2251 22.688C30.8625 22.4107 30.5318 22.112 30.2331 21.792V24.192H25.8171V15.456ZM62.8126 24H47.0046V19.552H49.9486V6.048H47.0046V1.6H62.0446V0.0319996H66.4926V10.336H62.0446V6.048C62.0446 6.02667 62.034 6.016 62.0126 6.016C62.0126 5.99467 62.002 5.984 61.9806 5.984H54.4286V10.688H56.4126C56.434 10.688 56.4446 10.688 56.4446 10.688C56.466 10.6667 56.4766 10.656 56.4766 10.656V9.28H59.7406V16.288H56.4766V14.944C56.4766 14.944 56.466 14.944 56.4446 14.944C56.4446 14.9227 56.434 14.912 56.4126 14.912H54.4286V19.648H62.6526C62.674 19.648 62.6846 19.648 62.6846 19.648C62.6846 19.6267 62.6846 19.616 62.6846 19.616C62.706 19.616 62.7166 19.6053 62.7166 19.584V15.232H67.2606V25.792H62.8126V24ZM69.0359 19.552H71.9799V6.048H69.0359V1.6H81.2279C83.7239 1.6 85.6972 2.18667 87.1479 3.36C88.5985 4.53333 89.3239 6.13333 89.3239 8.16C89.3239 9.65333 88.9292 10.9227 88.1399 11.968C87.3505 13.0133 86.2519 13.76 84.8439 14.208L89.2279 19.552H91.5319V24H81.1319V19.552H83.3399L79.8519 15.168H76.6519V19.552H78.9239V24H69.0359V19.552ZM80.7479 11.616C81.8359 11.616 82.6999 11.36 83.3399 10.848C84.0012 10.3147 84.3319 9.61067 84.3319 8.736C84.3319 7.86133 84.0012 7.15733 83.3399 6.624C82.6999 6.09067 81.8359 5.824 80.7479 5.824H76.6519V11.616H80.7479ZM91.7546 15.456H96.2986V15.84C96.4053 16.6507 96.7573 17.3973 97.3546 18.08C97.9733 18.7627 98.7626 19.3173 99.7226 19.744C100.683 20.1493 101.696 20.352 102.763 20.352C103.467 20.352 104.085 20.2667 104.619 20.096C105.173 19.9253 105.611 19.6693 105.931 19.328C106.251 18.9653 106.411 18.5493 106.411 18.08C106.411 17.5467 106.197 17.1093 105.771 16.768C105.344 16.4053 104.779 16.1067 104.075 15.872C103.371 15.616 102.347 15.3067 101.003 14.944C100.875 14.9013 100.736 14.8587 100.587 14.816C100.437 14.7733 100.299 14.7413 100.171 14.72C100.149 14.72 100.128 14.72 100.107 14.72C100.107 14.6987 100.096 14.688 100.075 14.688C98.624 14.2827 97.344 13.8347 96.2346 13.344C95.1253 12.8533 94.1546 12.128 93.3226 11.168C92.512 10.1867 92.1066 8.928 92.1066 7.392C92.1066 6.048 92.448 4.90667 93.1306 3.968C93.8133 3.008 94.7413 2.29333 95.9146 1.824C97.088 1.35467 98.3786 1.12 99.7866 1.12C100.619 1.12 101.408 1.20533 102.155 1.376C102.901 1.52533 103.605 1.74933 104.267 2.048C104.629 2.24 104.981 2.45333 105.323 2.688C105.685 2.90133 106.016 3.15733 106.315 3.456V1.184H110.731V9.728H106.379V9.408C106.272 8.768 105.92 8.128 105.323 7.488C104.747 6.82667 104 6.29333 103.083 5.888C102.187 5.46133 101.216 5.248 100.171 5.248C99.2106 5.248 98.432 5.45067 97.8346 5.856C97.2586 6.26133 96.9706 6.848 96.9706 7.616C96.9706 8.17067 97.184 8.64 97.6106 9.024C98.0373 9.38667 98.5706 9.68533 99.2106 9.92C99.872 10.1547 100.832 10.432 102.091 10.752C102.219 10.7947 102.336 10.8267 102.443 10.848C102.571 10.8693 102.699 10.9013 102.827 10.944L103.275 11.072C104.981 11.5413 106.368 12 107.435 12.448C108.501 12.896 109.419 13.568 110.187 14.464C110.955 15.36 111.339 16.5333 111.339 17.984C111.339 19.392 110.976 20.5867 110.251 21.568C109.525 22.528 108.544 23.2533 107.307 23.744C106.091 24.2347 104.736 24.48 103.243 24.48C102.325 24.48 101.451 24.384 100.619 24.192C99.7866 24 99.0186 23.7333 98.3146 23.392C97.9093 23.1787 97.5253 22.944 97.1626 22.688C96.8 22.4107 96.4693 22.112 96.1706 21.792V24.192H91.7546V15.456Z" fill="black"/>
</svg>
