<svg width="250" height="23" viewBox="0 0 250 23" fill="none" xmlns="http://www.w3.org/2000/svg">
<path d="M0.781391 17.108H3.32939V5.292H0.781391V1.4H9.68539L13.9694 15.82L18.2534 1.4H27.1014V5.292H24.5814V17.108H27.1014V21H18.4774V17.108H20.6334V5.656H20.4934L15.7894 21H12.0654L7.36139 5.656H7.24939V17.108H9.40539V21H0.781391V17.108ZM32.23 17.108H35.954V13.86L29.374 5.292H27.078V1.4H36.794V5.292H34.134L38.138 10.696L42.142 5.292H39.454V1.4H49.086V5.292H46.79L40.238 13.832V17.108H43.962V21H32.23V17.108ZM65.4218 21.336C63.6858 21.336 62.0991 20.9067 60.6618 20.048C59.2245 19.1893 58.0858 17.9853 57.2458 16.436C56.4245 14.8867 56.0138 13.1413 56.0138 11.2C56.0138 9.25867 56.4245 7.51333 57.2458 5.964C58.0858 4.41467 59.2245 3.21067 60.6618 2.352C62.0991 1.49333 63.6858 1.064 65.4218 1.064C66.2991 1.064 67.1485 1.204 67.9698 1.484C68.8098 1.764 69.5285 2.16533 70.1258 2.688V0.727999H74.0178V9.38H69.9858V8.764C69.9111 8.07333 69.6685 7.448 69.2578 6.888C68.8658 6.328 68.3431 5.88933 67.6898 5.572C67.0551 5.236 66.3458 5.068 65.5618 5.068C64.5538 5.068 63.6578 5.32933 62.8738 5.852C62.0898 6.37467 61.4738 7.10267 61.0258 8.036C60.5778 8.96933 60.3538 10.024 60.3538 11.2C60.3538 12.376 60.5778 13.4307 61.0258 14.364C61.4738 15.2973 62.0898 16.0253 62.8738 16.548C63.6765 17.0707 64.5725 17.332 65.5618 17.332C66.3645 17.332 67.1018 17.1733 67.7738 16.856C68.4458 16.52 68.9871 16.072 69.3978 15.512C69.8271 14.952 70.0698 14.3267 70.1258 13.636V12.936H74.1858V21.336H70.2938V19.712C69.6965 20.2347 68.9591 20.636 68.0818 20.916C67.2231 21.196 66.3365 21.336 65.4218 21.336ZM86.3875 21.42C84.4461 21.42 82.6915 20.9813 81.1235 20.104C79.5555 19.2267 78.3235 18.0133 77.4275 16.464C76.5501 14.896 76.1115 13.1413 76.1115 11.2C76.1115 9.25867 76.5501 7.51333 77.4275 5.964C78.3235 4.396 79.5555 3.17333 81.1235 2.296C82.6915 1.41867 84.4461 0.979999 86.3875 0.979999C88.3288 0.979999 90.0835 1.41867 91.6515 2.296C93.2195 3.17333 94.4421 4.396 95.3195 5.964C96.2155 7.51333 96.6635 9.25867 96.6635 11.2C96.6635 13.1413 96.2155 14.896 95.3195 16.464C94.4421 18.0133 93.2195 19.2267 91.6515 20.104C90.0835 20.9813 88.3288 21.42 86.3875 21.42ZM86.3875 17.248C87.5261 17.248 88.5341 16.996 89.4115 16.492C90.3075 15.9693 91.0075 15.2507 91.5115 14.336C92.0155 13.4027 92.2675 12.3573 92.2675 11.2C92.2675 10.0427 92.0155 9.00667 91.5115 8.092C91.0075 7.15867 90.3075 6.44 89.4115 5.936C88.5341 5.41333 87.5261 5.152 86.3875 5.152C85.2488 5.152 84.2315 5.41333 83.3355 5.936C82.4581 6.44 81.7675 7.15867 81.2635 8.092C80.7595 9.00667 80.5075 10.0427 80.5075 11.2C80.5075 12.3573 80.7595 13.4027 81.2635 14.336C81.7675 15.2507 82.4581 15.9693 83.3355 16.492C84.2315 16.996 85.2488 17.248 86.3875 17.248ZM111.174 21H98.0978V17.108H100.674V5.292H98.0978V1.4H108.486V5.292H104.762V17.108H111.118C111.136 17.108 111.146 17.108 111.146 17.108C111.146 17.0893 111.146 17.08 111.146 17.08C111.164 17.08 111.174 17.0707 111.174 17.052V11.956H115.262V22.568H111.174V21ZM129.631 21H116.555V17.108H119.131V5.292H116.555V1.4H126.943V5.292H123.219V17.108H129.575C129.593 17.108 129.603 17.108 129.603 17.108C129.603 17.0893 129.603 17.08 129.603 17.08C129.621 17.08 129.631 17.0707 129.631 17.052V11.956H133.719V22.568H129.631V21ZM148.844 21H135.012V17.108H137.588V5.292H135.012V1.4H148.172V0.0279996H152.064V9.044H148.172V5.292C148.172 5.27333 148.163 5.264 148.144 5.264C148.144 5.24533 148.135 5.236 148.116 5.236H141.508V9.352H143.244C143.263 9.352 143.272 9.352 143.272 9.352C143.291 9.33333 143.3 9.324 143.3 9.324V8.12H146.156V14.252H143.3V13.076C143.3 13.076 143.291 13.076 143.272 13.076C143.272 13.0573 143.263 13.048 143.244 13.048H141.508V17.192H148.704C148.723 17.192 148.732 17.192 148.732 17.192C148.732 17.1733 148.732 17.164 148.732 17.164C148.751 17.164 148.76 17.1547 148.76 17.136V13.328H152.736V22.568H148.844V21ZM163.367 21.336C161.631 21.336 160.044 20.9067 158.607 20.048C157.17 19.1893 156.031 17.9853 155.191 16.436C154.37 14.8867 153.959 13.1413 153.959 11.2C153.959 9.25867 154.37 7.51333 155.191 5.964C156.031 4.41467 157.17 3.21067 158.607 2.352C160.044 1.49333 161.631 1.064 163.367 1.064C164.244 1.064 165.094 1.204 165.915 1.484C166.755 1.764 167.474 2.16533 168.071 2.688V0.727999H171.963V9.38H167.931V8.764C167.856 8.07333 167.614 7.448 167.203 6.888C166.811 6.328 166.288 5.88933 165.635 5.572C165 5.236 164.291 5.068 163.507 5.068C162.499 5.068 161.603 5.32933 160.819 5.852C160.035 6.37467 159.419 7.10267 158.971 8.036C158.523 8.96933 158.299 10.024 158.299 11.2C158.299 12.376 158.523 13.4307 158.971 14.364C159.419 15.2973 160.035 16.0253 160.819 16.548C161.622 17.0707 162.518 17.332 163.507 17.332C164.31 17.332 165.047 17.1733 165.719 16.856C166.391 16.52 166.932 16.072 167.343 15.512C167.772 14.952 168.015 14.3267 168.071 13.636V12.936H172.131V21.336H168.239V19.712C167.642 20.2347 166.904 20.636 166.027 20.916C165.168 21.196 164.282 21.336 163.367 21.336ZM177.641 17.108H181.673V5.236H177.949C177.93 5.236 177.921 5.24533 177.921 5.264C177.921 5.264 177.911 5.264 177.893 5.264C177.893 5.264 177.893 5.27333 177.893 5.292V9.352H174.001V0.0279996H177.893V1.4H189.569V0.0279996H193.461V9.352H189.569V5.292C189.569 5.27333 189.559 5.264 189.541 5.264C189.541 5.24533 189.531 5.236 189.513 5.236H185.761V17.108H189.793V21H177.641V17.108ZM194.813 17.108H197.389V5.292H194.813V1.4H204.053V5.292H201.477V17.108H204.053V21H194.813V17.108ZM215.751 21.42C213.809 21.42 212.055 20.9813 210.487 20.104C208.919 19.2267 207.687 18.0133 206.791 16.464C205.913 14.896 205.475 13.1413 205.475 11.2C205.475 9.25867 205.913 7.51333 206.791 5.964C207.687 4.396 208.919 3.17333 210.487 2.296C212.055 1.41867 213.809 0.979999 215.751 0.979999C217.692 0.979999 219.447 1.41867 221.015 2.296C222.583 3.17333 223.805 4.396 224.683 5.964C225.579 7.51333 226.027 9.25867 226.027 11.2C226.027 13.1413 225.579 14.896 224.683 16.464C223.805 18.0133 222.583 19.2267 221.015 20.104C219.447 20.9813 217.692 21.42 215.751 21.42ZM215.751 17.248C216.889 17.248 217.897 16.996 218.775 16.492C219.671 15.9693 220.371 15.2507 220.875 14.336C221.379 13.4027 221.631 12.3573 221.631 11.2C221.631 10.0427 221.379 9.00667 220.875 8.092C220.371 7.15867 219.671 6.44 218.775 5.936C217.897 5.41333 216.889 5.152 215.751 5.152C214.612 5.152 213.595 5.41333 212.699 5.936C211.821 6.44 211.131 7.15867 210.627 8.092C210.123 9.00667 209.871 10.0427 209.871 11.2C209.871 12.3573 210.123 13.4027 210.627 14.336C211.131 15.2507 211.821 15.9693 212.699 16.492C213.595 16.996 214.612 17.248 215.751 17.248ZM233.957 7.28V17.108H237.009V21H227.461V17.108H230.037V5.32L230.009 5.292H227.405V1.4H234.937L243.197 14.14V5.292H240.593V1.4H249.385V5.292H247.117V21.224H243.001L233.957 7.28Z" fill="black"/>
</svg>
