<svg width="197" height="50" viewBox="0 0 197 50" fill="none" xmlns="http://www.w3.org/2000/svg">
<path d="M88.9913 34H73.1133V29.274H76.2413V14.926H73.1133V10.2H85.7273V14.926H81.2053V29.274H88.9233C88.946 29.274 88.9573 29.274 88.9573 29.274C88.9573 29.2513 88.9573 29.24 88.9573 29.24C88.98 29.24 88.9913 29.2287 88.9913 29.206V23.018H93.9553V35.904H88.9913V34ZM107.901 34.51C105.544 34.51 103.413 33.9773 101.509 32.912C99.6054 31.8467 98.1094 30.3733 97.0214 28.492C95.9561 26.588 95.4234 24.4573 95.4234 22.1C95.4234 19.7427 95.9561 17.6233 97.0214 15.742C98.1094 13.838 99.6054 12.3533 101.509 11.288C103.413 10.2227 105.544 9.69 107.901 9.69C110.259 9.69 112.389 10.2227 114.293 11.288C116.197 12.3533 117.682 13.838 118.747 15.742C119.835 17.6233 120.379 19.7427 120.379 22.1C120.379 24.4573 119.835 26.588 118.747 28.492C117.682 30.3733 116.197 31.8467 114.293 32.912C112.389 33.9773 110.259 34.51 107.901 34.51ZM107.901 29.444C109.284 29.444 110.508 29.138 111.573 28.526C112.661 27.8913 113.511 27.0187 114.123 25.908C114.735 24.7747 115.041 23.5053 115.041 22.1C115.041 20.6947 114.735 19.4367 114.123 18.326C113.511 17.1927 112.661 16.32 111.573 15.708C110.508 15.0733 109.284 14.756 107.901 14.756C106.519 14.756 105.283 15.0733 104.195 15.708C103.13 16.32 102.291 17.1927 101.679 18.326C101.067 19.4367 100.761 20.6947 100.761 22.1C100.761 23.5053 101.067 24.7747 101.679 25.908C102.291 27.0187 103.13 27.8913 104.195 28.526C105.283 29.138 106.519 29.444 107.901 29.444ZM139.631 32.096C139.631 32.0507 139.608 32.028 139.563 32.028C139.518 32.0053 139.484 32.0053 139.461 32.028C139.257 32.2547 139.03 32.47 138.781 32.674C138.532 32.878 138.271 33.0707 137.999 33.252C137.342 33.66 136.594 33.966 135.755 34.17C134.939 34.3967 134.044 34.51 133.069 34.51C131.052 34.51 129.193 33.9887 127.493 32.946C125.816 31.8807 124.478 30.4073 123.481 28.526C122.506 26.6447 122.019 24.5027 122.019 22.1C122.019 19.6973 122.518 17.5553 123.515 15.674C124.512 13.7927 125.872 12.3307 127.595 11.288C129.318 10.2227 131.222 9.69 133.307 9.69C134.576 9.69 135.698 9.88267 136.673 10.268C137.761 10.6987 138.668 11.2993 139.393 12.07V9.384H144.119V18.7H139.461V18.292C139.348 17.6573 139.03 17.068 138.509 16.524C137.988 15.9573 137.33 15.5153 136.537 15.198C135.744 14.858 134.871 14.688 133.919 14.688C132.65 14.688 131.505 15.0053 130.485 15.64C129.488 16.2747 128.706 17.1587 128.139 18.292C127.572 19.4027 127.289 20.672 127.289 22.1C127.289 23.5507 127.572 24.8653 128.139 26.044C128.706 27.2 129.488 28.1067 130.485 28.764C131.482 29.4213 132.604 29.75 133.851 29.75C134.826 29.75 135.721 29.5687 136.537 29.206C137.376 28.8433 138.056 28.3787 138.577 27.812C139.098 27.2227 139.416 26.588 139.529 25.908V24.956H134.225V20.91H147.179V25.398H144.765V34.17H139.631V32.096ZM148.418 29.274H151.546V14.926H148.418V10.2H159.638V14.926H156.51V29.274H159.638V34H148.418V29.274ZM169.355 17.34V29.274H173.061V34H161.467V29.274H164.595V14.96L164.561 14.926H161.399V10.2H170.545L180.575 25.67V14.926H177.413V10.2H188.089V14.926H185.335V34.272H180.337L169.355 17.34Z" fill="black"/>
<path d="M26.25 17.8H24.375V16C24.375 11.0374 20.1694 7 15 7C9.83063 7 5.625 11.0374 5.625 16V17.8H3.75C2.75544 17.8 1.80161 18.1793 1.09835 18.8544C0.395088 19.5295 0 20.4452 0 21.4V39.4C0 40.3548 0.395088 41.2705 1.09835 41.9456C1.80161 42.6207 2.75544 43 3.75 43H26.25C27.2446 43 28.1984 42.6207 28.9016 41.9456C29.6049 41.2705 30 40.3548 30 39.4V21.4C30 20.4452 29.6049 19.5295 28.9016 18.8544C28.1984 18.1793 27.2446 17.8 26.25 17.8ZM9.375 16C9.375 13.0228 11.8988 10.6 15 10.6C18.1012 10.6 20.625 13.0228 20.625 16V17.8H9.375V16ZM16.875 31.7014V35.8H13.125V31.7014C12.0094 31.0786 11.25 29.9302 11.25 28.6C11.25 27.6452 11.6451 26.7295 12.3484 26.0544C13.0516 25.3793 14.0054 25 15 25C15.9946 25 16.9484 25.3793 17.6516 26.0544C18.3549 26.7295 18.75 27.6452 18.75 28.6C18.75 29.9284 17.9906 31.0768 16.875 31.7014Z" fill="black"/>
</svg>
