<svg width="72" height="23" viewBox="0 0 72 23" fill="none" xmlns="http://www.w3.org/2000/svg">
<path d="M0.935125 18.552H3.59113L8.83913 5.08L8.80713 5.048H5.67113V0.599998H17.1591L23.6231 18.552H26.3751V23H15.3031V18.552H18.4071L17.3511 15.608H9.38313L8.26313 18.552H11.6871V23H0.935125V18.552ZM16.1031 11.896L13.7351 5.304H13.1911L10.6951 11.896H16.1031ZM35.4334 0.599998C37.972 0.599998 40.2014 1.06933 42.1214 2.008C44.0627 2.92533 45.556 4.23733 46.6014 5.944C47.6467 7.62933 48.1694 9.58133 48.1694 11.8C48.1694 14.0187 47.6467 15.9813 46.6014 17.688C45.556 19.3733 44.0627 20.6853 42.1214 21.624C40.2014 22.5413 37.972 23 35.4334 23H26.4734V18.552H29.4174V5.048H26.4734V0.599998H35.4334ZM35.7854 18.552C37.3427 18.552 38.676 18.2853 39.7854 17.752C40.8947 17.1973 41.7374 16.4187 42.3134 15.416C42.9107 14.392 43.2094 13.1867 43.2094 11.8C43.2094 10.4133 42.9107 9.21867 42.3134 8.216C41.7374 7.192 40.8947 6.41333 39.7854 5.88C38.676 5.32533 37.3427 5.048 35.7854 5.048H34.0894V18.552H35.7854ZM58.7771 0.599998C61.3158 0.599998 63.5451 1.06933 65.4651 2.008C67.4065 2.92533 68.8998 4.23733 69.9451 5.944C70.9905 7.62933 71.5131 9.58133 71.5131 11.8C71.5131 14.0187 70.9905 15.9813 69.9451 17.688C68.8998 19.3733 67.4065 20.6853 65.4651 21.624C63.5451 22.5413 61.3158 23 58.7771 23H49.8171V18.552H52.7611V5.048H49.8171V0.599998H58.7771ZM59.1291 18.552C60.6865 18.552 62.0198 18.2853 63.1291 17.752C64.2385 17.1973 65.0811 16.4187 65.6571 15.416C66.2545 14.392 66.5531 13.1867 66.5531 11.8C66.5531 10.4133 66.2545 9.21867 65.6571 8.216C65.0811 7.192 64.2385 6.41333 63.1291 5.88C62.0198 5.32533 60.6865 5.048 59.1291 5.048H57.4331V18.552H59.1291Z" fill="black"/>
</svg>
