<svg width="80" height="26" viewBox="0 0 80 26" fill="none" xmlns="http://www.w3.org/2000/svg">
<path d="M16.0314 24H0.223375V19.552H3.16738V6.048H0.223375V1.6H15.2634V0.0319996H19.7114V10.336H15.2634V6.048C15.2634 6.02667 15.2527 6.016 15.2314 6.016C15.2314 5.99467 15.2207 5.984 15.1994 5.984H7.64738V10.688H9.63138C9.65271 10.688 9.66338 10.688 9.66338 10.688C9.68471 10.6667 9.69538 10.656 9.69538 10.656V9.28H12.9594V16.288H9.69538V14.944C9.69538 14.944 9.68471 14.944 9.66338 14.944C9.66338 14.9227 9.65271 14.912 9.63138 14.912H7.64738V19.648H15.8714C15.8927 19.648 15.9034 19.648 15.9034 19.648C15.9034 19.6267 15.9034 19.616 15.9034 19.616C15.9247 19.616 15.9354 19.6053 15.9354 19.584V15.232H20.4794V25.792H16.0314V24ZM31.2146 1.6C33.7533 1.6 35.9826 2.06933 37.9026 3.008C39.844 3.92533 41.3373 5.23733 42.3826 6.944C43.428 8.62933 43.9506 10.5813 43.9506 12.8C43.9506 15.0187 43.428 16.9813 42.3826 18.688C41.3373 20.3733 39.844 21.6853 37.9026 22.624C35.9826 23.5413 33.7533 24 31.2146 24H22.2546V19.552H25.1986V6.048H22.2546V1.6H31.2146ZM31.5666 19.552C33.124 19.552 34.4573 19.2853 35.5666 18.752C36.676 18.1973 37.5186 17.4187 38.0946 16.416C38.692 15.392 38.9906 14.1867 38.9906 12.8C38.9906 11.4133 38.692 10.2187 38.0946 9.216C37.5186 8.192 36.676 7.41333 35.5666 6.88C34.4573 6.32533 33.124 6.048 31.5666 6.048H29.8706V19.552H31.5666ZM45.5984 19.552H48.5424V6.048H45.5984V1.6H56.1584V6.048H53.2144V19.552H56.1584V24H45.5984V19.552ZM61.8796 19.552H66.4876V5.984H62.2316C62.2103 5.984 62.1996 5.99467 62.1996 6.016C62.1996 6.016 62.189 6.016 62.1676 6.016C62.1676 6.016 62.1676 6.02667 62.1676 6.048V10.688H57.7196V0.0319996H62.1676V1.6H75.5116V0.0319996H79.9596V10.688H75.5116V6.048C75.5116 6.02667 75.501 6.016 75.4796 6.016C75.4796 5.99467 75.469 5.984 75.4476 5.984H71.1596V19.552H75.7676V24H61.8796V19.552Z" fill="black"/>
</svg>
